<svg width="32" height="33" viewBox="0 0 32 33" fill="none" xmlns="http://www.w3.org/2000/svg">
<path fill-rule="evenodd" clip-rule="evenodd" d="M25.3545 29.4841C29.38 26.5781 32 21.8456 32 16.5012C32 7.66396 24.8366 0.5 16 0.5C7.16344 0.5 0 7.66396 0 16.5012C0 22.2027 2.98178 27.2077 7.4709 30.0417V26.1244H6.83604C6.42691 26.1244 6.09525 25.7927 6.09525 25.3836C6.09525 24.9745 6.42691 24.6428 6.83604 24.6428H25.9894C26.3985 24.6428 26.7302 24.9745 26.7302 25.3836C26.7302 25.7927 26.3985 26.1244 25.9894 26.1244H25.3545V29.4841ZM16.642 7.35762H16.1834V8.34534H14.8078V10.0067C14.3675 10.1065 13.9355 10.2475 13.5173 10.4284C12.5993 10.8255 11.7652 11.4076 11.0626 12.1413C10.36 12.8751 9.80272 13.7461 9.42249 14.7048C9.04225 15.6635 8.84655 16.691 8.84655 17.7287H23.9788C23.9788 16.691 23.7831 15.6635 23.4029 14.7048C23.0227 13.7461 22.4653 12.8751 21.7628 12.1413C21.0602 11.4076 20.2261 10.8255 19.3081 10.4284C18.8899 10.2475 18.4579 10.1066 18.0176 10.0067V8.34534H16.642V7.35762ZM8.67021 17.7287C8.26108 17.7287 7.92942 18.0604 7.92942 18.4695C7.92942 18.8787 8.26108 19.2103 8.67021 19.2103H24.1551C24.5642 19.2103 24.8959 18.8787 24.8959 18.4695C24.8959 18.0604 24.5642 17.7287 24.1551 17.7287H8.67021ZM8.21169 19.7042C7.80256 19.7042 7.4709 20.0359 7.4709 20.445C7.4709 20.8541 7.80256 21.1858 8.21169 21.1858H8.84655V24.149H10.2222V21.1858H11.5979V24.149H12.9735V21.1858H14.3492V24.149H15.7249V21.1858H17.1005V24.149H18.4762V21.1858H19.8519V24.149H21.2275V21.1858H22.6032V24.149H23.9788V21.1858H24.6137C25.0228 21.1858 25.3545 20.8541 25.3545 20.445C25.3545 20.0359 25.0228 19.7042 24.6137 19.7042H8.21169Z" fill="black"/>
<path d="M23.9788 30.3739V26.1244H22.6032V31.0804C23.0744 30.8666 23.5333 30.6307 23.9788 30.3739Z" fill="black"/>
<path d="M21.2275 31.6288V26.1244H19.8519V32.0356C20.3188 31.9202 20.7777 31.7842 21.2275 31.6288Z" fill="black"/>
<path d="M18.4762 32.3119V26.1244H17.1006V32.4651C17.5648 32.4335 18.0236 32.3822 18.4762 32.3119Z" fill="black"/>
<path d="M15.7249 32.5V26.1244H14.3493V32.4182C14.8025 32.4646 15.2613 32.4922 15.7249 32.5Z" fill="black"/>
<path d="M12.9736 32.2165V26.1244H11.5979V31.8891C12.0486 32.0178 12.5075 32.1272 12.9736 32.2165Z" fill="black"/>
<path d="M10.2222 31.4272V26.1244H8.84656V30.8179C9.29357 31.0418 9.75252 31.2453 10.2222 31.4272Z" fill="black"/>
</svg>
