<svg width="106" height="106" viewBox="0 0 106 106" fill="none" xmlns="http://www.w3.org/2000/svg">
<circle cx="52.8" cy="52.8" r="50.8683" fill="white" stroke="#1A3185" stroke-width="3.86341"/>
<line x1="51.513" y1="12.8782" x2="51.513" y2="6.43919" stroke="#1A3185" stroke-width="2.57561" stroke-linecap="round"/>
<line x1="51.513" y1="100.449" x2="51.513" y2="94.0095" stroke="#1A3185" stroke-width="2.57561" stroke-linecap="round"/>
<line x1="6.4382" y1="51.512" x2="11.5894" y2="51.512" stroke="#1A3185" stroke-width="2.57561" stroke-linecap="round"/>
<line x1="92.7214" y1="51.512" x2="99.1604" y2="51.512" stroke="#1A3185" stroke-width="2.57561" stroke-linecap="round"/>
<line x1="87.728" y1="32.9198" x2="93.0849" y2="29.5725" stroke="#1A3185" stroke-width="2.57561" stroke-linecap="round"/>
<line x1="12.0269" y1="75.0126" x2="17.3837" y2="71.6652" stroke="#1A3185" stroke-width="2.57561" stroke-linecap="round"/>
<line x1="27.7635" y1="12.7124" x2="31.8238" y2="17.5513" stroke="#1A3185" stroke-width="2.57561" stroke-linecap="round"/>
<line x1="75.66" y1="85.8208" x2="79.7203" y2="90.6597" stroke="#1A3185" stroke-width="2.57561" stroke-linecap="round"/>
<line x1="25.687" y1="90.4943" x2="29.7472" y2="85.6555" stroke="#1A3185" stroke-width="2.57561" stroke-linecap="round"/>
<line x1="73.687" y1="17.3859" x2="77.7472" y2="12.5471" stroke="#1A3185" stroke-width="2.57561" stroke-linecap="round"/>
<line x1="88.5988" y1="71.5327" x2="93.9556" y2="74.88" stroke="#1A3185" stroke-width="2.57561" stroke-linecap="round"/>
<line x1="12.1652" y1="29.4399" x2="17.522" y2="32.7872" stroke="#1A3185" stroke-width="2.57561" stroke-linecap="round"/>
<line x1="51.513" y1="51.512" x2="51.513" y2="29.6193" stroke="#1A3185" stroke-width="2.57561" stroke-linecap="round"/>
<line x1="52.7674" y1="53.3287" x2="71.0538" y2="75.1215" stroke="#1A3185" stroke-width="2.57561" stroke-linecap="round"/>
<circle cx="51.5119" cy="52.7999" r="2.57561" fill="white" stroke="#1A3185" stroke-width="2.57561"/>
</svg>
