<svg width="41" height="60" viewBox="0 0 41 60" fill="none" xmlns="http://www.w3.org/2000/svg">
<path fill-rule="evenodd" clip-rule="evenodd" d="M19.6185 0.825195C20.0413 0.825195 20.384 1.16298 20.384 1.57965V8.18113C20.384 8.59781 20.0413 8.93559 19.6185 8.93559C19.1957 8.93559 18.8529 8.59781 18.8529 8.18113V1.57965C18.8529 1.16298 19.1957 0.825195 19.6185 0.825195ZM34.9233 10.257C35.134 10.6183 35.0078 11.0795 34.6412 11.2872L30.8135 13.4562C30.447 13.6639 29.979 13.5395 29.7682 13.1782C29.5575 12.817 29.6837 12.3558 30.0503 12.1481L33.878 9.97907C34.2446 9.77137 34.7125 9.89582 34.9233 10.257ZM4.33756 10.2188C4.56976 9.87057 5.04442 9.77378 5.39776 10.0026L8.74704 12.1717C9.10038 12.4005 9.19859 12.8683 8.96639 13.2165C8.7342 13.5647 8.25953 13.6615 7.9062 13.4327L4.55691 11.2636C4.20358 11.0348 4.10537 10.567 4.33756 10.2188ZM11.2723 17.4378C10.5321 18.7961 10.1448 20.3138 10.1448 21.8556C10.1434 23.107 10.398 24.3459 10.8934 25.4982C11.3888 26.6505 12.1147 27.6926 13.028 28.5622C13.3281 28.8334 13.5712 29.1601 13.7432 29.5238L14.9448 32.2781C15.006 32.4178 15.1074 32.5368 15.2365 32.6204C15.3656 32.7039 15.5167 32.7483 15.6711 32.748C15.4617 32.748 15.2609 32.83 15.1129 32.9759C14.9648 33.1218 14.8817 33.3197 14.8817 33.526C14.8817 33.7324 14.9648 33.9303 15.1129 34.0762C15.2609 34.2221 15.4617 34.3041 15.6711 34.3041C15.4617 34.3041 15.2609 34.386 15.1129 34.532C14.9648 34.6779 14.8817 34.8758 14.8817 35.0821C14.8817 35.2885 14.9648 35.4863 15.1129 35.6323C15.2609 35.7782 15.4617 35.8601 15.6711 35.8601L16.0248 36.5557C16.1558 36.8141 16.3573 37.0315 16.6066 37.1835C16.8559 37.3355 17.1432 37.416 17.4364 37.4162H21.8006C22.0938 37.416 22.3811 37.3355 22.6304 37.1835C22.8797 37.0315 23.0811 36.8141 23.2122 36.5557L23.5659 35.8601C23.7752 35.8601 23.976 35.7782 24.1241 35.6323C24.2722 35.4863 24.3553 35.2885 24.3553 35.0821C24.3553 34.8758 24.2722 34.6779 24.1241 34.532C23.976 34.386 23.7752 34.3041 23.5659 34.3041C23.7752 34.3041 23.976 34.2221 24.1241 34.0762C24.2722 33.9303 24.3553 33.7324 24.3553 33.526C24.3553 33.3197 24.2722 33.1218 24.1241 32.9759C23.976 32.83 23.7752 32.748 23.5659 32.748C23.72 32.748 23.8708 32.7035 23.9996 32.6199C24.1284 32.5364 24.2295 32.4176 24.2906 32.2781L25.4938 29.5254C25.6422 29.1846 25.8885 28.8672 26.209 28.5622C27.3328 27.4897 28.1696 26.1596 28.6447 24.6906C29.1198 23.2217 29.2184 21.6597 28.9317 20.1441C28.645 18.6285 27.9819 17.2065 27.0016 16.0049C26.0213 14.8034 24.7544 13.8599 23.3139 13.2585C21.8734 12.6571 20.3043 12.4166 18.7465 12.5585C17.1887 12.7004 15.6909 13.2203 14.3867 14.0717C13.0825 14.9231 12.0125 16.0796 11.2723 17.4378ZM15.2055 15.4034C16.5095 14.5374 18.0461 14.075 19.6185 14.0752C21.191 14.0747 22.7279 14.5369 24.0321 15.4027C25.3363 16.2685 26.3484 17.4984 26.9387 18.9348C27.5291 20.3712 27.6707 21.9486 27.3454 23.4648C27.0202 24.981 26.2429 26.3669 25.1132 27.4449C24.698 27.8402 24.3017 28.3226 24.0459 28.9092L23.048 31.1919H16.1922L15.1927 28.9092C14.9369 28.3226 14.5406 27.8402 14.1253 27.4449C12.9957 26.367 12.2185 24.9812 11.8932 23.4651C11.5679 21.9491 11.7094 20.3718 12.2995 18.9355C12.8897 17.4992 13.9016 16.2693 15.2055 15.4034ZM8.9008 22.5629C8.90079 22.3391 8.90797 22.1157 8.92225 21.8931C6.74602 23.0344 5.26443 25.2923 5.26443 27.8913V50.9965H2.77639C1.50798 50.9965 0.479736 52.0098 0.479736 53.2598V56.1834C0.479736 58.2667 2.19348 59.9556 4.30749 59.9556H30.5276C32.6416 59.9556 34.3553 58.2667 34.3553 56.1834V34.6814H36.652C38.766 34.6814 40.4797 32.9925 40.4797 30.9091V26.3824C40.4797 23.4656 38.0803 21.1012 35.1207 21.1012H30.3293C30.4 21.6023 30.4341 22.1065 30.4318 22.6101H32.8242V33.9269V56.1834C32.8242 57.4334 31.796 58.4467 30.5276 58.4467H30.1448C28.8764 58.4467 27.8482 57.4334 27.8482 56.1834V54.7687C27.8482 52.6854 26.1344 50.9965 24.0204 50.9965H6.79553V27.8913C6.79553 26.1557 7.64507 24.6156 8.95669 23.653C8.91912 23.2915 8.90039 22.9277 8.9008 22.5629ZM34.3553 33.1725H36.652C37.9204 33.1725 38.9486 32.1591 38.9486 30.9091V26.3824C38.9486 24.299 37.2347 22.6101 35.1207 22.6101H34.3553V33.1725ZM27.0823 58.4467C26.6018 57.8163 26.3171 57.0326 26.3171 56.1834V54.7687C26.3171 53.5187 25.2888 52.5054 24.0204 52.5054H2.77639C2.35359 52.5054 2.01084 52.8432 2.01084 53.2598V56.1834C2.01084 57.4334 3.03908 58.4467 4.30749 58.4467H27.0823ZM10.2405 41.4715C9.8177 41.4715 9.47495 41.8093 9.47495 42.2259C9.47495 42.6426 9.8177 42.9804 10.2405 42.9804H28.9965C29.4193 42.9804 29.762 42.6426 29.762 42.2259C29.762 41.8093 29.4193 41.4715 28.9965 41.4715H10.2405ZM16.7477 44.8665C16.3249 44.8665 15.9821 45.2043 15.9821 45.621C15.9821 46.0377 16.3249 46.3754 16.7477 46.3754H28.9965C29.4193 46.3754 29.762 46.0377 29.762 45.621C29.762 45.2043 29.4193 44.8665 28.9965 44.8665H16.7477Z" fill="black"/>
</svg>
