<svg width="40" height="40" viewBox="0 0 40 40" fill="none" xmlns="http://www.w3.org/2000/svg">
<rect width="40" height="40" fill="#F2F2F2"/>
<path d="M-265 -1124C-265 -1125.1 -264.105 -1126 -263 -1126H7013C7014.1 -1126 7015 -1125.1 7015 -1124V2656C7015 2657.1 7014.1 2658 7013 2658H-263C-264.105 2658 -265 2657.1 -265 2656V-1124Z" fill="black" fill-opacity="0.11"/>
<g clip-path="url(#clip0_4001_29829)">
<rect width="1440" height="2653" transform="translate(-114 -350)" fill="#EAE7E7"/>
<rect x="-24" y="-90" width="1260" height="410" rx="8" fill="white"/>
<path d="M10 16H30V24H10V16Z" fill="#1A3185"/>
<path d="M16 30L16 10L24 10L24 30H16Z" fill="#1A3185"/>
</g>
<path d="M-263 -1125H7013V-1127H-263V-1125ZM7014 -1124V2656H7016V-1124H7014ZM7013 2657H-263V2659H7013V2657ZM-264 2656V-1124H-266V2656H-264ZM-263 2657C-263.552 2657 -264 2656.55 -264 2656H-266C-266 2657.66 -264.657 2659 -263 2659V2657ZM7014 2656C7014 2656.55 7013.55 2657 7013 2657V2659C7014.66 2659 7016 2657.66 7016 2656H7014ZM7013 -1125C7013.55 -1125 7014 -1124.55 7014 -1124H7016C7016 -1125.66 7014.66 -1127 7013 -1127V-1125ZM-263 -1127C-264.657 -1127 -266 -1125.66 -266 -1124H-264C-264 -1124.55 -263.552 -1125 -263 -1125V-1127Z" fill="black" fill-opacity="0.1"/>
<defs>
<clipPath id="clip0_4001_29829">
<rect width="1440" height="2653" fill="white" transform="translate(-114 -350)"/>
</clipPath>
</defs>
</svg>
