<?xml version="1.0" encoding="UTF-8" standalone="no"?>
<svg
   width="136.5547"
   height="108.88428"
   viewBox="0 0 136.5547 108.88428"
   fill="none"
   version="1.1"
   id="svg87"
   sodipodi:docname="bill-thank-you.svg"
   inkscape:version="1.2.1 (9c6d41e, 2022-07-14)"
   xmlns:inkscape="http://www.inkscape.org/namespaces/inkscape"
   xmlns:sodipodi="http://sodipodi.sourceforge.net/DTD/sodipodi-0.dtd"
   xmlns="http://www.w3.org/2000/svg"
   xmlns:svg="http://www.w3.org/2000/svg">
  <defs
     id="defs91" />
  <sodipodi:namedview
     id="namedview89"
     pagecolor="#ffffff"
     bordercolor="#000000"
     borderopacity="0.25"
     inkscape:showpageshadow="2"
     inkscape:pageopacity="0.0"
     inkscape:pagecheckerboard="0"
     inkscape:deskcolor="#d1d1d1"
     showgrid="false"
     inkscape:zoom="1.6275862"
     inkscape:cx="67.891949"
     inkscape:cy="57.754237"
     inkscape:window-width="1309"
     inkscape:window-height="456"
     inkscape:window-x="0"
     inkscape:window-y="37"
     inkscape:window-maximized="0"
     inkscape:current-layer="svg87" />
  <path
     d="m 134.3675,59.922588 c 12.347,32.3667 -30.563,20.0722 -54.0953,27.3827 -23.8755,7.417 -53.0658,31.330002 -62.0303,8.122 -3.0443,-7.882 3.4893,-16.2437 1.4482,-24.3552 C 17.5643,62.624188 0.3691,54.748988 0,37.876888 1.0448,23.544288 19.3498,-8.3144223 38.1903,2.0284877 54.9026,11.203088 40.6488,15.212288 65.3534,28.094088 c 8.7938,4.5854 10.1794,-10.8895 24.4821,-19.2427003 14.304,-8.35320001 32.185,18.7047003 44.532,51.0712003 z"
     fill="#ff8600"
     id="path2" />
  <mask
     id="path-2-inside-1_343_5610"
     fill="#ffffff">
    <path
       fill-rule="evenodd"
       clip-rule="evenodd"
       d="m 42.093,35.0011 c 0.0637,-3.8495 3.2041,-6.9506 7.0689,-6.9506 h 0.0013 49.4902 11.4426 c 3.905,0 7.07,3.1653 7.07,7.0699 v 5.7769 c 0,1.1045 -0.896,2 -2,2 h -9.443 v 58.8007 0.007 6.235 c 0,3.904 -3.165,7.07 -7.0694,7.07 H 98.018 c -0.0257,0 -0.0514,0 -0.0771,0 H 37.5457 c -4.053,0 -7.3387,-3.286 -7.3387,-7.339 v 0 -8.0724 h 11.886 z"
       id="path4" />
  </mask>
  <path
     fill-rule="evenodd"
     clip-rule="evenodd"
     d="m 26.7715,20.044388 c 0.0637,-3.8495 3.2041,-6.9506 7.0689,-6.9506 h 0.0013 49.4902 11.4426 c 3.905,0 7.07,3.1653 7.07,7.0699 v 5.7769 c 0,1.1045 -0.896,2 -2,2 h -9.443 v 58.8007 0.007 6.235 c 0,3.904 -3.165,7.070002 -7.0694,7.070002 h -0.6356 c -0.0257,0 -0.0514,0 -0.0771,0 H 22.2242 c -4.053,0 -7.3387,-3.286002 -7.3387,-7.339002 v 0 -8.0724 h 11.886 z"
     fill="#ffffff"
     id="path7" />
  <path
     d="m 42.093,35.0011 -1.9997,-0.033 -3e-4,0.0165 v 0.0165 z m 63.63,7.8962 v -2 h -2 v 2 z m 0,58.8007 2,0.005 v -0.005 z m 0,0.007 -2,-0.005 v 0.005 z m -7.705,13.305 v -2 H 98.0076 97.9972 Z M 30.207,99.5986 v -2 h -2 v 2 z m 11.886,0 v 2.0004 h 2 v -2.0004 z m 7.0689,-73.5481 c -4.9583,0 -8.9869,3.9783 -9.0686,8.9176 l 3.9994,0.0661 c 0.0457,-2.7598 2.2979,-4.9837 5.0692,-4.9837 z m 0.0013,0 h -0.0013 v 4 h 0.0013 z m 49.4902,0 H 49.1632 v 4 h 49.4902 z m 11.4426,0 H 98.6534 v 4 h 11.4426 z m 9.07,9.0699 c 0,-5.0091 -4.061,-9.0699 -9.07,-9.0699 v 4 c 2.8,0 5.07,2.2699 5.07,5.0699 z m 0,5.7769 v -5.7769 h -4 v 5.7769 z m -4,4 c 2.209,0 4,-1.7909 4,-4 h -4 v 0 z m -9.443,0 h 9.443 v -4 h -9.443 z m 2,56.8007 V 42.8973 h -4 v 58.8007 z m 0,0.011 v -0.006 l -4,-0.009 v 0.006 z m 0,6.231 v -6.235 h -4 v 6.235 z m -9.0694,9.07 c 5.0094,0 9.0694,-4.061 9.0694,-9.07 h -4 c 0,2.8 -2.269,5.07 -5.0694,5.07 z m -0.6356,0 h 0.6356 v -4 H 98.018 Z m -0.0771,0 c 0.0324,0 0.0651,0 0.0979,0 l -0.0416,-4 c -0.0185,0 -0.0373,0 -0.0563,0 z m -60.3952,0 h 60.3952 v -4 H 37.5457 Z m -9.3387,-9.339 c 0,5.158 4.1811,9.339 9.3387,9.339 v -4 c -2.9485,0 -5.3387,-2.39 -5.3387,-5.339 z m 0,0 v 0 h 4 v 0 z m 0,-8.0724 v 8.0724 h 4 v -8.0724 z m 13.886,-2 H 30.207 v 4.0004 h 11.886 z m -2,-62.5975 v 64.5975 h 4 V 35.0011 Z"
     fill="#1a3185"
     mask="url(#path-2-inside-1_343_5610)"
     id="path9"
     transform="translate(-15.3215,-14.956712)" />
  <mask
     id="path-4-inside-2_343_5610"
     fill="#ffffff">
    <path
       fill-rule="evenodd"
       clip-rule="evenodd"
       d="m 110.683,28.0505 c -3.581,0 -6.484,2.903 -6.484,6.484 v 0.5859 0.5859 7.191 h 12.968 v -7.191 -0.5859 -0.5859 c 0,-3.581 -2.903,-6.484 -6.484,-6.484 z"
       id="path11" />
  </mask>
  <path
     fill-rule="evenodd"
     clip-rule="evenodd"
     d="m 95.3615,13.093788 c -3.581,0 -6.484,2.903 -6.484,6.484 v 0.5859 0.5859 7.191 h 12.968 v -7.191 -0.5859 -0.5859 c 0,-3.581 -2.903,-6.484 -6.484,-6.484 z"
     fill="#ffffff"
     id="path14" />
  <path
     d="m 104.199,42.8973 h -2 v 2 h 2 z m 12.968,0 v 2 h 2 v -2 z m -10.968,-8.3628 c 0,-2.4764 2.008,-4.484 4.484,-4.484 v -4 c -4.685,0 -8.484,3.7984 -8.484,8.484 z m 0,0.5859 v -0.5859 h -4 v 0.5859 z m 0,0.5859 v -0.5859 h -4 v 0.5859 z m 0,7.191 v -7.191 h -4 v 7.191 z m 10.968,-2 h -12.968 v 4 h 12.968 z m -2,-5.191 v 7.191 h 4 v -7.191 z m 0,-0.5859 v 0.5859 h 4 v -0.5859 z m 0,-0.5859 v 0.5859 h 4 v -0.5859 z m -4.484,-4.484 c 2.477,0 4.484,2.0076 4.484,4.484 h 4 c 0,-4.6856 -3.798,-8.484 -8.484,-8.484 z"
     fill="#1a3185"
     mask="url(#path-4-inside-2_343_5610)"
     id="path16"
     transform="translate(-15.3215,-14.956712)" />
  <path
     d="M 27.0906,85.504288 H 78.0774"
     stroke="#1a3185"
     stroke-width="2"
     id="path18" />
  <path
     fill-rule="evenodd"
     clip-rule="evenodd"
     d="m 78.96,84.642188 h -1.5256 v 2.0001 5.218 0.854 0.855 c 0,3.581 2.9029,6.484002 6.4837,6.484002 3.5814,0 6.4834,-2.903002 6.4834,-6.484002 v -0.855 -0.854 -5.218 -2.0001 h -1.525 v 3.5581 h -0.475 v 3.66 0.854 0.855 c 0,2.476 -2.007,4.484 -4.4834,4.484 -2.4763,0 -4.4837,-2.008 -4.4837,-4.484 v -0.855 -0.854 -3.66 H 78.96 Z"
     fill="#1a3185"
     id="path20" />
  <path
     d="m 35.4812,22.575988 h 41.1912 m -41.1912,16.3785 h 41.1912"
     stroke="#1a3185"
     stroke-width="2"
     stroke-linecap="round"
     id="path22" />
  <path
     d="M 35.4812,54.040088 H 76.6724 M 38.151,44.126788 H 79.3421"
     stroke="#1a3185"
     stroke-width="2"
     stroke-linecap="round"
     id="path24" />
  <path
     d="m 35.4812,73.866988 h 29.6926 m -27.7681,-9.9133 h 29.6926 m -31.6171,5.1722 h 20.07 m 2.1994,0 h 9.3477"
     stroke="#1a3185"
     stroke-width="2"
     stroke-linecap="round"
     id="path26" />
  <line
     x1="35.719501"
     y1="28.472486"
     x2="43.635902"
     y2="28.472486"
     stroke="#1a3185"
     stroke-width="2"
     stroke-linecap="round"
     id="line28" />
  <line
     x1="47.924603"
     y1="28.472486"
     x2="77.199295"
     y2="28.472486"
     stroke="#1a3185"
     stroke-width="2"
     stroke-linecap="round"
     id="line30" />
  <line
     x1="41.821102"
     y1="33.64439"
     x2="71.095795"
     y2="33.64439"
     stroke="#1a3185"
     stroke-width="2"
     stroke-linecap="round"
     id="line32" />
  <line
     x1="40.330799"
     y1="78.745888"
     x2="60.875099"
     y2="78.745888"
     stroke="#1a3185"
     stroke-width="2"
     stroke-linecap="round"
     id="line34" />
  <line
     x1="41.821098"
     y1="49.436886"
     x2="71.095802"
     y2="49.436886"
     stroke="#1a3185"
     stroke-width="2"
     stroke-linecap="round"
     id="line36" />
  <line
     x1="35.719501"
     y1="33.64439"
     x2="36.770702"
     y2="33.64439"
     stroke="#1a3185"
     stroke-width="2"
     stroke-linecap="round"
     id="line38" />
  <line
     x1="35.719501"
     y1="78.745888"
     x2="36.770691"
     y2="78.745888"
     stroke="#1a3185"
     stroke-width="2"
     stroke-linecap="round"
     id="line40" />
  <line
     x1="35.719501"
     y1="49.436886"
     x2="36.770691"
     y2="49.436886"
     stroke="#1a3185"
     stroke-width="2"
     stroke-linecap="round"
     id="line42" />
  <line
     x1="44.1101"
     y1="59.781086"
     x2="45.161289"
     y2="59.781086"
     stroke="#1a3185"
     stroke-width="2"
     stroke-linecap="round"
     id="line44" />
  <line
     x1="74.621895"
     y1="33.64439"
     x2="78.724197"
     y2="33.64439"
     stroke="#1a3185"
     stroke-width="2"
     stroke-linecap="round"
     id="line46" />
  <line
     x1="74.621902"
     y1="78.745888"
     x2="78.724289"
     y2="78.745888"
     stroke="#1a3185"
     stroke-width="2"
     stroke-linecap="round"
     id="line48" />
  <line
     x1="74.621902"
     y1="49.436886"
     x2="78.724289"
     y2="49.436886"
     stroke="#1a3185"
     stroke-width="2"
     stroke-linecap="round"
     id="line50" />
  <line
     x1="35.719501"
     y1="59.781086"
     x2="39.821888"
     y2="59.781086"
     stroke="#1a3185"
     stroke-width="2"
     stroke-linecap="round"
     id="line52" />
  <mask
     id="path-24-outside-3_343_5610"
     maskUnits="userSpaceOnUse"
     x="74.3535"
     y="83.4827"
     width="47"
     height="41"
     fill="#000000">
    <rect
       fill="#ffffff"
       x="74.3535"
       y="83.482697"
       width="47"
       height="41"
       id="rect54" />
    <path
       fill-rule="evenodd"
       clip-rule="evenodd"
       d="m 98.2388,90.6371 -4.076,-2.1545 -12.8094,23.9494 5.0742,-1.659 1.4537,5.109 10.3575,-19.3647 10.3572,19.3647 1.454,-5.109 5.074,1.659 -12.809,-23.9494 z"
       id="path56" />
  </mask>
  <path
     fill-rule="evenodd"
     clip-rule="evenodd"
     d="m 82.9173,75.680388 -4.076,-2.1545 -12.8094,23.9494 5.0742,-1.659 1.4537,5.109002 10.3575,-19.364702 10.3572,19.364702 1.454,-5.109002 5.074,1.659 -12.809,-23.9494 z"
     fill="#ff8600"
     id="path59" />
  <path
     d="m 94.1629,88.4827 1.4019,-2.6523 -2.6393,-1.3951 -1.408,2.6325 z m 4.0759,2.1544 -1.4019,2.6523 1.4019,0.7411 1.402,-0.7411 z m -16.8853,21.7949 -2.6454,-1.415 -3.5239,6.588 7.1017,-2.322 z m 5.0741,-1.659 2.8855,-0.821 -0.8534,-3 -2.9645,0.969 z m 1.4538,5.109 -2.8855,0.821 2.0307,7.138 3.5002,-6.544 z m 10.3574,-19.3646 2.6452,-1.4149 -2.6452,-4.946 -2.6454,4.946 z m 10.3572,19.3646 -2.645,1.415 3.5,6.544 2.031,-7.138 z m 1.454,-5.109 0.932,-2.852 -2.964,-0.969 -0.853,3 z m 5.074,1.659 -0.932,2.851 7.101,2.322 -3.523,-6.588 z m -12.809,-23.9493 2.645,-1.4149 -1.408,-2.6325 -2.639,1.3951 z m -9.5541,2.6522 4.076,2.1545 2.8039,-5.3045 -4.076,-2.1545 z M 83.9989,113.847 96.8083,89.8976 91.5175,87.0678 78.7081,111.017 Z m 1.4963,-5.926 -5.0741,1.659 1.8648,5.703 5.0742,-1.659 z m 5.2717,7.14 -1.4538,-5.109 -5.7709,1.642 1.4537,5.109 z m 4.8265,-19.9585 -10.3574,19.3645 5.2908,2.83 10.3572,-19.3647 z m 0,2.8298 10.3576,19.3647 5.291,-2.83 -10.358,-19.3645 z m 15.8886,18.7707 1.454,-5.109 -5.771,-1.642 -1.454,5.109 z m -2.364,-3.079 5.074,1.659 1.865,-5.703 -5.075,-1.659 z m 8.652,-2.607 -12.81,-23.9492 -5.2906,2.8298 12.8096,23.9494 z m -16.857,-25.1866 -4.0761,2.1545 2.8039,5.3045 4.0762,-2.1545 z"
     fill="#12266f"
     mask="url(#path-24-outside-3_343_5610)"
     id="path61"
     transform="translate(-15.3215,-14.956712)" />
  <circle
     cx="83.556099"
     cy="73.844391"
     r="14.6998"
     fill="#ff8600"
     stroke="#12266f"
     stroke-width="2"
     id="circle63" />
  <circle
     cx="83.753799"
     cy="73.84449"
     r="12.2882"
     fill="#ff8600"
     stroke="#12266f"
     id="circle65" />
  <path
     fill-rule="evenodd"
     clip-rule="evenodd"
     d="m 84.8045,78.794388 c -0.5822,-0.3063 -1.2783,-0.3063 -1.861,0 l -0.3513,0.1848 c -1.4673,0.7713 -3.1821,-0.4746 -2.9019,-2.1084 l 0.0671,-0.3912 c 0.1113,-0.6488 -0.1038,-1.3108 -0.5752,-1.7703 l -0.2843,-0.2771 c -1.187,-1.1571 -0.532,-3.173 1.1085,-3.4114 l 0.3928,-0.0571 c 0.6514,-0.0946 1.2145,-0.5038 1.5059,-1.094 l 0.1756,-0.356 c 0.7337,-1.4865 2.8538,-1.4865 3.5868,0 l 0.176,0.356 c 0.291,0.5902 0.854,0.9994 1.506,1.094 l 0.393,0.0571 c 1.64,0.2384 2.295,2.2543 1.108,3.4114 l -0.284,0.2771 c -0.472,0.4595 -0.687,1.1215 -0.575,1.7703 l 0.067,0.3912 c 0.28,1.6338 -1.435,2.8797 -2.902,2.1084 z"
     fill="#12266f"
     id="path67" />
  <mask
     id="path-29-outside-4_343_5610"
     maskUnits="userSpaceOnUse"
     x="85.7266"
     y="99.5891"
     width="7"
     height="10"
     fill="#000000">
    <rect
       fill="#ffffff"
       x="85.726601"
       y="99.589104"
       width="7"
       height="10"
       id="rect69" />
    <path
       fill-rule="evenodd"
       clip-rule="evenodd"
       d="m 91.5498,100.589 -3.8232,7.647 z"
       id="path71" />
  </mask>
  <path
     fill-rule="evenodd"
     clip-rule="evenodd"
     d="m 76.2283,85.632288 -3.8232,7.647 z"
     fill="#fffcfc"
     id="path74" />
  <path
     d="m 86.8321,107.788 c -0.247,0.494 -0.0467,1.095 0.4472,1.342 0.494,0.247 1.0947,0.047 1.3417,-0.447 z m 3.8232,-7.646 -3.8232,7.646 1.7889,0.895 3.8232,-7.647 z"
     fill="#12266f"
     mask="url(#path-29-outside-4_343_5610)"
     id="path76"
     transform="translate(-15.3215,-14.956712)" />
  <mask
     id="path-31-outside-5_343_5610"
     maskUnits="userSpaceOnUse"
     x="103.754"
     y="100.886"
     width="7"
     height="10"
     fill="#000000">
    <rect
       fill="#ffffff"
       x="103.754"
       y="100.886"
       width="7"
       height="10"
       id="rect78" />
    <path
       fill-rule="evenodd"
       clip-rule="evenodd"
       d="m 105.411,102.886 3.343,5.987 z"
       id="path80" />
  </mask>
  <path
     fill-rule="evenodd"
     clip-rule="evenodd"
     d="m 90.0895,87.929288 3.343,5.987 z"
     fill="#fffcfc"
     id="path83" />
  <path
     d="m 104.538,103.374 c -0.269,-0.482 -0.097,-1.091 0.385,-1.361 0.483,-0.269 1.092,-0.096 1.361,0.386 z m 5.089,5.012 0.488,0.873 -1.747,0.975 -0.487,-0.873 z m -3.343,-5.987 3.343,5.987 -1.746,0.975 -3.343,-5.987 z"
     fill="#12266f"
     mask="url(#path-31-outside-5_343_5610)"
     id="path85"
     transform="translate(-15.3215,-14.956712)" />
</svg>
