<svg width="82" height="82" viewBox="0 0 82 82" fill="none" xmlns="http://www.w3.org/2000/svg">
<circle cx="41" cy="41" r="39.5" fill="none" stroke="white" stroke-width="3"/>
<line x1="40" y1="10" x2="40" y2="5" stroke="#white" stroke-width="2" stroke-linecap="round"/>
<line x1="40" y1="78" x2="40" y2="73" stroke="white" stroke-width="2" stroke-linecap="round"/>
<line x1="5" y1="40" x2="9" y2="40" stroke="white" stroke-width="2" stroke-linecap="round"/>
<line x1="72" y1="40" x2="77" y2="40" stroke="white" stroke-width="2" stroke-linecap="round"/>
<line x1="68.1228" y1="25.5625" x2="72.2825" y2="22.9632" stroke="white" stroke-width="2" stroke-linecap="round"/>
<line x1="9.33961" y1="58.248" x2="13.4993" y2="55.6488" stroke="white" stroke-width="2" stroke-linecap="round"/>
<line x1="21.5592" y1="9.8713" x2="24.7121" y2="13.6287" stroke="white" stroke-width="2" stroke-linecap="round"/>
<line x1="58.7506" y1="66.6408" x2="61.9035" y2="70.3983" stroke="white" stroke-width="2" stroke-linecap="round"/>
<line x1="19.9471" y1="70.2699" x2="23.0999" y2="66.5125" stroke="white" stroke-width="2" stroke-linecap="round"/>
<line x1="57.2185" y1="13.5003" x2="60.3714" y2="9.74292" stroke="white" stroke-width="2" stroke-linecap="round"/>
<line x1="68.7979" y1="55.5461" x2="72.9575" y2="58.1454" stroke="white" stroke-width="2" stroke-linecap="round"/>
<line x1="9.44633" y1="22.8606" x2="13.606" y2="25.4598" stroke="white" stroke-width="2" stroke-linecap="round"/>
<line x1="40" y1="40" x2="40" y2="23" stroke="white" stroke-width="2" stroke-linecap="round"/>
<line x1="40.9752" y1="41.4104" x2="55.1749" y2="58.3329" stroke="white" stroke-width="2" stroke-linecap="round"/>
<circle cx="40" cy="41" r="2" fill="white" stroke="white" stroke-width="2"/>
</svg>
