<svg width="1140" height="202" viewBox="0 0 1140 202" fill="none" xmlns="http://www.w3.org/2000/svg">
<path d="M1129.59 0.67688C1136.18 0.67688 1141.52 6.02015 1141.52 12.6114C1141.52 13.8511 1141.34 15.0467 1140.98 16.1708H1149.61C1156.21 16.1708 1161.55 21.5141 1161.55 28.1054C1161.55 32.7109 1158.94 36.7071 1155.12 38.6969C1159.65 40.3897 1162.88 44.7583 1162.88 49.8807C1162.88 56.4719 1157.54 61.8152 1150.94 61.8152H1067.7C1061.11 61.8152 1055.76 56.4719 1055.76 49.8807C1055.76 43.2894 1061.11 37.9461 1067.7 37.9461H1071.28C1068.15 35.7946 1066.1 32.1896 1066.1 28.1054C1066.1 26.8657 1066.29 25.6701 1066.64 24.5459H1058.4C1051.81 24.5459 1046.46 19.2027 1046.46 12.6114C1046.46 6.02015 1051.81 0.67688 1058.4 0.67688H1129.59Z" fill="#FFFCFC"/>
<path d="M392.335 39.1222C392.335 32.5309 397.678 27.1876 404.269 27.1876H475.46C482.051 27.1876 487.395 32.5309 487.395 39.1222C487.395 44.6248 483.671 49.2577 478.605 50.6379H467.713C463.319 50.6379 459.757 54.2001 459.757 58.5942C459.757 62.9884 463.319 66.5506 467.713 66.5506H472.915C476.044 68.7021 478.095 72.3072 478.095 76.3914C478.095 82.9827 472.752 88.3259 466.161 88.3259H382.915C376.324 88.3259 370.98 82.9827 370.98 76.3914C370.98 72.0913 373.255 68.3223 376.666 66.2217C377.386 66.4357 378.148 66.5506 378.937 66.5506H419.138C423.532 66.5506 427.094 62.9884 427.094 58.5942C427.094 54.2001 423.532 50.6379 419.138 50.6379H401.124C396.059 49.2577 392.335 44.6248 392.335 39.1222Z" fill="#FFFCFC"/>
<path d="M-49.0336 152.186C-49.0336 145.595 -43.6903 140.252 -37.0991 140.252H34.0918C40.6831 140.252 46.0264 145.595 46.0264 152.186C46.0264 157.689 42.3024 162.322 37.2373 163.702H26.3453C21.9511 163.702 18.389 167.264 18.389 171.658C18.389 176.052 21.9511 179.615 26.3453 179.615H31.5465C34.6754 181.766 36.727 185.371 36.727 189.455C36.727 196.047 31.3837 201.39 24.7925 201.39H-58.4532C-65.0444 201.39 -70.3877 196.047 -70.3877 189.455C-70.3877 185.155 -68.1134 181.386 -64.7021 179.286C-63.9824 179.5 -63.2201 179.615 -62.4309 179.615H-22.2303C-17.8362 179.615 -14.274 176.052 -14.274 171.658C-14.274 167.264 -17.8361 163.702 -22.2303 163.702H-40.2445C-45.3097 162.322 -49.0336 157.689 -49.0336 152.186Z" fill="#FFFCFC"/>
</svg>
