<?xml version="1.0" encoding="UTF-8" standalone="no"?>
<svg
   viewBox="0 0 496 496"
   version="1.1"
   id="svg4"
   sodipodi:docname="times-circle-solid.svg"
   inkscape:version="1.2.1 (9c6d41e, 2022-07-14)"
   width="496"
   height="496"
   xmlns:inkscape="http://www.inkscape.org/namespaces/inkscape"
   xmlns:sodipodi="http://sodipodi.sourceforge.net/DTD/sodipodi-0.dtd"
   xmlns="http://www.w3.org/2000/svg"
   xmlns:svg="http://www.w3.org/2000/svg">
  <defs
     id="defs8" />
  <sodipodi:namedview
     id="namedview6"
     pagecolor="#ffffff"
     bordercolor="#000000"
     borderopacity="0.25"
     inkscape:showpageshadow="2"
     inkscape:pageopacity="0.0"
     inkscape:pagecheckerboard="0"
     inkscape:deskcolor="#d1d1d1"
     showgrid="false"
     inkscape:zoom="0.4609375"
     inkscape:cx="155.11864"
     inkscape:cy="247.32203"
     inkscape:window-width="1309"
     inkscape:window-height="456"
     inkscape:window-x="612"
     inkscape:window-y="662"
     inkscape:window-maximized="0"
     inkscape:current-layer="svg4" />
  <rect
     style="fill:#ffffff;fill-opacity:1"
     id="rect1626"
     width="323.25424"
     height="308.06781"
     x="89.627121"
     y="91.796608" />
  <!-- Font Awesome Pro 5.15.4 by @fontawesome - https://fontawesome.com License - https://fontawesome.com/license (Commercial License) -->
  <path
     d="M 248,0 C 111,0 0,111 0,248 0,385 111,496 248,496 385,496 496,385 496,248 496,111 385,0 248,0 Z m 121.6,313.1 c 4.7,4.7 4.7,12.3 0,17 L 330,369.6 c -4.7,4.7 -12.3,4.7 -17,0 L 248,304 182.9,369.6 c -4.7,4.7 -12.3,4.7 -17,0 L 126.4,330 c -4.7,-4.7 -4.7,-12.3 0,-17 L 192,248 126.4,182.9 c -4.7,-4.7 -4.7,-12.3 0,-17 L 166,126.3 c 4.7,-4.7 12.3,-4.7 17,0 l 65,65.7 65.1,-65.6 c 4.7,-4.7 12.3,-4.7 17,0 l 39.6,39.6 c 4.7,4.7 4.7,12.3 0,17 L 304,248 Z"
     id="path2"
     style="fill:#a92929;fill-opacity:1" />
</svg>
