<svg width="202" height="123" viewBox="0 0 202 123" fill="none" xmlns="http://www.w3.org/2000/svg">
<path d="M46.505 115.84C-13.495 115.04 18.1717 56.8405 41.505 27.8405C55.9879 9.84034 79.4889 11.6228 94 27.8409C111 46.8407 120.506 27.8405 147.506 27.8405C186.506 16.8402 204.106 68.8405 174.506 88.8405C144.906 108.84 138 92.6456 117 103.602C94 115.602 106.505 116.64 46.505 115.84Z" fill="#FF8600"/>
<mask id="path-2-inside-1_53_1197" fill="white">
<path fill-rule="evenodd" clip-rule="evenodd" d="M71.2081 32.8262C71.2661 29.5986 73.9006 27 77.1421 27H77.1434H125.065H136.065C139.342 27 141.999 29.6572 141.999 32.935V37.4634C141.999 38.568 141.104 39.4634 139.999 39.4634H131V87.5366L131 88.504L131 94.065C131 97.3428 128.343 100 125.065 100H124.647L124.601 100H66.1904C62.7715 100 60 97.2286 60 93.8098V87.0004H71.2081V32.8262Z"/>
</mask>
<path fill-rule="evenodd" clip-rule="evenodd" d="M71.2081 32.8262C71.2661 29.5986 73.9006 27 77.1421 27H77.1434H125.065H136.065C139.342 27 141.999 29.6572 141.999 32.935V37.4634C141.999 38.568 141.104 39.4634 139.999 39.4634H131V87.5366L131 88.504L131 94.065C131 97.3428 128.343 100 125.065 100H124.647L124.601 100H66.1904C62.7715 100 60 97.2286 60 93.8098V87.0004H71.2081V32.8262Z" fill="white"/>
<path d="M71.2081 32.8262L69.2084 32.7903L69.2081 32.8082V32.8262H71.2081ZM131 39.4634V37.4634H129V39.4634H131ZM131 87.5366L133 87.5366V87.5366H131ZM131 88.504L129 88.504V88.504L131 88.504ZM131 94.065H133H131ZM124.647 100V98L124.639 98L124.647 100ZM124.601 100V102L124.608 102L124.601 100ZM60 87.0004V85.0004H58V87.0004H60ZM71.2081 87.0004V89.0004H73.2081V87.0004H71.2081ZM77.1421 25C72.8081 25 69.286 28.4742 69.2084 32.7903L73.2078 32.8621C73.2462 30.7229 74.9931 29 77.1421 29V25ZM77.1434 25H77.1421V29H77.1434V25ZM125.065 25H77.1434V29H125.065V25ZM136.065 25H125.065V29H136.065V25ZM143.999 32.935C143.999 28.5526 140.447 25 136.065 25V29C138.238 29 139.999 30.7617 139.999 32.935H143.999ZM143.999 37.4634V32.935H139.999V37.4634H143.999ZM139.999 41.4634C142.209 41.4634 143.999 39.6725 143.999 37.4634H139.999L139.999 37.4634V41.4634ZM131 41.4634H139.999V37.4634H131V41.4634ZM133 87.5366V39.4634H129V87.5366H133ZM133 88.504L133 87.5366L129 87.5366L129 88.504L133 88.504ZM133 94.065L133 88.504L129 88.504L129 94.065H133ZM125.065 102C129.447 102 133 98.4474 133 94.065H129C129 96.2383 127.238 98 125.065 98V102ZM124.647 102H125.065V98H124.647V102ZM124.608 102L124.654 102L124.639 98L124.593 98.0002L124.608 102ZM66.1904 102H124.601V98.0002H66.1904V102ZM58 93.8098C58 98.3332 61.667 102 66.1904 102V98.0002C63.8761 98.0002 62 96.1241 62 93.8098H58ZM58 87.0004V93.8098H62V87.0004H58ZM71.2081 85.0004H60V89.0004H71.2081V85.0004ZM69.2081 32.8262V87.0004H73.2081V32.8262H69.2081Z" fill="#1A3185" mask="url(#path-2-inside-1_53_1197)"/>
<path d="M72 88H120.079" stroke="#1A3185" stroke-width="2"/>
<path fill-rule="evenodd" clip-rule="evenodd" d="M121 87.0629H120.982H118.982V89.0629V93.8393V93.8395C118.982 97.2162 121.72 99.9999 125.096 99.9999C128.473 99.9999 131.21 97.2162 131.21 93.8395V93.8393V89.0629V87.0629H130V89.9999H129.21V93.8393V93.8393V93.8393V93.8393V93.8393V93.8393V93.8393V93.8393V93.8393V93.8393V93.8393V93.8394V93.8394V93.8394V93.8394V93.8394V93.8394V93.8394V93.8394V93.8394V93.8394V93.8394V93.8394V93.8394V93.8394V93.8395V93.8395V93.8395V93.8395V93.8395V93.8395C129.21 96.1313 127.349 97.9999 125.096 97.9999C122.844 97.9999 120.982 96.1313 120.982 93.8395V93.8395V93.8395V93.8395V93.8395V93.8395V93.8395V93.8395V93.8395V93.8395V93.8394V93.8394V93.8394V93.8394V93.8394V93.8394V93.8394V93.8394V93.8394V93.8394V93.8394V93.8394V93.8394V93.8394V93.8394V93.8394V93.8394V93.8394V93.8394V93.8394V93.8394V93.8394V93.8394V93.8394V93.8394V93.8394V93.8393V93.8393V93.8393V93.8393V93.8393V93.8393V93.8393V93.8393V93.8393V93.8393V93.8393V93.8393V93.8393V93.8393V93.8393V93.8393V93.8393V93.8393V93.8393V93.8393V93.8393V89.0629H121V87.0629Z" fill="#1A3185"/>
<mask id="path-6-inside-2_53_1197" fill="white">
<path fill-rule="evenodd" clip-rule="evenodd" d="M134.935 27C131.657 27 129 29.6572 129 32.935V39.4634H142V32.935C142 29.6572 139.343 27 136.065 27H134.935Z"/>
</mask>
<path fill-rule="evenodd" clip-rule="evenodd" d="M134.935 27C131.657 27 129 29.6572 129 32.935V39.4634H142V32.935C142 29.6572 139.343 27 136.065 27H134.935Z" fill="white"/>
<path d="M129 39.4634H127V41.4634H129V39.4634ZM142 39.4634V41.4634H144V39.4634H142ZM131 32.935C131 30.7617 132.762 29 134.935 29V25C130.553 25 127 28.5526 127 32.935H131ZM131 39.4634V32.935H127V39.4634H131ZM142 37.4634H129V41.4634H142V37.4634ZM140 32.935V39.4634H144V32.935H140ZM136.065 29C138.238 29 140 30.7617 140 32.935H144C144 28.5526 140.447 25 136.065 25V29ZM134.935 29H136.065V25H134.935V29Z" fill="#1A3185" mask="url(#path-6-inside-2_53_1197)"/>
<path d="M79.4209 34.9601H118.263M79.4209 48.7094H118.263" stroke="#1A3185" stroke-width="2" stroke-linecap="round"/>
<path d="M79.4209 61.3733H118.263M81.9384 53.0513H120.78" stroke="#1A3185" stroke-width="2" stroke-linecap="round"/>
<path d="M79.4209 78.0172H118.263M81.9384 69.6953H120.78M79.4209 74.0371H105.675M108.552 74.0371H120.78" stroke="#1A3185" stroke-width="2" stroke-linecap="round"/>
<line x1="79.7017" y1="39.7493" x2="87.0525" y2="39.7493" stroke="#1A3185" stroke-width="2" stroke-linecap="round"/>
<line x1="91.2104" y1="39.7493" x2="118.702" y2="39.7493" stroke="#1A3185" stroke-width="2" stroke-linecap="round"/>
<line x1="85.4561" y1="44.0912" x2="112.947" y2="44.0912" stroke="#1A3185" stroke-width="2" stroke-linecap="round"/>
<line x1="1" y1="-1" x2="28.4911" y2="-1" transform="matrix(1 0 0 -1 84.4561 81.2737)" stroke="#1A3185" stroke-width="2" stroke-linecap="round"/>
<line x1="1" y1="-1" x2="28.4911" y2="-1" transform="matrix(1 0 0 -1 84.4561 56.6696)" stroke="#1A3185" stroke-width="2" stroke-linecap="round"/>
<line x1="79.7017" y1="44.0912" x2="80.5788" y2="44.0912" stroke="#1A3185" stroke-width="2" stroke-linecap="round"/>
<line x1="1" y1="-1" x2="1.87718" y2="-1" transform="matrix(1 0 0 -1 78.7017 81.2737)" stroke="#1A3185" stroke-width="2" stroke-linecap="round"/>
<line x1="1" y1="-1" x2="1.87718" y2="-1" transform="matrix(1 0 0 -1 78.7017 56.6696)" stroke="#1A3185" stroke-width="2" stroke-linecap="round"/>
<line x1="1" y1="-1" x2="1.87718" y2="-1" transform="matrix(1 0 0 -1 86.614 65.3534)" stroke="#1A3185" stroke-width="2" stroke-linecap="round"/>
<line x1="116.386" y1="44.0912" x2="120.14" y2="44.0912" stroke="#1A3185" stroke-width="2" stroke-linecap="round"/>
<line x1="1" y1="-1" x2="4.75436" y2="-1" transform="matrix(1 0 0 -1 115.386 81.2737)" stroke="#1A3185" stroke-width="2" stroke-linecap="round"/>
<line x1="1" y1="-1" x2="4.75436" y2="-1" transform="matrix(1 0 0 -1 115.386 56.6696)" stroke="#1A3185" stroke-width="2" stroke-linecap="round"/>
<line x1="1" y1="-1" x2="4.75436" y2="-1" transform="matrix(1 0 0 -1 78.7017 65.3534)" stroke="#1A3185" stroke-width="2" stroke-linecap="round"/>
<path d="M37.0834 17.3996C37.3041 17.9059 37.8934 18.1374 38.3997 17.9167L46.6499 14.3205C47.1562 14.0998 47.3877 13.5105 47.1671 13.0042C46.9464 12.4979 46.3571 12.2664 45.8508 12.4871L38.5172 15.6837L35.3206 8.35013C35.0999 7.84385 34.5106 7.61233 34.0043 7.83301C33.498 8.05369 33.2665 8.64301 33.4872 9.14928L37.0834 17.3996ZM63.0002 4.99983L63.1022 4.00505L63.0002 4.99983ZM38.0001 17C38.9308 17.3657 38.9306 17.3662 38.9304 17.3666C38.9304 17.3667 38.9302 17.3671 38.9302 17.3673C38.93 17.3676 38.93 17.3678 38.93 17.3677C38.9301 17.3675 38.9305 17.3666 38.9312 17.3647C38.9327 17.3611 38.9355 17.3543 38.9396 17.3442C38.948 17.3241 38.9619 17.2915 38.9814 17.2471C39.0206 17.1583 39.0828 17.0227 39.1698 16.8477C39.3441 16.4975 39.6176 15.9901 40.0063 15.3829C40.7845 14.1676 42.0193 12.56 43.8364 11.0109C47.4463 7.93362 53.4266 5.02319 62.8981 5.99461L63.1022 4.00505C53.0738 2.97651 46.554 6.06617 42.5389 9.48892C40.5435 11.1899 39.1845 12.9574 38.322 14.3045C37.8904 14.9786 37.5819 15.5494 37.3791 15.957C37.2777 16.1608 37.2027 16.3241 37.1518 16.4395C37.1263 16.4971 37.1069 16.5428 37.0932 16.5756C37.0864 16.592 37.081 16.6051 37.0771 16.615C37.0751 16.6199 37.0734 16.624 37.0722 16.6272C37.0715 16.6288 37.0709 16.6302 37.0705 16.6314C37.0702 16.632 37.07 16.6327 37.0698 16.633C37.0696 16.6337 37.0693 16.6343 38.0001 17ZM62.8981 5.99461C72.3837 6.96747 78.0329 10.9642 81.3145 14.6636C82.9628 16.5218 84.0245 18.3177 84.6719 19.6423C84.9955 20.3043 85.2148 20.847 85.3517 21.2188C85.4201 21.4046 85.4679 21.5475 85.4977 21.6409C85.5126 21.6876 85.5231 21.722 85.5293 21.7431C85.5325 21.7537 85.5346 21.761 85.5357 21.7648C85.5362 21.7668 85.5365 21.7678 85.5366 21.768C85.5366 21.7682 85.5366 21.7681 85.5365 21.7677C85.5365 21.7676 85.5363 21.7672 85.5363 21.7671C85.5362 21.7666 85.536 21.7661 86.5 21.5002C87.464 21.2343 87.4639 21.2336 87.4637 21.2329C87.4636 21.2326 87.4634 21.2319 87.4632 21.2313C87.4629 21.2301 87.4625 21.2287 87.462 21.227C87.4611 21.2237 87.4599 21.2195 87.4585 21.2145C87.4556 21.2044 87.4516 21.1908 87.4466 21.1739C87.4366 21.1401 87.4222 21.0927 87.403 21.0327C87.3647 20.9128 87.3075 20.7422 87.2285 20.5276C87.0705 20.0986 86.825 19.4928 86.4688 18.7641C85.7569 17.3075 84.5998 15.3533 82.8107 13.3364C79.2173 9.28558 73.1165 5.03214 63.1022 4.00505L62.8981 5.99461Z" fill="#1A3185"/>
<path d="M171.385 17.1995C171.164 17.7058 170.575 17.9373 170.068 17.7166L161.818 14.1204C161.312 13.8997 161.08 13.3104 161.301 12.8041C161.522 12.2979 162.111 12.0663 162.617 12.287L169.951 15.4836L173.147 8.15006C173.368 7.64378 173.957 7.41225 174.464 7.63294C174.97 7.85362 175.202 8.44293 174.981 8.94921L171.385 17.1995ZM145.468 4.79975L145.366 3.80497L145.468 4.79975ZM170.468 16.7999C169.537 17.1656 169.537 17.1661 169.538 17.1666C169.538 17.1667 169.538 17.1671 169.538 17.1672C169.538 17.1676 169.538 17.1677 169.538 17.1676C169.538 17.1675 169.538 17.1665 169.537 17.1647C169.535 17.1611 169.533 17.1542 169.528 17.1441C169.52 17.1241 169.506 17.0914 169.487 17.047C169.447 16.9582 169.385 16.8227 169.298 16.6476C169.124 16.2974 168.85 15.79 168.462 15.1829C167.684 13.9675 166.449 12.3599 164.632 10.8109C161.022 7.73355 155.041 4.82312 145.57 5.79454L145.366 3.80497C155.394 2.77644 161.914 5.8661 165.929 9.28884C167.925 10.9899 169.284 12.7573 170.146 14.1045C170.578 14.7785 170.886 15.3493 171.089 15.7569C171.19 15.9608 171.265 16.1241 171.316 16.2394C171.342 16.297 171.361 16.3427 171.375 16.3755C171.382 16.3919 171.387 16.4051 171.391 16.4149C171.393 16.4198 171.395 16.4239 171.396 16.4271C171.397 16.4287 171.397 16.4301 171.398 16.4313C171.398 16.4319 171.398 16.4327 171.398 16.433C171.398 16.4336 171.399 16.4343 170.468 16.7999ZM145.57 5.79454C136.084 6.76739 130.435 10.7641 127.154 14.4635C125.505 16.3217 124.444 18.1176 123.796 19.4423C123.473 20.1042 123.253 20.647 123.116 21.0187C123.048 21.2045 123 21.3474 122.97 21.4409C122.955 21.4876 122.945 21.5219 122.939 21.543C122.936 21.5536 122.933 21.5609 122.932 21.5647C122.932 21.5667 122.931 21.5678 122.931 21.568C122.931 21.5681 122.931 21.568 122.932 21.5677C122.932 21.5675 122.932 21.5671 122.932 21.567C122.932 21.5665 122.932 21.566 121.968 21.3001C121.004 21.0342 121.004 21.0336 121.004 21.0329C121.004 21.0326 121.005 21.0318 121.005 21.0312C121.005 21.03 121.006 21.0286 121.006 21.0269C121.007 21.0236 121.008 21.0195 121.01 21.0144C121.012 21.0043 121.016 20.9908 121.021 20.9738C121.031 20.94 121.046 20.8927 121.065 20.8327C121.103 20.7127 121.161 20.5421 121.24 20.3275C121.398 19.8985 121.643 19.2928 121.999 18.5641C122.711 17.1074 123.868 15.1532 125.657 13.1363C129.251 9.08551 135.351 4.83206 145.366 3.80497L145.57 5.79454Z" fill="#1A3185"/>
<path d="M33.0851 109.099C33.3058 108.593 33.8951 108.361 34.4014 108.582L42.6517 112.178C43.1579 112.399 43.3895 112.988 43.1688 113.494C42.9481 114 42.3588 114.232 41.8525 114.011L34.5189 110.815L31.3223 118.148C31.1016 118.655 30.5123 118.886 30.006 118.665C29.4997 118.445 29.2682 117.855 29.4889 117.349L33.0851 109.099ZM59.0019 121.499L59.1039 122.493L59.0019 121.499ZM34.0018 109.498C34.9325 109.133 34.9323 109.132 34.9321 109.132C34.9321 109.132 34.9319 109.131 34.9319 109.131C34.9317 109.131 34.9317 109.131 34.9317 109.131C34.9318 109.131 34.9322 109.132 34.9329 109.134C34.9344 109.137 34.9372 109.144 34.9414 109.154C34.9497 109.174 34.9636 109.207 34.9832 109.251C35.0224 109.34 35.0845 109.476 35.1715 109.651C35.3458 110.001 35.6193 110.508 36.008 111.115C36.7862 112.331 38.021 113.938 39.8381 115.487C43.448 118.565 49.4283 121.475 58.8998 120.504L59.1039 122.493C49.0755 123.522 42.5558 120.432 38.5406 117.009C36.5452 115.308 35.1862 113.541 34.3237 112.194C33.8921 111.52 33.5836 110.949 33.3809 110.541C33.2794 110.338 33.2044 110.174 33.1535 110.059C33.128 110.001 33.1086 109.956 33.095 109.923C33.0881 109.906 33.0827 109.893 33.0788 109.883C33.0768 109.879 33.0751 109.874 33.0739 109.871C33.0732 109.87 33.0727 109.868 33.0722 109.867C33.072 109.866 33.0717 109.866 33.0715 109.865C33.0713 109.865 33.071 109.864 34.0018 109.498ZM58.8998 120.504C68.3854 119.531 74.0346 115.534 77.3162 111.835C78.9646 109.977 80.0262 108.181 80.6736 106.856C80.9972 106.194 81.2165 105.651 81.3534 105.28C81.4218 105.094 81.4696 104.951 81.4994 104.857C81.5143 104.811 81.5248 104.776 81.531 104.755C81.5342 104.745 81.5363 104.737 81.5374 104.734C81.5379 104.732 81.5382 104.731 81.5383 104.73C81.5383 104.73 81.5383 104.73 81.5382 104.731C81.5382 104.731 81.5381 104.731 81.538 104.731C81.5379 104.732 81.5378 104.732 82.5018 104.998C83.4658 105.264 83.4656 105.265 83.4654 105.265C83.4653 105.266 83.4651 105.267 83.4649 105.267C83.4646 105.268 83.4642 105.27 83.4637 105.271C83.4628 105.275 83.4616 105.279 83.4602 105.284C83.4573 105.294 83.4534 105.308 83.4483 105.324C83.4383 105.358 83.4239 105.406 83.4047 105.466C83.3664 105.586 83.3092 105.756 83.2302 105.971C83.0722 106.4 82.8267 107.006 82.4705 107.734C81.7586 109.191 80.6015 111.145 78.8124 113.162C75.219 117.213 69.1183 121.466 59.1039 122.493L58.8998 120.504Z" fill="#1A3185"/>
<path d="M167.387 109.299C167.166 108.793 166.577 108.561 166.07 108.782L157.82 112.378C157.314 112.599 157.082 113.188 157.303 113.694C157.524 114.201 158.113 114.432 158.619 114.212L165.953 111.015L169.149 118.348C169.37 118.855 169.959 119.086 170.466 118.866C170.972 118.645 171.203 118.056 170.983 117.549L167.387 109.299ZM141.47 121.699L141.368 122.694L141.47 121.699ZM166.47 109.699C165.539 109.333 165.539 109.332 165.54 109.332C165.54 109.332 165.54 109.331 165.54 109.331C165.54 109.331 165.54 109.331 165.54 109.331C165.54 109.331 165.539 109.332 165.539 109.334C165.537 109.337 165.535 109.344 165.53 109.354C165.522 109.374 165.508 109.407 165.489 109.452C165.449 109.54 165.387 109.676 165.3 109.851C165.126 110.201 164.852 110.708 164.464 111.316C163.686 112.531 162.451 114.139 160.634 115.688C157.024 118.765 151.043 121.675 141.572 120.704L141.368 122.694C151.396 123.722 157.916 120.632 161.931 117.21C163.926 115.509 165.285 113.741 166.148 112.394C166.58 111.72 166.888 111.149 167.091 110.742C167.192 110.538 167.267 110.374 167.318 110.259C167.344 110.201 167.363 110.156 167.377 110.123C167.384 110.107 167.389 110.093 167.393 110.084C167.395 110.079 167.397 110.075 167.398 110.071C167.398 110.07 167.399 110.068 167.399 110.067C167.4 110.067 167.4 110.066 167.4 110.066C167.4 110.065 167.401 110.064 166.47 109.699ZM141.572 120.704C132.086 119.731 126.437 115.734 123.155 112.035C121.507 110.177 120.445 108.381 119.798 107.056C119.475 106.394 119.255 105.852 119.118 105.48C119.05 105.294 119.002 105.151 118.972 105.058C118.957 105.011 118.947 104.977 118.941 104.955C118.938 104.945 118.935 104.938 118.934 104.934C118.934 104.932 118.933 104.931 118.933 104.931C118.933 104.93 118.933 104.931 118.933 104.931C118.934 104.931 118.934 104.931 118.934 104.932C118.934 104.932 118.934 104.933 117.97 105.198C117.006 105.464 117.006 105.465 117.006 105.466C117.006 105.466 117.007 105.467 117.007 105.467C117.007 105.469 117.007 105.47 117.008 105.472C117.009 105.475 117.01 105.479 117.012 105.484C117.014 105.494 117.018 105.508 117.023 105.525C117.033 105.559 117.048 105.606 117.067 105.666C117.105 105.786 117.162 105.956 117.241 106.171C117.4 106.6 117.645 107.206 118.001 107.934C118.713 109.391 119.87 111.345 121.659 113.362C125.253 117.413 131.353 121.666 141.368 122.694L141.572 120.704Z" fill="#1A3185"/>
<mask id="path-28-inside-3_53_1197" fill="white">
<path fill-rule="evenodd" clip-rule="evenodd" d="M30 27.0573C30 27.0572 30 27.0572 30 27.0572C30 20.6191 24.6274 15.4 18 15.4C11.3726 15.4 6 20.6191 6 27.0572C6 27.0572 6 27.0572 6 27.0573V40.7716H30V27.0573Z"/>
</mask>
<path fill-rule="evenodd" clip-rule="evenodd" d="M30 27.0573C30 27.0572 30 27.0572 30 27.0572C30 20.6191 24.6274 15.4 18 15.4C11.3726 15.4 6 20.6191 6 27.0572C6 27.0572 6 27.0572 6 27.0573V40.7716H30V27.0573Z" fill="white"/>
<path d="M6 40.7716H4V42.7716H6V40.7716ZM30 40.7716V42.7716H32V40.7716H30ZM28 27.0572V27.0572V27.0572V27.0572V27.0572V27.0572V27.0572V27.0572V27.0572V27.0572V27.0572V27.0572V27.0572V27.0572V27.0572V27.0572V27.0572V27.0572V27.0572V27.0572V27.0572V27.0572V27.0572C28 27.0572 28 27.0572 28 27.0572C28 27.0572 28 27.0572 28 27.0572C28 27.0572 28 27.0572 28 27.0572C28 27.0572 28 27.0572 28 27.0572C28 27.0572 28 27.0572 28 27.0572C28 27.0572 28 27.0572 28 27.0572C28 27.0572 28 27.0572 28 27.0572C28 27.0572 28 27.0572 28 27.0572C28 27.0572 28 27.0572 28 27.0572C28 27.0572 28 27.0572 28 27.0572C28 27.0572 28 27.0572 28 27.0572C28 27.0572 28 27.0572 28 27.0572C28 27.0572 28 27.0572 28 27.0572C28 27.0572 28 27.0572 28 27.0572C28 27.0572 28 27.0572 28 27.0572C28 27.0572 28 27.0572 28 27.0572C28 27.0572 28 27.0572 28 27.0572V27.0572V27.0572V27.0572V27.0572V27.0572V27.0572C28 27.0572 28 27.0572 28 27.0572C28 27.0572 28 27.0572 28 27.0572C28 27.0572 28 27.0572 28 27.0572C28 27.0572 28 27.0572 28 27.0572C28 27.0572 28 27.0572 28 27.0572C28 27.0572 28 27.0572 28 27.0572C28 27.0572 28 27.0572 28 27.0572C28 27.0572 28 27.0572 28 27.0572C28 27.0572 28 27.0572 28 27.0572C28 27.0572 28 27.0572 28 27.0572C28 27.0572 28 27.0572 28 27.0572C28 27.0572 28 27.0572 28 27.0572C28 27.0572 28 27.0572 28 27.0572V27.0572V27.0572V27.0572V27.0572V27.0572V27.0572C28 27.0572 28 27.0572 28 27.0572C28 27.0572 28 27.0572 28 27.0572C28 27.0572 28 27.0572 28 27.0572C28 27.0572 28 27.0572 28 27.0572C28 27.0572 28 27.0572 28 27.0572C28 27.0572 28 27.0572 28 27.0572C28 27.0572 28 27.0572 28 27.0572C28 27.0572 28 27.0572 28 27.0572C28 27.0572 28 27.0572 28 27.0572C28 27.0572 28 27.0572 28 27.0572C28 27.0572 28 27.0572 28 27.0572C28 27.0572 28 27.0572 28 27.0572C28 27.0572 28 27.0572 28 27.0572C28 27.0572 28 27.0572 28 27.0572C28 27.0572 28 27.0572 28 27.0572C28 27.0572 28 27.0572 28 27.0572C28 27.0572 28 27.0572 28 27.0572V27.0572V27.0572V27.0572V27.0572V27.0572V27.0573V27.0573V27.0573V27.0573V27.0573V27.0573V27.0573V27.0573V27.0573V27.0573V27.0573V27.0573V27.0573V27.0573V27.0573V27.0573V27.0573H32V27.0573V27.0573V27.0573V27.0573V27.0573V27.0573V27.0573V27.0573V27.0573V27.0573V27.0573V27.0573V27.0573V27.0573V27.0573V27.0573V27.0572V27.0572V27.0572V27.0572V27.0572V27.0572C32 27.0572 32 27.0572 32 27.0572C32 27.0572 32 27.0572 32 27.0572C32 27.0572 32 27.0572 32 27.0572C32 27.0572 32 27.0572 32 27.0572C32 27.0572 32 27.0572 32 27.0572C32 27.0572 32 27.0572 32 27.0572C32 27.0572 32 27.0572 32 27.0572C32 27.0572 32 27.0572 32 27.0572C32 27.0572 32 27.0572 32 27.0572C32 27.0572 32 27.0572 32 27.0572C32 27.0572 32 27.0572 32 27.0572C32 27.0572 32 27.0572 32 27.0572C32 27.0572 32 27.0572 32 27.0572C32 27.0572 32 27.0572 32 27.0572C32 27.0572 32 27.0572 32 27.0572C32 27.0572 32 27.0572 32 27.0572C32 27.0572 32 27.0572 32 27.0572V27.0572V27.0572V27.0572V27.0572V27.0572V27.0572C32 27.0572 32 27.0572 32 27.0572C32 27.0572 32 27.0572 32 27.0572C32 27.0572 32 27.0572 32 27.0572C32 27.0572 32 27.0572 32 27.0572C32 27.0572 32 27.0572 32 27.0572C32 27.0572 32 27.0572 32 27.0572C32 27.0572 32 27.0572 32 27.0572C32 27.0572 32 27.0572 32 27.0572C32 27.0572 32 27.0572 32 27.0572C32 27.0572 32 27.0572 32 27.0572C32 27.0572 32 27.0572 32 27.0572C32 27.0572 32 27.0572 32 27.0572C32 27.0572 32 27.0572 32 27.0572V27.0572V27.0572V27.0572V27.0572V27.0572V27.0572C32 27.0572 32 27.0572 32 27.0572C32 27.0572 32 27.0572 32 27.0572C32 27.0572 32 27.0572 32 27.0572C32 27.0572 32 27.0572 32 27.0572C32 27.0572 32 27.0572 32 27.0572C32 27.0572 32 27.0572 32 27.0572C32 27.0572 32 27.0572 32 27.0572C32 27.0572 32 27.0572 32 27.0572C32 27.0572 32 27.0572 32 27.0572C32 27.0572 32 27.0572 32 27.0572C32 27.0572 32 27.0572 32 27.0572C32 27.0572 32 27.0572 32 27.0572C32 27.0572 32 27.0572 32 27.0572C32 27.0572 32 27.0572 32 27.0572C32 27.0572 32 27.0572 32 27.0572C32 27.0572 32 27.0572 32 27.0572C32 27.0572 32 27.0572 32 27.0572V27.0572V27.0572V27.0572V27.0572V27.0572V27.0572V27.0572V27.0572V27.0572V27.0572V27.0572V27.0572V27.0572V27.0572V27.0572V27.0572V27.0572V27.0572V27.0572V27.0572V27.0572V27.0572H28ZM18 17.4C23.5779 17.4 28 21.7779 28 27.0572H32C32 19.4603 25.6769 13.4 18 13.4V17.4ZM8 27.0572C8 21.7779 12.4221 17.4 18 17.4V13.4C10.3231 13.4 4 19.4603 4 27.0572H8ZM8 27.0573V27.0573V27.0573V27.0573V27.0573V27.0573V27.0573V27.0573V27.0573V27.0573V27.0573V27.0573V27.0573V27.0573V27.0573V27.0573V27.0573V27.0572V27.0572V27.0572V27.0572V27.0572V27.0572C8 27.0572 8 27.0572 8 27.0572C8 27.0572 8 27.0572 8 27.0572C8 27.0572 8 27.0572 8 27.0572C8 27.0572 8 27.0572 8 27.0572C8 27.0572 8 27.0572 8 27.0572C8 27.0572 8 27.0572 8 27.0572C8 27.0572 8 27.0572 8 27.0572C8 27.0572 8 27.0572 8 27.0572C8 27.0572 8 27.0572 8 27.0572C8 27.0572 8 27.0572 8 27.0572C8 27.0572 8 27.0572 8 27.0572C8 27.0572 8 27.0572 8 27.0572C8 27.0572 8 27.0572 8 27.0572C8 27.0572 8 27.0572 8 27.0572C8 27.0572 8 27.0572 8 27.0572C8 27.0572 8 27.0572 8 27.0572C8 27.0572 8 27.0572 8 27.0572V27.0572V27.0572V27.0572V27.0572V27.0572V27.0572C8 27.0572 8 27.0572 8 27.0572C8 27.0572 8 27.0572 8 27.0572C8 27.0572 8 27.0572 8 27.0572C8 27.0572 8 27.0572 8 27.0572C8 27.0572 8 27.0572 8 27.0572C8 27.0572 8 27.0572 8 27.0572C8 27.0572 8 27.0572 8 27.0572C8 27.0572 8 27.0572 8 27.0572C8 27.0572 8 27.0572 8 27.0572C8 27.0572 8 27.0572 8 27.0572C8 27.0572 8 27.0572 8 27.0572C8 27.0572 8 27.0572 8 27.0572C8 27.0572 8 27.0572 8 27.0572V27.0572V27.0572V27.0572V27.0572V27.0572V27.0572C8 27.0572 8 27.0572 8 27.0572C8 27.0572 8 27.0572 8 27.0572C8 27.0572 8 27.0572 8 27.0572C8 27.0572 8 27.0572 8 27.0572C8 27.0572 8 27.0572 8 27.0572C8 27.0572 8 27.0572 8 27.0572C8 27.0572 8 27.0572 8 27.0572C8 27.0572 8 27.0572 8 27.0572C8 27.0572 8 27.0572 8 27.0572C8 27.0572 8 27.0572 8 27.0572C8 27.0572 8 27.0572 8 27.0572C8 27.0572 8 27.0572 8 27.0572C8 27.0572 8 27.0572 8 27.0572C8 27.0572 8 27.0572 8 27.0572C8 27.0572 8 27.0572 8 27.0572C8 27.0572 8 27.0572 8 27.0572C8 27.0572 8 27.0572 8 27.0572V27.0572V27.0572V27.0572V27.0572V27.0572V27.0572V27.0572V27.0572V27.0572V27.0572V27.0572V27.0572V27.0572V27.0572V27.0572V27.0572V27.0572V27.0572V27.0572V27.0572V27.0572V27.0572H4V27.0572V27.0572V27.0572V27.0572V27.0572V27.0572V27.0572V27.0572V27.0572V27.0572V27.0572V27.0572V27.0572V27.0572V27.0572V27.0572V27.0572V27.0572V27.0572V27.0572V27.0572V27.0572C4 27.0572 4 27.0572 4 27.0572C4 27.0572 4 27.0572 4 27.0572C4 27.0572 4 27.0572 4 27.0572C4 27.0572 4 27.0572 4 27.0572C4 27.0572 4 27.0572 4 27.0572C4 27.0572 4 27.0572 4 27.0572C4 27.0572 4 27.0572 4 27.0572C4 27.0572 4 27.0572 4 27.0572C4 27.0572 4 27.0572 4 27.0572C4 27.0572 4 27.0572 4 27.0572C4 27.0572 4 27.0572 4 27.0572C4 27.0572 4 27.0572 4 27.0572C4 27.0572 4 27.0572 4 27.0572C4 27.0572 4 27.0572 4 27.0572C4 27.0572 4 27.0572 4 27.0572C4 27.0572 4 27.0572 4 27.0572C4 27.0572 4 27.0572 4 27.0572V27.0572V27.0572V27.0572V27.0572V27.0572V27.0572C4 27.0572 4 27.0572 4 27.0572C4 27.0572 4 27.0572 4 27.0572C4 27.0572 4 27.0572 4 27.0572C4 27.0572 4 27.0572 4 27.0572C4 27.0572 4 27.0572 4 27.0572C4 27.0572 4 27.0572 4 27.0572C4 27.0572 4 27.0572 4 27.0572C4 27.0572 4 27.0572 4 27.0572C4 27.0572 4 27.0572 4 27.0572C4 27.0572 4 27.0572 4 27.0572C4 27.0572 4 27.0572 4 27.0572C4 27.0572 4 27.0572 4 27.0572C4 27.0572 4 27.0572 4 27.0572V27.0572V27.0572V27.0572V27.0572V27.0572V27.0572C4 27.0572 4 27.0572 4 27.0572C4 27.0572 4 27.0572 4 27.0572C4 27.0572 4 27.0572 4 27.0572C4 27.0572 4 27.0572 4 27.0572C4 27.0572 4 27.0572 4 27.0572C4 27.0572 4 27.0572 4 27.0572C4 27.0572 4 27.0572 4 27.0572C4 27.0572 4 27.0572 4 27.0572C4 27.0572 4 27.0572 4 27.0572C4 27.0572 4 27.0572 4 27.0572C4 27.0572 4 27.0572 4 27.0572C4 27.0572 4 27.0572 4 27.0572C4 27.0572 4 27.0572 4 27.0572C4 27.0572 4 27.0572 4 27.0572C4 27.0572 4 27.0572 4 27.0572C4 27.0572 4 27.0572 4 27.0572C4 27.0572 4 27.0572 4 27.0572V27.0572V27.0572V27.0572V27.0572V27.0572V27.0573V27.0573V27.0573V27.0573V27.0573V27.0573V27.0573V27.0573V27.0573V27.0573V27.0573V27.0573V27.0573V27.0573V27.0573V27.0573V27.0573H8ZM8 40.7716V27.0573H4V40.7716H8ZM30 38.7716H6V42.7716H30V38.7716ZM28 27.0573V40.7716H32V27.0573H28Z" fill="#1A3185" mask="url(#path-28-inside-3_53_1197)"/>
<circle cx="17.6571" cy="10.6" r="8.6" fill="white" stroke="#1A3185" stroke-width="2"/>
<mask id="path-31-inside-4_53_1197" fill="white">
<path fill-rule="evenodd" clip-rule="evenodd" d="M24 106.057C24 106.057 24 106.057 24 106.057C24 99.6191 18.6274 94.4 12 94.4C5.37258 94.4 0 99.6191 0 106.057C0 106.057 0 106.057 0 106.057V119.772H24V106.057Z"/>
</mask>
<path fill-rule="evenodd" clip-rule="evenodd" d="M24 106.057C24 106.057 24 106.057 24 106.057C24 99.6191 18.6274 94.4 12 94.4C5.37258 94.4 0 99.6191 0 106.057C0 106.057 0 106.057 0 106.057V119.772H24V106.057Z" fill="white"/>
<path d="M0 119.772H-2V121.772H0V119.772ZM24 119.772V121.772H26V119.772H24ZM22 106.057V106.057V106.057V106.057V106.057V106.057V106.057V106.057V106.057V106.057V106.057V106.057V106.057V106.057V106.057V106.057V106.057V106.057V106.057V106.057V106.057V106.057V106.057C22 106.057 22 106.057 22 106.057C22 106.057 22 106.057 22 106.057C22 106.057 22 106.057 22 106.057C22 106.057 22 106.057 22 106.057C22 106.057 22 106.057 22 106.057C22 106.057 22 106.057 22 106.057C22 106.057 22 106.057 22 106.057C22 106.057 22 106.057 22 106.057C22 106.057 22 106.057 22 106.057C22 106.057 22 106.057 22 106.057C22 106.057 22 106.057 22 106.057C22 106.057 22 106.057 22 106.057C22 106.057 22 106.057 22 106.057C22 106.057 22 106.057 22 106.057C22 106.057 22 106.057 22 106.057C22 106.057 22 106.057 22 106.057C22 106.057 22 106.057 22 106.057V106.057V106.057V106.057V106.057V106.057V106.057C22 106.057 22 106.057 22 106.057C22 106.057 22 106.057 22 106.057C22 106.057 22 106.057 22 106.057C22 106.057 22 106.057 22 106.057C22 106.057 22 106.057 22 106.057C22 106.057 22 106.057 22 106.057C22 106.057 22 106.057 22 106.057C22 106.057 22 106.057 22 106.057C22 106.057 22 106.057 22 106.057C22 106.057 22 106.057 22 106.057C22 106.057 22 106.057 22 106.057C22 106.057 22 106.057 22 106.057C22 106.057 22 106.057 22 106.057V106.057V106.057V106.057V106.057V106.057V106.057C22 106.057 22 106.057 22 106.057C22 106.057 22 106.057 22 106.057C22 106.057 22 106.057 22 106.057C22 106.057 22 106.057 22 106.057C22 106.057 22 106.057 22 106.057C22 106.057 22 106.057 22 106.057C22 106.057 22 106.057 22 106.057C22 106.057 22 106.057 22 106.057C22 106.057 22 106.057 22 106.057C22 106.057 22 106.057 22 106.057C22 106.057 22 106.057 22 106.057C22 106.057 22 106.057 22 106.057C22 106.057 22 106.057 22 106.057C22 106.057 22 106.057 22 106.057C22 106.057 22 106.057 22 106.057C22 106.057 22 106.057 22 106.057C22 106.057 22 106.057 22 106.057V106.057V106.057V106.057V106.057V106.057V106.057V106.057V106.057V106.057V106.057V106.057V106.057V106.057V106.057V106.057V106.057V106.057V106.057V106.057V106.057V106.057V106.057H26V106.057V106.057V106.057V106.057V106.057V106.057V106.057V106.057V106.057V106.057V106.057V106.057V106.057V106.057V106.057V106.057V106.057V106.057V106.057V106.057V106.057V106.057C26 106.057 26 106.057 26 106.057C26 106.057 26 106.057 26 106.057C26 106.057 26 106.057 26 106.057C26 106.057 26 106.057 26 106.057C26 106.057 26 106.057 26 106.057C26 106.057 26 106.057 26 106.057C26 106.057 26 106.057 26 106.057C26 106.057 26 106.057 26 106.057C26 106.057 26 106.057 26 106.057C26 106.057 26 106.057 26 106.057C26 106.057 26 106.057 26 106.057C26 106.057 26 106.057 26 106.057C26 106.057 26 106.057 26 106.057C26 106.057 26 106.057 26 106.057C26 106.057 26 106.057 26 106.057C26 106.057 26 106.057 26 106.057C26 106.057 26 106.057 26 106.057V106.057V106.057V106.057V106.057V106.057V106.057C26 106.057 26 106.057 26 106.057C26 106.057 26 106.057 26 106.057C26 106.057 26 106.057 26 106.057C26 106.057 26 106.057 26 106.057C26 106.057 26 106.057 26 106.057C26 106.057 26 106.057 26 106.057C26 106.057 26 106.057 26 106.057C26 106.057 26 106.057 26 106.057C26 106.057 26 106.057 26 106.057C26 106.057 26 106.057 26 106.057C26 106.057 26 106.057 26 106.057C26 106.057 26 106.057 26 106.057C26 106.057 26 106.057 26 106.057V106.057V106.057V106.057V106.057V106.057V106.057C26 106.057 26 106.057 26 106.057C26 106.057 26 106.057 26 106.057C26 106.057 26 106.057 26 106.057C26 106.057 26 106.057 26 106.057C26 106.057 26 106.057 26 106.057C26 106.057 26 106.057 26 106.057C26 106.057 26 106.057 26 106.057C26 106.057 26 106.057 26 106.057C26 106.057 26 106.057 26 106.057C26 106.057 26 106.057 26 106.057C26 106.057 26 106.057 26 106.057C26 106.057 26 106.057 26 106.057C26 106.057 26 106.057 26 106.057C26 106.057 26 106.057 26 106.057C26 106.057 26 106.057 26 106.057C26 106.057 26 106.057 26 106.057C26 106.057 26 106.057 26 106.057V106.057V106.057V106.057V106.057V106.057V106.057V106.057V106.057V106.057V106.057V106.057V106.057V106.057V106.057V106.057V106.057V106.057V106.057V106.057V106.057V106.057V106.057H22ZM12 96.4C17.5779 96.4 22 100.778 22 106.057H26C26 98.4603 19.6769 92.4 12 92.4V96.4ZM2 106.057C2 100.778 6.42211 96.4 12 96.4V92.4C4.32306 92.4 -2 98.4603 -2 106.057H2ZM2 106.057V106.057V106.057V106.057V106.057V106.057V106.057V106.057V106.057V106.057V106.057V106.057V106.057V106.057V106.057V106.057V106.057V106.057V106.057V106.057V106.057V106.057V106.057C2 106.057 2 106.057 2 106.057C2 106.057 2 106.057 2 106.057C2 106.057 2 106.057 2 106.057C2 106.057 2 106.057 2 106.057C2 106.057 2 106.057 2 106.057C2 106.057 2 106.057 2 106.057C2 106.057 2 106.057 2 106.057C2 106.057 2 106.057 2 106.057C2 106.057 2 106.057 2 106.057C2 106.057 2 106.057 2 106.057C2 106.057 2 106.057 2 106.057C2 106.057 2 106.057 2 106.057C2 106.057 2 106.057 2 106.057C2 106.057 2 106.057 2 106.057C2 106.057 2 106.057 2 106.057C2 106.057 2 106.057 2 106.057C2 106.057 2 106.057 2 106.057V106.057V106.057V106.057V106.057V106.057V106.057C2 106.057 2 106.057 2 106.057C2 106.057 2 106.057 2 106.057C2 106.057 2 106.057 2 106.057C2 106.057 2 106.057 2 106.057C2 106.057 2 106.057 2 106.057C2 106.057 2 106.057 2 106.057C2 106.057 2 106.057 2 106.057C2 106.057 2 106.057 2 106.057C2 106.057 2 106.057 2 106.057C2 106.057 2 106.057 2 106.057C2 106.057 2 106.057 2 106.057C2 106.057 2 106.057 2 106.057C2 106.057 2 106.057 2 106.057V106.057V106.057V106.057V106.057V106.057V106.057C2 106.057 2 106.057 2 106.057C2 106.057 2 106.057 2 106.057C2 106.057 2 106.057 2 106.057C2 106.057 2 106.057 2 106.057C2 106.057 2 106.057 2 106.057C2 106.057 2 106.057 2 106.057C2 106.057 2 106.057 2 106.057C2 106.057 2 106.057 2 106.057C2 106.057 2 106.057 2 106.057C2 106.057 2 106.057 2 106.057C2 106.057 2 106.057 2 106.057C2 106.057 2 106.057 2 106.057C2 106.057 2 106.057 2 106.057C2 106.057 2 106.057 2 106.057C2 106.057 2 106.057 2 106.057C2 106.057 2 106.057 2 106.057C2 106.057 2 106.057 2 106.057V106.057V106.057V106.057V106.057V106.057V106.057V106.057V106.057V106.057V106.057V106.057V106.057V106.057V106.057V106.057V106.057V106.057V106.057V106.057V106.057V106.057V106.057H-2V106.057V106.057V106.057V106.057V106.057V106.057V106.057V106.057V106.057V106.057V106.057V106.057V106.057V106.057V106.057V106.057V106.057V106.057V106.057V106.057V106.057V106.057C-2 106.057 -2 106.057 -2 106.057C-2 106.057 -2 106.057 -2 106.057C-2 106.057 -2 106.057 -2 106.057C-2 106.057 -2 106.057 -2 106.057C-2 106.057 -2 106.057 -2 106.057C-2 106.057 -2 106.057 -2 106.057C-2 106.057 -2 106.057 -2 106.057C-2 106.057 -2 106.057 -2 106.057C-2 106.057 -2 106.057 -2 106.057C-2 106.057 -2 106.057 -2 106.057C-2 106.057 -2 106.057 -2 106.057C-2 106.057 -2 106.057 -2 106.057C-2 106.057 -2 106.057 -2 106.057C-2 106.057 -2 106.057 -2 106.057C-2 106.057 -2 106.057 -2 106.057C-2 106.057 -2 106.057 -2 106.057C-2 106.057 -2 106.057 -2 106.057V106.057V106.057V106.057V106.057V106.057V106.057C-2 106.057 -2 106.057 -2 106.057C-2 106.057 -2 106.057 -2 106.057C-2 106.057 -2 106.057 -2 106.057C-2 106.057 -2 106.057 -2 106.057C-2 106.057 -2 106.057 -2 106.057C-2 106.057 -2 106.057 -2 106.057C-2 106.057 -2 106.057 -2 106.057C-2 106.057 -2 106.057 -2 106.057C-2 106.057 -2 106.057 -2 106.057C-2 106.057 -2 106.057 -2 106.057C-2 106.057 -2 106.057 -2 106.057C-2 106.057 -2 106.057 -2 106.057C-2 106.057 -2 106.057 -2 106.057V106.057V106.057V106.057V106.057V106.057V106.057C-2 106.057 -2 106.057 -2 106.057C-2 106.057 -2 106.057 -2 106.057C-2 106.057 -2 106.057 -2 106.057C-2 106.057 -2 106.057 -2 106.057C-2 106.057 -2 106.057 -2 106.057C-2 106.057 -2 106.057 -2 106.057C-2 106.057 -2 106.057 -2 106.057C-2 106.057 -2 106.057 -2 106.057C-2 106.057 -2 106.057 -2 106.057C-2 106.057 -2 106.057 -2 106.057C-2 106.057 -2 106.057 -2 106.057C-2 106.057 -2 106.057 -2 106.057C-2 106.057 -2 106.057 -2 106.057C-2 106.057 -2 106.057 -2 106.057C-2 106.057 -2 106.057 -2 106.057C-2 106.057 -2 106.057 -2 106.057C-2 106.057 -2 106.057 -2 106.057V106.057V106.057V106.057V106.057V106.057V106.057V106.057V106.057V106.057V106.057V106.057V106.057V106.057V106.057V106.057V106.057V106.057V106.057V106.057V106.057V106.057V106.057H2ZM2 119.772V106.057H-2V119.772H2ZM24 117.772H0V121.772H24V117.772ZM22 106.057V119.772H26V106.057H22Z" fill="#1A3185" mask="url(#path-31-inside-4_53_1197)"/>
<circle cx="11.6571" cy="89.6" r="8.6" fill="white" stroke="#1A3185" stroke-width="2"/>
<mask id="path-34-inside-5_53_1197" fill="white">
<path fill-rule="evenodd" clip-rule="evenodd" d="M202 26.0573C202 26.0572 202 26.0572 202 26.0572C202 19.6191 196.627 14.4 190 14.4C183.373 14.4 178 19.6191 178 26.0572C178 26.0572 178 26.0572 178 26.0573V39.7716H202V26.0573Z"/>
</mask>
<path fill-rule="evenodd" clip-rule="evenodd" d="M202 26.0573C202 26.0572 202 26.0572 202 26.0572C202 19.6191 196.627 14.4 190 14.4C183.373 14.4 178 19.6191 178 26.0572C178 26.0572 178 26.0572 178 26.0573V39.7716H202V26.0573Z" fill="white"/>
<path d="M178 39.7716H176V41.7716H178V39.7716ZM202 39.7716V41.7716H204V39.7716H202ZM200 26.0572V26.0572V26.0572V26.0572V26.0572V26.0572V26.0572V26.0572V26.0572V26.0572V26.0572V26.0572V26.0572V26.0572V26.0572V26.0572V26.0572V26.0572V26.0572V26.0572V26.0572V26.0572V26.0572C200 26.0572 200 26.0572 200 26.0572C200 26.0572 200 26.0572 200 26.0572C200 26.0572 200 26.0572 200 26.0572C200 26.0572 200 26.0572 200 26.0572C200 26.0572 200 26.0572 200 26.0572C200 26.0572 200 26.0572 200 26.0572C200 26.0572 200 26.0572 200 26.0572C200 26.0572 200 26.0572 200 26.0572C200 26.0572 200 26.0572 200 26.0572C200 26.0572 200 26.0572 200 26.0572C200 26.0572 200 26.0572 200 26.0572C200 26.0572 200 26.0572 200 26.0572C200 26.0572 200 26.0572 200 26.0572C200 26.0572 200 26.0572 200 26.0572C200 26.0572 200 26.0572 200 26.0572C200 26.0572 200 26.0572 200 26.0572C200 26.0572 200 26.0572 200 26.0572V26.0572V26.0572V26.0572V26.0572V26.0572V26.0572C200 26.0572 200 26.0572 200 26.0572C200 26.0572 200 26.0572 200 26.0572C200 26.0572 200 26.0572 200 26.0572C200 26.0572 200 26.0572 200 26.0572C200 26.0572 200 26.0572 200 26.0572C200 26.0572 200 26.0572 200 26.0572C200 26.0572 200 26.0572 200 26.0572C200 26.0572 200 26.0572 200 26.0572C200 26.0572 200 26.0572 200 26.0572C200 26.0572 200 26.0572 200 26.0572C200 26.0572 200 26.0572 200 26.0572C200 26.0572 200 26.0572 200 26.0572C200 26.0572 200 26.0572 200 26.0572V26.0572V26.0572V26.0572V26.0572V26.0572V26.0572C200 26.0572 200 26.0572 200 26.0572C200 26.0572 200 26.0572 200 26.0572C200 26.0572 200 26.0572 200 26.0572C200 26.0572 200 26.0572 200 26.0572C200 26.0572 200 26.0572 200 26.0572C200 26.0572 200 26.0572 200 26.0572C200 26.0572 200 26.0572 200 26.0572C200 26.0572 200 26.0572 200 26.0572C200 26.0572 200 26.0572 200 26.0572C200 26.0572 200 26.0572 200 26.0572C200 26.0572 200 26.0572 200 26.0572C200 26.0572 200 26.0572 200 26.0572C200 26.0572 200 26.0572 200 26.0572C200 26.0572 200 26.0572 200 26.0572C200 26.0572 200 26.0572 200 26.0572C200 26.0572 200 26.0572 200 26.0572C200 26.0572 200 26.0572 200 26.0572V26.0572V26.0572V26.0572V26.0572V26.0572V26.0573V26.0573V26.0573V26.0573V26.0573V26.0573V26.0573V26.0573V26.0573V26.0573V26.0573V26.0573V26.0573V26.0573V26.0573V26.0573V26.0573H204V26.0573V26.0573V26.0573V26.0573V26.0573V26.0573V26.0573V26.0573V26.0573V26.0573V26.0573V26.0573V26.0573V26.0573V26.0573V26.0573V26.0572V26.0572V26.0572V26.0572V26.0572V26.0572C204 26.0572 204 26.0572 204 26.0572C204 26.0572 204 26.0572 204 26.0572C204 26.0572 204 26.0572 204 26.0572C204 26.0572 204 26.0572 204 26.0572C204 26.0572 204 26.0572 204 26.0572C204 26.0572 204 26.0572 204 26.0572C204 26.0572 204 26.0572 204 26.0572C204 26.0572 204 26.0572 204 26.0572C204 26.0572 204 26.0572 204 26.0572C204 26.0572 204 26.0572 204 26.0572C204 26.0572 204 26.0572 204 26.0572C204 26.0572 204 26.0572 204 26.0572C204 26.0572 204 26.0572 204 26.0572C204 26.0572 204 26.0572 204 26.0572C204 26.0572 204 26.0572 204 26.0572C204 26.0572 204 26.0572 204 26.0572C204 26.0572 204 26.0572 204 26.0572V26.0572V26.0572V26.0572V26.0572V26.0572V26.0572C204 26.0572 204 26.0572 204 26.0572C204 26.0572 204 26.0572 204 26.0572C204 26.0572 204 26.0572 204 26.0572C204 26.0572 204 26.0572 204 26.0572C204 26.0572 204 26.0572 204 26.0572C204 26.0572 204 26.0572 204 26.0572C204 26.0572 204 26.0572 204 26.0572C204 26.0572 204 26.0572 204 26.0572C204 26.0572 204 26.0572 204 26.0572C204 26.0572 204 26.0572 204 26.0572C204 26.0572 204 26.0572 204 26.0572C204 26.0572 204 26.0572 204 26.0572C204 26.0572 204 26.0572 204 26.0572V26.0572V26.0572V26.0572V26.0572V26.0572V26.0572C204 26.0572 204 26.0572 204 26.0572C204 26.0572 204 26.0572 204 26.0572C204 26.0572 204 26.0572 204 26.0572C204 26.0572 204 26.0572 204 26.0572C204 26.0572 204 26.0572 204 26.0572C204 26.0572 204 26.0572 204 26.0572C204 26.0572 204 26.0572 204 26.0572C204 26.0572 204 26.0572 204 26.0572C204 26.0572 204 26.0572 204 26.0572C204 26.0572 204 26.0572 204 26.0572C204 26.0572 204 26.0572 204 26.0572C204 26.0572 204 26.0572 204 26.0572C204 26.0572 204 26.0572 204 26.0572C204 26.0572 204 26.0572 204 26.0572C204 26.0572 204 26.0572 204 26.0572C204 26.0572 204 26.0572 204 26.0572C204 26.0572 204 26.0572 204 26.0572V26.0572V26.0572V26.0572V26.0572V26.0572V26.0572V26.0572V26.0572V26.0572V26.0572V26.0572V26.0572V26.0572V26.0572V26.0572V26.0572V26.0572V26.0572V26.0572V26.0572V26.0572V26.0572H200ZM190 16.4C195.578 16.4 200 20.7779 200 26.0572H204C204 18.4603 197.677 12.4 190 12.4V16.4ZM180 26.0572C180 20.7779 184.422 16.4 190 16.4V12.4C182.323 12.4 176 18.4603 176 26.0572H180ZM180 26.0573V26.0573V26.0573V26.0573V26.0573V26.0573V26.0573V26.0573V26.0573V26.0573V26.0573V26.0573V26.0573V26.0573V26.0573V26.0573V26.0573V26.0572V26.0572V26.0572V26.0572V26.0572V26.0572C180 26.0572 180 26.0572 180 26.0572C180 26.0572 180 26.0572 180 26.0572C180 26.0572 180 26.0572 180 26.0572C180 26.0572 180 26.0572 180 26.0572C180 26.0572 180 26.0572 180 26.0572C180 26.0572 180 26.0572 180 26.0572C180 26.0572 180 26.0572 180 26.0572C180 26.0572 180 26.0572 180 26.0572C180 26.0572 180 26.0572 180 26.0572C180 26.0572 180 26.0572 180 26.0572C180 26.0572 180 26.0572 180 26.0572C180 26.0572 180 26.0572 180 26.0572C180 26.0572 180 26.0572 180 26.0572C180 26.0572 180 26.0572 180 26.0572C180 26.0572 180 26.0572 180 26.0572C180 26.0572 180 26.0572 180 26.0572C180 26.0572 180 26.0572 180 26.0572V26.0572V26.0572V26.0572V26.0572V26.0572V26.0572C180 26.0572 180 26.0572 180 26.0572C180 26.0572 180 26.0572 180 26.0572C180 26.0572 180 26.0572 180 26.0572C180 26.0572 180 26.0572 180 26.0572C180 26.0572 180 26.0572 180 26.0572C180 26.0572 180 26.0572 180 26.0572C180 26.0572 180 26.0572 180 26.0572C180 26.0572 180 26.0572 180 26.0572C180 26.0572 180 26.0572 180 26.0572C180 26.0572 180 26.0572 180 26.0572C180 26.0572 180 26.0572 180 26.0572C180 26.0572 180 26.0572 180 26.0572C180 26.0572 180 26.0572 180 26.0572V26.0572V26.0572V26.0572V26.0572V26.0572V26.0572C180 26.0572 180 26.0572 180 26.0572C180 26.0572 180 26.0572 180 26.0572C180 26.0572 180 26.0572 180 26.0572C180 26.0572 180 26.0572 180 26.0572C180 26.0572 180 26.0572 180 26.0572C180 26.0572 180 26.0572 180 26.0572C180 26.0572 180 26.0572 180 26.0572C180 26.0572 180 26.0572 180 26.0572C180 26.0572 180 26.0572 180 26.0572C180 26.0572 180 26.0572 180 26.0572C180 26.0572 180 26.0572 180 26.0572C180 26.0572 180 26.0572 180 26.0572C180 26.0572 180 26.0572 180 26.0572C180 26.0572 180 26.0572 180 26.0572C180 26.0572 180 26.0572 180 26.0572C180 26.0572 180 26.0572 180 26.0572C180 26.0572 180 26.0572 180 26.0572V26.0572V26.0572V26.0572V26.0572V26.0572V26.0572V26.0572V26.0572V26.0572V26.0572V26.0572V26.0572V26.0572V26.0572V26.0572V26.0572V26.0572V26.0572V26.0572V26.0572V26.0572V26.0572H176V26.0572V26.0572V26.0572V26.0572V26.0572V26.0572V26.0572V26.0572V26.0572V26.0572V26.0572V26.0572V26.0572V26.0572V26.0572V26.0572V26.0572V26.0572V26.0572V26.0572V26.0572V26.0572C176 26.0572 176 26.0572 176 26.0572C176 26.0572 176 26.0572 176 26.0572C176 26.0572 176 26.0572 176 26.0572C176 26.0572 176 26.0572 176 26.0572C176 26.0572 176 26.0572 176 26.0572C176 26.0572 176 26.0572 176 26.0572C176 26.0572 176 26.0572 176 26.0572C176 26.0572 176 26.0572 176 26.0572C176 26.0572 176 26.0572 176 26.0572C176 26.0572 176 26.0572 176 26.0572C176 26.0572 176 26.0572 176 26.0572C176 26.0572 176 26.0572 176 26.0572C176 26.0572 176 26.0572 176 26.0572C176 26.0572 176 26.0572 176 26.0572C176 26.0572 176 26.0572 176 26.0572C176 26.0572 176 26.0572 176 26.0572C176 26.0572 176 26.0572 176 26.0572V26.0572V26.0572V26.0572V26.0572V26.0572V26.0572C176 26.0572 176 26.0572 176 26.0572C176 26.0572 176 26.0572 176 26.0572C176 26.0572 176 26.0572 176 26.0572C176 26.0572 176 26.0572 176 26.0572C176 26.0572 176 26.0572 176 26.0572C176 26.0572 176 26.0572 176 26.0572C176 26.0572 176 26.0572 176 26.0572C176 26.0572 176 26.0572 176 26.0572C176 26.0572 176 26.0572 176 26.0572C176 26.0572 176 26.0572 176 26.0572C176 26.0572 176 26.0572 176 26.0572C176 26.0572 176 26.0572 176 26.0572C176 26.0572 176 26.0572 176 26.0572V26.0572V26.0572V26.0572V26.0572V26.0572V26.0572C176 26.0572 176 26.0572 176 26.0572C176 26.0572 176 26.0572 176 26.0572C176 26.0572 176 26.0572 176 26.0572C176 26.0572 176 26.0572 176 26.0572C176 26.0572 176 26.0572 176 26.0572C176 26.0572 176 26.0572 176 26.0572C176 26.0572 176 26.0572 176 26.0572C176 26.0572 176 26.0572 176 26.0572C176 26.0572 176 26.0572 176 26.0572C176 26.0572 176 26.0572 176 26.0572C176 26.0572 176 26.0572 176 26.0572C176 26.0572 176 26.0572 176 26.0572C176 26.0572 176 26.0572 176 26.0572C176 26.0572 176 26.0572 176 26.0572C176 26.0572 176 26.0572 176 26.0572C176 26.0572 176 26.0572 176 26.0572C176 26.0572 176 26.0572 176 26.0572V26.0572V26.0572V26.0572V26.0572V26.0572V26.0573V26.0573V26.0573V26.0573V26.0573V26.0573V26.0573V26.0573V26.0573V26.0573V26.0573V26.0573V26.0573V26.0573V26.0573V26.0573V26.0573H180ZM180 39.7716V26.0573H176V39.7716H180ZM202 37.7716H178V41.7716H202V37.7716ZM200 26.0573V39.7716H204V26.0573H200Z" fill="#1A3185" mask="url(#path-34-inside-5_53_1197)"/>
<circle cx="189.657" cy="9.6" r="8.6" fill="white" stroke="#1A3185" stroke-width="2"/>
<mask id="path-37-inside-6_53_1197" fill="white">
<path fill-rule="evenodd" clip-rule="evenodd" d="M201 107.057C201 107.057 201 107.057 201 107.057C201 100.619 195.627 95.4 189 95.4C182.373 95.4 177 100.619 177 107.057C177 107.057 177 107.057 177 107.057V120.772H201V107.057Z"/>
</mask>
<path fill-rule="evenodd" clip-rule="evenodd" d="M201 107.057C201 107.057 201 107.057 201 107.057C201 100.619 195.627 95.4 189 95.4C182.373 95.4 177 100.619 177 107.057C177 107.057 177 107.057 177 107.057V120.772H201V107.057Z" fill="white"/>
<path d="M177 120.772H175V122.772H177V120.772ZM201 120.772V122.772H203V120.772H201ZM199 107.057V107.057V107.057V107.057V107.057V107.057V107.057V107.057V107.057V107.057V107.057V107.057V107.057V107.057V107.057V107.057V107.057V107.057V107.057V107.057V107.057V107.057V107.057C199 107.057 199 107.057 199 107.057C199 107.057 199 107.057 199 107.057C199 107.057 199 107.057 199 107.057C199 107.057 199 107.057 199 107.057C199 107.057 199 107.057 199 107.057C199 107.057 199 107.057 199 107.057C199 107.057 199 107.057 199 107.057C199 107.057 199 107.057 199 107.057C199 107.057 199 107.057 199 107.057C199 107.057 199 107.057 199 107.057C199 107.057 199 107.057 199 107.057C199 107.057 199 107.057 199 107.057C199 107.057 199 107.057 199 107.057C199 107.057 199 107.057 199 107.057C199 107.057 199 107.057 199 107.057C199 107.057 199 107.057 199 107.057C199 107.057 199 107.057 199 107.057V107.057V107.057V107.057V107.057V107.057V107.057C199 107.057 199 107.057 199 107.057C199 107.057 199 107.057 199 107.057C199 107.057 199 107.057 199 107.057C199 107.057 199 107.057 199 107.057C199 107.057 199 107.057 199 107.057C199 107.057 199 107.057 199 107.057C199 107.057 199 107.057 199 107.057C199 107.057 199 107.057 199 107.057C199 107.057 199 107.057 199 107.057C199 107.057 199 107.057 199 107.057C199 107.057 199 107.057 199 107.057C199 107.057 199 107.057 199 107.057C199 107.057 199 107.057 199 107.057V107.057V107.057V107.057V107.057V107.057V107.057C199 107.057 199 107.057 199 107.057C199 107.057 199 107.057 199 107.057C199 107.057 199 107.057 199 107.057C199 107.057 199 107.057 199 107.057C199 107.057 199 107.057 199 107.057C199 107.057 199 107.057 199 107.057C199 107.057 199 107.057 199 107.057C199 107.057 199 107.057 199 107.057C199 107.057 199 107.057 199 107.057C199 107.057 199 107.057 199 107.057C199 107.057 199 107.057 199 107.057C199 107.057 199 107.057 199 107.057C199 107.057 199 107.057 199 107.057C199 107.057 199 107.057 199 107.057C199 107.057 199 107.057 199 107.057C199 107.057 199 107.057 199 107.057C199 107.057 199 107.057 199 107.057V107.057V107.057V107.057V107.057V107.057V107.057V107.057V107.057V107.057V107.057V107.057V107.057V107.057V107.057V107.057V107.057V107.057V107.057V107.057V107.057V107.057V107.057H203V107.057V107.057V107.057V107.057V107.057V107.057V107.057V107.057V107.057V107.057V107.057V107.057V107.057V107.057V107.057V107.057V107.057V107.057V107.057V107.057V107.057V107.057C203 107.057 203 107.057 203 107.057C203 107.057 203 107.057 203 107.057C203 107.057 203 107.057 203 107.057C203 107.057 203 107.057 203 107.057C203 107.057 203 107.057 203 107.057C203 107.057 203 107.057 203 107.057C203 107.057 203 107.057 203 107.057C203 107.057 203 107.057 203 107.057C203 107.057 203 107.057 203 107.057C203 107.057 203 107.057 203 107.057C203 107.057 203 107.057 203 107.057C203 107.057 203 107.057 203 107.057C203 107.057 203 107.057 203 107.057C203 107.057 203 107.057 203 107.057C203 107.057 203 107.057 203 107.057C203 107.057 203 107.057 203 107.057C203 107.057 203 107.057 203 107.057V107.057V107.057V107.057V107.057V107.057V107.057C203 107.057 203 107.057 203 107.057C203 107.057 203 107.057 203 107.057C203 107.057 203 107.057 203 107.057C203 107.057 203 107.057 203 107.057C203 107.057 203 107.057 203 107.057C203 107.057 203 107.057 203 107.057C203 107.057 203 107.057 203 107.057C203 107.057 203 107.057 203 107.057C203 107.057 203 107.057 203 107.057C203 107.057 203 107.057 203 107.057C203 107.057 203 107.057 203 107.057C203 107.057 203 107.057 203 107.057C203 107.057 203 107.057 203 107.057V107.057V107.057V107.057V107.057V107.057V107.057C203 107.057 203 107.057 203 107.057C203 107.057 203 107.057 203 107.057C203 107.057 203 107.057 203 107.057C203 107.057 203 107.057 203 107.057C203 107.057 203 107.057 203 107.057C203 107.057 203 107.057 203 107.057C203 107.057 203 107.057 203 107.057C203 107.057 203 107.057 203 107.057C203 107.057 203 107.057 203 107.057C203 107.057 203 107.057 203 107.057C203 107.057 203 107.057 203 107.057C203 107.057 203 107.057 203 107.057C203 107.057 203 107.057 203 107.057C203 107.057 203 107.057 203 107.057C203 107.057 203 107.057 203 107.057C203 107.057 203 107.057 203 107.057C203 107.057 203 107.057 203 107.057V107.057V107.057V107.057V107.057V107.057V107.057V107.057V107.057V107.057V107.057V107.057V107.057V107.057V107.057V107.057V107.057V107.057V107.057V107.057V107.057V107.057V107.057H199ZM189 97.4C194.578 97.4 199 101.778 199 107.057H203C203 99.4603 196.677 93.4 189 93.4V97.4ZM179 107.057C179 101.778 183.422 97.4 189 97.4V93.4C181.323 93.4 175 99.4603 175 107.057H179ZM179 107.057V107.057V107.057V107.057V107.057V107.057V107.057V107.057V107.057V107.057V107.057V107.057V107.057V107.057V107.057V107.057V107.057V107.057V107.057V107.057V107.057V107.057V107.057C179 107.057 179 107.057 179 107.057C179 107.057 179 107.057 179 107.057C179 107.057 179 107.057 179 107.057C179 107.057 179 107.057 179 107.057C179 107.057 179 107.057 179 107.057C179 107.057 179 107.057 179 107.057C179 107.057 179 107.057 179 107.057C179 107.057 179 107.057 179 107.057C179 107.057 179 107.057 179 107.057C179 107.057 179 107.057 179 107.057C179 107.057 179 107.057 179 107.057C179 107.057 179 107.057 179 107.057C179 107.057 179 107.057 179 107.057C179 107.057 179 107.057 179 107.057C179 107.057 179 107.057 179 107.057C179 107.057 179 107.057 179 107.057C179 107.057 179 107.057 179 107.057V107.057V107.057V107.057V107.057V107.057V107.057C179 107.057 179 107.057 179 107.057C179 107.057 179 107.057 179 107.057C179 107.057 179 107.057 179 107.057C179 107.057 179 107.057 179 107.057C179 107.057 179 107.057 179 107.057C179 107.057 179 107.057 179 107.057C179 107.057 179 107.057 179 107.057C179 107.057 179 107.057 179 107.057C179 107.057 179 107.057 179 107.057C179 107.057 179 107.057 179 107.057C179 107.057 179 107.057 179 107.057C179 107.057 179 107.057 179 107.057C179 107.057 179 107.057 179 107.057V107.057V107.057V107.057V107.057V107.057V107.057C179 107.057 179 107.057 179 107.057C179 107.057 179 107.057 179 107.057C179 107.057 179 107.057 179 107.057C179 107.057 179 107.057 179 107.057C179 107.057 179 107.057 179 107.057C179 107.057 179 107.057 179 107.057C179 107.057 179 107.057 179 107.057C179 107.057 179 107.057 179 107.057C179 107.057 179 107.057 179 107.057C179 107.057 179 107.057 179 107.057C179 107.057 179 107.057 179 107.057C179 107.057 179 107.057 179 107.057C179 107.057 179 107.057 179 107.057C179 107.057 179 107.057 179 107.057C179 107.057 179 107.057 179 107.057C179 107.057 179 107.057 179 107.057C179 107.057 179 107.057 179 107.057V107.057V107.057V107.057V107.057V107.057V107.057V107.057V107.057V107.057V107.057V107.057V107.057V107.057V107.057V107.057V107.057V107.057V107.057V107.057V107.057V107.057V107.057H175V107.057V107.057V107.057V107.057V107.057V107.057V107.057V107.057V107.057V107.057V107.057V107.057V107.057V107.057V107.057V107.057V107.057V107.057V107.057V107.057V107.057V107.057C175 107.057 175 107.057 175 107.057C175 107.057 175 107.057 175 107.057C175 107.057 175 107.057 175 107.057C175 107.057 175 107.057 175 107.057C175 107.057 175 107.057 175 107.057C175 107.057 175 107.057 175 107.057C175 107.057 175 107.057 175 107.057C175 107.057 175 107.057 175 107.057C175 107.057 175 107.057 175 107.057C175 107.057 175 107.057 175 107.057C175 107.057 175 107.057 175 107.057C175 107.057 175 107.057 175 107.057C175 107.057 175 107.057 175 107.057C175 107.057 175 107.057 175 107.057C175 107.057 175 107.057 175 107.057C175 107.057 175 107.057 175 107.057C175 107.057 175 107.057 175 107.057V107.057V107.057V107.057V107.057V107.057V107.057C175 107.057 175 107.057 175 107.057C175 107.057 175 107.057 175 107.057C175 107.057 175 107.057 175 107.057C175 107.057 175 107.057 175 107.057C175 107.057 175 107.057 175 107.057C175 107.057 175 107.057 175 107.057C175 107.057 175 107.057 175 107.057C175 107.057 175 107.057 175 107.057C175 107.057 175 107.057 175 107.057C175 107.057 175 107.057 175 107.057C175 107.057 175 107.057 175 107.057C175 107.057 175 107.057 175 107.057C175 107.057 175 107.057 175 107.057V107.057V107.057V107.057V107.057V107.057V107.057C175 107.057 175 107.057 175 107.057C175 107.057 175 107.057 175 107.057C175 107.057 175 107.057 175 107.057C175 107.057 175 107.057 175 107.057C175 107.057 175 107.057 175 107.057C175 107.057 175 107.057 175 107.057C175 107.057 175 107.057 175 107.057C175 107.057 175 107.057 175 107.057C175 107.057 175 107.057 175 107.057C175 107.057 175 107.057 175 107.057C175 107.057 175 107.057 175 107.057C175 107.057 175 107.057 175 107.057C175 107.057 175 107.057 175 107.057C175 107.057 175 107.057 175 107.057C175 107.057 175 107.057 175 107.057C175 107.057 175 107.057 175 107.057C175 107.057 175 107.057 175 107.057V107.057V107.057V107.057V107.057V107.057V107.057V107.057V107.057V107.057V107.057V107.057V107.057V107.057V107.057V107.057V107.057V107.057V107.057V107.057V107.057V107.057V107.057H179ZM179 120.772V107.057H175V120.772H179ZM201 118.772H177V122.772H201V118.772ZM199 107.057V120.772H203V107.057H199Z" fill="#1A3185" mask="url(#path-37-inside-6_53_1197)"/>
<circle cx="188.657" cy="90.6" r="8.6" fill="white" stroke="#1A3185" stroke-width="2"/>
</svg>
