<svg fill="none" height="158" viewBox="0 0 236 158" width="236" xmlns="http://www.w3.org/2000/svg" xmlns:xlink="http://www.w3.org/1999/xlink"><mask id="a" fill="#fff"><path clip-rule="evenodd" d="m81.582 8.07375c.0683-4.47065 3.7136-8.07375 8.2005-8.07375h.0014 67.0141 15c4.53 0 8.202 3.67191 8.202 8.20144v7.02156c0 1.1046-.896 2-2 2h-13.001v68.5323.0079 6.9128c0 4.5296-3.672 8.201-8.201 8.201h-.805c-.021.001-.041.001-.062.001-.009 0-.018 0-.027 0h-81.3907c-4.7018 0-8.5133-3.8116-8.5133-8.5134v-.0003-9.3646h15.582z" fill="#fff" fill-rule="evenodd"/></mask><mask id="b" fill="#fff"><path clip-rule="evenodd" d="m171.201 0c-4.529 0-8.201 3.67191-8.201 8.20144v9.02156h17.001v-9.02156c0-4.52953-3.672-8.20144-8.202-8.20144z" fill="#fff" fill-rule="evenodd"/></mask><path d="m21.1504 109.897c-55.2-58.3999 9-60.3338 63-65.0005 27.6666-5.6666 82.0006-48.99917 96.0006-14.9994 8.959 21.7564 38 28.9992 54 70.9999 4.667 18.666-.924 62.764-37 56-32.001-6-10.001-16-57.001-24l-.526-.089c-16.447-2.801-27.845-4.743-31.473 11.089-6 13-31.8006 24.4-87.0006-34z" fill="#ff8600"/><path d="m68.4471 76-15.2105-17h139.5264l-15.21 17z" fill="#fff" stroke="#1a3185" stroke-width="2"/><path d="m52.0213 59c.5236-12.2386 10.6112-22 22.9787-22h96c12.367 0 22.455 9.7614 22.979 22z" fill="#fff" stroke="#1a3185" stroke-width="2"/><path d="m64.0213 59c.5236-12.2386 10.6112-22 22.9787-22h72c12.367 0 22.455 9.7614 22.979 22z" fill="#fff" stroke="#1a3185" stroke-width="2"/><path d="m111.062 59c.492-3.9463 3.858-7 7.938-7h12c4.08 0 7.446 3.0537 7.938 7z" fill="#fff" stroke="#1a3185" stroke-width="2"/><path clip-rule="evenodd" d="m81.582 8.07375c.0683-4.47065 3.7136-8.07375 8.2005-8.07375h.0014 67.0141 15c4.53 0 8.202 3.67191 8.202 8.20144v7.02156c0 1.1046-.896 2-2 2h-13.001v68.5323.0079 6.9128c0 4.5296-3.672 8.201-8.201 8.201h-.805c-.021.001-.041.001-.062.001-.009 0-.018 0-.027 0h-81.3907c-4.7018 0-8.5133-3.8116-8.5133-8.5134v-.0003-9.3646h15.582z" fill="#fff" fill-rule="evenodd"/><path d="m81.582 8.07375-1.9997-.03052-.0003.01526v.01526zm83.417 9.14925v-2h-2v2zm0 68.5323 2 .0039v-.0039zm0 .0079-2-.0038v.0038zm-9.006 15.1138v-1.9995h-.01l-.01.0001zm-.062.001-.006-2.0001h-.001zm-89.931-17.8783v-2h-2v2zm15.582 0v2h2v-2zm8.2005-84.9997c-5.5812 0-10.1154 4.48172-10.2002 10.04323l3.9995.06104c.0516-3.37978 2.8082-6.10427 6.2007-6.10427zm.0014 0h-.0014v4h.0014zm67.0141 0h-67.0141v4h67.0141zm15 0h-15v4h15zm10.202 10.20144c0-5.6341-4.568-10.20144-10.202-10.20144v4c3.425 0 6.202 2.77648 6.202 6.20144zm0 7.02156v-7.02156h-4v7.02156zm-4 4c2.209 0 4-1.7908 4-4h-4zm-13.001 0h13.001v-4h-13.001zm2 66.5323v-68.5323h-4v68.5323zm0 .0118v-.0079l-4-.0077v.0079zm0 6.9089v-6.9128h-4v6.9128zm-10.201 10.201c5.634 0 10.201-4.5669 10.201-10.201h-4c0 3.425-2.776 6.2015-6.201 6.2015zm-.805 0h.805v-3.9995h-.805zm-.056.001c.026 0 .051 0 .077-.001l-.041-3.9994c-.016.0001-.032.0002-.048.0003zm-.033 0h.034l-.014-4.0001c-.006 0-.013 0-.02 0zm-81.3907 0h81.3907v-4.0001h-81.3907zm-10.5133-10.5134c0 5.8064 4.707 10.5134 10.5133 10.5134v-4.0001c-3.5972 0-6.5133-2.9161-6.5133-6.5133zm0-.0003v.0003h4v-.0003zm0-9.3646v9.3646h4v-9.3646zm17.582-2h-15.582v4h15.582zm-2-72.92595v74.92595h4v-74.92595z" fill="#1a3185" mask="url(#a)"/><path clip-rule="evenodd" d="m171.201 0c-4.529 0-8.201 3.67191-8.201 8.20144v9.02156h17.001v-9.02156c0-4.52953-3.672-8.20144-8.202-8.20144z" fill="#fff" fill-rule="evenodd"/><path d="m163 17.223h-2v2h2zm17.001 0v2h2v-2zm-15.001-9.02156c0-3.42496 2.776-6.20144 6.201-6.20144v-4c-5.634 0-10.201 4.56734-10.201 10.20144zm0 9.02156v-9.02156h-4v9.02156zm15.001-2h-17.001v4h17.001zm-2-7.02156v9.02156h4v-9.02156zm-6.202-6.20144c3.425 0 6.202 2.77648 6.202 6.20144h4c0-5.6341-4.568-10.20144-10.202-10.20144zm-.598 0h.598v-4h-.598z" fill="#1a3185" mask="url(#b)"/><path d="m82 84h66.842" stroke="#1a3185" stroke-width="2"/><path clip-rule="evenodd" d="m150 83h-2v2 7.3642.0003c0 4.6944 3.806 8.5125 8.5 8.5125s8.5-3.8181 8.5-8.5125v-.0003-7.3642-2h-2v2 2.1277 5.2365.0001.0001.0001c0 3.5938-2.914 6.513-6.5 6.513s-6.5-2.9192-6.5-6.513v-.0001-.0001-.0001-5.2365-2.1277z" fill="#1a3185" fill-rule="evenodd"/><g stroke="#1a3185" stroke-width="2"><path d="m93 11h54m-54 19h54" stroke-linecap="round"/><path d="m93 47.5h54m-50.5-11.5h54" stroke-linecap="round"/><path d="m93 70.5h54m-50.5-11.5h54m-57.5 6h36.5m4 0h17" stroke-linecap="round"/><path d="m93 18h11" stroke-linecap="round"/><path d="m109 18h39" stroke-linecap="round"/><path d="m101 24h39" stroke-linecap="round"/><path d="m1-1h39" stroke-linecap="round" transform="matrix(1 0 0 -1 100 75)"/><path d="m1-1h39" stroke-linecap="round" transform="matrix(1 0 0 -1 100 41)"/><path d="m93 24h2" stroke-linecap="round"/><path d="m1-1h2" stroke-linecap="round" transform="matrix(1 0 0 -1 92 75)"/><path d="m1-1h2" stroke-linecap="round" transform="matrix(1 0 0 -1 92 41)"/><path d="m1-1h2" stroke-linecap="round" transform="matrix(1 0 0 -1 103 53)"/><path d="m144 24h6" stroke-linecap="round"/><path d="m1-1h6" stroke-linecap="round" transform="matrix(1 0 0 -1 143 75)"/><path d="m1-1h6" stroke-linecap="round" transform="matrix(1 0 0 -1 143 41)"/><path d="m1-1h6" stroke-linecap="round" transform="matrix(1 0 0 -1 92 53)"/><rect fill="#fff" height="81" rx="3" width="142" x="52" y="76"/><rect fill="#fff" height="67" rx="3" width="128" x="59" y="83"/><path d="m111 76h28v26c0 5.523-4.477 10-10 10h-8c-5.523 0-10-4.477-10-10z" fill="#fff"/></g><path clip-rule="evenodd" d="m126.98 97.141c3.098-.7974 5.387-3.61 5.387-6.9573 0-3.9675-3.216-7.1837-7.183-7.1837-3.968 0-7.184 3.2162-7.184 7.1837 0 3.3473 2.289 6.1599 5.388 6.9573v6.859c0 .552.447 1 1 1h1.592c.552 0 1-.448 1-1z" fill="#1a3185" fill-rule="evenodd"/><path d="m72 76h12v81h-12z" fill="#1a3185" stroke="#1a3185" stroke-width="2"/><path d="m163 76h12v81h-12z" fill="#1a3185" stroke="#1a3185" stroke-width="2"/></svg>