<svg width="100" height="98" viewBox="0 0 100 98" fill="none" xmlns="http://www.w3.org/2000/svg">
<path d="M2.63156 95.1274V39.1569L50.3559 14.8364L97.368 39.1569V95.1274H2.63156Z" fill="white" stroke="#1A3185" stroke-width="2"/>
<mask id="path-2-inside-1_3616_26499" fill="white">
<path fill-rule="evenodd" clip-rule="evenodd" d="M13.6684 7.03834C13.7321 3.14031 16.9118 0 20.825 0H79.6834C83.6365 0 86.841 3.20458 86.841 7.15762H86.8412V14.1623L86.8412 14.1679L86.8412 15.031V73.0075L86.8412 74.5865L86.8412 74.5921V80.8809C86.8412 84.834 83.6366 88.0385 79.6835 88.0385H20.8252C16.9094 88.0385 13.7281 84.8941 13.6684 80.9926V7.03834Z"/>
</mask>
<path fill-rule="evenodd" clip-rule="evenodd" d="M13.6684 7.03834C13.7321 3.14031 16.9118 0 20.825 0H79.6834C83.6365 0 86.841 3.20458 86.841 7.15762H86.8412V14.1623L86.8412 14.1679L86.8412 15.031V73.0075L86.8412 74.5865L86.8412 74.5921V80.8809C86.8412 84.834 83.6366 88.0385 79.6835 88.0385H20.8252C16.9094 88.0385 13.7281 84.8941 13.6684 80.9926V7.03834Z" fill="white"/>
<path d="M13.6684 7.03834L10.6688 6.98933L10.6684 7.01384V7.03834H13.6684ZM86.841 7.15762H83.841V10.1576H86.841V7.15762ZM86.8412 7.15762H89.8412V4.15762H86.8412V7.15762ZM86.8412 14.1623H83.8412V14.1664L86.8412 14.1623ZM86.8412 14.1679L89.8412 14.1679V14.1638L86.8412 14.1679ZM86.8412 15.031L83.8412 15.031V15.031H86.8412ZM86.8412 73.0075H83.8412V73.0076L86.8412 73.0075ZM86.8412 74.5865L89.8412 74.5906V74.5865L86.8412 74.5865ZM86.8412 74.5921L83.8412 74.588V74.5921H86.8412ZM13.6684 80.9926H10.6684V81.0155L10.6687 81.0385L13.6684 80.9926ZM20.825 -3C15.2714 -3 10.7592 1.45647 10.6688 6.98933L16.668 7.08735C16.705 4.82416 18.5523 3 20.825 3V-3ZM20.825 3H79.6834V-3H20.825V3ZM89.841 7.15762C89.841 1.54772 85.2933 -3 79.6834 -3V3C81.9796 3 83.841 4.86143 83.841 7.15762H89.841ZM86.8412 4.15762H86.841V10.1576H86.8412V4.15762ZM89.8412 14.1623V7.15762H83.8412V14.1623H89.8412ZM89.8412 14.1638L89.8412 14.1582L83.8412 14.1664L83.8412 14.172L89.8412 14.1638ZM89.8412 15.031L89.8412 14.1679L83.8412 14.1679L83.8412 15.031L89.8412 15.031ZM89.8412 73.0075V15.031H83.8412V73.0075H89.8412ZM89.8412 74.5865L89.8412 73.0075L83.8412 73.0076L83.8412 74.5865L89.8412 74.5865ZM89.8412 74.5962L89.8412 74.5906L83.8412 74.5824L83.8412 74.588L89.8412 74.5962ZM89.8412 80.8809V74.5921H83.8412V80.8809H89.8412ZM79.6835 91.0385C85.2934 91.0385 89.8412 86.4908 89.8412 80.8809H83.8412C83.8412 83.1771 81.9797 85.0385 79.6835 85.0385V91.0385ZM20.8252 91.0385H79.6835V85.0385H20.8252V91.0385ZM10.6687 81.0385C10.7535 86.5763 15.2679 91.0385 20.8252 91.0385V85.0385C18.5509 85.0385 16.7027 83.212 16.668 80.9467L10.6687 81.0385ZM16.6684 80.9926V7.03834H10.6684V80.9926H16.6684Z" fill="#1A3185" mask="url(#path-2-inside-1_3616_26499)"/>
<path d="M23.6841 9.6001H71.0523M23.6841 26.1819H71.0523" stroke="#1A3185" stroke-width="2" stroke-linecap="round"/>
<path d="M22.8069 70.6909H70.1752M22.8069 75.0546H70.1752" stroke="#1A3185" stroke-width="2" stroke-linecap="round"/>
<path d="M23.6841 41.4546H71.0523M26.7543 31.4182H74.1225" stroke="#1A3185" stroke-width="2" stroke-linecap="round"/>
<path d="M23.6841 61.5273H71.0523M26.7543 51.491H74.1225M23.6841 56.7273H55.7015M59.2103 56.7273H74.1225" stroke="#1A3185" stroke-width="2" stroke-linecap="round"/>
<line x1="23.8069" y1="15.5818" x2="33.2104" y2="15.5818" stroke="#1A3185" stroke-width="2" stroke-linecap="round"/>
<line x1="37.842" y1="15.5818" x2="71.8067" y2="15.5818" stroke="#1A3185" stroke-width="2" stroke-linecap="round"/>
<line x1="30.8244" y1="20.8181" x2="64.7892" y2="20.8181" stroke="#1A3185" stroke-width="2" stroke-linecap="round"/>
<line x1="1" y1="-1" x2="34.9648" y2="-1" transform="matrix(1 0 0 -1 29.8244 65.4546)" stroke="#1A3185" stroke-width="2" stroke-linecap="round"/>
<line x1="1" y1="-1" x2="34.9648" y2="-1" transform="matrix(1 0 0 -1 29.8244 35.7817)" stroke="#1A3185" stroke-width="2" stroke-linecap="round"/>
<line x1="23.8069" y1="20.8181" x2="25.3157" y2="20.8181" stroke="#1A3185" stroke-width="2" stroke-linecap="round"/>
<line x1="1" y1="-1" x2="2.50876" y2="-1" transform="matrix(1 0 0 -1 22.8069 65.4546)" stroke="#1A3185" stroke-width="2" stroke-linecap="round"/>
<line x1="1" y1="-1" x2="2.50876" y2="-1" transform="matrix(1 0 0 -1 22.8069 35.7817)" stroke="#1A3185" stroke-width="2" stroke-linecap="round"/>
<line x1="1" y1="-1" x2="2.50876" y2="-1" transform="matrix(1 0 0 -1 32.456 46.2546)" stroke="#1A3185" stroke-width="2" stroke-linecap="round"/>
<line x1="68.5436" y1="20.8181" x2="73.5611" y2="20.8181" stroke="#1A3185" stroke-width="2" stroke-linecap="round"/>
<line x1="1" y1="-1" x2="6.01752" y2="-1" transform="matrix(1 0 0 -1 67.5436 65.4546)" stroke="#1A3185" stroke-width="2" stroke-linecap="round"/>
<line x1="1" y1="-1" x2="6.01752" y2="-1" transform="matrix(1 0 0 -1 67.5436 35.7817)" stroke="#1A3185" stroke-width="2" stroke-linecap="round"/>
<line x1="1" y1="-1" x2="6.01752" y2="-1" transform="matrix(1 0 0 -1 22.8069 46.2546)" stroke="#1A3185" stroke-width="2" stroke-linecap="round"/>
<path d="M2.63156 96V40.0295L36.4034 59.3616L49.3548 66.7754C49.9744 67.13 50.7361 67.1276 51.3533 66.7689L64.1003 59.3616L97.368 40.0295V96H2.63156Z" fill="white"/>
<path d="M2.63156 96V40.0295L36.4034 59.3616M2.63156 96H97.368M2.63156 96L36.4034 59.3616M97.368 96V40.0295L64.1003 59.3616M97.368 96L64.1003 59.3616M36.4034 59.3616L49.3548 66.7754C49.9744 67.13 50.7361 67.1276 51.3533 66.7689L64.1003 59.3616" stroke="#1A3185" stroke-width="3"/>
</svg>
