<svg width="145" height="125" viewBox="0 0 145 125" fill="none" xmlns="http://www.w3.org/2000/svg">
<path d="M38.3026 118.357C-25.6974 121.557 3.30243 52.357 33.3026 39.3567C57.3033 22.3563 144.303 24.4764 144.303 59.3567C144.303 83.3564 115.303 59.3567 81.3033 83.357C69.3033 96.3573 102.303 115.157 38.3026 118.357Z" fill="#3D9922"/>
<rect x="59" y="1" width="10" height="12" fill="white" stroke="#1A3185" stroke-width="2"/>
<circle cx="64" cy="32" r="25" fill="white" stroke="#1A3185" stroke-width="2"/>
<rect x="27" y="63" width="9" height="34" fill="white" stroke="#1A3185" stroke-width="2"/>
<rect x="49" y="63" width="9" height="34" fill="white" stroke="#1A3185" stroke-width="2"/>
<rect x="71" y="63" width="9" height="34" fill="white" stroke="#1A3185" stroke-width="2"/>
<rect x="93" y="63" width="9" height="34" fill="white" stroke="#1A3185" stroke-width="2"/>
<path d="M63.4816 21.4837C63.8002 21.2905 64.1998 21.2905 64.5184 21.4837L109.323 48.6449C110.188 49.1694 109.816 50.5 108.804 50.5H19.1956C18.1838 50.5 17.812 49.1694 18.6772 48.6449L63.4816 21.4837Z" fill="white" stroke="#1A3185" stroke-width="2"/>
<rect x="20" y="51" width="88" height="7" rx="1" fill="white" stroke="#1A3185" stroke-width="2"/>
<rect x="20" y="102" width="88" height="7" rx="1" fill="white" stroke="#1A3185" stroke-width="2"/>
<rect x="24" y="97" width="15" height="5" rx="1" fill="white" stroke="#1A3185" stroke-width="2"/>
<rect x="24" y="58" width="15" height="5" rx="1" fill="white" stroke="#1A3185" stroke-width="2"/>
<rect x="46" y="97" width="15" height="5" rx="1" fill="white" stroke="#1A3185" stroke-width="2"/>
<rect x="46" y="58" width="15" height="5" rx="1" fill="white" stroke="#1A3185" stroke-width="2"/>
<rect x="68" y="97" width="15" height="5" rx="1" fill="white" stroke="#1A3185" stroke-width="2"/>
<rect x="68" y="58" width="15" height="5" rx="1" fill="white" stroke="#1A3185" stroke-width="2"/>
<rect x="90" y="97" width="15" height="5" rx="1" fill="white" stroke="#1A3185" stroke-width="2"/>
<rect x="90" y="58" width="15" height="5" rx="1" fill="white" stroke="#1A3185" stroke-width="2"/>
<mask id="path-19-inside-1_53_1111" fill="white">
<path fill-rule="evenodd" clip-rule="evenodd" d="M101.386 92.8711C100.79 84.8603 95.2442 77.7286 87.0514 75.5005C76.6593 72.6742 65.9437 78.8075 63.1174 89.1996C60.2912 99.5917 66.4244 110.307 76.8165 113.134C85.0094 115.362 93.4033 112.021 97.974 105.415L131.853 114.629L138.866 109.801L135.265 102.085L131.456 101.049L128.425 104.37L127.494 99.9717L123.266 98.8219L119.478 102.973L118.314 97.4751L115.596 96.7358L112.766 99.0751L111.51 95.6247L101.386 92.8711ZM75.8778 88.0065C78.5424 88.7312 80.1151 91.4788 79.3904 94.1434C78.6657 96.808 75.9181 98.3807 73.2535 97.656C70.5888 96.9313 69.0162 94.1837 69.7409 91.5191C70.4656 88.8544 73.2131 87.2818 75.8778 88.0065Z"/>
</mask>
<path fill-rule="evenodd" clip-rule="evenodd" d="M101.386 92.8711C100.79 84.8603 95.2442 77.7286 87.0514 75.5005C76.6593 72.6742 65.9437 78.8075 63.1174 89.1996C60.2912 99.5917 66.4244 110.307 76.8165 113.134C85.0094 115.362 93.4033 112.021 97.974 105.415L131.853 114.629L138.866 109.801L135.265 102.085L131.456 101.049L128.425 104.37L127.494 99.9717L123.266 98.8219L119.478 102.973L118.314 97.4751L115.596 96.7358L112.766 99.0751L111.51 95.6247L101.386 92.8711ZM75.8778 88.0065C78.5424 88.7312 80.1151 91.4788 79.3904 94.1434C78.6657 96.808 75.9181 98.3807 73.2535 97.656C70.5888 96.9313 69.0162 94.1837 69.7409 91.5191C70.4656 88.8544 73.2131 87.2818 75.8778 88.0065Z" fill="white"/>
<path d="M101.386 92.8711L100.861 94.801L99.496 94.4298L99.3911 93.0193L101.386 92.8711ZM97.974 105.415L96.3293 104.277L97.1341 103.114L98.4989 103.486L97.974 105.415ZM131.853 114.629L132.987 116.277L132.223 116.803L131.328 116.559L131.853 114.629ZM138.866 109.801L140.678 108.955L141.394 110.488L140 111.448L138.866 109.801ZM135.265 102.085L135.789 100.155L136.685 100.399L137.077 101.239L135.265 102.085ZM131.456 101.049L129.978 99.701L130.802 98.7986L131.981 99.1192L131.456 101.049ZM128.425 104.37L129.903 105.718L127.276 108.597L126.469 104.784L128.425 104.37ZM127.494 99.9717L128.019 98.0418L129.198 98.3623L129.451 99.5575L127.494 99.9717ZM123.266 98.8219L121.789 97.4738L122.613 96.5714L123.791 96.892L123.266 98.8219ZM119.478 102.973L120.956 104.321L118.329 107.2L117.522 103.387L119.478 102.973ZM118.314 97.4751L118.839 95.5452L120.018 95.8658L120.271 97.0609L118.314 97.4751ZM115.596 96.7358L114.322 95.1943L115.121 94.5339L116.121 94.8059L115.596 96.7358ZM112.766 99.0751L114.04 100.617L111.856 102.422L110.886 99.7589L112.766 99.0751ZM111.51 95.6247L112.035 93.6948L113.036 93.9668L113.39 94.9408L111.51 95.6247ZM87.5763 73.5706C96.6124 76.0281 102.724 83.8932 103.38 92.7228L99.3911 93.0193C98.8565 85.8273 93.8761 79.4292 86.5265 77.4304L87.5763 73.5706ZM61.1875 88.6747C64.3037 77.2168 76.1183 70.4544 87.5763 73.5706L86.5265 77.4304C77.2003 74.894 67.5837 80.3982 65.0473 89.7244L61.1875 88.6747ZM76.2917 115.063C64.8337 111.947 58.0714 100.133 61.1875 88.6747L65.0473 89.7244C62.5109 99.0507 68.0152 108.667 77.3414 111.204L76.2917 115.063ZM99.6187 106.553C94.5808 113.834 85.3278 117.521 76.2917 115.063L77.3414 111.204C84.6909 113.202 92.2258 110.208 96.3293 104.277L99.6187 106.553ZM131.328 116.559L97.4491 107.345L98.4989 103.486L132.378 112.699L131.328 116.559ZM140 111.448L132.987 116.277L130.719 112.982L137.732 108.153L140 111.448ZM137.077 101.239L140.678 108.955L137.054 110.646L133.452 102.931L137.077 101.239ZM131.981 99.1192L135.789 100.155L134.74 104.015L130.931 102.979L131.981 99.1192ZM126.948 103.022L129.978 99.701L132.933 102.397L129.903 105.718L126.948 103.022ZM129.451 99.5575L130.382 103.956L126.469 104.784L125.537 100.386L129.451 99.5575ZM123.791 96.892L128.019 98.0418L126.969 101.902L122.742 100.752L123.791 96.892ZM118.001 101.625L121.789 97.4738L124.744 100.17L120.956 104.321L118.001 101.625ZM120.271 97.0609L121.435 102.559L117.522 103.387L116.358 97.8893L120.271 97.0609ZM116.121 94.8059L118.839 95.5452L117.789 99.405L115.071 98.6657L116.121 94.8059ZM111.492 97.5336L114.322 95.1943L116.87 98.2773L114.04 100.617L111.492 97.5336ZM113.39 94.9408L114.645 98.3912L110.886 99.7589L109.631 96.3085L113.39 94.9408ZM101.91 90.9412L112.035 93.6948L110.986 97.5546L100.861 94.801L101.91 90.9412ZM77.4605 93.6185C77.8953 92.0198 76.9517 90.3712 75.3529 89.9364L76.4027 86.0766C80.1331 87.0912 82.3348 90.9378 81.3203 94.6683L77.4605 93.6185ZM73.7783 95.7261C75.3771 96.1609 77.0257 95.2173 77.4605 93.6185L81.3203 94.6683C80.3057 98.3988 76.4591 100.6 72.7286 99.5859L73.7783 95.7261ZM71.6708 92.0439C71.236 93.6427 72.1795 95.2913 73.7783 95.7261L72.7286 99.5859C68.9981 98.5713 66.7964 94.7247 67.811 90.9942L71.6708 92.0439ZM75.3529 89.9364C73.7541 89.5016 72.1056 90.4452 71.6708 92.0439L67.811 90.9942C68.8255 87.2637 72.6722 85.062 76.4027 86.0766L75.3529 89.9364Z" fill="#1A3185" mask="url(#path-19-inside-1_53_1111)"/>
<line x1="1" y1="-1" x2="14" y2="-1" transform="matrix(0.96495 0.262433 0.262433 -0.96495 98.6895 99.3921)" stroke="#1A3185" stroke-width="2" stroke-linecap="round"/>
</svg>
