<svg width="246" height="186" viewBox="0 0 246 186" fill="none" xmlns="http://www.w3.org/2000/svg">
<path d="M39.4474 143.358C-22.9202 93.5122 31.0006 77.7309 75.5444 61.2472C97.4935 49.3432 132.017 -8.03588 152.948 24.8654C166.342 45.9189 192.896 47.3507 217.655 88.2712C226.587 106.981 233.597 154.736 201.206 155.316C172.473 155.83 188.462 140.563 146.479 142.175L146.008 142.193C131.316 142.756 121.134 143.145 122.277 160.637C120.654 175.647 101.815 193.204 39.4474 143.358Z" fill="#3D9922"/>
<rect x="67" y="85" width="113" height="73" rx="1" fill="white" stroke="#1A3185" stroke-width="2"/>
<rect x="87" y="67" width="73" height="9" rx="4.5" fill="white" stroke="#1A3185" stroke-width="2"/>
<rect x="62" y="76" width="124" height="9" rx="4.5" fill="white" stroke="#1A3185" stroke-width="2"/>
<rect x="118" y="32" width="10" height="12" fill="white" stroke="#1A3185" stroke-width="2"/>
<rect x="86" y="103" width="9" height="34" stroke="#1A3185" stroke-width="2"/>
<rect x="108" y="103" width="9" height="34" stroke="#1A3185" stroke-width="2"/>
<rect x="130" y="103" width="9" height="34" stroke="#1A3185" stroke-width="2"/>
<rect x="152" y="103" width="9" height="34" stroke="#1A3185" stroke-width="2"/>
<rect x="79" y="91" width="88" height="7" rx="1" fill="white" stroke="#1A3185" stroke-width="2"/>
<rect x="79" y="142" width="88" height="7" rx="1" fill="white" stroke="#1A3185" stroke-width="2"/>
<rect x="83" y="137" width="15" height="5" rx="1" stroke="#1A3185" stroke-width="2"/>
<rect x="83" y="98" width="15" height="5" rx="1" stroke="#1A3185" stroke-width="2"/>
<rect x="105" y="137" width="15" height="5" rx="1" stroke="#1A3185" stroke-width="2"/>
<rect x="105" y="98" width="15" height="5" rx="1" stroke="#1A3185" stroke-width="2"/>
<rect x="127" y="137" width="15" height="5" rx="1" stroke="#1A3185" stroke-width="2"/>
<rect x="127" y="98" width="15" height="5" rx="1" stroke="#1A3185" stroke-width="2"/>
<rect x="149" y="137" width="15" height="5" rx="1" stroke="#1A3185" stroke-width="2"/>
<rect x="149" y="98" width="15" height="5" rx="1" stroke="#1A3185" stroke-width="2"/>
<rect x="74" y="149" width="99" height="9" rx="1" fill="white" stroke="#1A3185" stroke-width="2"/>
<rect x="130" y="16" width="13" height="13" rx="1" fill="white" stroke="#1A3185" stroke-width="2"/>
<rect x="123" y="11" width="13" height="13" rx="1" fill="white" stroke="#1A3185" stroke-width="2"/>
<path d="M67 107C67 104.239 69.2386 102 72 102C74.7614 102 77 104.239 77 107V135H67V107Z" fill="white" stroke="#1A3185" stroke-width="2"/>
<path d="M170 107C170 104.239 172.239 102 175 102C177.761 102 180 104.239 180 107V135H170V107Z" fill="white" stroke="#1A3185" stroke-width="2"/>
<mask id="path-25-inside-1_53_1402" fill="white">
<path fill-rule="evenodd" clip-rule="evenodd" d="M156 68C156 50.3269 141.673 36 124 36C106.327 36 92 50.3269 92 68H156Z"/>
</mask>
<path fill-rule="evenodd" clip-rule="evenodd" d="M156 68C156 50.3269 141.673 36 124 36C106.327 36 92 50.3269 92 68H156Z" fill="white"/>
<path d="M156 68V70H158V68H156ZM92 68H90V70H92V68ZM124 38C140.569 38 154 51.4315 154 68H158C158 49.2223 142.778 34 124 34V38ZM94 68C94 51.4315 107.431 38 124 38V34C105.222 34 90 49.2223 90 68H94ZM92 70H156V66H92V70Z" fill="#1A3185" mask="url(#path-25-inside-1_53_1402)"/>
<path d="M122.482 61.4837C122.8 61.2905 123.2 61.2905 123.518 61.4837L168.323 88.6449C169.188 89.1694 168.816 90.5 167.804 90.5H78.1956C77.1838 90.5 76.812 89.1694 77.6772 88.6449L122.482 61.4837Z" fill="white" stroke="#1A3185" stroke-width="2"/>
<line x1="123" y1="12" x2="123" y2="33" stroke="#1A3185" stroke-width="2"/>
<path d="M171.23 168.872L191.536 113.221L207.644 120.801L177.274 171.715L171.23 168.872Z" fill="white" stroke="#1A3185" stroke-width="2"/>
<path d="M189.294 116.588L206.033 124.464" stroke="#1A3185" stroke-width="2"/>
<rect x="193.527" y="125.21" width="4" height="15" rx="2" transform="rotate(25.1988 193.527 125.21)" stroke="#1A3185" stroke-width="2"/>
<path d="M189.668 132.236L194.193 134.365" stroke="#1A3185" stroke-width="2"/>
<mask id="path-33-inside-2_53_1402" fill="white">
<path d="M221.096 108.896C217.216 117.141 207.387 120.68 199.141 116.801C190.896 112.921 187.356 103.091 191.236 94.8457C195.116 86.6002 204.946 83.0611 213.191 86.9409C221.437 90.8208 224.976 100.65 221.096 108.896Z"/>
</mask>
<path d="M221.096 108.896C217.216 117.141 207.387 120.68 199.141 116.801C190.896 112.921 187.356 103.091 191.236 94.8457C195.116 86.6002 204.946 83.0611 213.191 86.9409C221.437 90.8208 224.976 100.65 221.096 108.896Z" fill="white"/>
<path d="M219.286 108.044C215.877 115.29 207.239 118.4 199.993 114.991L198.29 118.61C207.534 122.96 218.555 118.992 222.906 109.747L219.286 108.044ZM199.993 114.991C192.747 111.581 189.636 102.943 193.046 95.6972L189.427 93.9942C185.077 103.239 189.045 114.26 198.29 118.61L199.993 114.991ZM193.046 95.6972C196.456 88.4512 205.094 85.3411 212.34 88.7506L214.043 85.1313C204.798 80.7812 193.777 84.7492 189.427 93.9942L193.046 95.6972ZM212.34 88.7506C219.586 92.1602 222.696 100.798 219.286 108.044L222.906 109.747C227.256 100.502 223.288 89.4814 214.043 85.1313L212.34 88.7506Z" fill="#1A3185" mask="url(#path-33-inside-2_53_1402)"/>
<rect x="190.066" y="111.425" width="2" height="21" rx="1" transform="rotate(-64.8012 190.066 111.425)" fill="white" stroke="#1A3185" stroke-width="2"/>
<path d="M193.001 94.416L220.001 106.916M191.501 97.416L218.501 109.916" stroke="#1A3185" stroke-width="2"/>
<path d="M77.808 168.872L57.5016 113.221L41.3932 120.801L71.764 171.715L77.808 168.872Z" fill="white" stroke="#1A3185" stroke-width="2"/>
<path d="M59.7437 116.588L43.0042 124.464" stroke="#1A3185" stroke-width="2"/>
<rect x="-0.479076" y="1.3306" width="4" height="15" rx="2" transform="matrix(-0.904836 0.42576 0.42576 0.904836 54.5107 124.21)" fill="white" stroke="#1A3185" stroke-width="2"/>
<path d="M59.3691 132.236L54.845 134.365" stroke="#1A3185" stroke-width="2"/>
<mask id="path-41-inside-3_53_1402" fill="white">
<path d="M27.9417 108.896C31.8215 117.141 41.651 120.68 49.8965 116.801C58.142 112.921 61.6811 103.091 57.8013 94.8457C53.9215 86.6002 44.0919 83.0611 35.8465 86.9409C27.601 90.8208 24.0619 100.65 27.9417 108.896Z"/>
</mask>
<path d="M27.9417 108.896C31.8215 117.141 41.651 120.68 49.8965 116.801C58.142 112.921 61.6811 103.091 57.8013 94.8457C53.9215 86.6002 44.0919 83.0611 35.8465 86.9409C27.601 90.8208 24.0619 100.65 27.9417 108.896Z" fill="white"/>
<path d="M29.7514 108.044C33.1609 115.29 41.799 118.4 49.045 114.991L50.7481 118.61C41.5031 122.96 30.4821 118.992 26.132 109.747L29.7514 108.044ZM49.045 114.991C56.2911 111.581 59.4012 102.943 55.9916 95.6972L59.611 93.9942C63.9611 103.239 59.993 114.26 50.7481 118.61L49.045 114.991ZM55.9916 95.6972C52.5821 88.4512 43.944 85.3411 36.698 88.7506L34.9949 85.1313C44.2399 80.7812 55.2609 84.7492 59.611 93.9942L55.9916 95.6972ZM36.698 88.7506C29.4519 92.1602 26.3418 100.798 29.7514 108.044L26.132 109.747C21.7819 100.502 25.75 89.4814 34.9949 85.1313L36.698 88.7506Z" fill="#1A3185" mask="url(#path-41-inside-3_53_1402)"/>
<rect x="-1.3306" y="-0.479076" width="2" height="21" rx="1" transform="matrix(-0.42576 -0.904836 -0.904836 0.42576 57.9716 110.425)" fill="white" stroke="#1A3185" stroke-width="2"/>
<path d="M56.0366 94.416L29.0366 106.916M57.5366 97.416L30.5366 109.916" stroke="#1A3185" stroke-width="2"/>
</svg>
