<svg width="134" height="120" viewBox="0 0 134 120" fill="none" xmlns="http://www.w3.org/2000/svg">
<path d="M84.9974 40.2664L119.133 61.592H132.5V101.578L119.133 109.575V98.9119C115.492 101.133 104.66 105.576 90.4598 105.576C76.2595 105.576 65.4272 97.5791 61.7861 93.5805H60.4207C59.9656 98.9119 61.7861 109.575 50.8628 109.575C43.0971 109.575 41.641 105.175 41.368 98.5212C41.433 105.175 40.8783 109.575 33.1125 109.575C23.5546 109.575 22.6443 98.9119 23.5546 93.5805C21.7338 96.2462 15.9075 100.245 7.16888 94.9134C-1.56976 89.582 1.70723 82.0291 4.43805 78.9191L44.035 45.5978L84.9974 40.2664Z" fill="white"/>
<path d="M119.133 61.592L84.9974 40.2664L44.035 45.5978L4.43805 78.9191C1.70723 82.0291 -1.56976 89.582 7.16888 94.9134C15.9075 100.245 21.7338 96.2462 23.5546 93.5805M119.133 61.592V98.9119M119.133 61.592H132.5V101.578L119.133 109.575V98.9119M23.5546 93.5805C21.7341 92.6919 18.093 89.582 18.093 84.2505C18.093 78.9191 22.6443 75.8091 24.92 74.9206C37.6639 74.9206 63.6977 74.9206 65.8824 74.9206C68.6132 74.9206 78.1711 70.922 76.8057 61.592M23.5546 93.5805C22.6443 98.9119 23.5546 109.575 33.1125 109.575C42.6704 109.575 41.305 102.91 41.305 93.5805M23.5546 93.5805H41.305M119.133 98.9119C115.492 101.133 104.66 105.576 90.4598 105.576C76.2595 105.576 65.4272 97.5791 61.7861 93.5805H60.4207M41.305 93.5805C41.305 102.91 41.305 109.575 50.8628 109.575C61.7861 109.575 59.9656 98.9119 60.4207 93.5805M41.305 93.5805H60.4207" stroke="#1A3185" stroke-width="3"/>
<path d="M91.3972 19.1396L36.835 73.6668H55.466L100.713 27.1192L91.3972 19.1396Z" fill="white" stroke="#1A3185" stroke-width="3"/>
<path d="M16.1369 102.191C17.9113 99.5307 21.7262 94.2109 22.7908 94.2109H36.0987L21.46 107.51L12.1445 111.5L16.1369 102.191Z" fill="white" stroke="#1A3185" stroke-width="3"/>
<path d="M99.3821 11.1599L91.3974 19.1395L100.713 27.119L108.698 19.1395L111.359 13.8197L106.036 8.5L99.3821 11.1599Z" fill="white"/>
<path d="M108.698 19.1395L111.359 13.8197L106.036 8.5L99.3821 11.1599L91.3974 19.1395L100.713 27.119L108.698 19.1395ZM108.698 19.1395L110.028 25.7891L83.4127 52.3877" stroke="#1A3185" stroke-width="3"/>
</svg>
