<svg width="52" height="51" viewBox="0 0 52 51" fill="none" xmlns="http://www.w3.org/2000/svg">
<path fill-rule="evenodd" clip-rule="evenodd" d="M39.619 44.5379C35.7585 47.0938 31.0717 48.5952 26 48.5952C20.9283 48.5952 16.2415 47.0938 12.381 44.5379V43.3809C12.381 35.8593 18.4784 29.7619 26 29.7619C33.5216 29.7619 39.619 35.8593 39.619 43.3809V44.5379ZM39.619 46.8952C35.6583 49.2416 30.9935 50.5952 26 50.5952C21.0065 50.5952 16.3417 49.2416 12.381 46.8952C12.0706 46.7114 11.7646 46.5215 11.4632 46.3256C4.54711 41.8329 0 34.2247 0 25.5952C0 11.7881 11.6406 0.595215 26 0.595215C40.3594 0.595215 52 11.7881 52 25.5952C52 34.6008 47.0478 42.4943 39.619 46.8952ZM26 27.9762C30.4446 27.9762 34.0476 24.5117 34.0476 20.2381C34.0476 15.9644 30.4446 12.5 26 12.5C21.5554 12.5 17.9524 15.9644 17.9524 20.2381C17.9524 24.5117 21.5554 27.9762 26 27.9762Z" fill="#0B0A3E"/>
</svg>
