<svg width="33" height="32" viewBox="0 0 33 32" fill="none" xmlns="http://www.w3.org/2000/svg">
<rect x="0.235352" width="32" height="32" rx="16" fill="#1A3185"/>
<path d="M16.2092 19.624C15.9052 19.624 15.6652 19.528 15.4892 19.336C15.3292 19.128 15.2492 18.856 15.2492 18.52C15.2492 18.024 15.3052 17.56 15.4172 17.128C15.5452 16.68 15.7452 16.232 16.0172 15.784C16.2892 15.336 16.6492 14.864 17.0972 14.368C17.4332 13.984 17.6972 13.648 17.8892 13.36C18.0972 13.056 18.2412 12.768 18.3212 12.496C18.4172 12.224 18.4652 11.944 18.4652 11.656C18.4652 11.128 18.2732 10.712 17.8892 10.408C17.5052 10.104 16.9612 9.95199 16.2572 9.95199C15.6172 9.95199 15.0332 10.04 14.5052 10.216C13.9932 10.376 13.4732 10.608 12.9452 10.912C12.5932 11.12 12.2732 11.216 11.9852 11.2C11.7132 11.168 11.4892 11.064 11.3132 10.888C11.1372 10.712 11.0252 10.496 10.9772 10.24C10.9292 9.98399 10.9692 9.71999 11.0972 9.44799C11.2252 9.17599 11.4572 8.92799 11.7932 8.70399C12.4492 8.27199 13.2012 7.94398 14.0492 7.71999C14.8972 7.47999 15.6972 7.35999 16.4492 7.35999C17.4572 7.35999 18.3372 7.52799 19.0892 7.86399C19.8572 8.19999 20.4492 8.66399 20.8652 9.25599C21.2972 9.84799 21.5132 10.544 21.5132 11.344C21.5132 11.84 21.4412 12.312 21.2972 12.76C21.1532 13.192 20.9212 13.632 20.6012 14.08C20.2812 14.512 19.8412 14.984 19.2812 15.496C18.7852 15.944 18.3852 16.352 18.0812 16.72C17.7932 17.088 17.5772 17.44 17.4332 17.776C17.3052 18.112 17.2172 18.472 17.1692 18.856C17.1532 19.08 17.0572 19.264 16.8812 19.408C16.7212 19.552 16.4972 19.624 16.2092 19.624ZM16.1612 24.64C15.6172 24.64 15.1772 24.472 14.8412 24.136C14.5212 23.8 14.3612 23.368 14.3612 22.84C14.3612 22.328 14.5212 21.912 14.8412 21.592C15.1772 21.256 15.6172 21.088 16.1612 21.088C16.7212 21.088 17.1532 21.256 17.4572 21.592C17.7772 21.912 17.9372 22.328 17.9372 22.84C17.9372 23.368 17.7772 23.8 17.4572 24.136C17.1532 24.472 16.7212 24.64 16.1612 24.64Z" fill="white"/>
</svg>
