<svg width="116" height="113" viewBox="0 0 116 113" fill="none" xmlns="http://www.w3.org/2000/svg">
<mask id="path-1-outside-1_57_908" maskUnits="userSpaceOnUse" x="2.25831" y="0.918946" width="112" height="110" fill="black">
<rect fill="white" x="2.25831" y="0.918946" width="112" height="110"/>
<path fill-rule="evenodd" clip-rule="evenodd" d="M91.9926 14.1701C92.4628 13.9952 92.9386 14.4144 92.8242 14.903L85.4376 46.4409C85.3645 46.7529 85.5377 47.07 85.8397 47.1771L107.839 54.9765C108.253 55.1232 108.393 55.6381 108.11 55.9741L100.757 64.7147C100.566 64.9412 100.559 65.2699 100.74 65.5041L108.115 75.0495C108.395 75.412 108.206 75.9428 107.76 76.0465L73.4322 84.0236C73.1471 84.0899 72.9454 84.3441 72.9457 84.6368L72.9623 102.066C72.9627 102.46 72.6041 102.758 72.2166 102.685L56.8636 99.781C56.758 99.761 56.6489 99.7684 56.5469 99.8026L40.8727 105.056C40.512 105.177 40.1274 104.953 40.0554 104.579L34.9577 78.1379L10.8712 77.9368C10.4833 77.9336 10.1908 77.5834 10.2568 77.2011L12.7768 62.5867C12.7936 62.4888 12.7871 62.3884 12.7577 62.2935L7.33438 44.8066C7.2088 44.4017 7.51168 43.991 7.93564 43.9914L27.0509 44.0096C27.3891 44.01 27.667 43.7428 27.6799 43.4049L29.0486 7.71377C29.0673 7.22704 29.6083 6.94538 30.0177 7.20928L39.7482 13.4813C39.9634 13.62 40.2412 13.6144 40.4506 13.4672L49.6029 7.03346C49.9082 6.81881 50.3322 6.9158 50.5139 7.24185L60.5708 25.2922C60.7219 25.5635 61.0484 25.6838 61.3395 25.5755L91.9926 14.1701Z"/>
</mask>
<path fill-rule="evenodd" clip-rule="evenodd" d="M91.9926 14.1701C92.4628 13.9952 92.9386 14.4144 92.8242 14.903L85.4376 46.4409C85.3645 46.7529 85.5377 47.07 85.8397 47.1771L107.839 54.9765C108.253 55.1232 108.393 55.6381 108.11 55.9741L100.757 64.7147C100.566 64.9412 100.559 65.2699 100.74 65.5041L108.115 75.0495C108.395 75.412 108.206 75.9428 107.76 76.0465L73.4322 84.0236C73.1471 84.0899 72.9454 84.3441 72.9457 84.6368L72.9623 102.066C72.9627 102.46 72.6041 102.758 72.2166 102.685L56.8636 99.781C56.758 99.761 56.6489 99.7684 56.5469 99.8026L40.8727 105.056C40.512 105.177 40.1274 104.953 40.0554 104.579L34.9577 78.1379L10.8712 77.9368C10.4833 77.9336 10.1908 77.5834 10.2568 77.2011L12.7768 62.5867C12.7936 62.4888 12.7871 62.3884 12.7577 62.2935L7.33438 44.8066C7.2088 44.4017 7.51168 43.991 7.93564 43.9914L27.0509 44.0096C27.3891 44.01 27.667 43.7428 27.6799 43.4049L29.0486 7.71377C29.0673 7.22704 29.6083 6.94538 30.0177 7.20928L39.7482 13.4813C39.9634 13.62 40.2412 13.6144 40.4506 13.4672L49.6029 7.03346C49.9082 6.81881 50.3322 6.9158 50.5139 7.24185L60.5708 25.2922C60.7219 25.5635 61.0484 25.6838 61.3395 25.5755L91.9926 14.1701Z" fill="#FF8600"/>
<path d="M52.4981 57.062L60.4194 49.1406L63.955 52.6762L56.0336 60.5975L52.4981 57.062ZM51.7925 59.1935L50.1536 48.049L55.1004 47.3215L56.7393 58.466L51.7925 59.1935ZM54.8583 56.401L66.6247 59.2711L65.4398 64.1287L53.6734 61.2585L54.8583 56.401ZM42.844 66.716L52.4981 57.062L56.0336 60.5975L46.3796 70.2516L42.844 66.716ZM42.2213 69.2157L35.3688 46.8328L40.1497 45.3691L47.0023 67.7519L42.2213 69.2157ZM45.602 66.1883L64.3415 74.2721L62.361 78.8632L43.6216 70.7793L45.602 66.1883ZM33.19 76.3701L35.9915 73.5686L39.527 77.1041L36.7255 79.9056L33.19 76.3701ZM35.9915 73.5686L42.844 66.716L46.3796 70.2516L39.527 77.1041L35.9915 73.5686ZM35.5634 76.5315L23.4986 54.3644L27.8903 51.9741L39.9551 74.1412L35.5634 76.5315ZM38.9836 73.1567L60.9195 85.4778L58.4709 89.8372L36.535 77.516L38.9836 73.1567ZM34.9577 78.1379L34.9995 73.138L39.0925 73.1722L39.8673 77.1913L34.9577 78.1379ZM60.5708 25.2922L56.203 27.7258L60.5708 25.2922ZM61.3395 25.5755L63.0831 30.2617L61.3395 25.5755ZM49.6029 7.03346L52.4783 11.1239V11.1239L49.6029 7.03346ZM50.5139 7.24185L54.8817 4.80829V4.80829L50.5139 7.24185ZM39.7482 13.4813L37.0393 17.6839L39.7482 13.4813ZM40.4506 13.4672L37.5751 9.37676V9.37676L40.4506 13.4672ZM29.0486 7.71377L34.0449 7.90537V7.90537L29.0486 7.71377ZM30.0177 7.20928L32.7266 3.00667L30.0177 7.20928ZM27.0509 44.0096L27.0557 39.0096L27.0509 44.0096ZM27.6799 43.4049L22.6836 43.2133L27.6799 43.4049ZM7.33438 44.8066L12.11 43.3255L7.33438 44.8066ZM7.93564 43.9914L7.93087 48.9914L7.93564 43.9914ZM10.8712 77.9368L10.8295 82.9367L10.8712 77.9368ZM10.2568 77.2011L5.32947 76.3515L10.2568 77.2011ZM40.8727 105.056L39.2837 100.316L40.8727 105.056ZM40.0554 104.579L44.965 103.633L40.0554 104.579ZM56.8636 99.781L55.9345 104.694H55.9345L56.8636 99.781ZM56.5469 99.8026L58.136 104.543L56.5469 99.8026ZM72.9623 102.066L67.9623 102.071L72.9623 102.066ZM72.2166 102.685L73.1457 97.7716L72.2166 102.685ZM73.4322 84.0236L72.3005 79.1534L73.4322 84.0236ZM72.9457 84.6368L77.9457 84.6321L72.9457 84.6368ZM108.115 75.0495L112.072 71.9925H112.072L108.115 75.0495ZM107.76 76.0465L108.892 80.9168H108.892L107.76 76.0465ZM100.757 64.7147L104.583 67.9337L100.757 64.7147ZM100.74 65.5041L96.7836 68.5611L100.74 65.5041ZM107.839 54.9765L109.51 50.2639H109.51L107.839 54.9765ZM108.11 55.9741L104.284 52.7552H104.284L108.11 55.9741ZM85.4376 46.4409L90.3058 47.5811L85.4376 46.4409ZM85.8397 47.1771L84.169 51.8897H84.169L85.8397 47.1771ZM12.7768 62.5867L17.704 63.4363L12.7768 62.5867ZM12.7577 62.2935L7.98208 63.7746L12.7577 62.2935ZM92.8242 14.903L97.6924 16.0432L92.8242 14.903ZM91.9926 14.1701L90.2489 9.48402L91.9926 14.1701ZM97.6924 16.0432L90.3058 47.5811L80.5693 45.3007L87.9559 13.7628L97.6924 16.0432ZM87.5105 42.4645L109.51 50.2639L106.169 59.6891L84.169 51.8897L87.5105 42.4645ZM111.936 59.1931L104.583 67.9337L96.9306 61.4958L104.284 52.7552L111.936 59.1931ZM104.697 62.4471L112.072 71.9925L104.159 78.1064L96.7836 68.5611L104.697 62.4471ZM108.892 80.9168L74.564 88.8939L72.3005 79.1534L106.628 71.1763L108.892 80.9168ZM77.9457 84.6321L77.9623 102.061L67.9623 102.071L67.9457 84.6416L77.9457 84.6321ZM71.2874 107.597L55.9345 104.694L57.7928 94.8681L73.1457 97.7716L71.2874 107.597ZM58.136 104.543L42.4618 109.797L39.2837 100.316L54.9579 95.0618L58.136 104.543ZM35.1458 105.526L30.0482 79.0844L39.8673 77.1913L44.965 103.633L35.1458 105.526ZM34.916 83.1377L10.8295 82.9367L10.913 72.937L34.9995 73.138L34.916 83.1377ZM5.32947 76.3515L7.84947 61.737L17.704 63.4363L15.184 78.0507L5.32947 76.3515ZM7.98208 63.7746L2.55878 46.2877L12.11 43.3255L17.5333 60.8124L7.98208 63.7746ZM7.9404 38.9914L27.0557 39.0096L27.0461 49.0096L7.93087 48.9914L7.9404 38.9914ZM22.6836 43.2133L24.0523 7.52217L34.0449 7.90537L32.6762 43.5965L22.6836 43.2133ZM32.7266 3.00667L42.4571 9.27871L37.0393 17.6839L27.3088 11.4119L32.7266 3.00667ZM37.5751 9.37676L46.7274 2.94301L52.4783 11.1239L43.3261 17.5577L37.5751 9.37676ZM54.8817 4.80829L64.9386 22.8587L56.203 27.7258L46.1461 9.67541L54.8817 4.80829ZM59.5958 20.8894L90.2489 9.48402L93.7362 18.8563L63.0831 30.2617L59.5958 20.8894ZM64.9386 22.8587C63.8881 20.9732 61.6187 20.1367 59.5958 20.8894L63.0831 30.2617C60.4781 31.2309 57.5557 30.1537 56.203 27.7258L64.9386 22.8587ZM46.7274 2.94301C49.4605 1.02175 53.2557 1.88991 54.8817 4.80829L46.1461 9.67541C47.4088 11.9417 50.356 12.6159 52.4783 11.1239L46.7274 2.94301ZM42.4571 9.27871C40.9615 8.31469 39.0308 8.35346 37.5751 9.37676L43.3261 17.5577C41.4515 18.8754 38.9653 18.9253 37.0393 17.6839L42.4571 9.27871ZM24.0523 7.52217C24.2193 3.16565 29.0622 0.644652 32.7266 3.00667L27.3088 11.4119C30.1545 13.2461 33.9152 11.2884 34.0449 7.90537L24.0523 7.52217ZM27.0557 39.0096C24.7051 39.0074 22.7737 40.8645 22.6836 43.2133L32.6762 43.5965C32.5603 46.6211 30.073 49.0125 27.0461 49.0096L27.0557 39.0096ZM2.55878 46.2877C1.43475 42.6634 4.14572 38.9878 7.9404 38.9914L7.93087 48.9914C10.8776 48.9942 12.9828 46.14 12.11 43.3255L2.55878 46.2877ZM10.8295 82.9367C7.35757 82.9077 4.73949 79.7731 5.32947 76.3515L15.184 78.0507C15.6422 75.3937 13.6091 72.9595 10.913 72.937L10.8295 82.9367ZM42.4618 109.797C39.2331 110.879 35.7904 108.869 35.1458 105.526L44.965 103.633C44.4644 101.036 41.7909 99.4753 39.2837 100.316L42.4618 109.797ZM55.9345 104.694C56.669 104.833 57.427 104.781 58.136 104.543L54.9579 95.0618C55.8708 94.7558 56.8469 94.6892 57.7928 94.8681L55.9345 104.694ZM77.9623 102.061C77.9657 105.591 74.7562 108.253 71.2874 107.597L73.1457 97.7716C70.452 97.2622 67.9597 99.3293 67.9623 102.071L77.9623 102.061ZM74.564 88.8939C76.5457 88.4334 77.9477 86.6665 77.9457 84.6321L67.9457 84.6416C67.9432 82.0217 69.7485 79.7464 72.3005 79.1534L74.564 88.8939ZM112.072 71.9925C114.579 75.2376 112.886 79.9885 108.892 80.9168L106.628 71.1763C103.526 71.8971 102.212 75.5865 104.159 78.1064L112.072 71.9925ZM104.583 67.9337C105.907 66.3595 105.955 64.075 104.697 62.4471L96.7836 68.5611C95.1639 66.4648 95.2251 63.5229 96.9306 61.4958L104.583 67.9337ZM109.51 50.2639C113.214 51.5771 114.466 56.1858 111.936 59.1931L104.284 52.7552C102.32 55.0905 103.292 58.6693 106.169 59.6891L109.51 50.2639ZM90.3058 47.5811C90.8137 45.4125 89.6098 43.2087 87.5105 42.4645L84.169 51.8897C81.4656 50.9312 79.9152 48.0933 80.5693 45.3007L90.3058 47.5811ZM7.84947 61.737C7.73221 62.4171 7.77762 63.1154 7.98208 63.7746L17.5333 60.8124C17.7966 61.6613 17.8551 62.5605 17.704 63.4363L7.84947 61.737ZM87.9559 13.7628C87.1606 17.1586 90.4674 20.0725 93.7362 18.8563L90.2489 9.48402C94.4583 7.91779 98.7167 11.6701 97.6924 16.0432L87.9559 13.7628Z" fill="#12266F" mask="url(#path-1-outside-1_57_908)"/>
<path fill-rule="evenodd" clip-rule="evenodd" d="M56.557 3.8749C54.377 -0.037756 49.2888 -1.20168 45.6246 1.37413L39.9368 5.37252L33.7657 1.39478C28.8528 -1.77197 22.36 1.60793 22.136 7.44866L20.9995 37.0861L7.94229 37.0737C2.85483 37.0689 -0.779778 41.9966 0.72721 46.8557L5.70303 62.8998L3.43972 76.0256C2.64873 80.6129 6.15877 84.8154 10.8136 84.8543L29.2372 85.008L33.2628 105.889C34.127 110.372 38.7427 113.066 43.0713 111.615L57.1901 106.883L70.9311 109.482C75.5816 110.361 79.8846 106.792 79.8801 102.059L79.8682 89.6301L109.326 82.7847C114.681 81.5402 116.951 75.1706 113.589 70.82L109.315 65.2877L113.404 60.4276C116.796 56.3958 115.117 50.217 110.151 48.4564L93.4567 42.5379L99.5597 16.4805C100.933 10.6176 95.2237 5.58685 89.5803 7.68667L63.9865 17.2096L56.557 3.8749ZM47.7946 4.46102C49.6267 3.17312 52.1708 3.75508 53.2608 5.71141L62.2667 21.8755L90.8961 11.2231C93.7178 10.1732 96.5724 12.6886 95.8858 15.62L89.0126 44.9657L108.89 52.0128C111.373 52.8931 112.213 55.9825 110.517 57.9984L104.469 65.1868L110.603 73.127C112.284 75.3023 111.149 78.4871 108.472 79.1093L76.0921 86.6337L76.1068 102.063C76.109 104.429 73.9576 106.214 71.6323 105.774L56.9242 102.993L41.8721 108.038C39.7078 108.763 37.4 107.416 36.9679 105.174L32.3575 81.2607L10.8451 81.0811C8.51768 81.0617 6.76265 78.9604 7.15815 76.6668L9.57547 62.6478L4.33115 45.738C3.57767 43.3085 5.39497 40.8446 7.9387 40.847L24.6307 40.8629L25.9066 7.59326C26.0185 4.67288 29.2649 2.98294 31.7214 4.56631L40.0281 9.92063L47.7946 4.46102ZM52.1621 6.32357C51.4354 5.01937 49.7393 4.63138 48.5179 5.48999L40.0586 11.4367L31.0399 5.62349C29.4023 4.56791 27.238 5.69453 27.1634 7.64145L25.8411 42.1218L7.93749 42.1048C6.24168 42.1032 5.03014 43.7457 5.53247 45.3654L10.8663 62.5638L8.39761 76.8805C8.13396 78.4096 9.30396 79.8104 10.8556 79.8234L15.2052 79.8597L15.206 79.8597L15.2125 79.8598L15.2133 79.8598L33.3977 80.0115L38.2029 104.936C38.491 106.431 40.0295 107.329 41.4724 106.845L56.8355 101.696L67.5785 103.727L67.5806 103.728L67.5828 103.728L67.5848 103.729L71.866 104.538C73.4162 104.831 74.8505 103.642 74.849 102.064L74.8334 85.635L108.187 77.8842C109.972 77.4694 110.729 75.3462 109.608 73.896L102.853 65.1532L109.554 57.1887C110.685 55.8447 110.125 53.7852 108.47 53.1983L87.5313 45.775L94.6612 15.3332C95.1189 13.3789 93.2159 11.702 91.3347 12.4019L61.6935 23.4308L52.1621 6.32357ZM87.2746 46.8711C87.2747 46.8704 87.2749 46.8696 87.2751 46.8688L87.2746 46.8711ZM56.5131 101.635C56.5136 101.635 56.5141 101.635 56.5146 101.635L56.5131 101.635ZM34.1829 76.2447L15.252 76.0867L15.2512 76.0867L15.2447 76.0866L15.244 76.0866L12.3676 76.0626L14.636 62.9072C14.7035 62.5158 14.6774 62.114 14.5597 61.7346L9.64255 45.8797L27.0492 45.8963C28.4019 45.8976 29.5134 44.8289 29.5653 43.4771L30.8494 9.98991L38.7261 15.0671C39.5868 15.6218 40.6979 15.5995 41.5357 15.0106L49.5455 9.37995L58.9227 26.2104C59.5273 27.2955 60.8333 27.7769 61.9974 27.3437L90.4525 16.7562L83.6007 46.0107C83.3084 47.2587 84.0013 48.5269 85.2094 48.9552L105.498 56.1482L99.313 63.5001C98.5509 64.406 98.5235 65.7207 99.2473 66.6576L105.424 74.6523L73.0053 82.1859C71.8648 82.451 71.058 83.4677 71.0591 84.6386L71.0743 100.548L68.288 100.021L68.286 100.021L68.2838 100.021L68.2817 100.02L57.2143 97.9271C56.7915 97.8472 56.3553 97.877 55.9474 98.0137L41.6359 102.811L36.9999 78.7639L38.0822 77.6816L58.7714 89.3024C59.6798 89.8127 60.8299 89.4899 61.3402 88.5814C61.8505 87.6729 61.5277 86.5228 60.6192 86.0125L40.8534 74.9103L45.0404 70.7233L62.604 78.2999C63.5607 78.7127 64.6709 78.2716 65.0836 77.3149C65.4963 76.3581 65.0553 75.248 64.0986 74.8353L47.9114 67.8524L54.8497 60.9141L65.5852 63.5328C66.5975 63.7797 67.6183 63.1593 67.8653 62.147C68.1122 61.1347 67.4917 60.1139 66.4795 59.867L57.972 57.7918L63.5213 52.2424C64.2581 51.5057 64.2581 50.3111 63.5213 49.5743C62.7845 48.8375 61.59 48.8375 60.8532 49.5743L55.5863 54.8412L54.4936 47.4107C54.342 46.3799 53.3834 45.6671 52.3525 45.8187C51.3217 45.9703 50.6089 46.9288 50.7605 47.9597L52.2614 58.1661L45.4971 64.9304L39.5633 45.5487C39.2583 44.5524 38.2033 43.9919 37.207 44.297C36.2107 44.602 35.6503 45.6569 35.9553 46.6533L42.4759 67.9516L38.2099 72.2176L27.3516 52.2673C26.8535 51.3521 25.7078 51.014 24.7926 51.5121C23.8774 52.0102 23.5393 53.1559 24.0374 54.0711L35.428 74.9995L34.1829 76.2447ZM107.333 74.2088C107.332 74.2091 107.331 74.2093 107.33 74.2096L107.333 74.2088ZM9.13642 44.2477L9.13699 44.2496L9.13642 44.2477Z" fill="#12266F"/>
</svg>
