<svg width="163" height="140" viewBox="0 0 163 140" fill="none" xmlns="http://www.w3.org/2000/svg">
<path d="M19.1112 127.491C-23.8888 98.4913 19.1108 84.4913 19.1114 55.4909C19.1121 26.4904 27.7111 4.49134 62.1106 0.491336C96.5102 -3.50866 136.11 17.4912 136.111 42.4913C136.111 61.4909 109.111 67.0908 97.1106 81.4908C85.1106 95.8908 99.112 101.491 91.1113 122.491C79.4448 134.825 53.5112 150.691 19.1112 127.491Z" fill="#3D9922"/>
<mask id="path-2-inside-1_53_1337" fill="white">
<path fill-rule="evenodd" clip-rule="evenodd" d="M29.582 25.0738C29.6503 20.6031 33.2956 17 37.7825 17H37.7839H104.798H119.798C124.328 17 128 20.6719 128 25.2014V32.223C128 33.3276 127.104 34.223 126 34.223H112.999V102.755L112.999 102.763V109.676C112.999 114.206 109.327 117.877 104.798 117.877H103.993C103.972 117.878 103.952 117.878 103.931 117.878C103.922 117.878 103.913 117.878 103.904 117.878H22.5133C17.8115 117.878 14 114.066 14 109.365V109.364V99.9997H29.582V25.0738Z"/>
</mask>
<path fill-rule="evenodd" clip-rule="evenodd" d="M29.582 25.0738C29.6503 20.6031 33.2956 17 37.7825 17H37.7839H104.798H119.798C124.328 17 128 20.6719 128 25.2014V32.223C128 33.3276 127.104 34.223 126 34.223H112.999V102.755L112.999 102.763V109.676C112.999 114.206 109.327 117.877 104.798 117.877H103.993C103.972 117.878 103.952 117.878 103.931 117.878C103.922 117.878 103.913 117.878 103.904 117.878H22.5133C17.8115 117.878 14 114.066 14 109.365V109.364V99.9997H29.582V25.0738Z" fill="white"/>
<path d="M29.582 25.0738L27.5823 25.0432L27.582 25.0585V25.0738H29.582ZM112.999 34.223V32.223H110.999V34.223H112.999ZM112.999 102.755L114.999 102.759V102.755H112.999ZM112.999 102.763L110.999 102.759V102.763H112.999ZM103.993 117.877V115.877H103.983L103.973 115.878L103.993 117.877ZM103.931 117.878L103.925 115.878L103.924 115.878L103.931 117.878ZM14 99.9997V97.9997H12V99.9997H14ZM29.582 99.9997V102H31.582V99.9997H29.582ZM37.7825 15C32.2013 15 27.6671 19.4817 27.5823 25.0432L31.5818 25.1043C31.6334 21.7245 34.39 19 37.7825 19V15ZM37.7839 15H37.7825V19H37.7839V15ZM104.798 15H37.7839V19H104.798V15ZM119.798 15H104.798V19H119.798V15ZM130 25.2014C130 19.5673 125.432 15 119.798 15V19C123.223 19 126 21.7765 126 25.2014H130ZM130 32.223V25.2014H126V32.223H130ZM126 36.223C128.209 36.223 130 34.4322 130 32.223H126V32.223V36.223ZM112.999 36.223H126V32.223H112.999V36.223ZM114.999 102.755V34.223H110.999V102.755H114.999ZM114.999 102.767L114.999 102.759L110.999 102.751L110.999 102.759L114.999 102.767ZM114.999 109.676V102.763H110.999V109.676H114.999ZM104.798 119.877C110.432 119.877 114.999 115.31 114.999 109.676H110.999C110.999 113.101 108.223 115.877 104.798 115.877V119.877ZM103.993 119.877H104.798V115.877H103.993V119.877ZM103.937 119.878C103.963 119.878 103.988 119.878 104.014 119.877L103.973 115.878C103.957 115.878 103.941 115.878 103.925 115.878L103.937 119.878ZM103.904 119.878C103.915 119.878 103.927 119.878 103.938 119.878L103.924 115.878C103.918 115.878 103.911 115.878 103.904 115.878V119.878ZM22.5133 119.878H103.904V115.878H22.5133V119.878ZM12 109.365C12 115.171 16.707 119.878 22.5133 119.878V115.878C18.9161 115.878 16 112.962 16 109.365H12ZM12 109.364V109.365H16V109.364H12ZM12 99.9997V109.364H16V99.9997H12ZM29.582 97.9997H14V102H29.582V97.9997ZM27.582 25.0738V99.9997H31.582V25.0738H27.582Z" fill="#1A3185" mask="url(#path-2-inside-1_53_1337)"/>
<mask id="path-4-inside-2_53_1337" fill="white">
<path fill-rule="evenodd" clip-rule="evenodd" d="M119.201 17C114.672 17 111 20.6719 111 25.2014V34.223H128.001V25.2014C128.001 20.6719 124.329 17 119.799 17H119.201Z"/>
</mask>
<path fill-rule="evenodd" clip-rule="evenodd" d="M119.201 17C114.672 17 111 20.6719 111 25.2014V34.223H128.001V25.2014C128.001 20.6719 124.329 17 119.799 17H119.201Z" fill="white"/>
<path d="M111 34.223H109V36.223H111V34.223ZM128.001 34.223V36.223H130.001V34.223H128.001ZM113 25.2014C113 21.7765 115.776 19 119.201 19V15C113.567 15 109 19.5673 109 25.2014H113ZM113 34.223V25.2014H109V34.223H113ZM128.001 32.223H111V36.223H128.001V32.223ZM126.001 25.2014V34.223H130.001V25.2014H126.001ZM119.799 19C123.224 19 126.001 21.7765 126.001 25.2014H130.001C130.001 19.5673 125.433 15 119.799 15V19ZM119.201 19H119.799V15H119.201V19Z" fill="#1A3185" mask="url(#path-4-inside-2_53_1337)"/>
<path d="M30 101H96.8417" stroke="#1A3185" stroke-width="2"/>
<path fill-rule="evenodd" clip-rule="evenodd" d="M98 100H96V102V109.364V109.365C96 114.059 99.8056 117.877 104.5 117.877C109.194 117.877 113 114.059 113 109.365V109.364V102V100H111V102V104.128V109.364V109.364V109.364V109.364V109.364V109.364V109.364V109.364V109.364V109.364V109.364V109.364V109.364V109.364V109.364V109.364V109.364V109.364V109.364V109.364V109.364V109.364V109.364V109.364V109.364V109.364V109.364V109.364V109.364V109.364V109.364V109.364V109.364V109.364V109.364V109.364V109.364V109.365V109.365C111 112.958 108.086 115.877 104.5 115.877C100.914 115.877 98 112.958 98 109.365V109.365V109.365V109.364V109.364V109.364V109.364V109.364V109.364V109.364V109.364V109.364V109.364V109.364V109.364V109.364V109.364V109.364V109.364V109.364V109.364V109.364V109.364V109.364V109.364V109.364V109.364V109.364V109.364V109.364V109.364V109.364V109.364V109.364V109.364V109.364V109.364V109.364V109.364V109.364V104.128V102V100Z" fill="#1A3185"/>
<path d="M41 28H95M41 47H95" stroke="#1A3185" stroke-width="2" stroke-linecap="round"/>
<path d="M41 64.5H95M44.5 53H98.5" stroke="#1A3185" stroke-width="2" stroke-linecap="round"/>
<path d="M41 87.5H95M44.5 76H98.5M41 82H77.5M81.5 82H98.5" stroke="#1A3185" stroke-width="2" stroke-linecap="round"/>
<line x1="41" y1="35" x2="52" y2="35" stroke="#1A3185" stroke-width="2" stroke-linecap="round"/>
<line x1="57" y1="35" x2="96" y2="35" stroke="#1A3185" stroke-width="2" stroke-linecap="round"/>
<line x1="49" y1="41" x2="88" y2="41" stroke="#1A3185" stroke-width="2" stroke-linecap="round"/>
<line x1="1" y1="-1" x2="40" y2="-1" transform="matrix(1 0 0 -1 48 92)" stroke="#1A3185" stroke-width="2" stroke-linecap="round"/>
<line x1="1" y1="-1" x2="40" y2="-1" transform="matrix(1 0 0 -1 48 58)" stroke="#1A3185" stroke-width="2" stroke-linecap="round"/>
<line x1="41" y1="41" x2="43" y2="41" stroke="#1A3185" stroke-width="2" stroke-linecap="round"/>
<line x1="1" y1="-1" x2="3" y2="-1" transform="matrix(1 0 0 -1 40 92)" stroke="#1A3185" stroke-width="2" stroke-linecap="round"/>
<line x1="1" y1="-1" x2="3" y2="-1" transform="matrix(1 0 0 -1 40 58)" stroke="#1A3185" stroke-width="2" stroke-linecap="round"/>
<line x1="1" y1="-1" x2="3" y2="-1" transform="matrix(1 0 0 -1 51 70)" stroke="#1A3185" stroke-width="2" stroke-linecap="round"/>
<line x1="92" y1="41" x2="98" y2="41" stroke="#1A3185" stroke-width="2" stroke-linecap="round"/>
<line x1="1" y1="-1" x2="7" y2="-1" transform="matrix(1 0 0 -1 91 92)" stroke="#1A3185" stroke-width="2" stroke-linecap="round"/>
<line x1="1" y1="-1" x2="7" y2="-1" transform="matrix(1 0 0 -1 91 58)" stroke="#1A3185" stroke-width="2" stroke-linecap="round"/>
<line x1="1" y1="-1" x2="7" y2="-1" transform="matrix(1 0 0 -1 40 70)" stroke="#1A3185" stroke-width="2" stroke-linecap="round"/>
<rect x="0.327541" y="1.37261" width="35.3098" height="4.37602" transform="matrix(0.853052 0.521826 -0.525511 0.850787 121.51 77.0553)" fill="white" stroke="#1A3185" stroke-width="2"/>
<rect x="0.327541" y="1.37261" width="28.2756" height="9.77329" rx="1" transform="matrix(0.853052 0.521826 -0.525511 0.850787 137.943 84.2187)" fill="#1A3185" stroke="#1A3185" stroke-width="2"/>
<path d="M125.988 67.8681C125.988 81.5978 114.802 92.7361 100.994 92.7361C87.1855 92.7361 76 81.5978 76 67.8681C76 54.1384 87.1855 43 100.994 43C114.802 43 125.988 54.1384 125.988 67.8681Z" fill="white" stroke="#1A3185" stroke-width="2"/>
<path d="M121.189 67.8681C121.189 78.9602 112.152 87.9605 100.994 87.9605C89.8358 87.9605 80.7988 78.9602 80.7988 67.8681C80.7988 56.7759 89.8358 47.7756 100.994 47.7756C112.152 47.7756 121.189 56.7759 121.189 67.8681Z" fill="white" stroke="#1A3185" stroke-width="2"/>
</svg>
