<svg width="150" height="150" viewBox="0 0 150 150" fill="none" xmlns="http://www.w3.org/2000/svg">
<g clip-path="url(#clip0_53_1465)">
<path d="M12.7065 77.0042C-21.8142 39.1848 34.44 9.25446 66.9983 6.00027C87.2071 3.98046 144.111 21.0334 142 39.9999C139.526 62.2195 119.23 70.2023 135 87.0004C164.958 104.523 135.433 146.254 105.09 140.095C74.7468 133.935 57.4158 140.351 37.9986 134C16.7322 127.044 47.2272 114.824 12.7065 77.0042Z" fill="#FF8600"/>
<mask id="path-2-inside-1_53_1465" fill="white">
<path fill-rule="evenodd" clip-rule="evenodd" d="M32.2654 26.4929C32.3322 21.791 36.1646 18 40.8824 18H40.8837H110.723H126.381C131.141 18 134.999 21.8584 134.999 26.6179V34.0976C134.999 35.2021 134.104 36.0976 132.999 36.0976H119.341L119.341 108.211L119.341 108.219V115.382C119.341 120.141 115.483 124 110.723 124H109.882C109.851 124 109.819 124 109.788 124H24.9456C20.0051 124 16 119.995 16 115.055V115.054V105.214H32.2654V26.4929Z"/>
</mask>
<path fill-rule="evenodd" clip-rule="evenodd" d="M32.2654 26.4929C32.3322 21.791 36.1646 18 40.8824 18H40.8837H110.723H126.381C131.141 18 134.999 21.8584 134.999 26.6179V34.0976C134.999 35.2021 134.104 36.0976 132.999 36.0976H119.341L119.341 108.211L119.341 108.219V115.382C119.341 120.141 115.483 124 110.723 124H109.882C109.851 124 109.819 124 109.788 124H24.9456C20.0051 124 16 119.995 16 115.055V115.054V105.214H32.2654V26.4929Z" fill="white"/>
<path d="M32.2654 26.4929L30.2656 26.4644L30.2654 26.4787V26.4929H32.2654ZM119.341 36.0976V34.0976H117.341V36.0976H119.341ZM119.341 108.211L121.341 108.215V108.211H119.341ZM119.341 108.219L117.341 108.215V108.219H119.341ZM109.882 124V122H109.872L109.861 122L109.882 124ZM16 105.214V103.214H14V105.214H16ZM32.2654 105.214V107.214H34.2654V105.214H32.2654ZM40.8824 16C35.0696 16 30.348 20.6707 30.2656 26.4644L34.2652 26.5213C34.3165 22.9112 37.2596 20 40.8824 20V16ZM40.8837 16H40.8824V20H40.8837V16ZM110.723 16H40.8837V20H110.723V16ZM126.381 16H110.723V20H126.381V16ZM136.999 26.6179C136.999 20.7538 132.245 16 126.381 16V20C130.036 20 132.999 22.9629 132.999 26.6179H136.999ZM136.999 34.0976V26.6179H132.999V34.0976H136.999ZM132.999 38.0976C135.208 38.0976 136.999 36.3067 136.999 34.0976H132.999V38.0976ZM119.341 38.0976H132.999V34.0976H119.341V38.0976ZM121.341 108.211L121.341 36.0976H117.341L117.341 108.211H121.341ZM121.341 108.223L121.341 108.215L117.341 108.207L117.341 108.215L121.341 108.223ZM121.341 115.382V108.219H117.341V115.382H121.341ZM110.723 126C116.587 126 121.341 121.246 121.341 115.382H117.341C117.341 119.037 114.378 122 110.723 122V126ZM109.882 126H110.723V122H109.882V126ZM109.788 126C109.826 126 109.865 126 109.903 126L109.861 122C109.837 122 109.813 122 109.788 122V126ZM24.9456 126H109.788V122H24.9456V126ZM14 115.055C14 121.1 18.9005 126 24.9456 126V122C21.1096 122 18 118.891 18 115.055H14ZM14 115.054V115.055H18V115.054H14ZM14 105.214V115.054H18V105.214H14ZM32.2654 103.214H16V107.214H32.2654V103.214ZM30.2654 26.4929V105.214H34.2654V26.4929H30.2654Z" fill="#1A3185" mask="url(#path-2-inside-1_53_1465)"/>
<mask id="path-4-inside-2_53_1465" fill="white">
<path fill-rule="evenodd" clip-rule="evenodd" d="M125.872 18C121.112 18 117.254 21.8584 117.254 26.6179V36.0976H135V26.6179C135 21.8584 131.142 18 126.382 18H125.872Z"/>
</mask>
<path fill-rule="evenodd" clip-rule="evenodd" d="M125.872 18C121.112 18 117.254 21.8584 117.254 26.6179V36.0976H135V26.6179C135 21.8584 131.142 18 126.382 18H125.872Z" fill="white"/>
<path d="M117.254 36.0976H115.254V38.0976H117.254V36.0976ZM135 36.0976V38.0976H137V36.0976H135ZM119.254 26.6179C119.254 22.9629 122.217 20 125.872 20V16C120.008 16 115.254 20.7538 115.254 26.6179H119.254ZM119.254 36.0976V26.6179H115.254V36.0976H119.254ZM135 34.0976H117.254V38.0976H135V34.0976ZM133 26.6179V36.0976H137V26.6179H133ZM126.382 20C130.037 20 133 22.9629 133 26.6179H137C137 20.7538 132.246 16 126.382 16V20ZM125.872 20H126.382V16H125.872V20Z" fill="#1A3185" mask="url(#path-4-inside-2_53_1465)"/>
<path d="M32.7017 106.265H102.475" stroke="#1A3185" stroke-width="2"/>
<path fill-rule="evenodd" clip-rule="evenodd" d="M103.684 105.214H103.596H101.596V107.214V115.054V115.055C101.596 119.955 105.569 124 110.469 124C115.369 124 119.342 119.955 119.342 115.055V115.054V107.214V105.214H117.342H117.254V107.214H117.342V115.054V115.054V115.054V115.054V115.054V115.054V115.054V115.054V115.054V115.054V115.054V115.054V115.054V115.054V115.054V115.054V115.054V115.054V115.054V115.054V115.054V115.054V115.054V115.054V115.054V115.054V115.054V115.054V115.054V115.054V115.054V115.054V115.054V115.054V115.054V115.054V115.054V115.054V115.054V115.055C117.342 118.871 114.244 122 110.469 122C106.694 122 103.596 118.871 103.596 115.055V115.054V115.054V115.054V115.054V115.054V115.054V115.054V115.054V115.054V115.054V115.054V115.054V115.054V115.054V115.054V115.054V115.054V115.054V115.054V115.054V115.054V115.054V115.054V115.054V115.054V115.054V115.054V115.054V115.054V115.054V115.054V115.054V115.054V115.054V115.054V115.054V115.054V115.054V115.054V115.054V107.214H103.684V105.214Z" fill="#1A3185"/>
<path d="M44.1841 29.5586H100.552M44.1841 49.5234H100.552" stroke="#1A3185" stroke-width="2" stroke-linecap="round"/>
<path d="M44.1841 67.9119H100.552M47.8376 55.8279H104.206" stroke="#1A3185" stroke-width="2" stroke-linecap="round"/>
<path d="M44.1841 92.0798H100.552M47.8376 79.9959H104.206M44.1841 86.3006H82.2848M86.4602 86.3006H104.206" stroke="#1A3185" stroke-width="2" stroke-linecap="round"/>
<line x1="44.1401" y1="36.9647" x2="55.7103" y2="36.9647" stroke="#1A3185" stroke-width="2" stroke-linecap="round"/>
<line x1="60.842" y1="36.9647" x2="101.64" y2="36.9647" stroke="#1A3185" stroke-width="2" stroke-linecap="round"/>
<line x1="52.4912" y1="43.2694" x2="93.2893" y2="43.2694" stroke="#1A3185" stroke-width="2" stroke-linecap="round"/>
<line x1="1" y1="-1" x2="41.7981" y2="-1" transform="matrix(1 0 0 -1 51.4912 96.8083)" stroke="#1A3185" stroke-width="2" stroke-linecap="round"/>
<line x1="1" y1="-1" x2="41.7981" y2="-1" transform="matrix(1 0 0 -1 51.4912 61.0819)" stroke="#1A3185" stroke-width="2" stroke-linecap="round"/>
<line x1="44.1401" y1="43.2694" x2="46.3156" y2="43.2694" stroke="#1A3185" stroke-width="2" stroke-linecap="round"/>
<line x1="1" y1="-1" x2="3.17542" y2="-1" transform="matrix(1 0 0 -1 43.1401 96.8083)" stroke="#1A3185" stroke-width="2" stroke-linecap="round"/>
<line x1="1" y1="-1" x2="3.17542" y2="-1" transform="matrix(1 0 0 -1 43.1401 61.0819)" stroke="#1A3185" stroke-width="2" stroke-linecap="round"/>
<line x1="1" y1="-1" x2="3.17542" y2="-1" transform="matrix(1 0 0 -1 54.6226 73.6912)" stroke="#1A3185" stroke-width="2" stroke-linecap="round"/>
<line x1="97.377" y1="43.2694" x2="103.728" y2="43.2694" stroke="#1A3185" stroke-width="2" stroke-linecap="round"/>
<line x1="1" y1="-1" x2="7.35084" y2="-1" transform="matrix(1 0 0 -1 96.377 96.8083)" stroke="#1A3185" stroke-width="2" stroke-linecap="round"/>
<line x1="1" y1="-1" x2="7.35084" y2="-1" transform="matrix(1 0 0 -1 96.377 61.0819)" stroke="#1A3185" stroke-width="2" stroke-linecap="round"/>
<line x1="1" y1="-1" x2="7.35084" y2="-1" transform="matrix(1 0 0 -1 43.1401 73.6912)" stroke="#1A3185" stroke-width="2" stroke-linecap="round"/>
<path d="M132.5 100.5C132.5 116.493 119.315 129.5 103 129.5C86.6845 129.5 73.5 116.493 73.5 100.5C73.5 84.5066 86.6845 71.5 103 71.5C119.315 71.5 132.5 84.5066 132.5 100.5Z" fill="white" stroke="#1A3185" stroke-width="3"/>
<line x1="102" y1="77.183" x2="102" y2="73.9757" stroke="#1A3185" stroke-width="2" stroke-linecap="round"/>
<line x1="102" y1="127.768" x2="102" y2="124.561" stroke="#1A3185" stroke-width="2" stroke-linecap="round"/>
<line x1="76.0244" y1="99.5" x2="78.561" y2="99.5" stroke="#1A3185" stroke-width="2" stroke-linecap="round"/>
<line x1="126.683" y1="99.5" x2="129.976" y2="99.5" stroke="#1A3185" stroke-width="2" stroke-linecap="round"/>
<line x1="1" y1="-1" x2="4.19732" y2="-1" transform="matrix(0.851884 -0.523731 0.536124 0.844139 123.267 90.041)" stroke="#1A3185" stroke-width="2" stroke-linecap="round"/>
<line x1="1" y1="-1" x2="4.19732" y2="-1" transform="matrix(0.851884 -0.523731 0.536124 0.844139 78.821 114.356)" stroke="#1A3185" stroke-width="2" stroke-linecap="round"/>
<line x1="1" y1="-1" x2="4.17158" y2="-1" transform="matrix(0.648909 0.760866 -0.771159 0.636643 87.2356 77.2516)" stroke="#1A3185" stroke-width="2" stroke-linecap="round"/>
<line x1="1" y1="-1" x2="4.17159" y2="-1" transform="matrix(0.648909 0.760866 -0.771159 0.636642 115.356 119.483)" stroke="#1A3185" stroke-width="2" stroke-linecap="round"/>
<line x1="1" y1="-1" x2="4.17158" y2="-1" transform="matrix(0.648909 -0.760866 0.771159 0.636643 87.175 123.322)" stroke="#1A3185" stroke-width="2" stroke-linecap="round"/>
<line x1="1" y1="-1" x2="4.17158" y2="-1" transform="matrix(0.648909 -0.760866 0.771159 0.636642 115.356 81.0909)" stroke="#1A3185" stroke-width="2" stroke-linecap="round"/>
<line x1="1" y1="-1" x2="4.19732" y2="-1" transform="matrix(0.851884 0.523731 -0.536124 0.844139 122.976 111.558)" stroke="#1A3185" stroke-width="2" stroke-linecap="round"/>
<line x1="1" y1="-1" x2="4.19732" y2="-1" transform="matrix(0.851884 0.523731 -0.536124 0.844139 78.1006 87.2427)" stroke="#1A3185" stroke-width="2" stroke-linecap="round"/>
<line x1="102" y1="99.5" x2="102" y2="87.3659" stroke="#1A3185" stroke-width="2" stroke-linecap="round"/>
<line x1="1" y1="-1" x2="17.0431" y2="-1" transform="matrix(0.648909 0.760866 -0.771159 0.636643 101.916 100.714)" stroke="#1A3185" stroke-width="2" stroke-linecap="round"/>
<path d="M103.512 100.5C103.512 101.165 102.96 101.732 102.244 101.732C101.528 101.732 100.976 101.165 100.976 100.5C100.976 99.835 101.528 99.2683 102.244 99.2683C102.96 99.2683 103.512 99.835 103.512 100.5Z" fill="white" stroke="#1A3185" stroke-width="2"/>
</g>
<defs>
<clipPath id="clip0_53_1465">
<rect width="150" height="150" fill="white"/>
</clipPath>
</defs>
</svg>
