<svg width="150" height="150" viewBox="0 0 150 150" fill="none" xmlns="http://www.w3.org/2000/svg">
<path d="M21.5598 131.364C-29.6191 102.438 35.8137 88.1254 35.8145 59.1992C35.8152 30.273 31.7955 8.67925 72.7381 4.6895C113.681 0.699742 148.813 14.2631 148.814 39.1992C148.814 58.1501 148.096 87.8361 133.814 102.199C119.531 116.562 116.777 105.431 107.255 126.377C93.3695 138.679 62.503 154.505 21.5598 131.364Z" fill="#3D9922"/>
<mask id="path-2-inside-1_53_1511" fill="white">
<path fill-rule="evenodd" clip-rule="evenodd" d="M29.3965 27.273C29.4647 22.8023 33.1101 19.1992 37.597 19.1992H37.5984H104.612H119.613C124.142 19.1992 127.814 22.8711 127.814 27.4007V34.4222C127.814 35.5268 126.919 36.4222 125.814 36.4222H112.814V104.955L112.814 104.962V111.875C112.814 116.405 109.142 120.077 104.612 120.077H103.808C103.787 120.077 103.766 120.077 103.745 120.077C103.736 120.077 103.727 120.077 103.718 120.077H22.3278C17.626 120.077 13.8145 116.266 13.8145 111.564V111.564V102.199H29.3965V27.273Z"/>
</mask>
<path fill-rule="evenodd" clip-rule="evenodd" d="M29.3965 27.273C29.4647 22.8023 33.1101 19.1992 37.597 19.1992H37.5984H104.612H119.613C124.142 19.1992 127.814 22.8711 127.814 27.4007V34.4222C127.814 35.5268 126.919 36.4222 125.814 36.4222H112.814V104.955L112.814 104.962V111.875C112.814 116.405 109.142 120.077 104.612 120.077H103.808C103.787 120.077 103.766 120.077 103.745 120.077C103.736 120.077 103.727 120.077 103.718 120.077H22.3278C17.626 120.077 13.8145 116.266 13.8145 111.564V111.564V102.199H29.3965V27.273Z" fill="white"/>
<path d="M29.3965 27.273L27.3967 27.2425L27.3965 27.2577V27.273H29.3965ZM112.814 36.4222V34.4222H110.814V36.4222H112.814ZM112.814 104.955L114.814 104.958V104.955H112.814ZM112.814 104.962L110.814 104.959V104.962H112.814ZM103.808 120.077V118.077H103.797L103.787 118.077L103.808 120.077ZM103.745 120.077L103.74 118.077L103.739 118.077L103.745 120.077ZM13.8145 102.199V100.199H11.8145V102.199H13.8145ZM29.3965 102.199V104.199H31.3965V102.199H29.3965ZM37.597 17.1992C32.0157 17.1992 27.4816 21.6809 27.3967 27.2425L31.3963 27.3035C31.4478 23.9237 34.2044 21.1992 37.597 21.1992V17.1992ZM37.5984 17.1992H37.597V21.1992H37.5984V17.1992ZM104.612 17.1992H37.5984V21.1992H104.612V17.1992ZM119.613 17.1992H104.612V21.1992H119.613V17.1992ZM129.814 27.4007C129.814 21.7666 125.247 17.1992 119.613 17.1992V21.1992C123.038 21.1992 125.814 23.9757 125.814 27.4007H129.814ZM129.814 34.4222V27.4007H125.814V34.4222H129.814ZM125.814 38.4222C128.023 38.4222 129.814 36.6314 129.814 34.4222H125.814V34.4222V38.4222ZM112.814 38.4222H125.814V34.4222H112.814V38.4222ZM114.814 104.955V36.4222H110.814V104.955H114.814ZM114.814 104.966L114.814 104.958L110.814 104.951L110.814 104.959L114.814 104.966ZM114.814 111.875V104.962H110.814V111.875H114.814ZM104.612 122.077C110.246 122.077 114.814 117.509 114.814 111.875H110.814C110.814 115.3 108.037 118.077 104.612 118.077V122.077ZM103.808 122.077H104.612V118.077H103.808V122.077ZM103.751 122.077C103.777 122.077 103.803 122.077 103.828 122.077L103.787 118.077C103.771 118.077 103.755 118.077 103.74 118.077L103.751 122.077ZM103.718 122.077C103.73 122.077 103.741 122.077 103.752 122.077L103.739 118.077C103.732 118.077 103.725 118.077 103.718 118.077V122.077ZM22.3278 122.077H103.718V118.077H22.3278V122.077ZM11.8145 111.564C11.8145 117.37 16.5214 122.077 22.3278 122.077V118.077C18.7306 118.077 15.8145 115.161 15.8145 111.564H11.8145ZM11.8145 111.564V111.564H15.8145V111.564H11.8145ZM11.8145 102.199V111.564H15.8145V102.199H11.8145ZM29.3965 100.199H13.8145V104.199H29.3965V100.199ZM27.3965 27.273V102.199H31.3965V27.273H27.3965Z" fill="#1A3185" mask="url(#path-2-inside-1_53_1511)"/>
<mask id="path-4-inside-2_53_1511" fill="white">
<path fill-rule="evenodd" clip-rule="evenodd" d="M119.016 19.1992C114.486 19.1992 110.814 22.8711 110.814 27.4007V36.4222H127.815V27.4007C127.815 22.8711 124.143 19.1992 119.614 19.1992H119.016Z"/>
</mask>
<path fill-rule="evenodd" clip-rule="evenodd" d="M119.016 19.1992C114.486 19.1992 110.814 22.8711 110.814 27.4007V36.4222H127.815V27.4007C127.815 22.8711 124.143 19.1992 119.614 19.1992H119.016Z" fill="white"/>
<path d="M110.814 36.4222H108.814V38.4222H110.814V36.4222ZM127.815 36.4222V38.4222H129.815V36.4222H127.815ZM112.814 27.4007C112.814 23.9757 115.591 21.1992 119.016 21.1992V17.1992C113.382 17.1992 108.814 21.7666 108.814 27.4007H112.814ZM112.814 36.4222V27.4007H108.814V36.4222H112.814ZM127.815 34.4222H110.814V38.4222H127.815V34.4222ZM125.815 27.4007V36.4222H129.815V27.4007H125.815ZM119.614 21.1992C123.039 21.1992 125.815 23.9757 125.815 27.4007H129.815C129.815 21.7666 125.248 17.1992 119.614 17.1992V21.1992ZM119.016 21.1992H119.614V17.1992H119.016V21.1992Z" fill="#1A3185" mask="url(#path-4-inside-2_53_1511)"/>
<path d="M29.8145 103.199H96.6562" stroke="#1A3185" stroke-width="2"/>
<path fill-rule="evenodd" clip-rule="evenodd" d="M97.8145 102.199H95.8145V104.199V111.563V111.564C95.8145 116.258 99.62 120.077 104.314 120.077C109.009 120.077 112.814 116.258 112.814 111.564V111.563V104.199V102.199H110.814V104.199V106.327V111.563V111.563V111.563V111.563V111.563V111.563V111.563V111.563V111.564V111.564V111.564V111.564V111.564V111.564V111.564V111.564V111.564V111.564V111.564V111.564V111.564V111.564V111.564V111.564V111.564V111.564V111.564V111.564V111.564V111.564V111.564V111.564V111.564V111.564V111.564V111.564V111.564V111.564V111.564C110.814 115.158 107.9 118.077 104.314 118.077C100.729 118.077 97.8145 115.158 97.8145 111.564V111.564V111.564V111.564V111.564V111.564V111.564V111.564V111.564V111.564V111.564V111.564V111.564V111.564V111.564V111.564V111.564V111.564V111.564V111.564V111.564V111.564V111.564V111.564V111.564V111.564V111.564V111.564V111.564V111.564V111.564V111.564V111.563V111.563V111.563V111.563V111.563V111.563V111.563V111.563V106.327V104.199V102.199Z" fill="#1A3185"/>
<path d="M40.8145 30.1992H94.8145M40.8145 49.1992H94.8145" stroke="#1A3185" stroke-width="2" stroke-linecap="round"/>
<path d="M40.8145 66.6992H94.8145M44.3145 55.1992H98.3145" stroke="#1A3185" stroke-width="2" stroke-linecap="round"/>
<path d="M40.8145 89.6992H94.8145M44.3145 78.1992H98.3145M40.8145 84.1992H77.3145M81.3145 84.1992H98.3145" stroke="#1A3185" stroke-width="2" stroke-linecap="round"/>
<line x1="40.8145" y1="37.1992" x2="51.8145" y2="37.1992" stroke="#1A3185" stroke-width="2" stroke-linecap="round"/>
<line x1="56.8145" y1="37.1992" x2="95.8145" y2="37.1992" stroke="#1A3185" stroke-width="2" stroke-linecap="round"/>
<line x1="48.8145" y1="43.1992" x2="87.8145" y2="43.1992" stroke="#1A3185" stroke-width="2" stroke-linecap="round"/>
<line x1="1" y1="-1" x2="40" y2="-1" transform="matrix(1 0 0 -1 47.8145 94.1992)" stroke="#1A3185" stroke-width="2" stroke-linecap="round"/>
<line x1="1" y1="-1" x2="40" y2="-1" transform="matrix(1 0 0 -1 47.8145 60.1992)" stroke="#1A3185" stroke-width="2" stroke-linecap="round"/>
<line x1="40.8145" y1="43.1992" x2="42.8145" y2="43.1992" stroke="#1A3185" stroke-width="2" stroke-linecap="round"/>
<line x1="1" y1="-1" x2="3" y2="-1" transform="matrix(1 0 0 -1 39.8145 94.1992)" stroke="#1A3185" stroke-width="2" stroke-linecap="round"/>
<line x1="1" y1="-1" x2="3" y2="-1" transform="matrix(1 0 0 -1 39.8145 60.1992)" stroke="#1A3185" stroke-width="2" stroke-linecap="round"/>
<line x1="1" y1="-1" x2="3" y2="-1" transform="matrix(1 0 0 -1 50.8145 72.1992)" stroke="#1A3185" stroke-width="2" stroke-linecap="round"/>
<line x1="91.8145" y1="43.1992" x2="97.8145" y2="43.1992" stroke="#1A3185" stroke-width="2" stroke-linecap="round"/>
<line x1="1" y1="-1" x2="7" y2="-1" transform="matrix(1 0 0 -1 90.8145 94.1992)" stroke="#1A3185" stroke-width="2" stroke-linecap="round"/>
<line x1="1" y1="-1" x2="7" y2="-1" transform="matrix(1 0 0 -1 90.8145 60.1992)" stroke="#1A3185" stroke-width="2" stroke-linecap="round"/>
<line x1="1" y1="-1" x2="7" y2="-1" transform="matrix(1 0 0 -1 39.8145 72.1992)" stroke="#1A3185" stroke-width="2" stroke-linecap="round"/>
<path d="M110.403 110.399H96.285C95.1805 110.399 94.285 109.505 94.285 108.4V106.109C94.285 105.192 93.6562 104.404 92.7977 104.082C85.3362 101.281 76.8145 91.4214 76.8145 79.8492C76.8145 67.4992 86.5203 53.1992 103.344 53.1992C120.167 53.1992 129.226 64.2367 129.226 81.1492C129.226 93.2289 119.356 101.193 113.633 103.998C112.899 104.358 112.403 105.084 112.403 105.901V108.399C112.403 109.504 111.507 110.399 110.403 110.399Z" fill="white" stroke="#1A3185" stroke-width="2"/>
<path d="M110.732 58.3994C113.934 59.5792 120.691 63.12 122.104 67.8445" stroke="#1A3185" stroke-width="2" stroke-linecap="round"/>
<ellipse cx="106.579" cy="57.0988" rx="1.29412" ry="1.3" fill="#1A3185"/>
<path d="M99.1964 109.499C99.8631 101.832 100.396 87.0991 97.1964 89.4991C93.1964 92.4991 94.1973 95.9403 106.697 94.4991C111.697 93.9226 106.197 86.9995 105.197 89.4991C104.397 91.4988 106.863 103.666 108.196 109.499" stroke="#1A3185" stroke-width="2" stroke-linecap="round"/>
<path d="M95.6973 111.999C95.6973 111.447 96.145 110.999 96.6973 110.999H110.697C111.25 110.999 111.697 111.447 111.697 111.999V121.999C111.697 122.551 111.25 122.999 110.697 122.999H96.6973C96.145 122.999 95.6973 122.551 95.6973 121.999V111.999Z" fill="white" stroke="#1A3185" stroke-width="2"/>
<line x1="96.6973" y1="114.999" x2="110.697" y2="114.999" stroke="#1A3185" stroke-width="2" stroke-linecap="square"/>
<line x1="96.6973" y1="118.999" x2="110.697" y2="118.999" stroke="#1A3185" stroke-width="2" stroke-linecap="square"/>
<path d="M96.9622 125.631L96.0847 122.999H111.31L110.432 125.631C110.16 126.448 109.396 126.999 108.535 126.999H98.8595C97.9987 126.999 97.2344 126.448 96.9622 125.631Z" fill="white" stroke="#1A3185" stroke-width="2"/>
</svg>
