<svg width="200" height="200" viewBox="0 0 200 200" fill="none" xmlns="http://www.w3.org/2000/svg">
<g clip-path="url(#clip0_611_3129)">
<path d="M183.956 103.984C161.406 73.8349 183.956 15.0618 115.964 15.0618C47.9709 15.0617 19.3908 33.8886 22.0353 57.6414C25.1334 85.4682 48.9861 97.132 30.8019 116.503C12.6177 135.873 30.2586 190.71 68.2592 182.995C106.26 175.281 120.607 203.594 152.281 175.363C183.956 147.132 206.506 134.133 183.956 103.984Z" fill="#FF8600"/>
<path d="M54 159V94.8672L108.406 67L162 94.8672V159H54Z" fill="white" stroke="#1A3185" stroke-width="2"/>
<mask id="path-3-inside-1_611_3129" fill="white">
<path fill-rule="evenodd" clip-rule="evenodd" d="M66.582 39.0738C66.6503 34.6031 70.2956 31 74.7825 31H141.798C146.327 31 149.999 34.6719 149.999 39.2014V46.9345L149.999 46.9424V116.755L149.999 116.763V123.676C149.999 128.206 146.327 131.877 141.798 131.877H74.7825C70.2956 131.877 66.6503 128.274 66.582 123.804V39.0738Z"/>
</mask>
<path fill-rule="evenodd" clip-rule="evenodd" d="M66.582 39.0738C66.6503 34.6031 70.2956 31 74.7825 31H141.798C146.327 31 149.999 34.6719 149.999 39.2014V46.9345L149.999 46.9424V116.755L149.999 116.763V123.676C149.999 128.206 146.327 131.877 141.798 131.877H74.7825C70.2956 131.877 66.6503 128.274 66.582 123.804V39.0738Z" fill="white"/>
<path d="M66.582 39.0738L64.5823 39.0432L64.582 39.0585V39.0738H66.582ZM149.999 46.9345H147.999V46.9384L149.999 46.9345ZM149.999 46.9424H151.999V46.9385L149.999 46.9424ZM149.999 116.755L151.999 116.759V116.755H149.999ZM149.999 116.763L147.999 116.759V116.763H149.999ZM66.582 123.804H64.582V123.819L64.5823 123.834L66.582 123.804ZM74.7825 29C69.2013 29 64.6671 33.4817 64.5823 39.0432L68.5818 39.1043C68.6334 35.7245 71.39 33 74.7825 33V29ZM74.7825 33H141.798V29H74.7825V33ZM151.999 39.2014C151.999 33.5673 147.432 29 141.798 29V33C145.223 33 147.999 35.7765 147.999 39.2014H151.999ZM151.999 46.9345V39.2014H147.999V46.9345H151.999ZM151.999 46.9385L151.999 46.9306L147.999 46.9384L147.999 46.9462L151.999 46.9385ZM151.999 116.755V46.9424H147.999V116.755H151.999ZM151.999 116.767L151.999 116.759L147.999 116.751L147.999 116.759L151.999 116.767ZM151.999 123.676V116.763H147.999V123.676H151.999ZM141.798 133.877C147.432 133.877 151.999 129.31 151.999 123.676H147.999C147.999 127.101 145.223 129.877 141.798 129.877V133.877ZM74.7825 133.877H141.798V129.877H74.7825V133.877ZM64.5823 123.834C64.6671 129.396 69.2013 133.877 74.7825 133.877V129.877C71.39 129.877 68.6334 127.153 68.5818 123.773L64.5823 123.834ZM68.582 123.804V39.0738H64.582V123.804H68.582Z" fill="#1A3185" mask="url(#path-3-inside-1_611_3129)"/>
<path d="M78 42H132M78 61H132" stroke="#1A3185" stroke-width="2" stroke-linecap="round"/>
<path d="M77 118H131M77 123H131" stroke="#1A3185" stroke-width="2" stroke-linecap="round"/>
<path d="M78 78.5H132M81.5 67H135.5" stroke="#1A3185" stroke-width="2" stroke-linecap="round"/>
<line x1="78" y1="49" x2="89" y2="49" stroke="#1A3185" stroke-width="2" stroke-linecap="round"/>
<line x1="94" y1="49" x2="133" y2="49" stroke="#1A3185" stroke-width="2" stroke-linecap="round"/>
<line x1="86" y1="55" x2="125" y2="55" stroke="#1A3185" stroke-width="2" stroke-linecap="round"/>
<line x1="1" y1="-1" x2="40" y2="-1" transform="matrix(1 0 0 -1 85 112)" stroke="#1A3185" stroke-width="2" stroke-linecap="round"/>
<line x1="1" y1="-1" x2="40" y2="-1" transform="matrix(1 0 0 -1 85 72)" stroke="#1A3185" stroke-width="2" stroke-linecap="round"/>
<line x1="78" y1="55" x2="80" y2="55" stroke="#1A3185" stroke-width="2" stroke-linecap="round"/>
<line x1="1" y1="-1" x2="3" y2="-1" transform="matrix(1 0 0 -1 77 112)" stroke="#1A3185" stroke-width="2" stroke-linecap="round"/>
<line x1="1" y1="-1" x2="3" y2="-1" transform="matrix(1 0 0 -1 77 72)" stroke="#1A3185" stroke-width="2" stroke-linecap="round"/>
<line x1="129" y1="55" x2="135" y2="55" stroke="#1A3185" stroke-width="2" stroke-linecap="round"/>
<line x1="1" y1="-1" x2="7" y2="-1" transform="matrix(1 0 0 -1 128 112)" stroke="#1A3185" stroke-width="2" stroke-linecap="round"/>
<line x1="1" y1="-1" x2="7" y2="-1" transform="matrix(1 0 0 -1 128 72)" stroke="#1A3185" stroke-width="2" stroke-linecap="round"/>
<path d="M77 107L86.5 97.4545L93 104L101 90.2955L107 97.4545L116 86" stroke="#1A3185" stroke-width="2" stroke-linecap="round"/>
<rect x="122" y="84" width="5" height="24" stroke="#1A3185" stroke-width="2"/>
<rect x="130" y="97" width="5" height="11" stroke="#1A3185" stroke-width="2"/>
<circle cx="86" cy="98" r="2" fill="white" stroke="#1A3185" stroke-width="2"/>
<circle cx="93" cy="104" r="2" fill="white" stroke="#1A3185" stroke-width="2"/>
<circle cx="101" cy="90" r="2" fill="white" stroke="#1A3185" stroke-width="2"/>
<circle cx="107" cy="97" r="2" fill="white" stroke="#1A3185" stroke-width="2"/>
<path d="M54 160V95.8672L92.5 118.018L107.401 126.592C108.023 126.949 108.788 126.947 109.407 126.585L124.075 118.018L162 95.8672V160H54Z" fill="white"/>
<path d="M54 160V95.8672L92.5 118.018M54 160H162M54 160L92.5 118.018M162 160V95.8672L124.075 118.018M162 160L124.075 118.018M92.5 118.018L107.401 126.592C108.023 126.949 108.788 126.947 109.407 126.585L124.075 118.018" stroke="#1A3185" stroke-width="2"/>
<rect x="-0.329293" y="1.37997" width="31.1792" height="3.70092" transform="matrix(-0.850246 0.526386 0.520953 0.853585 51.129 67.7916)" fill="white" stroke="#1A3185" stroke-width="2"/>
<rect x="-0.329293" y="1.37997" width="24.9237" height="8.52671" rx="1" transform="matrix(-0.850246 0.526386 0.520953 0.853585 36.5637 74.2177)" fill="#1A3185" stroke="#1A3185" stroke-width="2"/>
<mask id="path-30-inside-2_611_3129" fill="white">
<path fill-rule="evenodd" clip-rule="evenodd" d="M69.9601 82.4104C57.2355 82.4104 46.9202 72.021 46.9202 59.2052C46.9202 46.3893 57.2355 36 69.9601 36C82.6847 36 93 46.3893 93 59.2052C93 72.021 82.6847 82.4104 69.9601 82.4104ZM69.9601 75.2703C61.1507 75.2703 54.0094 68.0777 54.0094 59.2052C54.0094 50.3327 61.1507 43.1401 69.9601 43.1401C78.7694 43.1401 85.9108 50.3327 85.9108 59.2052C85.9108 68.0777 78.7694 75.2703 69.9601 75.2703Z"/>
</mask>
<path fill-rule="evenodd" clip-rule="evenodd" d="M69.9601 82.4104C57.2355 82.4104 46.9202 72.021 46.9202 59.2052C46.9202 46.3893 57.2355 36 69.9601 36C82.6847 36 93 46.3893 93 59.2052C93 72.021 82.6847 82.4104 69.9601 82.4104ZM69.9601 75.2703C61.1507 75.2703 54.0094 68.0777 54.0094 59.2052C54.0094 50.3327 61.1507 43.1401 69.9601 43.1401C78.7694 43.1401 85.9108 50.3327 85.9108 59.2052C85.9108 68.0777 78.7694 75.2703 69.9601 75.2703Z" fill="white"/>
<path d="M48.9202 59.2052C48.9202 70.93 58.3535 80.4104 69.9601 80.4104V84.4104C56.1175 84.4104 44.9202 73.1121 44.9202 59.2052H48.9202ZM69.9601 38C58.3535 38 48.9202 47.4804 48.9202 59.2052H44.9202C44.9202 45.2982 56.1175 34 69.9601 34V38ZM91 59.2052C91 47.4804 81.5667 38 69.9601 38V34C83.8027 34 95 45.2982 95 59.2052H91ZM69.9601 80.4104C81.5667 80.4104 91 70.93 91 59.2052H95C95 73.1121 83.8027 84.4104 69.9601 84.4104V80.4104ZM56.0094 59.2052C56.0094 66.9866 62.2688 73.2703 69.9601 73.2703V77.2703C60.0327 77.2703 52.0094 69.1688 52.0094 59.2052H56.0094ZM69.9601 45.1401C62.2688 45.1401 56.0094 51.4237 56.0094 59.2052H52.0094C52.0094 49.2416 60.0327 41.1401 69.9601 41.1401V45.1401ZM83.9108 59.2052C83.9108 51.4237 77.6514 45.1401 69.9601 45.1401V41.1401C79.8874 41.1401 87.9108 49.2416 87.9108 59.2052H83.9108ZM69.9601 73.2703C77.6514 73.2703 83.9108 66.9866 83.9108 59.2052H87.9108C87.9108 69.1688 79.8874 77.2703 69.9601 77.2703V73.2703Z" fill="#1A3185" mask="url(#path-30-inside-2_611_3129)"/>
</g>
<defs>
<clipPath id="clip0_611_3129">
<rect width="200" height="200" fill="white"/>
</clipPath>
</defs>
</svg>
