<svg width="40" height="40" viewBox="0 0 40 40" fill="none" xmlns="http://www.w3.org/2000/svg">
<path d="M1.125 38.1744V16.0194L19.7375 6.39258L38.0722 16.0194V38.1744H1.125Z" fill="white" stroke="#1A3185" stroke-width="2"/>
<mask id="path-2-inside-1_487_5933" fill="white">
<path fill-rule="evenodd" clip-rule="evenodd" d="M5.42969 3.30885C5.45315 1.76435 6.71249 0.519531 8.26258 0.519531H31.1338C32.6986 0.519531 33.9671 1.78801 33.9671 3.35276V6.4693H33.77C33.8963 6.73151 33.9671 7.02549 33.9671 7.33599V28.835C33.9671 29.0379 33.9369 29.2338 33.8807 29.4184H33.9671V32.5349C33.9671 34.0996 32.6986 35.3681 31.1338 35.3681H8.26258C6.71249 35.3681 5.45315 34.1233 5.42969 32.5788V29.4184H5.51576C5.46296 29.2449 5.43309 29.0615 5.42969 28.8716V7.2994C5.43502 7.00239 5.50509 6.72119 5.62639 6.4693H5.42969V3.30885Z"/>
</mask>
<path fill-rule="evenodd" clip-rule="evenodd" d="M5.42969 3.30885C5.45315 1.76435 6.71249 0.519531 8.26258 0.519531H31.1338C32.6986 0.519531 33.9671 1.78801 33.9671 3.35276V6.4693H33.77C33.8963 6.73151 33.9671 7.02549 33.9671 7.33599V28.835C33.9671 29.0379 33.9369 29.2338 33.8807 29.4184H33.9671V32.5349C33.9671 34.0996 32.6986 35.3681 31.1338 35.3681H8.26258C6.71249 35.3681 5.45315 34.1233 5.42969 32.5788V29.4184H5.51576C5.46296 29.2449 5.43309 29.0615 5.42969 28.8716V7.2994C5.43502 7.00239 5.50509 6.72119 5.62639 6.4693H5.42969V3.30885Z" fill="white"/>
<path d="M5.42969 3.30885L4.4298 3.29366L4.42969 3.30125V3.30885H5.42969ZM33.9671 6.4693V7.4693H34.9671V6.4693H33.9671ZM33.77 6.4693V5.4693H32.1785L32.8691 6.90319L33.77 6.4693ZM33.8807 29.4184L32.924 29.1271L32.5309 30.4184H33.8807V29.4184ZM33.9671 29.4184H34.9671V28.4184H33.9671V29.4184ZM5.42969 32.5788H4.42969V32.5864L4.4298 32.594L5.42969 32.5788ZM5.42969 29.4184V28.4184H4.42969V29.4184H5.42969ZM5.51576 29.4184V30.4184H6.86553L6.47241 29.1271L5.51576 29.4184ZM5.42969 28.8716H4.42969V28.8806L4.42985 28.8896L5.42969 28.8716ZM5.42969 7.2994L4.42985 7.28146L4.42969 7.29043V7.2994H5.42969ZM5.62639 6.4693L6.52736 6.90319L7.21789 5.4693H5.62639V6.4693ZM5.42969 6.4693H4.42969V7.4693H5.42969V6.4693ZM8.26258 -0.480469C6.1653 -0.480469 4.46155 1.2037 4.4298 3.29366L6.42957 3.32404C6.44475 2.325 7.25969 1.51953 8.26258 1.51953V-0.480469ZM8.26258 1.51953H31.1338V-0.480469H8.26258V1.51953ZM34.9671 3.35276C34.9671 1.23573 33.2509 -0.480469 31.1338 -0.480469V1.51953C32.1463 1.51953 32.9671 2.34029 32.9671 3.35276H34.9671ZM34.9671 6.4693V3.35276H32.9671V6.4693H34.9671ZM33.77 7.4693H33.9671V5.4693H33.77V7.4693ZM34.9671 7.33599C34.9671 6.87206 34.8611 6.43006 34.671 6.03542L32.8691 6.90319C32.9316 7.03296 32.9671 7.17892 32.9671 7.33599H34.9671ZM34.9671 28.835V7.33599H32.9671V28.835H34.9671ZM34.8373 29.7096C34.9219 29.4317 34.9671 29.1377 34.9671 28.835H32.9671C32.9671 28.9382 32.9518 29.0359 32.924 29.1271L34.8373 29.7096ZM33.9671 28.4184H33.8807V30.4184H33.9671V28.4184ZM34.9671 32.5349V29.4184H32.9671V32.5349H34.9671ZM31.1338 36.3681C33.2509 36.3681 34.9671 34.6519 34.9671 32.5349H32.9671C32.9671 33.5474 32.1463 34.3681 31.1338 34.3681V36.3681ZM8.26258 36.3681H31.1338V34.3681H8.26258V36.3681ZM4.4298 32.594C4.46155 34.684 6.1653 36.3681 8.26258 36.3681V34.3681C7.25969 34.3681 6.44475 33.5627 6.42957 32.5636L4.4298 32.594ZM6.42969 32.5788V29.4184H4.42969V32.5788H6.42969ZM5.51576 28.4184H5.42969V30.4184H5.51576V28.4184ZM4.42985 28.8896C4.43494 29.1731 4.47962 29.4485 4.55912 29.7096L6.47241 29.1271C6.44631 29.0414 6.43125 28.9499 6.42953 28.8537L4.42985 28.8896ZM6.42969 28.8716V7.2994H4.42969V28.8716H6.42969ZM4.72542 6.03542C4.54289 6.41445 4.43782 6.83727 4.42985 7.28146L6.42953 7.31734C6.43221 7.16751 6.46729 7.02793 6.52736 6.90319L4.72542 6.03542ZM5.42969 7.4693H5.62639V5.4693H5.42969V7.4693ZM6.42969 6.4693V3.30885H4.42969V6.4693H6.42969Z" fill="#1A3185" mask="url(#path-2-inside-1_487_5933)"/>
<path d="M9.33594 4.32031H27.8096M9.33594 10.884H27.8096" stroke="#1A3185" stroke-linecap="round"/>
<path d="M8.99414 28.502H27.4678M8.99414 30.2292H27.4678" stroke="#1A3185" stroke-linecap="round"/>
<path d="M9.33594 16.9277H27.8095M10.5333 12.955H29.0069" stroke="#1A3185" stroke-linecap="round"/>
<path d="M9.33594 24.875H27.8095M10.5333 20.9023H29.0069M9.33594 22.975H21.8227M23.1911 22.975H29.0069" stroke="#1A3185" stroke-linecap="round"/>
<line x1="9.49414" y1="6.58398" x2="12.9415" y2="6.58398" stroke="#1A3185" stroke-linecap="round"/>
<line x1="14.9688" y1="6.58398" x2="27.995" y2="6.58398" stroke="#1A3185" stroke-linecap="round"/>
<line x1="12.2305" y1="8.65625" x2="25.2567" y2="8.65625" stroke="#1A3185" stroke-linecap="round"/>
<line x1="0.5" y1="-0.5" x2="13.5263" y2="-0.5" transform="matrix(1 0 0 -1 11.7305 26.4277)" stroke="#1A3185" stroke-linecap="round"/>
<line x1="0.5" y1="-0.5" x2="13.5263" y2="-0.5" transform="matrix(1 0 0 -1 11.7305 14.6836)" stroke="#1A3185" stroke-linecap="round"/>
<line x1="9.49414" y1="8.65625" x2="9.86256" y2="8.65625" stroke="#1A3185" stroke-linecap="round"/>
<line x1="0.5" y1="-0.5" x2="0.868416" y2="-0.5" transform="matrix(1 0 0 -1 8.99414 26.4277)" stroke="#1A3185" stroke-linecap="round"/>
<line x1="0.5" y1="-0.5" x2="0.868416" y2="-0.5" transform="matrix(1 0 0 -1 8.99414 14.6836)" stroke="#1A3185" stroke-linecap="round"/>
<line x1="0.5" y1="-0.5" x2="0.868416" y2="-0.5" transform="matrix(1 0 0 -1 12.7578 18.8281)" stroke="#1A3185" stroke-linecap="round"/>
<line x1="26.9414" y1="8.65625" x2="28.6782" y2="8.65625" stroke="#1A3185" stroke-linecap="round"/>
<line x1="0.5" y1="-0.5" x2="2.23683" y2="-0.5" transform="matrix(1 0 0 -1 26.4414 26.4277)" stroke="#1A3185" stroke-linecap="round"/>
<line x1="0.5" y1="-0.5" x2="2.23683" y2="-0.5" transform="matrix(1 0 0 -1 26.4414 14.6836)" stroke="#1A3185" stroke-linecap="round"/>
<line x1="0.5" y1="-0.5" x2="2.23683" y2="-0.5" transform="matrix(1 0 0 -1 8.99414 18.8281)" stroke="#1A3185" stroke-linecap="round"/>
<path d="M1.125 38.5202V16.3652L14.296 24.0175L18.7252 26.5908C19.3504 26.9541 20.1231 26.9516 20.746 26.5842L25.0978 24.0175L38.0722 16.3652V38.5202H1.125Z" fill="white"/>
<path d="M1.125 38.5202V16.3652L14.296 24.0175M1.125 38.5202H38.0722M1.125 38.5202L14.296 24.0175M38.0722 38.5202V16.3652L25.0978 24.0175M38.0722 38.5202L25.0978 24.0175M14.296 24.0175L18.7252 26.5908C19.3504 26.9541 20.1231 26.9516 20.746 26.5842L25.0978 24.0175" stroke="#1A3185"/>
</svg>
