<svg width="102" height="78" viewBox="0 0 102 78" fill="none" xmlns="http://www.w3.org/2000/svg">
<path d="M3.0918 98.384V40.6645L51.2934 15.584L98.7756 40.6645V98.384H3.0918Z" fill="white" stroke="#1A3185" stroke-width="2"/>
<mask id="path-2-inside-1_845_7726" fill="white">
<path fill-rule="evenodd" clip-rule="evenodd" d="M14.2383 7.54337C14.303 3.52266 17.5825 0.283203 21.6186 0.283203H80.7613C84.8379 0.283203 88.1427 3.58792 88.1427 7.6645H88.1428V14.8258L88.1428 14.8314L88.1428 15.7839V75.5722L88.1428 77.263L88.1428 77.2686V83.6917C88.1428 87.7682 84.838 91.073 80.7615 91.073H21.6187C17.5802 91.073 14.2992 87.8297 14.2383 83.8057V7.54337Z"/>
</mask>
<path fill-rule="evenodd" clip-rule="evenodd" d="M14.2383 7.54337C14.303 3.52266 17.5825 0.283203 21.6186 0.283203H80.7613C84.8379 0.283203 88.1427 3.58792 88.1427 7.6645H88.1428V14.8258L88.1428 14.8314L88.1428 15.7839V75.5722L88.1428 77.263L88.1428 77.2686V83.6917C88.1428 87.7682 84.838 91.073 80.7615 91.073H21.6187C17.5802 91.073 14.2992 87.8297 14.2383 83.8057V7.54337Z" fill="white"/>
<path d="M14.2383 7.54337L13.2384 7.52728L13.2383 7.53533V7.54337H14.2383ZM88.1427 7.6645H87.1427V8.6645H88.1427V7.6645ZM88.1428 7.6645H89.1428V6.6645H88.1428V7.6645ZM88.1428 14.8258H87.1428V14.8271L88.1428 14.8258ZM88.1428 14.8314L89.1428 14.8314V14.83L88.1428 14.8314ZM88.1428 15.7839L87.1428 15.7839V15.7839H88.1428ZM88.1428 75.5722H87.1428V75.5722L88.1428 75.5722ZM88.1428 77.263L89.1428 77.2644V77.263L88.1428 77.263ZM88.1428 77.2686L87.1428 77.2672V77.2686H88.1428ZM14.2383 83.8057H13.2383V83.8133L13.2384 83.8208L14.2383 83.8057ZM21.6186 -0.716797C17.0356 -0.716797 13.3119 2.96151 13.2384 7.52728L15.2382 7.55946C15.2941 4.0838 18.1294 1.2832 21.6186 1.2832V-0.716797ZM21.6186 1.2832H80.7613V-0.716797H21.6186V1.2832ZM89.1427 7.6645C89.1427 3.03563 85.3902 -0.716797 80.7613 -0.716797V1.2832C84.2856 1.2832 87.1427 4.14021 87.1427 7.6645H89.1427ZM88.1428 6.6645H88.1427V8.6645H88.1428V6.6645ZM89.1428 14.8258V7.6645H87.1428V14.8258H89.1428ZM89.1428 14.83L89.1428 14.8244L87.1428 14.8271L87.1428 14.8327L89.1428 14.83ZM89.1428 15.7839L89.1428 14.8314L87.1428 14.8313L87.1428 15.7839L89.1428 15.7839ZM89.1428 75.5722V15.7839H87.1428V75.5722H89.1428ZM89.1428 77.263L89.1428 75.5722L87.1428 75.5722L87.1428 77.263L89.1428 77.263ZM89.1428 77.27L89.1428 77.2644L87.1428 77.2617L87.1428 77.2672L89.1428 77.27ZM89.1428 83.6917V77.2686H87.1428V83.6917H89.1428ZM80.7615 92.073C85.3903 92.073 89.1428 88.3205 89.1428 83.6917H87.1428C87.1428 87.216 84.2858 90.073 80.7615 90.073V92.073ZM21.6187 92.073H80.7615V90.073H21.6187V92.073ZM13.2384 83.8208C13.3076 88.3903 17.033 92.073 21.6187 92.073V90.073C18.1274 90.073 15.2909 87.2691 15.2382 83.7906L13.2384 83.8208ZM15.2383 83.8057V7.54337H13.2383V83.8057H15.2383Z" fill="#1A3185" mask="url(#path-2-inside-1_845_7726)"/>
<path d="M24.3555 10.1836H72.1974M24.3555 27.2836H72.1974" stroke="#1A3185" stroke-linecap="round"/>
<path d="M23.4688 73.1836H71.3107M23.4688 77.6836H71.3107" stroke="#1A3185" stroke-linecap="round"/>
<path d="M24.3555 43.0332H72.1974M27.4563 32.6832H75.2983" stroke="#1A3185" stroke-linecap="round"/>
<path d="M24.3555 63.7324H72.1974M27.4563 53.3824H75.2983M24.3555 58.7824H56.6931M60.2369 58.7824H75.2983" stroke="#1A3185" stroke-linecap="round"/>
<line x1="23.9688" y1="16.8828" x2="34.4863" y2="16.8828" stroke="#1A3185" stroke-linecap="round"/>
<line x1="38.1445" y1="16.8828" x2="73.469" y2="16.8828" stroke="#1A3185" stroke-linecap="round"/>
<line x1="31.0566" y1="22.2832" x2="66.3811" y2="22.2832" stroke="#1A3185" stroke-linecap="round"/>
<line x1="0.5" y1="-0.5" x2="35.8244" y2="-0.5" transform="matrix(1 0 0 -1 30.5566 67.7832)" stroke="#1A3185" stroke-linecap="round"/>
<line x1="0.5" y1="-0.5" x2="35.8244" y2="-0.5" transform="matrix(1 0 0 -1 30.5566 37.1836)" stroke="#1A3185" stroke-linecap="round"/>
<line x1="23.9688" y1="22.2832" x2="26.5126" y2="22.2832" stroke="#1A3185" stroke-linecap="round"/>
<line x1="0.5" y1="-0.5" x2="3.04385" y2="-0.5" transform="matrix(1 0 0 -1 23.4688 67.7832)" stroke="#1A3185" stroke-linecap="round"/>
<line x1="0.5" y1="-0.5" x2="3.04385" y2="-0.5" transform="matrix(1 0 0 -1 23.4688 37.1836)" stroke="#1A3185" stroke-linecap="round"/>
<line x1="0.5" y1="-0.5" x2="3.04385" y2="-0.5" transform="matrix(1 0 0 -1 33.2148 47.9824)" stroke="#1A3185" stroke-linecap="round"/>
<line x1="69.1523" y1="22.2832" x2="75.24" y2="22.2832" stroke="#1A3185" stroke-linecap="round"/>
<line x1="0.5" y1="-0.5" x2="6.58769" y2="-0.5" transform="matrix(1 0 0 -1 68.6523 67.7832)" stroke="#1A3185" stroke-linecap="round"/>
<line x1="0.5" y1="-0.5" x2="6.58769" y2="-0.5" transform="matrix(1 0 0 -1 68.6523 37.1836)" stroke="#1A3185" stroke-linecap="round"/>
<line x1="0.5" y1="-0.5" x2="6.58769" y2="-0.5" transform="matrix(1 0 0 -1 23.4688 47.9824)" stroke="#1A3185" stroke-linecap="round"/>
<path d="M3.0918 99.284V41.5645L37.2013 61.5006L50.2766 69.1428C50.9041 69.5095 51.6812 69.507 52.3063 69.1361L65.1752 61.5006L98.7756 41.5645V99.284H3.0918Z" fill="white"/>
<path d="M3.0918 99.284V41.5645L37.2013 61.5006M3.0918 99.284H98.7756M3.0918 99.284L37.2013 61.5006M98.7756 99.284V41.5645L65.1752 61.5006M98.7756 99.284L65.1752 61.5006M37.2013 61.5006L50.2766 69.1428C50.9041 69.5095 51.6812 69.507 52.3063 69.1361L65.1752 61.5006" stroke="#1A3185"/>
</svg>
