<?xml version="1.0" encoding="utf-8"?>
<!-- Generator: Adobe Illustrator 25.4.1, SVG Export Plug-In . SVG Version: 6.00 Build 0)  -->
<svg version="1.1" id="Layer_1" xmlns="http://www.w3.org/2000/svg" xmlns:xlink="http://www.w3.org/1999/xlink" x="0px" y="0px"
	 viewBox="0 0 169 172" style="enable-background:new 0 0 169 172;" xml:space="preserve">
<style type="text/css">
	.st0{fill:#3D9922;}
	.st1{fill-rule:evenodd;clip-rule:evenodd;fill:#FFFFFF;}
	.st2{fill-rule:evenodd;clip-rule:evenodd;fill:#FFFFFF;filter:url(#Adobe_OpacityMaskFilter);}
	.st3{mask:url(#path-2-inside-1_1755_19309_00000047771167581566979100000003369953294645894314_);fill:#1A3185;}
	.st4{fill:none;stroke:#1A3185;stroke-width:2;stroke-linecap:round;}
	.st5{fill:#C71E32;stroke:#1A3185;stroke-width:2;}
	.st6{fill-rule:evenodd;clip-rule:evenodd;fill:#979797;}
	
		.st7{fill-rule:evenodd;clip-rule:evenodd;fill:#FFFFFF;filter:url(#Adobe_OpacityMaskFilter_00000003792963542354772250000005802053622991267206_);}
	.st8{mask:url(#path-6-inside-2_1755_19309_00000085950690587514820250000000042335442569151370_);fill:#1A3185;}
	.st9{fill:#FF8600;stroke:#1A3185;stroke-width:2;}
	.st10{fill:#FFFCFC;stroke:#1A3185;stroke-width:2;}
	.st11{fill:none;stroke:#1A3185;stroke-width:2;}
</style>
<g>
	<path class="st0" d="M39.7,91.1C13.4,58.3,56.2,32.4,81.1,29.6c15.4-1.7,58.8,13,57.2,29.5c-1.9,19.2-17.4,26.2-5.3,40.7
		c22.8,15.2,0.3,51.3-22.8,46C87,140.4,73.8,146,59,140.5C42.7,134.4,66,123.9,39.7,91.1z"/>
	<path class="st1" d="M133.8,50.1H88.2v64.2h28.6h17h19.4V70.8c0-11.4-8.2-20.7-18.2-20.7C134.6,50.1,134.2,50.1,133.8,50.1
		L133.8,50.1z"/>
	<defs>
		<filter id="Adobe_OpacityMaskFilter" filterUnits="userSpaceOnUse" x="86.8" y="48.4" width="67.9" height="67.5">
			<feColorMatrix  type="matrix" values="1 0 0 0 0  0 1 0 0 0  0 0 1 0 0  0 0 0 1 0"/>
		</filter>
	</defs>
	
		<mask maskUnits="userSpaceOnUse" x="86.8" y="48.4" width="67.9" height="67.5" id="path-2-inside-1_1755_19309_00000047771167581566979100000003369953294645894314_">
		<path class="st2" d="M133.8,50.1H88.2v64.2h28.6h17h19.4V70.8c0-11.4-8.2-20.7-18.2-20.7C134.6,50.1,134.2,50.1,133.8,50.1
			L133.8,50.1z"/>
	</mask>
	<path class="st3" d="M88.2,50.1v-1.7h-1.5v1.7H88.2z M133.8,50.1h1.5v-1.7h-1.5V50.1z M88.2,114.2h-1.5v1.7h1.5V114.2z
		 M153.2,114.2v1.7h1.5v-1.7H153.2z M133.8,50.1h-1.5v1.8l1.6-0.1L133.8,50.1z M88.2,51.7h45.6v-3.3H88.2V51.7z M89.7,114.2V50.1
		h-2.9v64.2H89.7z M116.8,112.6H88.2v3.3h28.6V112.6z M133.8,112.6h-17v3.3h17V112.6z M153.2,112.6h-19.4v3.3h19.4V112.6z
		 M151.8,70.8v43.5h2.9V70.8H151.8z M135,51.7c9.3,0,16.8,8.5,16.8,19.1h2.9c0-12.3-8.8-22.4-19.7-22.4V51.7z M133.9,51.7
		c0.4,0,0.7,0,1.1,0v-3.3c-0.4,0-0.9,0-1.3,0L133.9,51.7z M132.3,50.1L132.3,50.1l2.9,0v0H132.3z"/>
	<line class="st4" x1="130.9" y1="26.7" x2="130.9" y2="56.8"/>
	<rect x="130.9" y="27.5" class="st5" width="21" height="13.5"/>
	<path class="st6" d="M108.9,70.8v43.5H72.4V70.8c0-11.4,8.2-20.7,18.2-20.7C100.7,50.1,108.9,59.3,108.9,70.8z"/>
	<defs>
		
			<filter id="Adobe_OpacityMaskFilter_00000176728002858369468750000014520813496801985164_" filterUnits="userSpaceOnUse" x="71" y="48.4" width="39.4" height="67.5">
			<feColorMatrix  type="matrix" values="1 0 0 0 0  0 1 0 0 0  0 0 1 0 0  0 0 0 1 0"/>
		</filter>
	</defs>
	
		<mask maskUnits="userSpaceOnUse" x="71" y="48.4" width="39.4" height="67.5" id="path-6-inside-2_1755_19309_00000085950690587514820250000000042335442569151370_">
		
			<path style="fill-rule:evenodd;clip-rule:evenodd;fill:#FFFFFF;filter:url(#Adobe_OpacityMaskFilter_00000176728002858369468750000014520813496801985164_);" d="
			M108.9,70.8v43.5H72.4V70.8c0-11.4,8.2-20.7,18.2-20.7C100.7,50.1,108.9,59.3,108.9,70.8z"/>
	</mask>
	<path class="st8" d="M108.9,114.2v1.7h1.5v-1.7H108.9z M72.4,114.2H71v1.7h1.5V114.2z M107.4,70.8v43.5h2.9V70.8H107.4z
		 M108.9,112.6H72.4v3.3h36.4V112.6z M73.9,114.2V70.8H71v43.5H73.9z M73.9,70.8c0-10.5,7.5-19.1,16.8-19.1v-3.3
		c-10.9,0-19.7,10-19.7,22.4H73.9z M90.7,51.7c9.3,0,16.8,8.5,16.8,19.1h2.9c0-12.3-8.8-22.4-19.7-22.4V51.7z"/>
	<path class="st9" d="M51.2,76.6v4.8H28.3v-8.6L51.2,76.6z"/>
	<path class="st9" d="M51.2,102.5v-4.8H32.1v8.6L51.2,102.5z"/>
	<path class="st10" d="M57.9,74.3h37.7c1.6,0,2.9,1.5,2.9,3.3v24.9c0,1.8-1.3,3.3-2.9,3.3H57.9c-1.6,0-2.9-1.5-2.9-3.3V77.7
		C54.9,75.8,56.3,74.3,57.9,74.3z"/>
	<path class="st4" d="M55.4,76.3l20.3,15.5l21.9-15.5"/>
	<rect x="15.3" y="86.5" class="st9" width="35.9" height="6.1"/>
	<line class="st11" x1="122.8" y1="77" x2="152.6" y2="77"/>
	<line class="st11" x1="129.7" y1="83.1" x2="152.6" y2="83.1"/>
</g>
</svg>
