<svg width="484" height="484" viewBox="0 0 484 484" fill="none" xmlns="http://www.w3.org/2000/svg">
<path d="M212.989 248.913C205.414 267.165 205.348 276.699 205.283 283.527C205.244 287.582 205.351 290.518 202.963 294.159C198.764 300.559 189.066 306.769 174.209 313.118C170.129 314.862 166.325 316.331 162.797 317.517C166.607 318.518 170.747 319.244 175.217 319.688C181.104 320.273 186.524 320.266 191.476 319.681C196.121 319.133 202.951 317.758 211.965 315.539C216.334 317.19 220.065 318.521 223.157 319.534C226.497 320.629 230.232 321.726 234.361 322.823C236.938 323.508 239.381 324.117 241.691 324.651C240.618 322.593 239.493 320.372 238.317 317.988C233.014 307.246 229.694 299.346 228.414 294.27C225.54 282.869 226.067 271.758 227.581 264.518C230.149 252.244 241.65 233.18 261.768 207.218C275.202 194.094 283.822 186.328 287.692 184.014C291.012 182.029 296.902 182.387 301.489 182.472C305.107 182.539 308.134 182.464 309.633 181.946C311.949 181.146 314.624 179.821 317.648 177.945C320.111 177.849 321.814 177.843 322.755 177.96C324.608 178.189 326.065 178.466 327.213 178.684C330.144 179.24 331.763 179.142 332.773 178.68C333.967 178.133 334.831 177.521 335.425 176.924C336.558 175.784 336.972 174.556 336.972 173.349V169.664L333.298 169.927C331.277 170.071 329.884 170.124 329.132 169.98L328.876 169.925C328.205 169.766 327.643 169.518 327.136 169.279L327.11 169.267L327.226 169.155C328.33 168.083 329.296 167.134 330.125 166.308L330.412 166.022C331.811 164.622 332.803 163.585 333.393 162.91C334.16 162.035 334.524 161.341 334.707 160.445L335.764 155.249L330.593 156.412C330.043 156.536 327.335 158.383 324.021 161.183C322.843 162.178 321.551 163.269 320.246 164.346L319.842 164.678C319.712 164.785 319.578 164.894 319.445 165.003L319.023 165.347C316.904 167.065 314.837 168.661 313.297 169.575C311.068 170.898 306.648 171.419 300.141 171.383C302.795 168.624 304.734 166.231 305.974 164.218C307.916 161.065 309.253 157.146 309.915 152.432C312.387 150.646 314.166 149.437 315.259 148.815C316.437 148.145 317.608 147.736 318.514 147.41C319.645 147.002 320.506 146.625 321 146.287C322.025 145.584 322.83 144.254 323.424 142.317C323.56 141.873 323.701 141.386 323.917 140.91C324.008 140.711 324.101 140.511 324.196 140.312L324.423 139.84L324.574 139.53C324.728 139.217 324.882 138.91 325.03 138.614L325.18 138.315C325.654 137.366 326.055 136.535 326.276 135.963C326.799 134.608 327.197 133.486 325.345 131.651L323.258 129.585L320.896 131.329C320.631 131.525 320.284 131.839 319.904 132.287C319.45 132.823 318.834 133.69 318.137 134.686C317.033 136.263 315.697 138.309 314.51 139.218C313.714 139.827 312.606 140.413 311.2 140.994C311.305 138.826 311.536 136.695 311.894 134.599C312.436 131.422 313.616 127.748 314.418 125.224C314.782 124.08 315.076 123.147 315.232 122.547C315.395 121.918 315.472 121.43 315.391 120.642C315.337 120.12 315.242 119.741 315.099 119.375C313.713 117.262 312.497 117.549 312.013 117.563L311.979 117.564C311.515 117.564 310.256 117.205 308.819 119.436C308.642 119.712 308.413 120.118 308.153 120.64C307.753 121.446 307.238 122.6 306.667 123.995C305.719 126.31 304.604 129.315 303.588 132.471L303.426 132.981C302.633 135.48 302.105 138.546 301.554 141.829C300.651 147.21 299.732 153.287 296.8 157.927C294.08 162.232 285.881 169.221 272.368 179.021C272.846 176.238 273.34 174.07 273.857 172.518C274.456 170.721 275.192 169.336 276.307 168.593C279.782 167.364 282.278 166.279 283.813 165.374C285.027 164.659 286.162 163.79 287.011 163.023C287.6 162.492 288.064 161.995 288.368 161.611C289.077 160.714 289.72 159.965 289.018 157.836L288.066 154.947L285.085 155.546C284.819 155.6 284.448 155.707 284.009 155.899C283.543 156.102 282.869 156.46 282.131 156.861L281.869 157.003L281.863 157.006L281.895 156.831C282.402 153.922 282.221 152.122 282.007 151.294L279.7 142.387L275.614 150.63C275.43 151.001 275.136 151.739 274.792 152.634C274.291 153.938 273.65 155.7 273.052 156.638C272.627 157.306 271.707 158.134 270.67 159.146C268.553 161.212 265.979 163.776 264.268 166.617C262.973 168.768 262.115 173.171 261.35 177.904C260.621 182.413 260.091 187.398 258.315 189.528C257.706 190.26 256.354 191.553 254.491 193.358C245.087 202.472 223.575 223.408 212.989 248.913ZM212.989 248.913C213.653 236.504 213.024 233.388 213.024 229.371C213.024 226.94 213.473 224.794 213.676 222.837C213.676 221.804 213.717 222.447 213.873 221.804C213.15 220.797 212.378 219.772 211.618 218.764C210.154 216.822 208.725 214.958 207.91 213.451C207.105 211.963 206.166 208.341 205.116 204.527C205.003 204.117 204.889 203.706 204.774 203.294L204.6 202.677C204.571 202.574 204.542 202.471 204.513 202.369L204.337 201.754C202.955 196.945 201.463 192.406 200.207 190.725C198.891 188.962 197.35 187.407 195.743 185.803C194.34 184.403 192.881 182.959 191.533 181.214C190.289 179.602 188.416 175.419 186.637 171.214L186.374 170.59L186.153 170.063L185.938 169.544C184.08 165.055 182.488 160.838 182.08 159.642C181.433 157.749 181.527 156.749 181.677 155.452C181.793 154.45 182.043 153.495 182.269 152.598C182.651 151.084 182.959 149.685 182.959 148.445C182.959 146.504 182.799 145.027 182.54 144.001C182.314 143.106 181.991 142.432 181.654 141.938C180.906 140.841 179.971 140.317 179.006 140.105L174.851 139.192L174.84 143.447C174.835 145.725 174.752 147.371 174.535 148.375C174.236 149.761 173.768 151.029 173.364 152.146L173.259 152.439C172.81 153.695 172.455 154.811 172.302 155.749L172.273 155.94L172.209 155.865C171.602 155.149 170.922 154.224 170.153 153.109L166.831 148.293L164.252 153.545C163.674 154.722 163.432 156.37 164.393 158.622C164.885 159.775 165.755 161.199 167.057 162.865C168.978 165.323 170.506 165.998 171.919 166.615C172.706 166.959 173.317 167.367 174.164 169.221C175.389 171.903 176.015 173.596 176.578 175.117L176.677 175.384C176.709 175.473 176.742 175.561 176.775 175.648L176.852 175.854L176.791 175.817C174.445 174.378 172.354 173.296 170.64 172.84C167.966 172.128 164.484 171.806 160.859 171.494C157.479 171.204 153.959 170.918 150.991 170.17C148.313 169.495 146.504 168.464 144.761 167.438L144.197 167.104C142.185 165.915 140.162 164.76 137.399 163.91C132.787 162.489 129.369 162.419 127.084 163.202L113.406 167.889L127.731 169.848C130.18 170.183 132.893 171.145 135.89 172.675C137.336 173.414 138.755 174.239 140.145 175.151L124.009 181.233C134.412 183.367 140.969 183.732 143.772 183.206C145.515 182.879 147.322 182.284 148.928 181.744C150.02 181.377 150.978 181.009 151.66 180.938C155.34 180.552 162.402 181.313 167.304 184.013C171.088 186.097 175.144 189.264 178.191 191.628C179.525 192.663 180.679 193.556 181.558 194.177C182.816 195.065 183.712 195.565 184.508 196.005C185.421 196.511 186.145 196.911 187.453 198.212C189.186 199.935 190.461 205.983 192.471 213.49C193.347 216.762 194.3 220.32 195.37 224.009C195.909 225.868 197.048 227.734 198.279 229.637C199.046 230.822 199.851 232.029 200.379 233.311C202.131 237.562 205.152 244.554 209.445 254.289L208.651 260.885L212.989 248.913ZM244.14 256.77C244.98 256.918 248.603 256.379 253.108 255.26L253.607 255.135C254.455 254.922 255.329 254.698 256.217 254.466L257.031 254.252L257.74 254.063C257.981 253.999 258.219 253.935 258.457 253.871L259.166 253.68L259.708 253.532C259.891 253.483 260.07 253.433 260.25 253.384L260.783 253.237C266.105 251.769 270.865 250.296 271.687 249.901C273.024 249.258 276.46 248.604 280.101 247.94L280.662 247.838L281.324 247.718L282.266 247.55L282.81 247.454C283.605 247.313 284.394 247.176 285.158 247.043C288.834 246.403 291.971 245.829 293.032 245.476C294.526 244.978 301.074 244.736 308.551 244.391L309.197 244.361C309.412 244.352 309.628 244.342 309.845 244.332L310.498 244.302L311.154 244.272L311.483 244.257L312.143 244.227L312.805 244.197C313.136 244.182 313.468 244.167 313.8 244.151L315.019 244.095L316.237 244.038C317.225 243.992 318.207 243.944 319.177 243.896L319.82 243.863C328.649 243.414 336.267 242.654 337.891 241.834C339.855 240.843 341.653 239.595 343.512 238.29C345.133 237.151 346.808 235.964 348.76 234.939C350.481 234.036 354.526 232.944 358.765 231.966L359.419 231.816L360.073 231.668C365.204 230.52 370.3 229.579 371.636 229.371C373.612 229.063 374.58 229.33 375.831 229.702C376.797 229.99 377.694 230.403 378.538 230.782C379.961 231.421 381.285 231.967 382.506 232.182C384.416 232.519 385.898 232.618 386.953 232.541C387.873 232.474 388.593 232.273 389.137 232.027C390.347 231.48 391.026 230.65 391.402 229.735L393.022 225.8L388.835 225.051C386.594 224.65 384.988 224.283 384.037 223.894C382.725 223.359 381.558 222.678 380.528 222.085L380.259 221.931C379.1 221.271 378.063 220.728 377.166 220.414L376.983 220.353L377.069 220.302C377.879 219.829 378.907 219.319 380.138 218.755L385.456 216.319L380.734 212.865C379.676 212.091 378.095 211.567 375.712 212.123C374.491 212.407 372.938 213.017 371.073 214.01C368.417 215.425 367.476 216.737 366.312 218.484C365.893 219.086 365.26 219.473 363.582 219.909C360.729 220.651 358.954 220.973 357.358 221.263L357.119 221.307C356.961 221.336 356.803 221.365 356.647 221.394L356.585 221.405L356.632 221.352C358.457 219.291 359.885 217.419 360.631 215.809C361.796 213.297 362.718 209.924 363.654 206.405C364.527 203.126 365.419 199.708 366.671 196.914C367.801 194.392 369.13 192.789 370.443 191.25L370.869 190.752C372.389 188.976 373.877 187.183 375.194 184.609C377.393 180.311 378.056 176.956 377.682 174.569L375.443 160.279L371.028 174.053C370.273 176.407 368.855 178.914 366.828 181.6C365.85 182.897 364.791 184.151 363.652 185.362L360.467 168.409C356.56 178.287 355.062 184.684 355.093 187.538C355.112 189.311 355.384 191.195 355.637 192.871C355.809 194.01 356.004 195.018 355.956 195.703C355.697 199.395 353.721 206.221 350.212 210.581C347.503 213.948 343.682 217.394 340.826 219.985C339.576 221.12 338.496 222.102 337.732 222.86C336.639 223.945 335.992 224.742 335.42 225.449C334.763 226.261 334.244 226.905 332.737 227.968C331.302 228.98 322.672 229.175 313.087 229.607L312.432 229.637C311.885 229.662 311.336 229.688 310.785 229.715L310.067 229.75L309.347 229.785L308.081 229.846L306.177 229.937L304.909 229.998C297.231 230.368 289.763 230.752 284.816 231.288C283.417 231.439 279.367 231.99 275.068 232.615L274.5 232.698L273.774 232.804L273.476 232.848L272.879 232.937L272.284 233.025C268.129 233.647 264.225 234.273 262.703 234.608C258.14 235.612 250.559 237.417 239.961 240.025L237.697 242.03L238.672 246.064M239.961 237.945C241.121 239.128 239.129 239.534 240.041 241.057C242.065 244.433 243.057 247.955 243.057 251.613C243.057 254.746 242.242 260.169 240.541 267.879C240.978 281.484 242.905 291.005 246.77 296.228C248.744 298.895 252.588 303.568 257.208 306.316C260.194 308.092 265.684 310.077 273.637 312.355C279.05 313.906 283.422 314.968 286.758 315.512C282.69 316.991 278.202 318.167 273.288 319.033C257.718 321.776 245.102 320.124 235.362 314.396C228.711 310.485 227.173 303.421 226.439 295.4L226.388 294.843C226.361 294.533 226.333 294.223 226.306 293.912C226.268 293.482 226.23 293.049 226.191 292.621L226.14 292.067L226.088 291.521L226.033 290.973C226.006 290.705 225.977 290.437 225.947 290.169C225.692 287.891 225.275 285.65 224.866 283.441C223.806 277.705 222.887 272.171 224.147 266.774C226.573 256.382 236.056 244.183 240.311 237.385C241.146 236.05 238.971 239.278 239.961 237.945ZM219.54 47.3494L221.797 50.5316C222.543 51.5836 223.048 53.2755 223.326 55.1322C223.612 57.4244 223.658 58.1822 223.662 58.7282C223.716 65.3244 223.61 71.0509 223.527 75.6044C223.43 80.8355 223.298 84.399 223.585 85.731C223.906 87.2151 224.534 88.2967 225.19 89.5052C226.493 91.9091 227.962 94.645 228.76 99.7521C229.445 104.137 229.512 106.168 229.563 107.635C229.574 107.963 229.584 108.258 229.602 108.547C229.651 109.187 229.726 109.695 229.906 110.411C230.015 110.843 230.138 111.272 230.274 111.699C230.403 111.611 230.532 111.526 230.661 111.444C231.638 110.824 232.816 110.262 234.203 109.773C235.312 105.229 236.44 102.399 237.379 101.156C238.034 100.289 239.419 99.3299 241.328 98.2743C243.554 97.0434 246.784 95.3949 248.709 91.947C250.51 88.7209 251.914 84.5279 253.115 80.9992C254.278 77.5832 255.33 74.7241 256.237 73.3854C256.52 72.9676 256.773 72.6821 256.97 72.4913L258.675 70.8337L260.825 71.8496C263.056 72.9043 263.188 73.9602 263.117 75.1205L263.105 75.2999L263.091 75.4809C263.086 75.5416 263.082 75.6025 263.077 75.6638C263.008 76.601 262.606 78.4562 262.075 80.4927L261.992 80.8088L261.866 81.2845L261.779 81.6047L261.6 82.2657C261.305 83.3434 261.005 84.4037 260.747 85.3137C260.611 85.7974 260.486 86.2378 260.381 86.6142C260.157 87.419 259.863 88.3578 259.5 89.4304L259.418 89.6724L259.449 89.658C259.564 89.6043 259.678 89.5512 259.79 89.4987L260.124 89.3432C262.147 88.3993 263.675 87.7188 264.721 87.2015L264.982 87.0702C265.526 86.7935 265.916 86.5661 266.155 86.37C267.364 85.3761 268.119 80.353 268.365 79.2012L275.123 80.3419C275.102 80.5116 275.079 80.7459 275.051 81.0327C274.719 84.3707 273.487 92.7156 269.604 96.0859C268.305 97.1414 266.78 97.6826 264.735 98.2361C262.856 98.7447 260.376 99.4019 257.153 101.53C256.596 101.897 255.899 102.282 255.11 102.711C253.105 103.803 250.247 105.262 248.226 108.328C246.632 110.748 246.201 111.469 245.845 112.243C245.769 112.411 245.697 112.575 245.622 112.746C245.356 113.35 245.061 114.02 244.528 115.1C243.411 117.365 240.519 120.514 235.645 124.41C237.609 129.798 238.699 135.03 238.937 140.1C239.132 144.282 238.809 150.066 237.949 157.447C238.703 156.771 239.297 156.156 239.727 155.599C242.535 151.954 243.976 148.083 245.081 145.185C245.666 143.651 246.178 142.344 246.693 141.371C246.847 141.079 246.423 140.628 246.361 140.252C246.037 138.305 245.793 136.119 246.449 134.011C247.67 130.091 251.23 122.907 252.49 122.275C252.907 122.065 254.054 122.083 255.541 122.25C257.72 123.158 257.899 124.381 257.673 126.193C257.599 126.782 257.333 127.786 256.987 128.973C256.582 130.36 256.031 132.113 255.962 133.488C255.904 134.64 255.942 136.091 256.071 137.839C258.478 136.669 260.465 135.589 262.027 134.596C263.943 133.377 264.683 132.341 265.039 131.823C265.341 131.382 265.591 131.087 265.777 130.907L268.383 128.39L270.753 131.131C272.256 132.871 271.965 133.966 271.384 135.307C271.17 135.801 270.808 136.472 270.333 137.203C269.62 138.3 268.64 139.553 267.628 140.522C266.918 141.203 265.797 141.946 264.399 142.818C262.252 144.158 259.267 145.976 256.701 149.169C254.415 152.014 252.815 155.6 251.433 158.623C250.232 161.251 249.147 163.514 248.075 164.9C246.542 166.882 241.297 171.257 232.219 177.919C230.776 185.659 230.01 189.812 230.01 190.379C230.01 190.548 230.18 190.764 230.306 191.163C230.759 192.599 231.513 194.983 232.447 199.25C233.513 204.115 235.645 207.218 232.219 217.413L211.618 252.33L213.116 244.497C212.868 244.055 212.459 242.768 212.45 240.385V240.048C212.455 238.553 212.533 236.488 212.685 233.853C212.861 230.795 213.194 227.466 213.542 224.122L213.69 222.711C214.191 217.905 214.684 213.146 214.684 209.262C214.684 205.981 214.19 203.881 213.723 201.845C213.185 199.503 212.679 197.229 212.679 193.891V176.463C210.78 170.305 208.502 165.455 205.77 161.956C203.743 159.36 200.987 157.571 198.46 155.87C195.153 153.645 192.21 151.498 190.583 148.785C189.328 146.692 187.38 141.904 185.329 136.691L185.072 136.038L184.819 135.395L184.566 134.75L184.44 134.427L184.122 133.617L183.854 132.937C183.721 132.598 183.587 132.26 183.455 131.925L183.188 131.252C181.371 126.671 179.639 122.423 178.384 120.412C176.578 117.518 172.557 115.748 169.656 114.307C167.541 113.257 165.83 112.317 164.982 111.531C163.346 110.017 161.451 105.546 160.031 101.701C159.496 100.254 159.023 98.9462 158.625 98.1264C158.16 97.1694 157.166 96.4256 156.234 95.5953C154.483 94.0345 152.755 92.363 151.787 90.3309C150.998 88.6774 150.312 86.8228 149.851 85.2932C149.566 84.3509 149.366 83.5204 149.262 82.9072C148.755 79.9278 150.022 79.1672 150.423 78.8255C150.799 78.5053 151.659 77.4919 154.12 78.1697C154.468 78.4262 154.803 78.7192 155.158 79.1007C155.871 79.8683 156.234 80.5302 156.648 81.38C157.181 82.4718 157.94 84.0998 159.004 85.3592C159.749 86.241 160.499 86.7926 161.251 87.369C162.767 88.5317 164.306 89.741 165.983 92.1839C166.796 93.3692 167.594 94.824 168.368 96.5523L168.47 96.7839L168.493 96.7489C169.262 95.5655 170.362 93.9441 171.795 91.8852L171.993 91.6018C171.875 88.6167 171.814 86.3349 171.81 84.7562C171.813 83.6431 171.84 82.8751 171.882 82.3934C171.93 81.8373 172.019 81.457 172.091 81.2259L173.115 77.903L176.422 78.9722C176.991 79.1559 179.738 81.8801 180.702 87.7093C181.082 90.0074 181.211 92.5152 180.827 94.7163C180.541 96.3573 179.51 98.0315 178.108 99.9303C177.445 100.827 176.703 101.816 176.08 102.989C175.977 103.181 175.863 103.389 175.743 103.609C175.325 104.37 174.745 105.323 174.521 106.243C174.909 106.487 175.562 106.681 176.215 107.01L177.045 107.425C180.134 108.972 183.968 111.057 186.547 114.185C188.616 116.694 190.813 120.692 193.083 126.214C193.823 124.367 194.115 121.848 194.146 118.563L205.006 96.7986C206.307 101.257 205.741 124.546 205.074 127.657C204.52 130.242 199.808 134.531 197.521 137.831C198.447 139.362 199.847 140.988 201.667 142.74C202.814 143.845 203.932 144.694 205.074 145.512L205.467 145.791L205.821 146.041C205.957 146.137 206.092 146.232 206.229 146.328C209.162 148.387 212.334 150.625 216.433 155.48C218.742 158.215 220.418 160.937 221.64 163.292L221.685 163.379L221.69 163.369C223.298 159.788 224.931 155.44 225 152.746L225.002 152.572C225.002 149.618 222.897 147.146 221.325 145.001C220.124 143.364 219.072 141.855 218.512 140.518C217.811 138.843 217.304 136.809 217.004 135.003C216.809 133.828 216.7 132.752 216.668 131.937C216.54 128.661 217.927 127.919 218.316 127.657C218.347 127.635 218.384 127.609 218.426 127.58L218.52 127.518C218.925 127.255 219.726 126.855 221.181 127.155C221.453 127.253 221.742 127.396 222.068 127.603C223.014 128.202 223.345 128.741 223.667 129.514C223.832 129.909 224.041 130.557 224.284 131.346C224.586 132.327 224.954 133.639 225.461 134.771L225.57 135.005L225.507 134.553C225.418 133.95 225.311 133.355 225.186 132.768L225.089 132.329C224.56 130.029 223.321 127.354 222.094 124.633L221.731 123.826C220.223 120.461 218.8 117.077 218.296 114.167C217.801 111.306 217.651 108.476 217.515 105.763C217.394 103.348 217.293 101.037 216.869 98.9106C216.348 96.2946 215.446 95.2866 214.765 94.5669C213.394 93.1177 212.679 91.9636 212.679 90.0191C212.679 86.4023 212.876 82.7664 213.269 79.112C212.02 78.1643 211.05 77.4586 210.359 76.9968C209.777 76.6079 209.204 76.2424 208.651 75.8899C206.374 74.4364 204.443 73.0983 203.242 71.5523C199.787 67.1054 199.541 61.4938 199.535 59.9062L199.504 52.252L205.236 57.3212C205.722 57.7505 206.287 58.5843 206.763 59.9329C207.223 61.2379 207.953 63.3811 208.88 64.906C209.544 65.9974 211.407 66.7819 214.112 68.0603L214.222 68.1125L214.224 68.0964C214.756 59.4715 215.151 54.3451 215.394 52.7155L215.404 52.6505C215.674 50.9174 216.355 50.29 216.674 49.996L219.54 47.3494Z" stroke="white" stroke-width="8" stroke-linejoin="round"/>
<path fill-rule="evenodd" clip-rule="evenodd" d="M333.208 176.971L337.15 181.431C343.513 181.874 347.394 183.116 348.793 185.158C350.193 187.201 349.398 190.461 346.408 194.94C349.134 195.514 350.812 196.395 351.443 197.585C352.074 198.774 352.074 201.057 351.443 204.432H354.783C352.76 207.149 353.599 209.774 351.443 212.307C348.208 216.108 341.744 221.557 340.175 218.691C339.129 216.78 336.807 214.652 333.208 212.307C333.682 216.507 332.944 219.831 330.993 222.28C329.042 224.728 327.132 224.728 325.263 222.28C325.176 226.224 324.374 228.455 322.858 228.972C321.342 229.49 319.455 228.177 317.197 225.034L312.917 231.541H296.88C294.771 229.408 293.716 226.321 293.716 222.28C293.716 216.217 296.88 208.654 296.88 207.322C296.88 206.435 294.356 208.965 289.307 214.915C283.282 216.328 279.505 216.328 277.977 214.915C276.45 213.501 276.45 210.007 277.977 204.432C273.553 205.417 271.191 205.417 270.891 204.432C270.59 203.447 271.989 200.283 275.085 194.94C277.959 189.176 282.7 185.26 289.307 183.192C295.958 181.109 299.589 181.633 303.165 181.798L303.586 181.816C305.199 181.875 306.824 181.838 308.734 181.431C312.941 180.536 316.603 179.049 319.72 176.971H333.208ZM385.865 162.392C388.172 159.436 390.064 158.312 391.541 159.02C393.018 159.727 394.597 162.515 396.278 167.381L401.713 170.614L404.213 180.936C407.675 181.357 409.66 182.571 410.167 184.579C410.674 186.587 409.337 191.066 406.155 198.017C409.639 199.665 411.545 201.744 411.873 204.256C412.202 206.768 411.032 210.321 408.364 214.915C410.586 219.252 411.159 221.707 410.083 222.28C409.007 222.852 405.616 221.897 399.91 219.414C399.863 222.994 398.678 225.116 396.353 225.782C394.029 226.448 389.932 225.839 384.062 223.954L378.401 219.414L384.062 212.552C380.434 212.765 377.005 213.553 373.775 214.915C371.065 216.058 370.48 216.922 369.951 217.69L369.855 217.828C369.47 218.378 369.048 218.884 367.793 219.414C365.736 220.282 361.917 221.238 356.337 222.28C358.757 220.148 360.717 217.693 362.216 214.915C363.715 212.137 364.498 209.51 364.563 207.036L369.449 204.256C372.449 202.456 375.433 201.556 378.401 201.556C381.368 201.556 383.9 202.456 385.997 204.256C386.73 201.022 387.977 198.942 389.738 198.017C391.499 197.092 394.21 197.092 397.872 198.017L394.475 194.16L396.278 187.375C394.113 185.769 392.534 183.623 391.541 180.936C390.052 176.907 393.249 171.39 391.541 169.01C389.833 166.63 388.735 172.615 385.908 173.087C384.023 173.402 382.652 172.043 381.794 169.01L377.72 167.381C376.787 164.627 376.787 162.964 377.72 162.392C378.654 161.82 381.369 161.82 385.865 162.392ZM314.931 190.077L312.356 191.763C312.274 191.817 312.18 191.85 312.082 191.861L309.664 192.123C309.63 192.127 309.597 192.134 309.564 192.143C309.232 192.235 309.038 192.579 309.13 192.911L310.005 196.057C310.249 196.185 310.497 196.319 310.747 196.457C313.577 198.027 315.642 199.713 315.413 200.127C315.184 200.54 312.66 199.682 309.83 198.113C309.639 198.006 309.451 197.9 309.266 197.793L305.773 199.566C305.748 199.578 305.724 199.592 305.701 199.608C305.418 199.804 305.346 200.192 305.542 200.476L307.129 202.782C307.189 202.87 307.226 202.972 307.236 203.078L307.475 205.643C307.478 205.682 307.486 205.72 307.496 205.757C307.591 206.089 307.937 206.28 308.268 206.185L310.858 205.441C311.136 205.361 311.434 205.483 311.575 205.737L314.631 211.228C314.674 211.306 314.734 211.374 314.806 211.427C315.084 211.631 315.474 211.571 315.678 211.294L316.497 210.179C316.671 209.942 316.986 209.859 317.254 209.979L318.446 210.512C318.515 210.542 318.588 210.561 318.663 210.565C319.006 210.586 319.302 210.324 319.323 209.98L319.553 206.213C319.573 205.895 319.828 205.643 320.145 205.627L325.617 205.361C325.739 205.355 325.858 205.312 325.957 205.239C326.234 205.035 326.293 204.644 326.088 204.367L322.784 199.889C322.601 199.641 322.627 199.296 322.844 199.078L325.236 196.676C325.252 196.66 325.266 196.644 325.28 196.627C325.496 196.359 325.454 195.966 325.186 195.75L324.03 194.817C323.832 194.658 323.751 194.394 323.824 194.151L324.186 192.954C324.218 192.847 324.221 192.733 324.194 192.625C324.112 192.29 323.775 192.085 323.44 192.167L317.416 193.645C317.091 193.725 316.76 193.533 316.668 193.211L315.872 190.427C315.854 190.367 315.828 190.31 315.794 190.257C315.605 189.969 315.219 189.888 314.931 190.077ZM307.337 62.5687C309.5 61.1283 311.464 60.478 313.231 60.6177C316.964 60.913 318.045 62.2951 316.476 64.764C319.094 63.3221 321.155 63.5872 322.659 65.5593C324.914 68.5174 320.934 72.8595 322.659 75.1818C324.384 77.5041 328.166 76.4698 329.159 79.7702C329.821 81.9705 328.785 84.198 326.05 86.4527C326.996 89.5941 328.307 91.2757 329.985 91.4973C332.502 91.8297 335.272 87.4678 339.172 88.1857C343.072 88.9036 343.205 90.8603 342.9 93.8747C342.595 96.8892 341.298 103.344 337.441 105.286C334.87 106.581 327.882 107.214 316.476 107.184C321.113 110.366 323.174 112.858 322.659 114.662C321.886 117.368 317.354 115.552 313.231 118.551C309.107 121.549 305.172 132.669 303.979 136.121C303.184 138.423 301.529 140.587 299.014 142.614L303.979 146.813C302.921 152.389 300.259 157.585 295.995 162.402C291.731 167.219 283.659 170.545 271.778 179.588C271.703 173.075 272.751 171.874 274.922 168.78C276.585 166.41 279.581 166.128 284.079 163.327C285.454 162.471 289.738 158.103 288.922 157.341C288.378 156.833 285.629 157.628 280.677 159.726C282.068 152.409 282.31 148.672 281.401 148.514C280.038 148.277 277.018 155.714 274.922 158.725C272.993 161.498 269.345 163.797 268.349 165.641C266.271 169.487 265.084 173.423 264.789 177.449C261.154 179.158 257.62 179.871 254.186 179.588C250.753 179.305 248.19 178.089 246.498 175.94C243.25 177.713 240.1 178.6 237.047 178.6C233.994 178.6 232.502 177.713 232.57 175.94C240.82 170.99 246.065 167.116 248.305 164.318C253.807 157.448 255.56 150.184 257.959 147.644C263.723 141.544 266.143 140.147 267.331 139.143C269.715 137.129 271.198 134.281 271.778 130.601L256.241 139.143C256.14 135.686 256.14 133.154 256.241 131.548C256.607 125.692 257.119 122.375 256.241 121.895C255.025 121.231 251.526 128.13 250.149 134.408C249.419 137.736 250.581 141.074 250.149 142.614C249.574 144.663 248.058 149.136 245.005 153.475C243.648 155.404 242.408 155.489 238.459 158.725C239.656 150.126 238.79 146.097 238.684 141.646C238.578 137.195 237.579 131.079 235.686 123.297C240.301 118.462 243.408 115.1 245.005 113.21C247.456 110.31 248.882 107.533 250.149 106.196C253.737 102.408 256.029 101.334 257.959 99.7216C262.817 95.6629 269.965 94.6708 270.907 93.8747C274.046 91.2239 273.676 85.24 278.385 82.383C281.525 80.4784 284.199 81.1747 286.407 84.472C285.505 80.1753 285.853 77.0786 287.45 75.1818C289.048 73.285 291.896 72.5869 295.995 73.0874C296.694 68.8827 298.519 65.7125 301.471 63.577C303.026 62.4521 304.981 62.116 307.337 62.5687ZM88.6015 86.588C94.1137 80.1366 98.1729 79.9324 102.229 80.3565L102.572 80.3938C102.686 80.4066 102.801 80.4198 102.915 80.4332L103.258 80.4741C103.43 80.4949 103.602 80.5158 103.775 80.5367L104.293 80.5983C105.274 80.7123 106.268 80.8078 107.297 80.8078C111.331 80.8078 116.405 82.7346 122.52 86.588C127.592 82.7346 132.62 80.8078 137.605 80.8078C142.589 80.8078 147.258 82.7346 151.612 86.588C156.292 91.602 159.225 95.1987 160.411 97.3783C162.885 101.922 161.618 105.621 165.101 109.669C174.086 120.107 175.745 113.702 179.468 118.953C181.128 121.295 182.899 126.225 184.732 131.395L185.029 132.235C185.079 132.375 185.129 132.515 185.179 132.656L185.478 133.498C187.526 139.25 189.641 144.905 191.755 147.264C196.036 152.04 199.83 155.748 204.333 157.601C207.335 158.836 210.615 164.828 214.173 175.575C211.668 177.124 208.839 177.775 205.686 177.528C202.532 177.282 199.383 176.631 196.238 175.575C193.963 177.774 192.469 178.425 191.755 177.528C191.042 176.631 187.772 169.989 181.946 157.601C183.736 154.06 184.418 150.615 183.993 147.264C183.567 143.914 182.059 140.856 179.468 138.09C178.61 142.029 177.883 145.087 177.286 147.264C176.903 148.661 175.456 150.638 175.146 152.04C174.593 154.536 174.335 156.229 174.372 157.117L174.375 157.174L165.101 152.04C167.238 157.131 169.02 160.632 170.444 162.542L170.546 162.676C172.708 165.493 175.408 164.792 177.286 167.917C178.537 170 179.265 173.204 179.468 177.528L172.735 174.051L151.612 170.637C144.891 165.33 139.6 162.676 135.738 162.676C131.876 162.676 129.033 163.378 127.209 164.782L142.871 175.575L137.605 177.528V181.882L133.713 177.528L111.96 174.051C105.174 179.272 98.4999 181.882 91.9382 181.882C82.0955 181.882 76.8153 178.314 74.5142 174.051C73.5077 172.186 73.5077 168.395 74.5142 162.676C72.4378 155.396 71.6859 150.259 72.2586 147.264C73.9236 138.558 76.8448 129.671 81.0223 120.603C82.1157 117.602 83.3536 113.957 84.7359 109.669C85.4823 107.353 85.1861 104.89 84.8635 102.264L84.8097 101.824C84.7649 101.457 84.7207 101.086 84.6798 100.712L84.6325 100.262C84.2164 96.1215 84.3316 91.5855 88.6015 86.588ZM321.766 144.566C323.49 142.93 324.601 142.279 325.097 142.614C325.593 142.949 325.593 144.349 325.097 146.813C328.83 146.899 331.255 147.736 332.371 149.325C333.487 150.914 333.487 153.527 332.371 157.165C323.937 164.376 317.978 168.892 314.495 170.713C311.012 172.535 305.14 173.202 296.88 172.716C301.723 167.94 304.943 164.206 306.541 161.514C308.139 158.821 309.367 155.058 310.226 150.224L314.626 145.899L321.766 144.566ZM197.951 84.2992C202.737 83.8433 202.138 79.232 206.046 79.7702C209.954 80.3085 212.796 82.1035 214.152 84.2992C215.507 86.495 216.029 87.2852 216.349 88.5368C217.306 92.2785 219.246 95.4754 220.271 99.03C222.323 106.145 220.276 110.415 221.784 116.832C222.523 119.972 226.534 123.414 228.539 130.476C229.023 132.182 228.953 134.559 228.327 137.607C225.422 136.724 223.969 135.516 223.969 133.983C223.969 132.45 223.241 129.887 221.784 126.294C219.931 130.785 219.426 134.556 220.271 137.607C221.538 142.183 225.379 142.354 226.167 149.936C226.692 154.991 225.433 159.894 222.388 164.647C220.901 158.453 219.44 155.308 216.349 151.696C214.401 149.418 207.146 145.69 203 142.614C201.379 141.411 199.696 139.234 197.951 136.082C201.023 133.323 202.706 130.061 203 126.294C203.441 120.645 202.033 112.806 199.863 111.612C197.692 110.418 197.629 119.726 196.743 122.187C195.876 124.595 194.546 125.032 194.546 126.294C194.546 128.847 192.391 124.701 188.082 113.857C179.928 108.499 175.447 105.555 174.641 105.025L174.589 104.991C174.535 104.956 174.508 104.938 174.508 104.938C174.508 104.938 174.514 104.929 174.526 104.911L174.548 104.878C174.562 104.858 174.578 104.832 174.598 104.802L174.643 104.735C175.239 103.837 177.812 99.9589 182.363 93.1008V86.495C184.116 83.3263 186.022 81.5969 188.082 81.3068C191.17 80.8718 193.166 84.7552 197.951 84.2992ZM100.738 145.623C100.45 145.434 100.063 145.515 99.8747 145.803C99.8404 145.856 99.8142 145.913 99.797 145.973L99.2407 147.918C99.1484 148.24 98.8181 148.432 98.4927 148.352L94.0101 147.252C93.6756 147.17 93.338 147.375 93.256 147.71C93.2294 147.818 93.2324 147.932 93.2646 148.039L93.4654 148.704C93.5387 148.947 93.4574 149.211 93.2598 149.37L92.5102 149.975C92.2421 150.191 92.2 150.584 92.4162 150.852C92.4299 150.869 92.4445 150.885 92.4599 150.901L94.1969 152.645C94.4143 152.864 94.4398 153.208 94.2569 153.456L91.8201 156.759C91.6156 157.036 91.6744 157.427 91.9515 157.631C92.0504 157.705 92.1686 157.747 92.2914 157.753L96.3171 157.949C96.6347 157.965 96.8897 158.217 96.9091 158.534L97.0752 161.252C97.0962 161.596 97.3919 161.857 97.7356 161.836C97.8104 161.832 97.8837 161.814 97.952 161.783L98.6473 161.472C98.9152 161.353 99.2304 161.436 99.4042 161.672L99.8832 162.324C100.087 162.602 100.477 162.662 100.755 162.458C100.827 162.405 100.887 162.337 100.93 162.258L103.229 158.129C103.37 157.875 103.667 157.753 103.946 157.833L105.774 158.358C106.105 158.453 106.45 158.262 106.545 157.931C106.556 157.893 106.563 157.855 106.567 157.816L106.74 155.95C106.75 155.844 106.787 155.742 106.848 155.654L108.016 153.957C108.212 153.673 108.14 153.284 107.856 153.089C107.833 153.073 107.809 153.059 107.785 153.046L105.12 151.696C104.974 151.78 104.824 151.865 104.671 151.95C102.41 153.204 100.394 153.89 100.21 153.559C100.027 153.229 101.677 151.882 103.938 150.628C104.138 150.517 104.336 150.41 104.531 150.308L105.19 147.937C105.283 147.605 105.089 147.261 104.757 147.168C104.724 147.159 104.691 147.153 104.657 147.149L102.902 146.959C102.804 146.948 102.71 146.914 102.627 146.86L100.738 145.623ZM174.375 157.174L175.146 157.601C174.679 158.039 174.423 157.905 174.376 157.198L174.375 157.174ZM224.559 74.2565C227.781 72.6977 230.451 72.6977 232.57 74.2565C234.69 75.8153 237.223 79.6428 240.171 85.7389C243.329 83.5903 246.376 82.5737 249.313 82.6892C252.249 82.8046 253.874 84.0049 254.186 86.2899C253.548 89.4139 253.229 90.9759 253.229 90.9759C253.229 90.9759 252.039 93.3021 249.313 95.1413C246.466 97.0617 242.053 98.5379 240.838 100.479C238.576 104.094 238.465 109.23 238.459 110.329L238.459 110.467C238.459 110.752 236.959 110.315 235.01 111.291C234.177 111.708 232.704 112.832 230.588 114.662C230.078 111.288 229.761 108.778 229.637 107.13C229.386 103.808 229.688 100.531 228.954 97.4295C227.672 92.0192 226.146 90.0644 224.965 88.1381L224.82 87.8973C224.292 87.0127 223.842 86.1042 223.526 84.8417C222.837 82.0872 223.182 78.5588 224.559 74.2565ZM302.362 89.4255L300.473 90.6627C300.39 90.7167 300.296 90.7504 300.199 90.761L298.443 90.9514C298.41 90.9551 298.376 90.9615 298.343 90.9706C298.012 91.063 297.817 91.407 297.91 91.7389L298.569 94.1103C298.764 94.2124 298.962 94.3192 299.162 94.4301C301.423 95.684 303.073 97.0311 302.89 97.3617C302.707 97.6924 300.69 97.0065 298.429 95.7525C298.277 95.6678 298.127 95.5829 297.98 95.4979L295.316 96.8487C295.291 96.8613 295.267 96.8755 295.244 96.8913C294.96 97.0867 294.889 97.4752 295.084 97.759L296.252 99.4564C296.313 99.5442 296.35 99.6461 296.36 99.7524L296.533 101.619C296.537 101.657 296.544 101.696 296.555 101.733C296.65 102.064 296.995 102.256 297.326 102.16L299.154 101.635C299.433 101.555 299.73 101.678 299.871 101.931L302.17 106.061C302.213 106.139 302.273 106.207 302.345 106.26C302.623 106.464 303.013 106.404 303.217 106.127L303.696 105.475C303.87 105.238 304.185 105.155 304.453 105.275L305.148 105.586C305.217 105.616 305.29 105.634 305.365 105.639C305.708 105.66 306.004 105.398 306.025 105.054L306.191 102.336C306.21 102.019 306.465 101.767 306.783 101.751L310.809 101.555C310.932 101.549 311.05 101.507 311.149 101.434C311.426 101.229 311.485 100.839 311.28 100.561L308.843 97.2585C308.66 97.0106 308.686 96.6661 308.903 96.4477L310.64 94.7032C310.656 94.6878 310.67 94.6716 310.684 94.6546C310.9 94.3864 310.858 93.9936 310.59 93.7773L309.84 93.1725C309.643 93.0131 309.561 92.7497 309.635 92.5066L309.836 91.841C309.868 91.7342 309.871 91.6206 309.844 91.5123C309.762 91.1776 309.425 90.9728 309.09 91.0549L304.607 92.1543C304.282 92.2341 303.952 92.0423 303.859 91.72L303.303 89.7758C303.286 89.7156 303.26 89.6583 303.225 89.6059C303.037 89.3176 302.65 89.2368 302.362 89.4255ZM167.388 79.7702C169.636 79.7702 171.417 81.6064 172.731 85.2789C174.253 87.5832 174.797 89.6333 174.364 91.4291C173.931 93.2249 172.226 95.9891 169.249 99.7216C168.664 96.473 167.675 93.7089 166.28 91.4291C164.885 89.1493 162.929 87.0992 160.411 85.2789C162.814 81.6064 165.14 79.7702 167.388 79.7702Z" fill="white"/>
<path d="M109.718 408.389C107.531 408.389 105.837 407.787 104.634 406.585C103.486 405.382 102.912 403.687 102.912 401.501V355.991C102.912 353.749 103.541 352.055 104.798 350.907C106.055 349.704 107.832 349.103 110.128 349.103C112.041 349.103 113.545 349.485 114.638 350.251C115.786 350.961 116.825 352.164 117.754 353.859L135.384 385.511H132.514L150.062 353.859C151.046 352.164 152.085 350.961 153.178 350.251C154.326 349.485 155.857 349.103 157.77 349.103C159.957 349.103 161.624 349.704 162.772 350.907C163.975 352.055 164.576 353.749 164.576 355.991V401.501C164.576 403.687 164.002 405.382 162.854 406.585C161.706 407.787 160.011 408.389 157.77 408.389C155.583 408.389 153.889 407.787 152.686 406.585C151.538 405.382 150.964 403.687 150.964 401.501V373.293H152.686L139.484 396.253C138.719 397.455 137.899 398.357 137.024 398.959C136.204 399.56 135.083 399.861 133.662 399.861C132.295 399.861 131.175 399.56 130.3 398.959C129.425 398.357 128.633 397.455 127.922 396.253L114.638 373.211H116.524V401.501C116.524 403.687 115.95 405.382 114.802 406.585C113.654 407.787 111.959 408.389 109.718 408.389ZM177.925 408.389C176.23 408.389 174.809 408.006 173.661 407.241C172.513 406.421 171.802 405.327 171.529 403.961C171.255 402.539 171.501 400.954 172.267 399.205L192.685 355.253C193.669 353.121 194.871 351.563 196.293 350.579C197.769 349.595 199.436 349.103 201.295 349.103C203.153 349.103 204.766 349.595 206.133 350.579C207.554 351.563 208.784 353.121 209.823 355.253L230.241 399.205C231.115 400.954 231.416 402.539 231.143 403.961C230.924 405.382 230.241 406.475 229.093 407.241C227.999 408.006 226.633 408.389 224.993 408.389C222.806 408.389 221.111 407.897 219.909 406.913C218.761 405.929 217.722 404.343 216.793 402.157L212.365 391.743L218.105 395.925H184.321L190.143 391.743L185.715 402.157C184.731 404.343 183.719 405.929 182.681 406.913C181.642 407.897 180.057 408.389 177.925 408.389ZM201.131 365.585L191.619 388.299L189.323 384.363H213.185L210.889 388.299L201.295 365.585H201.131ZM245.304 408.389C242.898 408.389 241.04 407.733 239.728 406.421C238.416 405.054 237.76 403.168 237.76 400.763V357.467C237.76 355.007 238.416 353.121 239.728 351.809C241.094 350.497 242.98 349.841 245.386 349.841H265.558C272.118 349.841 277.174 351.535 280.728 354.925C284.336 358.259 286.14 362.879 286.14 368.783C286.14 374.687 284.336 379.333 280.728 382.723C277.174 386.057 272.118 387.725 265.558 387.725H252.848V400.763C252.848 403.168 252.219 405.054 250.962 406.421C249.704 407.733 247.818 408.389 245.304 408.389ZM252.848 376.163H262.934C265.776 376.163 267.963 375.561 269.494 374.359C271.024 373.101 271.79 371.243 271.79 368.783C271.79 366.268 271.024 364.409 269.494 363.207C267.963 362.004 265.776 361.403 262.934 361.403H252.848V376.163ZM300.8 407.651C298.394 407.651 296.508 406.995 295.142 405.683C293.83 404.316 293.174 402.43 293.174 400.025V357.385C293.174 354.925 293.83 353.039 295.142 351.727C296.454 350.415 298.312 349.759 300.718 349.759C303.178 349.759 305.036 350.415 306.294 351.727C307.606 353.039 308.262 354.925 308.262 357.385V395.105H328.27C330.347 395.105 331.932 395.651 333.026 396.745C334.174 397.783 334.748 399.314 334.748 401.337C334.748 403.359 334.174 404.917 333.026 406.011C331.932 407.104 330.347 407.651 328.27 407.651H300.8ZM349.013 407.651C346.443 407.651 344.475 406.995 343.109 405.683C341.797 404.316 341.141 402.375 341.141 399.861V357.631C341.141 355.116 341.797 353.203 343.109 351.891C344.475 350.524 346.443 349.841 349.013 349.841H376.811C378.779 349.841 380.255 350.333 381.239 351.317C382.223 352.301 382.715 353.722 382.715 355.581C382.715 357.494 382.223 358.97 381.239 360.009C380.255 360.993 378.779 361.485 376.811 361.485H355.573V372.473H375.007C376.92 372.473 378.369 372.965 379.353 373.949C380.391 374.933 380.911 376.381 380.911 378.295C380.911 380.208 380.391 381.657 379.353 382.641C378.369 383.625 376.92 384.117 375.007 384.117H355.573V396.007H376.811C378.779 396.007 380.255 396.526 381.239 397.565C382.223 398.549 382.715 399.97 382.715 401.829C382.715 403.742 382.223 405.191 381.239 406.175C380.255 407.159 378.779 407.651 376.811 407.651H349.013Z" fill="white"/>
</svg>
