<svg width="150" height="150" viewBox="0 0 150 150" fill="none" xmlns="http://www.w3.org/2000/svg">
<g clip-path="url(#clip0_53_1647)">
<path d="M82.6224 3.87876C135.706 -17.0021 140.92 90.5766 121.004 117.02C107.923 147.733 20.0311 171.828 17.8992 116.233C16.7533 86.3517 31.6668 90.4972 40.0084 68.2733C45.0634 54.8054 29.5385 24.7596 82.6224 3.87876Z" fill="#3D9922"/>
<mask id="path-2-inside-1_53_1647" fill="white">
<path fill-rule="evenodd" clip-rule="evenodd" d="M35.582 32.0738C35.6503 27.6031 39.2956 24 43.7825 24H110.798C115.327 24 118.999 27.6719 118.999 32.2014V39.9345L118.999 39.9424V109.755L118.999 109.763V116.676C118.999 121.206 115.327 124.877 110.798 124.877H43.7825C39.2956 124.877 35.6503 121.274 35.582 116.804V32.0738Z"/>
</mask>
<path fill-rule="evenodd" clip-rule="evenodd" d="M35.582 32.0738C35.6503 27.6031 39.2956 24 43.7825 24H110.798C115.327 24 118.999 27.6719 118.999 32.2014V39.9345L118.999 39.9424V109.755L118.999 109.763V116.676C118.999 121.206 115.327 124.877 110.798 124.877H43.7825C39.2956 124.877 35.6503 121.274 35.582 116.804V32.0738Z" fill="white"/>
<path d="M35.582 32.0738L33.5823 32.0432L33.582 32.0585V32.0738H35.582ZM118.999 39.9345H116.999V39.9384L118.999 39.9345ZM118.999 39.9424H120.999V39.9385L118.999 39.9424ZM118.999 109.755L120.999 109.759V109.755H118.999ZM118.999 109.763L116.999 109.759V109.763H118.999ZM35.582 116.804H33.582V116.819L33.5823 116.834L35.582 116.804ZM43.7825 22C38.2013 22 33.6671 26.4817 33.5823 32.0432L37.5818 32.1043C37.6334 28.7245 40.39 26 43.7825 26V22ZM43.7825 26H110.798V22H43.7825V26ZM120.999 32.2014C120.999 26.5673 116.432 22 110.798 22V26C114.223 26 116.999 28.7765 116.999 32.2014H120.999ZM120.999 39.9345V32.2014H116.999V39.9345H120.999ZM120.999 39.9385L120.999 39.9306L116.999 39.9384L116.999 39.9462L120.999 39.9385ZM120.999 109.755V39.9424H116.999V109.755H120.999ZM120.999 109.767L120.999 109.759L116.999 109.751L116.999 109.759L120.999 109.767ZM120.999 116.676V109.763H116.999V116.676H120.999ZM110.798 126.877C116.432 126.877 120.999 122.31 120.999 116.676H116.999C116.999 120.101 114.223 122.877 110.798 122.877V126.877ZM43.7825 126.877H110.798V122.877H43.7825V126.877ZM33.5823 116.834C33.6671 122.396 38.2013 126.877 43.7825 126.877V122.877C40.39 122.877 37.6334 120.153 37.5818 116.773L33.5823 116.834ZM37.582 116.804V32.0738H33.582V116.804H37.582Z" fill="#1A3185" mask="url(#path-2-inside-1_53_1647)"/>
<path d="M47 35H101M47 54H101" stroke="#1A3185" stroke-width="2" stroke-linecap="round"/>
<path d="M46 105H100M46 110H100" stroke="#1A3185" stroke-width="2" stroke-linecap="round"/>
<path d="M47 71.5H101M50.5 60H104.5" stroke="#1A3185" stroke-width="2" stroke-linecap="round"/>
<path d="M47 94.5H101M50.5 83H104.5M47 89H83.5M87.5 89H104.5" stroke="#1A3185" stroke-width="2" stroke-linecap="round"/>
<line x1="47" y1="42" x2="58" y2="42" stroke="#1A3185" stroke-width="2" stroke-linecap="round"/>
<line x1="63" y1="42" x2="102" y2="42" stroke="#1A3185" stroke-width="2" stroke-linecap="round"/>
<line x1="55" y1="48" x2="94" y2="48" stroke="#1A3185" stroke-width="2" stroke-linecap="round"/>
<line x1="1" y1="-1" x2="40" y2="-1" transform="matrix(1 0 0 -1 54 99)" stroke="#1A3185" stroke-width="2" stroke-linecap="round"/>
<line x1="1" y1="-1" x2="40" y2="-1" transform="matrix(1 0 0 -1 54 65)" stroke="#1A3185" stroke-width="2" stroke-linecap="round"/>
<line x1="47" y1="48" x2="49" y2="48" stroke="#1A3185" stroke-width="2" stroke-linecap="round"/>
<line x1="1" y1="-1" x2="3" y2="-1" transform="matrix(1 0 0 -1 46 99)" stroke="#1A3185" stroke-width="2" stroke-linecap="round"/>
<line x1="1" y1="-1" x2="3" y2="-1" transform="matrix(1 0 0 -1 46 65)" stroke="#1A3185" stroke-width="2" stroke-linecap="round"/>
<line x1="1" y1="-1" x2="3" y2="-1" transform="matrix(1 0 0 -1 57 77)" stroke="#1A3185" stroke-width="2" stroke-linecap="round"/>
<line x1="98" y1="48" x2="104" y2="48" stroke="#1A3185" stroke-width="2" stroke-linecap="round"/>
<line x1="1" y1="-1" x2="7" y2="-1" transform="matrix(1 0 0 -1 97 99)" stroke="#1A3185" stroke-width="2" stroke-linecap="round"/>
<line x1="1" y1="-1" x2="7" y2="-1" transform="matrix(1 0 0 -1 97 65)" stroke="#1A3185" stroke-width="2" stroke-linecap="round"/>
<line x1="1" y1="-1" x2="7" y2="-1" transform="matrix(1 0 0 -1 46 77)" stroke="#1A3185" stroke-width="2" stroke-linecap="round"/>
<path d="M28.2293 129.872L48.5358 74.2213L64.6442 81.8009L34.2733 132.715L28.2293 129.872Z" fill="white" stroke="#1A3185" stroke-width="2"/>
<path d="M46.2937 77.5879L63.0332 85.4645" stroke="#1A3185" stroke-width="2"/>
<rect x="50.5267" y="86.2105" width="4" height="15" rx="2" transform="rotate(25.1988 50.5267 86.2105)" stroke="#1A3185" stroke-width="2"/>
<path d="M46.6682 93.2363L51.1924 95.3651" stroke="#1A3185" stroke-width="2"/>
<mask id="path-25-inside-2_53_1647" fill="white">
<path d="M78.0955 69.8958C74.2157 78.1413 64.3862 81.6804 56.1407 77.8005C47.8952 73.9207 44.3561 64.0912 48.2359 55.8457C52.1158 47.6002 61.9453 44.0611 70.1908 47.9409C78.4363 51.8208 81.9754 61.6503 78.0955 69.8958Z"/>
</mask>
<path d="M78.0955 69.8958C74.2157 78.1413 64.3862 81.6804 56.1407 77.8005C47.8952 73.9207 44.3561 64.0912 48.2359 55.8457C52.1158 47.6002 61.9453 44.0611 70.1908 47.9409C78.4363 51.8208 81.9754 61.6503 78.0955 69.8958Z" fill="white"/>
<path d="M76.2859 69.0443C72.8763 76.2903 64.2383 79.4004 56.9922 75.9909L55.2892 79.6102C64.5341 83.9603 75.5551 79.9923 79.9052 70.7473L76.2859 69.0443ZM56.9922 75.9909C49.7462 72.5813 46.6361 63.9433 50.0456 56.6972L46.4263 54.9942C42.0762 64.2391 46.0442 75.2601 55.2892 79.6102L56.9922 75.9909ZM50.0456 56.6972C53.4552 49.4512 62.0932 46.3411 69.3393 49.7506L71.0423 46.1313C61.7973 41.7812 50.7764 45.7492 46.4263 54.9942L50.0456 56.6972ZM69.3393 49.7506C76.5853 53.1602 79.6954 61.7982 76.2859 69.0443L79.9052 70.7473C84.2553 61.5023 80.2873 50.4814 71.0423 46.1313L69.3393 49.7506Z" fill="#1A3185" mask="url(#path-25-inside-2_53_1647)"/>
<rect x="47.0657" y="72.4252" width="2" height="21" rx="1" transform="rotate(-64.8012 47.0657 72.4252)" fill="white" stroke="#1A3185" stroke-width="2"/>
<path d="M50.0007 55.416L77.0007 67.916M48.5007 58.416L75.5007 70.916" stroke="#1A3185" stroke-width="2"/>
</g>
<defs>
<clipPath id="clip0_53_1647">
<rect width="150" height="150" fill="white"/>
</clipPath>
</defs>
</svg>
