<svg width="40" height="40" viewBox="0 0 40 40" fill="none" xmlns="http://www.w3.org/2000/svg">
<rect width="40" height="40" fill="#F2F2F2"/>
<path d="M-4829 -1124C-4829 -1125.1 -4828.1 -1126 -4827 -1126H2449C2450.1 -1126 2451 -1125.1 2451 -1124V2656C2451 2657.1 2450.1 2658 2449 2658H-4827C-4828.1 2658 -4829 2657.1 -4829 2656V-1124Z" fill="black" fill-opacity="0.11"/>
<g clip-path="url(#clip0_4001_29829)">
<rect width="1440" height="1024" transform="translate(-114 -350)" fill="#EAE7E7"/>
<rect x="-24" y="-90" width="1260" height="366" rx="8" fill="white"/>
<rect x="10" y="16" width="20" height="8" fill="#1A3185"/>
</g>
<path d="M-4827 -1125H2449V-1127H-4827V-1125ZM2450 -1124V2656H2452V-1124H2450ZM2449 2657H-4827V2659H2449V2657ZM-4828 2656V-1124H-4830V2656H-4828ZM-4827 2657C-4827.55 2657 -4828 2656.55 -4828 2656H-4830C-4830 2657.66 -4828.66 2659 -4827 2659V2657ZM2450 2656C2450 2656.55 2449.55 2657 2449 2657V2659C2450.66 2659 2452 2657.66 2452 2656H2450ZM2449 -1125C2449.55 -1125 2450 -1124.55 2450 -1124H2452C2452 -1125.66 2450.66 -1127 2449 -1127V-1125ZM-4827 -1127C-4828.66 -1127 -4830 -1125.66 -4830 -1124H-4828C-4828 -1124.55 -4827.55 -1125 -4827 -1125V-1127Z" fill="black" fill-opacity="0.1"/>
<defs>
<clipPath id="clip0_4001_29829">
<rect width="1440" height="1024" fill="white" transform="translate(-114 -350)"/>
</clipPath>
</defs>
</svg>
