<svg width="32" height="32" viewBox="0 0 32 32" fill="none" xmlns="http://www.w3.org/2000/svg">
<path d="M6.41479 12.731C8.55909 9.49107 11.1499 8.18453 8.61865 8.72209C11.0568 8.2043 14.6494 7.97623 16.0824 8.72185C17.8738 9.65388 18.5868 11.4491 19.5158 12.9331C21.1689 15.5739 27.4384 14.78 27.7369 18.6635C28.0355 22.5469 21.3182 19.302 20.124 19.302C20.4723 21.9945 19.9747 25.3602 18.3327 25.8262C16.9001 26.2327 16.275 25.3715 16.1143 24.5057C16.0785 25.5925 15.6203 26.6392 14.153 26.741C12.623 26.8472 12.319 25.4121 12.3249 24.0233C12.1105 24.9548 11.2265 25.8262 10.2718 25.8262C8.76757 25.8262 8.44827 24.7365 8.48499 23.5822C8.24762 24.2271 7.68916 24.7971 6.52878 24.7216C5.08513 24.6277 4.80668 23.3456 4.75681 20.0518C4.71812 17.4965 5.00434 14.8621 6.41479 12.731Z" fill="#0B0A3E"/>
<path d="M6.41479 12.731L5.99783 12.4551V12.4551L6.41479 12.731ZM4.75681 20.0518L4.25686 20.0594L4.75681 20.0518ZM6.52878 24.7216L6.49633 25.2206H6.49633L6.52878 24.7216ZM8.61865 22.3916L9.11508 22.3319L8.12585 22.307L8.61865 22.3916ZM12.3505 23.3236L12.843 23.2375L11.8515 23.2916L12.3505 23.3236ZM14.153 26.741L14.1184 26.2422L14.153 26.741ZM16.0824 23.7896L16.5792 23.7323L15.585 23.7393L16.0824 23.7896ZM18.3327 25.8262L18.4692 26.3072L18.3327 25.8262ZM20.124 19.302V18.802H19.5551L19.6281 19.3661L20.124 19.302ZM27.7369 18.6635L27.2384 18.7018L27.7369 18.6635ZM19.5158 12.9331L19.9396 12.6678L19.5158 12.9331ZM16.0824 8.72185L15.8517 9.1654L16.0824 8.72185ZM8.72252 9.21119C9.0341 9.14502 9.23952 9.11348 9.36669 9.10634C9.4313 9.10271 9.45099 9.10706 9.44334 9.10557C9.44325 9.10555 9.34312 9.08858 9.2563 8.98217C9.1531 8.85568 9.15939 8.71918 9.17097 8.66194C9.18012 8.61674 9.1938 8.60456 9.17309 8.63827C9.13371 8.70236 9.04872 8.80887 8.89878 8.97509C8.32522 9.61095 7.09731 10.7938 5.99783 12.4551L6.83174 13.007C7.87657 11.4283 9.01622 10.3379 9.64133 9.64489C9.79106 9.47889 9.93268 9.31221 10.0251 9.16178C10.0703 9.08824 10.1262 8.98346 10.1511 8.8603C10.1785 8.72509 10.1741 8.52525 10.0311 8.35C9.90453 8.19483 9.73548 8.14369 9.63461 8.12403C9.52618 8.1029 9.41323 8.10215 9.31061 8.10791C9.10335 8.11955 8.83602 8.16478 8.51478 8.233L8.72252 9.21119ZM4.25686 20.0594C4.2816 21.6932 4.36086 22.9178 4.64739 23.7495C4.7952 24.1786 5.01063 24.5431 5.33656 24.8052C5.66605 25.0702 6.06085 25.1923 6.49633 25.2206L6.56124 24.2227C6.27489 24.2041 6.09352 24.1307 5.96321 24.0259C5.82934 23.9183 5.70136 23.7388 5.59286 23.4238C5.36679 22.7676 5.28188 21.7043 5.25675 20.0442L4.25686 20.0594ZM6.49633 25.2206C7.16617 25.2642 7.71135 25.123 8.1341 24.8356C8.55382 24.5503 8.80837 24.1512 8.95421 23.755L8.01577 23.4095C7.92424 23.6582 7.78087 23.8665 7.57192 24.0086C7.36601 24.1485 7.05178 24.2546 6.56123 24.2227L6.49633 25.2206ZM8.95421 23.755C9.14034 23.2493 9.16157 22.719 9.11508 22.3319L8.12222 22.4512C8.15389 22.7149 8.13665 23.0811 8.01577 23.4095L8.95421 23.755ZM8.12585 22.307C8.05968 22.6926 7.99914 23.1297 7.98525 23.5663L8.98474 23.5981C8.99653 23.2276 9.0487 22.8417 9.11145 22.4761L8.12585 22.307ZM7.98525 23.5663C7.96586 24.1758 8.03387 24.8597 8.37783 25.4041C8.74871 25.9912 9.38041 26.3262 10.2718 26.3262V25.3262C9.65895 25.3262 9.37889 25.1164 9.22324 24.87C9.04068 24.581 8.96741 24.143 8.98474 23.5981L7.98525 23.5663ZM10.2718 26.3262C10.9022 26.3262 11.4769 26.0404 11.9126 25.6438C12.3485 25.2469 12.6802 24.7086 12.8122 24.1355L11.8377 23.9111C11.7552 24.2695 11.5377 24.6327 11.2393 24.9043C10.9407 25.1762 10.5961 25.3262 10.2718 25.3262V26.3262ZM12.8122 24.1355C12.8789 23.8456 12.8959 23.5402 12.843 23.2375L11.858 23.4097C11.8849 23.5639 11.8786 23.7335 11.8377 23.9111L12.8122 24.1355ZM11.8515 23.2916C11.8366 23.5254 11.826 23.7715 11.8249 24.0212L12.8249 24.0254C12.8259 23.8006 12.8354 23.575 12.8495 23.3556L11.8515 23.2916ZM11.8249 24.0212C11.8219 24.7327 11.8943 25.5403 12.2182 26.1711C12.3852 26.4964 12.6266 26.7897 12.9701 26.9889C13.3149 27.189 13.7239 27.272 14.1876 27.2398L14.1184 26.2422C13.817 26.2631 13.6143 26.2066 13.472 26.124C13.3283 26.0406 13.2073 25.9082 13.1078 25.7144C12.8987 25.3071 12.8221 24.7028 12.8249 24.0254L11.8249 24.0212ZM14.1876 27.2398C15.0492 27.1801 15.673 26.8318 16.0729 26.2894C16.4579 25.7672 16.5943 25.1205 16.614 24.5222L15.6145 24.4893C15.5985 24.9777 15.4879 25.3978 15.268 25.696C15.063 25.9742 14.7241 26.2002 14.1184 26.2422L14.1876 27.2398ZM16.614 24.5222C16.6228 24.254 16.6085 23.9872 16.5792 23.7323L15.5857 23.8469C15.6104 24.0604 15.6215 24.2774 15.6145 24.4893L16.614 24.5222ZM15.585 23.7393C15.5581 24.0056 15.5679 24.3019 15.6227 24.597L16.6059 24.4145C16.5685 24.213 16.5625 24.0121 16.5799 23.8399L15.585 23.7393ZM15.6227 24.597C15.7165 25.1026 15.9555 25.6664 16.4422 26.0398C16.9503 26.4297 17.6374 26.5432 18.4692 26.3072L18.1962 25.3452C17.5953 25.5157 17.2536 25.4019 17.0509 25.2464C16.8267 25.0744 16.6727 24.7746 16.6059 24.4145L15.6227 24.597ZM18.4692 26.3072C19.0332 26.1471 19.4606 25.7478 19.7748 25.2592C20.0884 24.7717 20.311 24.1636 20.4618 23.5117C20.7637 22.2074 20.8002 20.6318 20.6198 19.2378L19.6281 19.3661C19.7961 20.6647 19.7579 22.1182 19.4876 23.2863C19.3524 23.8706 19.1644 24.3596 18.9338 24.7183C18.7037 25.076 18.4532 25.2722 18.1962 25.3452L18.4692 26.3072ZM20.124 19.802C20.1963 19.802 20.3695 19.8329 20.6746 19.9162C20.9623 19.9947 21.3117 20.1032 21.7125 20.2263C22.5028 20.469 23.4719 20.762 24.4008 20.9309C25.3077 21.0959 26.2794 21.164 27.0265 20.866C27.4182 20.7097 27.7591 20.4485 27.9814 20.049C28.2 19.6562 28.2779 19.1767 28.2355 18.6251L27.2384 18.7018C27.2706 19.1211 27.2039 19.3897 27.1076 19.5628C27.015 19.7291 26.8708 19.8515 26.656 19.9371C26.1904 20.1229 25.464 20.1079 24.5797 19.9471C23.7173 19.7902 22.8018 19.5147 22.0061 19.2704C21.6138 19.1499 21.2449 19.0352 20.9378 18.9515C20.6481 18.8724 20.3502 18.802 20.124 18.802V19.802ZM28.2355 18.6251C28.1485 17.4946 27.6166 16.6938 26.867 16.1073C26.1396 15.5382 25.2056 15.169 24.2956 14.859C23.3546 14.5385 22.4553 14.2848 21.6547 13.9377C20.8611 13.5937 20.2722 13.1991 19.9396 12.6678L19.092 13.1984C19.586 13.9875 20.4007 14.484 21.2569 14.8552C22.1061 15.2233 23.1027 15.5091 23.9731 15.8056C24.8744 16.1126 25.667 16.4381 26.2508 16.8949C26.8124 17.3343 27.176 17.8906 27.2384 18.7018L28.2355 18.6251ZM19.9396 12.6678C19.7138 12.3071 19.5023 11.9293 19.2726 11.5306C19.0461 11.1372 18.8054 10.7296 18.534 10.3364C17.9889 9.54685 17.3066 8.79515 16.3132 8.2783L15.8517 9.1654C16.6496 9.58058 17.2195 10.1925 17.711 10.9045C17.9579 11.2622 18.1816 11.6399 18.406 12.0296C18.6274 12.414 18.8533 12.8172 19.092 13.1984L19.9396 12.6678ZM16.3132 8.2783C15.88 8.05289 15.3205 7.91735 14.7194 7.83874C14.1109 7.75917 13.4249 7.73368 12.7171 7.7483C11.3023 7.77752 9.76326 7.96786 8.51478 8.233L8.72252 9.21119C9.91221 8.95853 11.3886 8.77595 12.7378 8.74809C13.412 8.73416 14.0453 8.7591 14.5897 8.83029C15.1414 8.90244 15.5684 9.01801 15.8517 9.1654L16.3132 8.2783ZM5.99783 12.4551C4.50172 14.7156 4.21776 17.4769 4.25686 20.0594L5.25675 20.0442C5.21847 17.5161 5.50697 15.0087 6.83174 13.007L5.99783 12.4551Z" fill="white"/>
<path d="M18.8484 6.75342V10.7242H5.42819L6.67793 6.75342L18.8484 6.75342Z" fill="#0B0A3E" stroke="white"/>
</svg>
