<svg width="22" height="17" viewBox="0 0 22 17" fill="none" xmlns="http://www.w3.org/2000/svg">
<path d="M9.45215 2.91913C9.45215 2.65044 9.66997 2.43261 9.93867 2.43261H16.2634C16.5321 2.43261 16.7499 2.65044 16.7499 2.91913C16.7499 3.18783 16.5321 3.40565 16.2634 3.40565H9.93867C9.66997 3.40565 9.45215 3.18783 9.45215 2.91913Z" fill="white"/>
<path fill-rule="evenodd" clip-rule="evenodd" d="M3.61403 2.43264C3.07664 2.43264 2.64099 2.86828 2.64099 3.40567V5.83827C2.64099 6.37566 3.07664 6.8113 3.61403 6.8113H7.01966C7.55705 6.8113 7.99269 6.37566 7.99269 5.83827V3.40567C7.99269 2.86828 7.55705 2.43264 7.01966 2.43264H3.61403ZM7.01966 3.40567H3.61403L3.61403 5.83827H7.01966L7.01966 3.40567Z" fill="white"/>
<path d="M3.12751 13.6225C2.85881 13.6225 2.64099 13.8403 2.64099 14.109C2.64099 14.3777 2.85881 14.5955 3.12751 14.5955H7.99269C8.26139 14.5955 8.47921 14.3777 8.47921 14.109C8.47921 13.8403 8.26139 13.6225 7.99269 13.6225H3.12751Z" fill="white"/>
<path d="M2.64099 8.75735C2.64099 8.48866 2.85881 8.27083 3.12751 8.27083H16.2635C16.5322 8.27083 16.75 8.48866 16.75 8.75735C16.75 9.02605 16.5322 9.24387 16.2635 9.24387H3.12751C2.85881 9.24387 2.64099 9.02605 2.64099 8.75735Z" fill="white"/>
<path d="M9.93867 3.89217C9.66997 3.89217 9.45215 4.10999 9.45215 4.37869C9.45215 4.64738 9.66997 4.86521 9.93867 4.86521H16.2634C16.5321 4.86521 16.7499 4.64738 16.7499 4.37869C16.7499 4.10999 16.5321 3.89217 16.2634 3.89217H9.93867Z" fill="white"/>
<path d="M3.12751 9.73039C2.85881 9.73039 2.64099 9.94821 2.64099 10.2169C2.64099 10.4856 2.85881 10.7034 3.12751 10.7034H16.2635C16.5322 10.7034 16.75 10.4856 16.75 10.2169C16.75 9.94821 16.5322 9.73039 16.2635 9.73039H3.12751Z" fill="white"/>
<path d="M9.45215 6.32478C9.45215 6.05609 9.66997 5.83827 9.93867 5.83827H16.2634C16.5321 5.83827 16.7499 6.05609 16.7499 6.32478C16.7499 6.59348 16.5321 6.8113 16.2634 6.8113H9.93867C9.66997 6.8113 9.45215 6.59348 9.45215 6.32478Z" fill="white"/>
<path d="M3.12751 11.1899C2.85881 11.1899 2.64099 11.4078 2.64099 11.6765C2.64099 11.9452 2.85881 12.163 3.12751 12.163H16.2635C16.5322 12.163 16.75 11.9452 16.75 11.6765C16.75 11.4078 16.5322 11.1899 16.2635 11.1899H3.12751Z" fill="white"/>
<path fill-rule="evenodd" clip-rule="evenodd" d="M18.6962 2.43264V0.973036C18.6962 0.435643 18.2605 0 17.7232 0H1.18153C0.644139 0 0.208496 0.435643 0.208496 0.973036V14.109C0.208496 15.4105 1.2306 16.4733 2.5159 16.5385C2.12263 16.5185 1.75399 16.4052 1.43173 16.2202C1.60981 16.4176 1.86761 16.5417 2.15438 16.5417H18.696C20.0395 16.5417 21.1286 15.4526 21.1286 14.1091V3.40567C21.1286 2.86828 20.6929 2.43264 20.1556 2.43264H18.6962ZM17.723 0.973036H1.18153V14.109C1.18153 14.9151 1.83495 15.5685 2.64099 15.5686C2.64099 15.2999 2.85881 15.0821 3.12751 15.0821H7.99269C8.26139 15.0821 8.47921 15.2999 8.47921 15.5686H8.96582V15.0821C8.96582 14.5447 9.40147 14.1091 9.93886 14.1091H15.7771C16.3145 14.1091 16.7501 14.5447 16.7501 15.0821V15.5686H18.696C19.5021 15.5686 20.1556 14.9152 20.1556 14.1091V3.40567H18.6962V12.8919C18.6994 13.0884 18.7427 13.3358 18.831 13.4973C18.8736 13.5753 18.9102 13.603 18.9275 13.612C18.9358 13.6164 18.9699 13.6342 19.0647 13.6106C19.3254 13.5455 19.5895 13.7041 19.6546 13.9648C19.7196 14.2255 19.561 14.4896 19.3003 14.5547C19.0067 14.6279 18.7241 14.6037 18.4767 14.4743C18.2386 14.3498 18.0805 14.1529 17.9772 13.9639C17.777 13.5978 17.723 13.1545 17.723 12.8688V0.973036ZM18.696 3.52004V12.8688C18.696 12.8742 18.696 12.8796 18.6961 12.8851L18.696 3.52004ZM15.7771 15.5686L15.7771 15.0821H9.93886V15.5686H15.7771Z" fill="white"/>
</svg>
