<?xml version="1.0" encoding="UTF-8" standalone="no"?>
<svg
   width="43.500038"
   height="43.500031"
   viewBox="0 0 43.500038 43.500031"
   fill="none"
   version="1.1"
   id="svg57"
   sodipodi:docname="Group 272.svg"
   inkscape:version="1.2.1 (9c6d41e, 2022-07-14)"
   xmlns:inkscape="http://www.inkscape.org/namespaces/inkscape"
   xmlns:sodipodi="http://sodipodi.sourceforge.net/DTD/sodipodi-0.dtd"
   xmlns="http://www.w3.org/2000/svg"
   xmlns:svg="http://www.w3.org/2000/svg">
  <defs
     id="defs61" />
  <sodipodi:namedview
     id="namedview59"
     pagecolor="#ffffff"
     bordercolor="#000000"
     borderopacity="0.25"
     inkscape:showpageshadow="2"
     inkscape:pageopacity="0.0"
     inkscape:pagecheckerboard="0"
     inkscape:deskcolor="#d1d1d1"
     showgrid="false"
     inkscape:zoom="4"
     inkscape:cx="51.5"
     inkscape:cy="21.625"
     inkscape:window-width="1308"
     inkscape:window-height="763"
     inkscape:window-x="0"
     inkscape:window-y="25"
     inkscape:window-maximized="0"
     inkscape:current-layer="svg57" />
  <path
     d="m 3.17578,39.77203 v -22.1549 l 18.61256,-9.6269 18.3347,9.6269 v 22.1549 z"
     fill="#ffffff"
     stroke="#1a3185"
     stroke-width="2"
     id="path6" />
  <mask
     id="path-4-inside-1_592_7260"
     fill="#ffffff">
    <path
       fill-rule="evenodd"
       clip-rule="evenodd"
       d="m 11.7363,13.2952 c 0.0235,-1.5445 1.2828,-2.7893 2.8329,-2.7893 h 22.8713 c 1.5647,0 2.8332,1.2684 2.8332,2.8332 v 3.1165 h -0.197 c 0.1263,0.2622 0.197,0.5562 0.197,0.8667 v 21.499 c 0,0.203 -0.0302,0.3988 -0.0864,0.5834 h 0.0864 v 3.1165 c 0,1.5648 -1.2685,2.8333 -2.8332,2.8333 H 14.5692 c -1.5501,0 -2.8094,-1.2449 -2.8329,-2.7894 v -3.1604 h 0.0861 C 11.7696,39.2312 11.7397,39.0478 11.7363,38.8579 V 17.2857 c 0.0054,-0.297 0.0754,-0.5782 0.1967,-0.8301 h -0.1967 z"
       id="path8" />
  </mask>
  <path
     fill-rule="evenodd"
     clip-rule="evenodd"
     d="m 7.48044,4.90653 c 0.0235,-1.5445 1.2828,-2.7893 2.8329,-2.7893 h 22.8713 c 1.5647,0 2.8332,1.2684 2.8332,2.8332 v 3.1165 h -0.197 c 0.1263,0.2622 0.197,0.5562 0.197,0.8667 v 21.499 c 0,0.203 -0.0302,0.3988 -0.0864,0.5834 h 0.0864 v 3.1165 c 0,1.5648 -1.2685,2.8333 -2.8332,2.8333 h -22.8713 c -1.5501,0 -2.8094,-1.2449 -2.8329,-2.7894 v -3.1604 h 0.0861 c -0.0528,-0.1735 -0.0827,-0.3569 -0.0861,-0.5468 V 8.89703 c 0.0054,-0.297 0.0754,-0.5782 0.1967,-0.8301 h -0.1967 z"
     fill="#ffffff"
     id="path11" />
  <path
     d="m 11.7363,13.2952 -0.9999,-0.0152 -10e-5,0.0076 v 0.0076 z m 28.5374,3.1604 v 1 h 1 v -1 z m -0.197,0 v -1 h -1.5915 l 0.6905,1.4339 z m 0.1106,22.9491 -0.9566,-0.2913 -0.3932,1.2913 h 1.3498 z m 0.0864,0 h 1 v -1 h -1 z m -28.5374,3.1604 h -1 v 0.0076 l 10e-5,0.0076 z m 0,-3.1604 v -1 h -1 v 1 z m 0.0861,0 v 1 h 1.3498 l -0.3931,-1.2913 z m -0.0861,-0.5468 h -1 v 0.009 l 2e-4,0.009 z m 0,-21.5722 -0.9998,-0.0179 -2e-4,0.009 v 0.0089 z m 0.1967,-0.8301 0.901,0.4339 0.6905,-1.4339 H 11.933 Z m -0.1967,0 h -1 v 1 h 1 z m 2.8329,-6.94974 c -2.0973,0 -3.801,1.68414 -3.8328,3.77414 l 1.9998,0.0304 c 0.0152,-0.9991 0.8301,-1.8045 1.833,-1.8045 z m 0,2.00004 H 37.4405 V 9.50586 H 14.5692 Z m 26.7045,1.8332 c 0,-2.117 -1.7162,-3.83324 -3.8332,-3.83324 v 2.00004 c 1.0124,0 1.8332,0.8207 1.8332,1.8332 z m 0,3.1165 v -3.1165 h -2 v 3.1165 z m -1.197,1 h 0.197 v -2 h -0.197 z m 1.197,-0.1333 c 0,-0.4639 -0.106,-0.9059 -0.2961,-1.3006 l -1.8019,0.8678 c 0.0625,0.1298 0.098,0.2757 0.098,0.4328 z m 0,21.499 v -21.499 h -2 v 21.499 z m -0.1297,0.8746 c 0.0846,-0.2779 0.1297,-0.5719 0.1297,-0.8746 h -2 c 0,0.1032 -0.0153,0.201 -0.043,0.2921 z m -0.8703,-1.2912 h -0.0864 v 2 h 0.0864 z m 1,4.1165 v -3.1165 h -2 v 3.1165 z m -3.8332,3.8333 c 2.117,0 3.8332,-1.7162 3.8332,-3.8333 h -2 c 0,1.0125 -0.8208,1.8333 -1.8332,1.8333 z m -22.8713,0 h 22.8713 v -2 H 14.5692 Z m -3.8328,-3.7742 c 0.0318,2.09 1.7355,3.7742 3.8328,3.7742 v -2 c -1.0029,0 -1.8178,-0.8055 -1.833,-1.8046 z m 1.9999,-0.0152 v -3.1604 h -2 v 3.1604 z m -0.9139,-4.1604 h -0.0861 v 2 h 0.0861 z m -1.0859,0.4712 c 0.0051,0.2835 0.0498,0.5589 0.1293,0.82 l 1.9133,-0.5825 C 12.753,39.0277 12.7379,38.9362 12.7362,38.84 Z m 1.9998,-0.018 V 17.2857 h -2 V 38.8579 Z M 11.0321,16.0217 c -0.1826,0.3791 -0.2876,0.8019 -0.2956,1.2461 l 1.9997,0.0359 c 0.0027,-0.1499 0.0377,-0.2894 0.0978,-0.4142 z m 0.7042,1.4339 h 0.1967 v -2 h -0.1967 z m 1,-1 v -3.1604 h -2 v 3.1604 z"
     fill="#1a3185"
     mask="url(#path-4-inside-1_592_7260)"
     id="path13"
     transform="translate(-4.25586,-8.38867)" />
  <path
     d="m 11.38674,5.91793 h 18.4736 m -18.4736,6.5637 h 18.4736"
     stroke="#1a3185"
     stroke-linecap="round"
     id="path15" />
  <path
     d="m 11.04494,30.09963 h 18.4736 m -18.4736,1.7273 h 18.4736"
     stroke="#1a3185"
     stroke-linecap="round"
     id="path17" />
  <path
     d="m 11.38674,18.52543 h 18.4736 m -17.2763,-3.9728 h 18.4737"
     stroke="#1a3185"
     stroke-linecap="round"
     id="path19" />
  <path
     d="m 11.38674,26.47263 h 18.4736 m -17.2763,-3.9727 h 18.4737 m -19.671,2.0727 h 12.4868 m 1.3684,0 h 5.8158"
     stroke="#1a3185"
     stroke-linecap="round"
     id="path21" />
  <line
     x1="11.54494"
     y1="8.1816292"
     x2="14.99224"
     y2="8.1816292"
     stroke="#1a3185"
     stroke-linecap="round"
     id="line23" />
  <line
     x1="17.019541"
     y1="8.1816292"
     x2="30.045841"
     y2="8.1816292"
     stroke="#1a3185"
     stroke-linecap="round"
     id="line25" />
  <line
     x1="14.28124"
     y1="10.253929"
     x2="27.307541"
     y2="10.253929"
     stroke="#1a3185"
     stroke-linecap="round"
     id="line27" />
  <line
     x1="14.28124"
     y1="28.525431"
     x2="27.307541"
     y2="28.525431"
     stroke="#1a3185"
     stroke-linecap="round"
     id="line29" />
  <line
     x1="14.28124"
     y1="16.781231"
     x2="27.307541"
     y2="16.781231"
     stroke="#1a3185"
     stroke-linecap="round"
     id="line31" />
  <line
     x1="11.54494"
     y1="10.253929"
     x2="11.913341"
     y2="10.253929"
     stroke="#1a3185"
     stroke-linecap="round"
     id="line33" />
  <line
     x1="11.54494"
     y1="28.525431"
     x2="11.913356"
     y2="28.525431"
     stroke="#1a3185"
     stroke-linecap="round"
     id="line35" />
  <line
     x1="11.54494"
     y1="16.781231"
     x2="11.913356"
     y2="16.781231"
     stroke="#1a3185"
     stroke-linecap="round"
     id="line37" />
  <line
     x1="15.30864"
     y1="20.925831"
     x2="15.677056"
     y2="20.925831"
     stroke="#1a3185"
     stroke-linecap="round"
     id="line39" />
  <line
     x1="28.992142"
     y1="10.253929"
     x2="30.729042"
     y2="10.253929"
     stroke="#1a3185"
     stroke-linecap="round"
     id="line41" />
  <line
     x1="28.99214"
     y1="28.525431"
     x2="30.72897"
     y2="28.525431"
     stroke="#1a3185"
     stroke-linecap="round"
     id="line43" />
  <line
     x1="28.99214"
     y1="16.781231"
     x2="30.72897"
     y2="16.781231"
     stroke="#1a3185"
     stroke-linecap="round"
     id="line45" />
  <line
     x1="11.54494"
     y1="20.925831"
     x2="13.28177"
     y2="20.925831"
     stroke="#1a3185"
     stroke-linecap="round"
     id="line47" />
  <path
     d="m 3.17578,40.11783 v -22.1549 l 13.17096,7.6522 4.4292,2.5733 c 0.6253,0.3633 1.3979,0.3608 2.0208,-0.0066 l 4.3518,-2.5667 12.9745,-7.6522 v 22.1549 z"
     fill="#ffffff"
     id="path49" />
  <path
     d="m 3.17578,40.11783 v -22.1549 l 13.17096,7.6522 M 3.17578,40.11783 h 36.94726 m -36.94726,0 13.17096,-14.5027 m 23.7763,14.5027 v -22.1549 l -12.9745,7.6522 m 12.9745,14.5027 -12.9745,-14.5027 m -10.8018,0 4.4292,2.5733 c 0.6253,0.3633 1.3979,0.3608 2.0208,-0.0066 l 4.3518,-2.5667"
     stroke="#1a3185"
     id="path51" />
  <path
     d="m 21.75004,2.00003 c 5.0666,0 9.686,1.9059 13.1836,5.0441 L 5.27008,32.63903 C 3.20289,29.51743 2,25.77613 2,21.75003 c 0,-10.9077 8.84234,-19.75 19.75004,-19.75 z m -13.9455,33.7353 29.8235,-25.7329 c 2.434,3.2836 3.872,7.3459 3.872,11.7476 0,10.9076 -8.8424,19.75 -19.75,19.75 -5.4432,0 -10.3711,-2.2001 -13.9455,-5.7647 z"
     stroke="#1a3185"
     stroke-width="4"
     id="path53" />
  <path
     d="m 21.75004,0.5 c 6.0621,0 11.5308,2.53783 15.4028,6.61043 L 5.01166,34.84313 C 2.18485,31.23463 0.5,26.68963 0.5,21.75003 0.5,10.01393 10.01394,0.5 21.75004,0.5 Z M 5.64677,35.61593 37.82494,7.85133 c 3.2247,3.7263 5.1751,8.5842 5.1751,13.8987 0,11.736 -9.514,21.25 -21.25,21.25 -6.4372,0 -12.2057,-2.8617 -16.10327,-7.3841 z"
     stroke="#ffffff"
     id="path55" />
</svg>
