<svg width="102" height="116" viewBox="0 0 102 116" fill="none" xmlns="http://www.w3.org/2000/svg">
<g clip-path="url(#clip0_3559_15166)">
<path fill-rule="evenodd" clip-rule="evenodd" d="M43.5259 0.711849C26.6612 2.24294 -1.77 20.2283 0.658201 39.8208C3.0864 59.4133 47.8187 63.0586 52.8104 75.6266C57.8021 88.1947 20.2341 110.017 36.3003 111.335C52.3664 112.652 94.5751 95.2865 100.845 79.5656C107.114 63.8448 65.098 48.9143 54.9078 34.8956C44.7176 20.8769 60.3906 -0.819241 43.5259 0.711849Z" fill="#FF8600"/>
<path fill-rule="evenodd" clip-rule="evenodd" d="M42.1091 39.9231V30.0468C42.1091 28.4226 41.8255 27.1281 41.2688 26.1595C40.8766 25.4772 40.3493 24.9534 39.6857 24.5896L90.3146 24.5898C91.3951 24.5898 92.3733 25.0607 93.0815 25.8222C93.7896 26.5837 94.2275 27.6357 94.2275 28.7976V39.9231H42.1091Z" fill="white" stroke="#1A3185" stroke-width="3"/>
<path fill-rule="evenodd" clip-rule="evenodd" d="M85.7383 24.5459C79.9322 31.4257 79.7911 60.1062 85.433 110.691C85.5617 111.845 85.2433 112.946 84.6246 113.792C84.0059 114.639 83.0867 115.232 82.0139 115.37C81.8593 115.39 81.7037 115.4 81.548 115.4H18.5696C17.8625 115.4 17.2223 115.092 16.7588 114.594C16.2954 114.095 16.0088 113.407 16.0088 112.646V27.2997C16.0088 26.5393 16.2954 25.8508 16.7588 25.3525C17.2223 24.8541 17.8625 24.5459 18.5696 24.5459H85.7383Z" fill="white" stroke="#1A3185" stroke-width="3"/>
<path d="M46.9914 74.2814C46.6391 74.2814 46.3681 74.1574 46.1784 73.9095C45.9887 73.6615 45.8938 73.3188 45.8938 72.8812C45.8938 71.8603 46.009 70.905 46.2393 70.0153C46.4697 69.1257 46.8355 68.2141 47.3369 67.2807C47.8382 66.3472 48.5225 65.3409 49.3896 64.2616C50.0671 63.3865 50.6091 62.6135 51.0156 61.9426C51.4221 61.2717 51.7134 60.6227 51.8896 59.9956C52.0657 59.3684 52.1538 58.734 52.1538 58.0922C52.1538 56.8671 51.7473 55.8972 50.9343 55.1826C50.1213 54.4679 48.9967 54.1106 47.5604 54.1106C46.3139 54.1106 45.1689 54.3075 44.1256 54.7013C43.0823 55.0951 42.0728 55.6857 41.0972 56.4733C40.6907 56.765 40.3181 56.9109 39.9794 56.9109C39.6406 56.9109 39.3629 56.8088 39.1461 56.6046C38.9293 56.4004 38.787 56.1379 38.7193 55.817C38.6515 55.4961 38.6922 55.1607 38.8412 54.8107C38.9903 54.4606 39.2545 54.1397 39.6339 53.8481C40.6907 52.9438 41.9373 52.2291 43.3736 51.7041C44.8098 51.179 46.2597 50.9165 47.723 50.9165C49.2677 50.9165 50.6294 51.2009 51.8083 51.7697C52.9871 52.3385 53.9017 53.1407 54.5521 54.1762C55.2025 55.2117 55.5277 56.4296 55.5277 57.8297C55.5277 58.734 55.4057 59.6018 55.1618 60.4331C54.9179 61.2644 54.5318 62.1031 54.0033 62.949C53.4749 63.7949 52.7364 64.7575 51.7879 65.8368C50.9479 66.7702 50.2704 67.638 49.7555 68.4402C49.2406 69.2423 48.8544 70.0153 48.597 70.7592C48.3395 71.503 48.1702 72.2833 48.0889 73.1C48.0618 73.4501 47.9534 73.7345 47.7637 73.9532C47.574 74.172 47.3165 74.2814 46.9914 74.2814ZM46.9507 82.3322C46.2732 82.3322 45.7245 82.1061 45.3044 81.654C44.8844 81.2019 44.6744 80.6258 44.6744 79.9257C44.6744 79.2256 44.8844 78.6495 45.3044 78.1974C45.7245 77.7453 46.2732 77.5192 46.9507 77.5192C47.6282 77.5192 48.1634 77.7453 48.5563 78.1974C48.9493 78.6495 49.1458 79.2256 49.1458 79.9257C49.1458 80.6258 48.9493 81.2019 48.5563 81.654C48.1634 82.1061 47.6282 82.3322 46.9507 82.3322Z" fill="#1A3185"/>
<path fill-rule="evenodd" clip-rule="evenodd" d="M72.0607 109.723C72.0607 111.73 72.5738 113.233 73.5799 114.245C74.0807 114.748 74.7058 115.131 75.4565 115.391L75.4844 115.4L13.6937 115.4C12.624 115.4 11.6545 114.938 10.9482 114.19L10.9268 114.168C10.2187 113.406 9.78076 112.354 9.78076 111.192V99.8464H72.0607V109.723Z" fill="white" stroke="#1A3185" stroke-width="3"/>
<path fill-rule="evenodd" clip-rule="evenodd" d="M25.4663 34.7678C24.914 34.7678 24.4663 35.2155 24.4663 35.7678C24.4663 36.3201 24.914 36.7678 25.4663 36.7678H74.4845C75.0368 36.7678 75.4845 36.3201 75.4845 35.7678C75.4845 35.2155 75.0368 34.7678 74.4845 34.7678H25.4663ZM25.4663 91.3404C24.914 91.3404 24.4663 91.7881 24.4663 92.3404C24.4663 92.8927 24.914 93.3404 25.4663 93.3404H74.4845C75.0368 93.3404 75.4845 92.8927 75.4845 92.3404C75.4845 91.7881 75.0368 91.3404 74.4845 91.3404H25.4663ZM24.4663 77.038C24.4663 76.4857 24.914 76.038 25.4663 76.038H27.746C28.2983 76.038 28.746 76.4857 28.746 77.038C28.746 77.5903 28.2983 78.038 27.746 78.038H25.4663C24.914 78.038 24.4663 77.5903 24.4663 77.038ZM25.4663 48.9164C24.914 48.9164 24.4663 49.3641 24.4663 49.9164C24.4663 50.4687 24.914 50.9164 25.4663 50.9164H27.746C28.2983 50.9164 28.746 50.4687 28.746 49.9164C28.746 49.3641 28.2983 48.9164 27.746 48.9164H25.4663ZM71.2049 77.038C71.2049 76.4857 71.6526 76.038 72.2049 76.038H74.4845C75.0368 76.038 75.4845 76.4857 75.4845 77.038C75.4845 77.5903 75.0368 78.038 74.4845 78.038H72.2049C71.6526 78.038 71.2049 77.5903 71.2049 77.038ZM72.2049 50.7658C71.6526 50.7658 71.2049 51.2135 71.2049 51.7658C71.2049 52.3181 71.6526 52.7658 72.2049 52.7658H74.4845C75.0368 52.7658 75.4845 52.3181 75.4845 51.7658C75.4845 51.2135 75.0368 50.7658 74.4845 50.7658H72.2049ZM24.4663 85.8485C24.4663 85.2962 24.914 84.8485 25.4663 84.8485H38.685C39.2373 84.8485 39.685 85.2962 39.685 85.8485C39.685 86.4008 39.2373 86.8485 38.685 86.8485H25.4663C24.914 86.8485 24.4663 86.4008 24.4663 85.8485ZM25.4663 42.1872C24.914 42.1872 24.4663 42.6349 24.4663 43.1872C24.4663 43.7395 24.914 44.1872 25.4663 44.1872H38.685C39.2373 44.1872 39.685 43.7395 39.685 43.1872C39.685 42.6349 39.2373 42.1872 38.685 42.1872H25.4663ZM60.2658 85.8485C60.2658 85.2962 60.7136 84.8485 61.2658 84.8485H74.4845C75.0368 84.8485 75.4845 85.2962 75.4845 85.8485C75.4845 86.4008 75.0368 86.8485 74.4845 86.8485H61.2658C60.7136 86.8485 60.2658 86.4008 60.2658 85.8485ZM61.2658 42.1872C60.7136 42.1872 60.2658 42.6349 60.2658 43.1872C60.2658 43.7395 60.7136 44.1872 61.2658 44.1872H74.4845C75.0368 44.1872 75.4845 43.7395 75.4845 43.1872C75.4845 42.6349 75.0368 42.1872 74.4845 42.1872H61.2658Z" fill="#1A3185"/>
</g>
<defs>
<clipPath id="clip0_3559_15166">
<rect width="101" height="115" fill="white" transform="translate(0.5 0.598389)"/>
</clipPath>
</defs>
</svg>
