<svg width="17" height="16" viewBox="0 0 17 16" fill="none" xmlns="http://www.w3.org/2000/svg">
<path d="M16.6472 0.0554504L15.4853 6.95351L14.021 5.4873L9.84671 9.66684C9.62873 9.8851 9.27531 9.8851 9.05733 9.66684L7.04795 7.65493C6.82996 7.43667 6.82997 7.0828 7.04795 6.86455L11.2222 2.685L9.75786 1.2188L16.6472 0.0554504Z" fill="#1A3185"/>
<path d="M8.90164 2.18852C9.39893 2.18852 9.64797 2.79051 9.29634 3.14259C9.19166 3.2474 9.04968 3.30628 8.90164 3.30628H2.02805C1.71978 3.30628 1.46987 3.55651 1.46987 3.86517V14.2679C1.46987 14.5766 1.71978 14.8268 2.02805 14.8268H12.4177C12.7259 14.8268 12.9759 14.5766 12.9759 14.2679V7.89854C12.9759 7.75031 13.0347 7.60816 13.1393 7.50335C13.491 7.15127 14.0922 7.40063 14.0922 7.89854V14.2679C14.0922 15.1939 13.3425 15.9446 12.4177 15.9446H2.02805C1.10323 15.9446 0.353516 15.1939 0.353516 14.2679V3.86517C0.353516 2.93918 1.10323 2.18852 2.02805 2.18852H8.90164Z" fill="#1A3185"/>
</svg>
