<svg width="150" height="150" viewBox="0 0 150 150" fill="none" xmlns="http://www.w3.org/2000/svg">
<g clip-path="url(#clip0_53_1609)">
<path d="M11.9174 80.2756C-22.6032 42.4563 33.6509 12.5259 66.2092 9.27176C86.418 7.25194 143.322 24.3049 141.211 43.2714C138.737 65.491 118.441 73.4737 134.211 90.2719C164.169 107.795 134.644 149.526 104.301 143.366C73.9577 137.206 56.6267 143.623 37.2096 137.272C15.9431 130.316 46.4381 118.095 11.9174 80.2756Z" fill="#FF8600"/>
<path d="M21 129V64.8672L75.406 37L129 64.8672V129H21Z" fill="white" stroke="#1A3185" stroke-width="2"/>
<mask id="path-3-inside-1_53_1609" fill="white">
<path fill-rule="evenodd" clip-rule="evenodd" d="M33.582 28.0738C33.6503 23.6031 37.2956 20 41.7825 20H108.798C113.327 20 116.999 23.6719 116.999 28.2014V35.9345L116.999 35.9424V105.755L116.999 105.763V112.676C116.999 117.206 113.327 120.877 108.798 120.877H41.7825C37.2956 120.877 33.6503 117.274 33.582 112.804V28.0738Z"/>
</mask>
<path fill-rule="evenodd" clip-rule="evenodd" d="M33.582 28.0738C33.6503 23.6031 37.2956 20 41.7825 20H108.798C113.327 20 116.999 23.6719 116.999 28.2014V35.9345L116.999 35.9424V105.755L116.999 105.763V112.676C116.999 117.206 113.327 120.877 108.798 120.877H41.7825C37.2956 120.877 33.6503 117.274 33.582 112.804V28.0738Z" fill="white"/>
<path d="M33.582 28.0738L31.5823 28.0432L31.582 28.0585V28.0738H33.582ZM116.999 35.9345H114.999V35.9384L116.999 35.9345ZM116.999 35.9424H118.999V35.9385L116.999 35.9424ZM116.999 105.755L118.999 105.759V105.755H116.999ZM116.999 105.763L114.999 105.759V105.763H116.999ZM33.582 112.804H31.582V112.819L31.5823 112.834L33.582 112.804ZM41.7825 18C36.2013 18 31.6671 22.4817 31.5823 28.0432L35.5818 28.1043C35.6334 24.7245 38.39 22 41.7825 22V18ZM41.7825 22H108.798V18H41.7825V22ZM118.999 28.2014C118.999 22.5673 114.432 18 108.798 18V22C112.223 22 114.999 24.7765 114.999 28.2014H118.999ZM118.999 35.9345V28.2014H114.999V35.9345H118.999ZM118.999 35.9385L118.999 35.9306L114.999 35.9384L114.999 35.9462L118.999 35.9385ZM118.999 105.755V35.9424H114.999V105.755H118.999ZM118.999 105.767L118.999 105.759L114.999 105.751L114.999 105.759L118.999 105.767ZM118.999 112.676V105.763H114.999V112.676H118.999ZM108.798 122.877C114.432 122.877 118.999 118.31 118.999 112.676H114.999C114.999 116.101 112.223 118.877 108.798 118.877V122.877ZM41.7825 122.877H108.798V118.877H41.7825V122.877ZM31.5823 112.834C31.6671 118.396 36.2013 122.877 41.7825 122.877V118.877C38.39 118.877 35.6334 116.153 35.5818 112.773L31.5823 112.834ZM35.582 112.804V28.0738H31.582V112.804H35.582Z" fill="#1A3185" mask="url(#path-3-inside-1_53_1609)"/>
<path d="M45 31H99M45 50H99" stroke="#1A3185" stroke-width="2" stroke-linecap="round"/>
<path d="M44 101H98M44 106H98" stroke="#1A3185" stroke-width="2" stroke-linecap="round"/>
<path d="M45 67.5H99M48.5 56H102.5" stroke="#1A3185" stroke-width="2" stroke-linecap="round"/>
<path d="M45 90.5H99M48.5 79H102.5M45 85H81.5M85.5 85H102.5" stroke="#1A3185" stroke-width="2" stroke-linecap="round"/>
<line x1="45" y1="38" x2="56" y2="38" stroke="#1A3185" stroke-width="2" stroke-linecap="round"/>
<line x1="61" y1="38" x2="100" y2="38" stroke="#1A3185" stroke-width="2" stroke-linecap="round"/>
<line x1="53" y1="44" x2="92" y2="44" stroke="#1A3185" stroke-width="2" stroke-linecap="round"/>
<line x1="1" y1="-1" x2="40" y2="-1" transform="matrix(1 0 0 -1 52 95)" stroke="#1A3185" stroke-width="2" stroke-linecap="round"/>
<line x1="1" y1="-1" x2="40" y2="-1" transform="matrix(1 0 0 -1 52 61)" stroke="#1A3185" stroke-width="2" stroke-linecap="round"/>
<line x1="45" y1="44" x2="47" y2="44" stroke="#1A3185" stroke-width="2" stroke-linecap="round"/>
<line x1="1" y1="-1" x2="3" y2="-1" transform="matrix(1 0 0 -1 44 95)" stroke="#1A3185" stroke-width="2" stroke-linecap="round"/>
<line x1="1" y1="-1" x2="3" y2="-1" transform="matrix(1 0 0 -1 44 61)" stroke="#1A3185" stroke-width="2" stroke-linecap="round"/>
<line x1="1" y1="-1" x2="3" y2="-1" transform="matrix(1 0 0 -1 55 73)" stroke="#1A3185" stroke-width="2" stroke-linecap="round"/>
<line x1="96" y1="44" x2="102" y2="44" stroke="#1A3185" stroke-width="2" stroke-linecap="round"/>
<line x1="1" y1="-1" x2="7" y2="-1" transform="matrix(1 0 0 -1 95 95)" stroke="#1A3185" stroke-width="2" stroke-linecap="round"/>
<line x1="1" y1="-1" x2="7" y2="-1" transform="matrix(1 0 0 -1 95 61)" stroke="#1A3185" stroke-width="2" stroke-linecap="round"/>
<line x1="1" y1="-1" x2="7" y2="-1" transform="matrix(1 0 0 -1 44 73)" stroke="#1A3185" stroke-width="2" stroke-linecap="round"/>
<path d="M21 130V65.8672L59.5 88.0184L74.4011 96.5919C75.0226 96.9495 75.788 96.947 76.4072 96.5853L91.0746 88.0184L129 65.8672V130H21Z" fill="white"/>
<path d="M21 130V65.8672L59.5 88.0184M21 130H129M21 130L59.5 88.0184M129 130V65.8672L91.0746 88.0184M129 130L91.0746 88.0184M59.5 88.0184L74.4011 96.5919C75.0226 96.9495 75.788 96.947 76.4072 96.5853L91.0746 88.0184" stroke="#1A3185" stroke-width="2"/>
</g>
<defs>
<clipPath id="clip0_53_1609">
<rect width="150" height="150" fill="white"/>
</clipPath>
</defs>
</svg>
