<svg width="150" height="150" viewBox="0 0 150 150" fill="none" xmlns="http://www.w3.org/2000/svg">
<g clip-path="url(#clip0_53_1524)">
<path d="M83.3977 3.15806C136.482 -17.7228 141.695 89.8559 121.78 116.299C108.698 147.012 20.8065 171.107 18.6746 115.512C17.5287 85.631 32.4422 89.7765 40.7838 67.5526C45.8388 54.0847 30.3139 24.0389 83.3977 3.15806Z" fill="#3D9922"/>
<path d="M35.7802 93.4716C35.9691 93.2205 36.2651 93.0728 36.5793 93.0728H129.436C130.26 93.0728 130.731 94.0149 130.235 94.6739L109.663 122.019C109.474 122.27 109.178 122.418 108.864 122.418H16.0074C15.1826 122.418 14.7124 121.476 15.2082 120.817L35.7802 93.4716Z" fill="white" stroke="#1A3185" stroke-width="2"/>
<line x1="1" y1="-1" x2="24.5928" y2="-1" transform="matrix(0.59891 -0.800816 0.78777 0.61597 28.5062 118.597)" stroke="#1A3185" stroke-width="2" stroke-linecap="round"/>
<line x1="1" y1="-1" x2="24.5928" y2="-1" transform="matrix(0.59891 -0.800816 0.78777 0.61597 102.976 118.843)" stroke="#1A3185" stroke-width="2" stroke-linecap="round"/>
<line x1="1" y1="-1" x2="24.5928" y2="-1" transform="matrix(0.59891 -0.800816 0.78777 0.61597 63.8784 118.597)" stroke="#1A3185" stroke-width="2" stroke-linecap="round"/>
<line x1="1" y1="-1" x2="24.5928" y2="-1" transform="matrix(0.59891 -0.800816 0.78777 0.61597 79.7029 118.843)" stroke="#1A3185" stroke-width="2" stroke-linecap="round"/>
<line x1="1" y1="-1" x2="16.9381" y2="-1" transform="matrix(0.59891 -0.800816 0.78777 0.61597 42.6552 111.26)" stroke="#1A3185" stroke-width="2" stroke-linecap="round"/>
<line x1="1" y1="-1" x2="16.9381" y2="-1" transform="matrix(0.59891 -0.800816 0.78777 0.61597 91.8228 111.654)" stroke="#1A3185" stroke-width="2" stroke-linecap="round"/>
<line x1="1" y1="-1" x2="16.9381" y2="-1" transform="matrix(0.59891 -0.800816 0.78777 0.61597 54.4465 118.493)" stroke="#1A3185" stroke-width="2" stroke-linecap="round"/>
<line x1="1" y1="-1" x2="16.9381" y2="-1" transform="matrix(0.59891 -0.800816 0.78777 0.61597 94.5128 118.888)" stroke="#1A3185" stroke-width="2" stroke-linecap="round"/>
<path d="M47.151 116.804L56.4618 104.354M72.1922 116.804L81.503 104.354" stroke="#1A3185" stroke-width="2" stroke-linecap="round"/>
<line x1="1" y1="-1" x2="4.97936" y2="-1" transform="matrix(0.59891 -0.800816 0.78777 0.61597 37.9402 118.493)" stroke="#1A3185" stroke-width="2" stroke-linecap="round"/>
<line x1="1" y1="-1" x2="4.97936" y2="-1" transform="matrix(0.59891 -0.800816 0.78777 0.61597 87.1078 118.888)" stroke="#1A3185" stroke-width="2" stroke-linecap="round"/>
<line x1="1" y1="-1" x2="4.97936" y2="-1" transform="matrix(0.59891 -0.800816 0.78777 0.61597 67.4155 101.683)" stroke="#1A3185" stroke-width="2" stroke-linecap="round"/>
<line x1="1" y1="-1" x2="4.97936" y2="-1" transform="matrix(0.59891 -0.800816 0.78777 0.61597 107.482 102.078)" stroke="#1A3185" stroke-width="2" stroke-linecap="round"/>
<path d="M125.268 31.0796C130.834 35.498 133.002 39.4143 131.907 34.2501C133.12 39.9745 133.654 48.4093 131.908 51.7738C129.725 55.9795 125.52 57.6537 122.044 59.8348C115.859 63.716 117.718 78.4356 108.622 79.1365C99.5262 79.8375 107.127 64.0664 107.127 61.2626C100.82 62.0804 92.9369 60.9122 91.8453 57.057C90.893 53.6934 92.9102 52.2259 94.9382 51.8485C92.3927 51.7646 89.9409 50.6887 89.7025 47.2437C89.4539 43.6516 92.8151 42.938 96.0682 42.9518C93.8863 42.4483 91.8453 40.373 91.8453 38.1314C91.8453 34.5998 94.3975 33.8501 97.1012 33.9363C95.5907 33.379 94.2557 32.0678 94.4324 29.3435C94.6165 26.5066 96.7502 25.5862 101.964 25.2928C110.196 24.8296 118.811 25.9538 125.268 31.0796Z" fill="white"/>
<path d="M125.268 31.0796L124.646 31.8628H124.646L125.268 31.0796ZM101.964 25.2928L101.908 24.2944L101.964 25.2928ZM94.4324 29.3435L93.4345 29.2787L94.4324 29.3435ZM99.89 34.2501L100.01 35.243L100.06 33.2646L99.89 34.2501ZM97.707 43.0119L97.8795 43.9969L97.7711 42.0139L97.707 43.0119ZM89.7025 47.2437L88.7049 47.3128L89.7025 47.2437ZM96.6155 51.7738L96.7303 52.7672L96.7163 50.7789L96.6155 51.7738ZM91.8453 57.057L90.8832 57.3294L91.8453 57.057ZM107.127 61.2626H108.127V60.1246L106.998 60.2709L107.127 61.2626ZM108.622 79.1365L108.545 78.1395L108.622 79.1365ZM122.044 59.8348L121.513 58.9877L122.044 59.8348ZM131.908 51.7738L131.02 51.3131L131.908 51.7738ZM130.929 34.4574C131.063 35.0905 131.14 35.549 131.169 35.8688C131.183 36.0283 131.184 36.1303 131.18 36.189C131.176 36.2583 131.168 36.2173 131.209 36.1294C131.262 36.0175 131.396 35.8333 131.651 35.7466C131.872 35.6711 132.037 35.7216 132.061 35.7292C132.082 35.7361 131.985 35.6989 131.712 35.4792C131.201 35.0678 130.494 34.3746 129.491 33.4355C128.514 32.5198 127.312 31.4255 125.89 30.2963L124.646 31.8628C126.007 32.9428 127.163 33.995 128.124 34.8949C129.059 35.7714 129.869 36.563 130.458 37.0374C130.736 37.2606 131.085 37.5166 131.45 37.6336C131.645 37.6961 131.955 37.7558 132.296 37.6395C132.67 37.5119 132.899 37.2369 133.019 36.9801C133.129 36.7471 133.164 36.507 133.176 36.3186C133.189 36.1198 133.18 35.9059 133.16 35.6868C133.121 35.2496 133.025 34.7008 132.886 34.0429L130.929 34.4574ZM101.908 24.2944C99.2981 24.4412 97.2692 24.7476 95.8548 25.475C95.1211 25.8524 94.526 26.3553 94.1067 27.0234C93.69 27.6873 93.4884 28.4482 93.4345 29.2787L95.4303 29.4082C95.4685 28.8203 95.6026 28.4023 95.8007 28.0866C95.9962 27.7751 96.2949 27.4977 96.7695 27.2536C97.7715 26.7383 99.4165 26.4377 102.021 26.2912L101.908 24.2944ZM93.4345 29.2787C93.3345 30.8197 93.659 32.0591 94.3065 33.0138C94.9499 33.9626 95.8519 34.5413 96.755 34.8745L97.4473 32.9981C96.84 32.7741 96.3192 32.4184 95.9617 31.8913C95.6082 31.37 95.3535 30.5916 95.4303 29.4082L93.4345 29.2787ZM96.755 34.8745C97.9093 35.3004 99.1238 35.3496 100.01 35.243L99.7705 33.2573C99.1321 33.3342 98.2465 33.293 97.4473 32.9981L96.755 34.8745ZM100.06 33.2646C99.1598 33.1098 98.1446 32.9691 97.1331 32.9368L97.0693 34.9358C97.9483 34.9638 98.8608 35.0878 99.7205 35.2356L100.06 33.2646ZM97.1331 32.9368C95.7164 32.8917 94.1561 33.0523 92.9244 33.8323C91.6078 34.6661 90.8453 36.0881 90.8453 38.1314H92.8453C92.8453 36.6431 93.359 35.9244 93.9944 35.522C94.7147 35.0659 95.7823 34.8948 97.0693 34.9358L97.1331 32.9368ZM90.8453 38.1314C90.8453 39.5576 91.4908 40.8666 92.3983 41.8657C93.3063 42.8653 94.5371 43.6248 95.8433 43.9262L96.293 41.9775C95.4173 41.7754 94.5367 41.2454 93.8788 40.521C93.2204 39.7962 92.8453 38.9468 92.8453 38.1314H90.8453ZM95.8433 43.9262C96.5032 44.0785 97.1956 44.1167 97.8795 43.9969L97.5345 42.0269C97.1481 42.0945 96.7279 42.0778 96.293 41.9775L95.8433 43.9262ZM97.7711 42.0139C97.226 41.9789 96.6529 41.9543 96.0724 41.9519L96.0639 43.9518C96.5946 43.9541 97.1265 43.9766 97.6429 44.0098L97.7711 42.0139ZM96.0724 41.9519C94.4116 41.9448 92.5543 42.1155 91.1146 42.8564C90.375 43.237 89.7159 43.7832 89.2693 44.5548C88.8213 45.3288 88.6315 46.2529 88.7049 47.3128L90.7001 47.1747C90.6492 46.4385 90.7863 45.9263 91.0003 45.5567C91.2156 45.1846 91.5536 44.8798 92.0298 44.6347C93.0219 44.1242 94.4717 43.9451 96.0639 43.9518L96.0724 41.9519ZM88.7049 47.3128C88.8417 49.2903 89.6358 50.7055 90.8609 51.6108C92.0459 52.4865 93.5222 52.8024 94.9052 52.848L94.9711 50.8491C93.8087 50.8108 92.7863 50.5467 92.0495 50.0023C91.3527 49.4874 90.8017 48.6421 90.7001 47.1747L88.7049 47.3128ZM94.9052 52.848C95.5238 52.8684 96.1404 52.8354 96.7303 52.7672L96.5006 50.7804C95.9937 50.839 95.4768 50.8658 94.9711 50.8491L94.9052 52.848ZM96.7163 50.7789C96.1085 50.7173 95.4305 50.7398 94.7552 50.8654L95.1211 52.8317C95.6087 52.7409 96.0955 52.7262 96.5146 52.7687L96.7163 50.7789ZM94.7552 50.8654C93.5952 51.0813 92.3199 51.6279 91.4801 52.7251C90.6076 53.865 90.3418 55.4174 90.8832 57.3294L92.8075 56.7846C92.3966 55.3331 92.6632 54.4699 93.0682 53.9408C93.5059 53.369 94.2532 52.9932 95.1211 52.8317L94.7552 50.8654ZM90.8832 57.3294C91.2428 58.5997 92.1427 59.5727 93.2649 60.2961C94.3848 61.018 95.7889 61.5347 97.3044 61.8863C100.337 62.5897 104.006 62.6756 107.255 62.2543L106.998 60.2709C103.94 60.6674 100.515 60.5781 97.7563 59.9381C96.3763 59.6179 95.2107 59.1708 94.3485 58.615C93.4885 58.0607 92.9936 57.4419 92.8075 56.7846L90.8832 57.3294ZM106.127 61.2626C106.127 61.4596 106.047 61.8882 105.853 62.6017C105.668 63.2806 105.413 64.1045 105.125 65.0439C104.556 66.9002 103.873 69.1662 103.479 71.3353C103.094 73.4607 102.944 75.6987 103.622 77.4035C103.976 78.2919 104.563 79.0584 105.459 79.5581C106.342 80.0504 107.429 80.2314 108.699 80.1336L108.545 78.1395C107.541 78.2169 106.876 78.0583 106.434 77.8114C106.004 77.5719 105.693 77.1993 105.48 76.664C105.026 75.5211 105.07 73.7726 105.447 71.6924C105.817 69.6558 106.465 67.4971 107.037 65.6297C107.32 64.7073 107.587 63.8445 107.783 63.127C107.969 62.4442 108.127 61.7665 108.127 61.2626H106.127ZM108.699 80.1336C111.293 79.9337 113.127 78.7131 114.475 76.986C115.789 75.3033 116.646 73.135 117.372 71C118.118 68.8033 118.718 66.6746 119.534 64.7864C120.345 62.9121 121.287 61.4904 122.576 60.6818L121.513 58.9877C119.709 60.1198 118.563 61.9934 117.699 63.9925C116.84 65.9777 116.177 68.3005 115.478 70.3565C114.758 72.4742 113.988 74.3598 112.899 75.7554C111.844 77.1066 110.499 77.9889 108.545 78.1395L108.699 80.1336ZM122.576 60.6818C123.424 60.1494 124.313 59.6503 125.245 59.1126C126.166 58.5811 127.115 58.0189 128.03 57.3858C129.866 56.1152 131.603 54.5327 132.796 52.2345L131.02 51.3131C130.03 53.2206 128.573 54.578 126.892 55.7412C126.048 56.325 125.158 56.8532 124.245 57.3804C123.342 57.9015 122.402 58.4296 121.513 58.9877L122.576 60.6818ZM132.796 52.2345C133.31 51.2436 133.624 49.9533 133.807 48.5507C133.992 47.1335 134.051 45.5322 134.017 43.8763C133.949 40.566 133.505 36.9637 132.886 34.0429L130.929 34.4574C131.523 37.2609 131.952 40.7382 132.018 43.9175C132.05 45.5065 131.992 47.0025 131.824 48.292C131.654 49.596 131.379 50.6217 131.02 51.3131L132.796 52.2345ZM125.89 30.2963C119.148 24.9451 110.234 23.8259 101.908 24.2944L102.021 26.2912C110.158 25.8334 118.473 26.9625 124.646 31.8628L125.89 30.2963Z" fill="#1A3185"/>
<path d="M136.689 58.4415H127.047V26.5232L136.689 29.5654V58.4415Z" fill="white" stroke="#1A3185" stroke-width="2"/>
<path d="M33.1109 73.2388C27.5447 68.8204 25.3773 64.904 26.4715 70.0682C25.2587 64.3438 24.7245 55.9091 26.4709 52.5445C28.6539 48.3388 32.8588 46.6647 36.3348 44.4836C42.5201 40.6024 40.6607 25.8828 49.7567 25.1818C58.8527 24.4809 51.2522 40.252 51.2522 43.0557C57.5588 42.238 65.442 43.4061 66.5336 47.2614C67.4859 50.6249 65.4687 52.0925 63.4407 52.4698C65.9862 52.5537 68.438 53.6297 68.6764 57.0746C68.925 60.6668 65.5638 61.3803 62.3107 61.3665C64.4926 61.8701 66.5336 63.9454 66.5336 66.1869C66.5336 69.7186 63.9814 70.4683 61.2777 70.382C62.7882 70.9394 64.1232 72.2505 63.9465 74.9749C63.7624 77.8117 61.6287 78.7322 56.4145 79.0256C48.1831 79.4887 39.5682 78.3646 33.1109 73.2388Z" fill="white"/>
<path d="M33.1109 73.2388L33.7326 72.4556H33.7326L33.1109 73.2388ZM56.4145 79.0256L56.4707 80.024L56.4145 79.0256ZM63.9465 74.9749L64.9444 75.0396L63.9465 74.9749ZM58.4889 70.0682L58.3693 69.0754L58.3193 71.0538L58.4889 70.0682ZM60.6719 61.3065L60.4994 60.3215L60.6078 62.3044L60.6719 61.3065ZM68.6764 57.0746L69.674 57.0056L68.6764 57.0746ZM61.7634 52.5445L61.6486 51.5511L61.6626 53.5394L61.7634 52.5445ZM66.5336 47.2614L67.4957 46.9889L66.5336 47.2614ZM51.2522 43.0557H50.2522V44.1938L51.3808 44.0474L51.2522 43.0557ZM49.7567 25.1818L49.8335 26.1789L49.7567 25.1818ZM36.3348 44.4836L36.8663 45.3306L36.3348 44.4836ZM26.4709 52.5445L27.3584 53.0052L26.4709 52.5445ZM27.4497 69.861C27.3156 69.2279 27.2394 68.7694 27.2102 68.4496C27.1956 68.2901 27.195 68.188 27.1988 68.1293C27.2033 68.0601 27.2109 68.1011 27.1696 68.189C27.117 68.3009 26.9826 68.485 26.7282 68.5718C26.507 68.6472 26.342 68.5968 26.3183 68.5892C26.2965 68.5822 26.3936 68.6194 26.6666 68.8391C27.178 69.2506 27.8854 69.9438 28.8876 70.8829C29.8649 71.7985 31.0666 72.8928 32.4892 74.022L33.7326 72.4556C32.372 71.3755 31.2156 70.3234 30.2551 69.4234C29.3197 68.5469 28.51 67.7553 27.9205 67.281C27.6431 67.0577 27.2938 66.8017 26.9292 66.6848C26.7342 66.6222 26.4236 66.5626 26.0827 66.6788C25.7085 66.8064 25.4802 67.0814 25.3595 67.3383C25.25 67.5712 25.2152 67.8114 25.203 67.9998C25.1901 68.1986 25.1985 68.4125 25.2185 68.6315C25.2584 69.0688 25.3538 69.6175 25.4932 70.2755L27.4497 69.861ZM56.4707 80.024C59.0808 79.8771 61.1097 79.5708 62.5242 78.8433C63.2578 78.466 63.8529 77.9631 64.2722 77.2949C64.6889 76.631 64.8905 75.8701 64.9444 75.0396L62.9486 74.9101C62.9104 75.4981 62.7763 75.916 62.5782 76.2318C62.3827 76.5432 62.084 76.8207 61.6094 77.0648C60.6074 77.5801 58.9624 77.8806 56.3583 78.0272L56.4707 80.024ZM64.9444 75.0396C65.0444 73.4987 64.7199 72.2593 64.0724 71.3046C63.429 70.3557 62.527 69.7771 61.6239 69.4439L60.9316 71.3202C61.5389 71.5443 62.0597 71.8999 62.4172 72.4271C62.7707 72.9484 63.0254 73.7267 62.9486 74.9101L64.9444 75.0396ZM61.6239 69.4439C60.4696 69.018 59.2551 68.9688 58.3693 69.0754L58.6084 71.0611C59.2468 70.9842 60.1324 71.0253 60.9316 71.3202L61.6239 69.4439ZM58.3193 71.0538C59.2191 71.2085 60.2343 71.3493 61.2458 71.3815L61.3096 69.3825C60.4306 69.3545 59.5181 69.2306 58.6584 69.0827L58.3193 71.0538ZM61.2458 71.3815C62.6625 71.4267 64.2228 71.2661 65.4545 70.486C66.7711 69.6522 67.5336 68.2303 67.5336 66.1869H65.5336C65.5336 67.6753 65.0199 68.394 64.3845 68.7964C63.6642 69.2525 62.5966 69.4236 61.3096 69.3825L61.2458 71.3815ZM67.5336 66.1869C67.5336 64.7608 66.8881 63.4518 65.9806 62.4526C65.0726 61.453 63.8418 60.6936 62.5356 60.3921L62.0859 62.3409C62.9616 62.543 63.8422 63.073 64.5001 63.7974C65.1585 64.5222 65.5336 65.3716 65.5336 66.1869H67.5336ZM62.5356 60.3921C61.8757 60.2398 61.1834 60.2017 60.4994 60.3215L60.8444 62.2915C61.2308 62.2238 61.651 62.2405 62.0859 62.3409L62.5356 60.3921ZM60.6078 62.3044C61.1529 62.3394 61.726 62.364 62.3065 62.3665L62.315 60.3665C61.7843 60.3643 61.2524 60.3417 60.736 60.3086L60.6078 62.3044ZM62.3065 62.3665C63.9673 62.3736 65.8246 62.2028 67.2643 61.462C68.0039 61.0814 68.663 60.5352 69.1096 59.7636C69.5576 58.9896 69.7474 58.0654 69.674 57.0056L67.6788 57.1437C67.7298 57.8799 67.5926 58.392 67.3786 58.7617C67.1633 59.1337 66.8253 59.4386 66.3491 59.6836C65.357 60.1942 63.9072 60.3733 62.315 60.3665L62.3065 62.3665ZM69.674 57.0056C69.5372 55.0281 68.7431 53.6129 67.518 52.7076C66.333 51.8319 64.8567 51.516 63.4737 51.4704L63.4078 53.4693C64.5702 53.5076 65.5926 53.7716 66.3294 54.3161C67.0262 54.831 67.5772 55.6763 67.6788 57.1437L69.674 57.0056ZM63.4737 51.4704C62.8551 51.45 62.2385 51.483 61.6486 51.5511L61.8783 53.5379C62.3853 53.4793 62.9021 53.4526 63.4078 53.4693L63.4737 51.4704ZM61.6626 53.5394C62.2705 53.6011 62.9484 53.5786 63.6237 53.4529L63.2578 51.4867C62.7702 51.5774 62.2834 51.5921 61.8643 51.5496L61.6626 53.5394ZM63.6237 53.4529C64.7837 53.2371 66.059 52.6905 66.8988 51.5932C67.7713 50.4534 68.0371 48.901 67.4957 46.9889L65.5714 47.5338C65.9823 48.9853 65.7157 49.8484 65.3107 50.3776C64.873 50.9494 64.1257 51.3252 63.2578 51.4867L63.6237 53.4529ZM67.4957 46.9889C67.1361 45.7186 66.2362 44.7457 65.114 44.0223C63.9941 43.3003 62.59 42.7836 61.0745 42.432C58.0424 41.7286 54.3725 41.6428 51.1237 42.064L51.3808 44.0474C54.4386 43.6509 57.8636 43.7403 60.6226 44.3803C62.0026 44.7005 63.1682 45.1475 64.0304 45.7033C64.8904 46.2577 65.3853 46.8765 65.5714 47.5338L67.4957 46.9889ZM52.2522 43.0557C52.2522 42.8587 52.3317 42.4302 52.526 41.7166C52.7108 41.0377 52.966 40.2139 53.2538 39.2745C53.8226 37.4181 54.5058 35.1521 54.8994 32.9831C55.2851 30.8576 55.4353 28.6196 54.7569 26.9149C54.4033 26.0265 53.8155 25.26 52.9196 24.7603C52.037 24.2679 50.9494 24.087 49.6799 24.1848L49.8335 26.1789C50.838 26.1015 51.5027 26.26 51.9454 26.5069C52.3749 26.7465 52.6856 27.1191 52.8986 27.6544C53.3534 28.7972 53.309 30.5458 52.9315 32.626C52.562 34.6625 51.9137 36.8212 51.3416 38.6886C51.059 39.611 50.7915 40.4739 50.5962 41.1913C50.4103 41.8742 50.2522 42.5518 50.2522 43.0557H52.2522ZM49.6799 24.1848C47.0857 24.3847 45.2518 25.6052 43.9037 27.3323C42.5901 29.0151 41.733 31.1834 41.0074 33.3183C40.2608 35.5151 39.661 37.6437 38.8444 39.5319C38.0338 41.4062 37.0918 42.828 35.8033 43.6365L36.8663 45.3306C38.6704 44.1986 39.8155 42.325 40.6801 40.3258C41.5387 38.3406 42.2023 36.0178 42.901 33.9619C43.6208 31.8442 44.3908 29.9586 45.4802 28.563C46.535 27.2117 47.8797 26.3295 49.8335 26.1789L49.6799 24.1848ZM35.8033 43.6365C34.9548 44.1689 34.0657 44.6681 33.1342 45.2058C32.2133 45.7373 31.2639 46.2994 30.349 46.9325C28.5127 48.2031 26.7762 49.7857 25.5833 52.0838L27.3584 53.0052C28.3486 51.0977 29.8061 49.7403 31.487 48.5772C32.3307 47.9934 33.2206 47.4651 34.134 46.9379C35.0368 46.4168 35.9768 45.8888 36.8663 45.3306L35.8033 43.6365ZM25.5833 52.0838C25.069 53.0747 24.755 54.365 24.5721 55.7677C24.3872 57.1849 24.3276 58.7862 24.3617 60.442C24.4299 63.7523 24.8743 67.3546 25.4932 70.2755L27.4497 69.861C26.8558 67.0574 26.4267 63.5801 26.3612 60.4008C26.3285 58.8119 26.387 57.3159 26.5552 56.0264C26.7254 54.7224 26.9996 53.6966 27.3584 53.0052L25.5833 52.0838ZM32.4892 74.022C39.2304 79.3732 48.145 80.4925 56.4707 80.024L56.3583 78.0272C48.2212 78.485 39.9059 77.3559 33.7326 72.4556L32.4892 74.022Z" fill="#1A3185"/>
<path d="M21.6895 45.8768H31.3324V77.7951L21.6895 74.753V45.8768Z" fill="white" stroke="#1A3185" stroke-width="2"/>
</g>
<defs>
<clipPath id="clip0_53_1524">
<rect width="150" height="150" fill="white"/>
</clipPath>
</defs>
</svg>
