<svg width="52" height="50" viewBox="0 0 52 50" fill="none" xmlns="http://www.w3.org/2000/svg">
<path fill-rule="evenodd" clip-rule="evenodd" d="M52 25C52 29.4432 50.7945 33.6158 48.6808 37.2316C44.2264 44.8519 35.7384 50 26 50C16.6537 50 8.45927 45.2582 3.87676 38.14C1.4188 34.322 0 29.8203 0 25C0 11.1929 11.6406 0 26 0C40.3594 0 52 11.1929 52 25ZM47.1697 35.8393C45.7433 34.8074 43.9903 34.1991 42.0952 34.1991C40.6933 34.1991 39.3691 34.532 38.1974 35.123C38.2281 35.1894 38.2586 35.2559 38.2887 35.3225C38.7917 36.4362 39.2444 37.6782 39.4128 38.4262C39.8092 40.1871 39.938 42.0817 39.9799 43.6991C42.9625 41.6458 45.4297 38.9544 47.1697 35.8393ZM35.3538 34.0775C32.9141 31.7712 29.6222 30.3571 26 30.3571C22.1187 30.3571 18.6166 31.9807 16.1359 34.5858L16.1398 34.5919C16.1407 34.5913 16.1405 34.5914 16.1393 34.5925C16.1317 34.5985 16.0858 34.6356 16.0048 34.7334C15.9164 34.8399 15.8127 34.9861 15.6971 35.1723C15.4656 35.545 15.2197 36.023 14.9827 36.5415C14.5053 37.5858 14.1108 38.69 13.9679 39.2397C13.498 41.0469 13.5272 42.7562 13.5543 44.3458L13.5543 44.3459L13.5543 44.3464C13.5562 44.4566 13.558 44.5662 13.5597 44.6752C17.1798 46.783 21.4339 48 26 48C30.3814 48 34.4756 46.8795 37.9979 44.9266C37.9868 43.1343 37.9155 40.8818 37.4616 38.8654C37.336 38.3074 36.9446 37.2056 36.466 36.1458C36.2299 35.6232 35.9847 35.1379 35.7567 34.7562C35.6427 34.5653 35.5401 34.4123 35.4522 34.2984C35.3617 34.1812 35.3131 34.1399 35.3099 34.1372L35.3097 34.137L35.3538 34.0775ZM13.7226 34.5895C12.9077 34.3358 12.0412 34.1991 11.1428 34.1991C8.85791 34.1991 6.77951 35.0834 5.23115 36.5283C6.84061 39.1865 8.99024 41.5109 11.5398 43.3597C11.5359 41.9766 11.6061 40.3754 12.0323 38.7365C12.2127 38.0422 12.654 36.8251 13.1637 35.7101C13.3388 35.327 13.5274 34.9439 13.7226 34.5895ZM34.0476 20.8333C34.0476 25.107 30.4445 28.5714 26 28.5714C21.5554 28.5714 17.9524 25.107 17.9524 20.8333C17.9524 16.5597 21.5554 13.0952 26 13.0952C30.4445 13.0952 34.0476 16.5597 34.0476 20.8333ZM11.1428 33.0628C13.9712 33.0628 16.2641 30.8581 16.2641 28.1385C16.2641 25.4189 13.9712 23.2143 11.1428 23.2143C8.31447 23.2143 6.02163 25.4189 6.02163 28.1385C6.02163 30.8581 8.31447 33.0628 11.1428 33.0628ZM42.0952 33.0628C44.9236 33.0628 47.2164 30.8581 47.2164 28.1385C47.2164 25.4189 44.9236 23.2143 42.0952 23.2143C39.2669 23.2143 36.974 25.4189 36.974 28.1385C36.974 30.8581 39.2669 33.0628 42.0952 33.0628Z" fill="#0B0A3E"/>
</svg>
