<svg width="60" height="61" viewBox="0 0 60 61" fill="none" xmlns="http://www.w3.org/2000/svg">
<path fill-rule="evenodd" clip-rule="evenodd" d="M47.5396 55.1181C55.0875 49.6693 60 40.796 60 30.7751C60 14.2054 46.5685 0.772949 30 0.772949C13.4315 0.772949 0 14.2054 0 30.7751C0 41.4655 5.59083 50.8499 14.0079 56.1637V48.8188H12.8176C12.0504 48.8188 11.4286 48.1969 11.4286 47.4298C11.4286 46.6627 12.0504 46.0408 12.8176 46.0408H48.7301C49.4972 46.0408 50.119 46.6627 50.119 47.4298C50.119 48.1969 49.4972 48.8188 48.7301 48.8188H47.5396V55.1181ZM44.9602 56.7865V48.8188H42.3809V58.1112C43.2644 57.7104 44.125 57.268 44.9602 56.7865ZM39.8015 59.1395V48.8188H37.2222V59.9022C38.0978 59.6858 38.9582 59.4309 39.8015 59.1395ZM34.6429 60.4202V48.8188H32.0635V60.7074C32.934 60.6483 33.7943 60.552 34.6429 60.4202ZM29.4842 60.7729V48.8188H26.9048V60.6196C27.7546 60.7067 28.6149 60.7583 29.4842 60.7729ZM24.3255 60.2413V48.8188H21.746V59.6274C22.5912 59.8688 23.4516 60.074 24.3255 60.2413ZM19.1666 58.7615V48.8188H16.5873V57.6191C17.4254 58.0387 18.286 58.4203 19.1666 58.7615ZM30.3439 13.631H31.2037V15.483H33.7831V18.5981C34.6086 18.7853 35.4185 19.0495 36.2027 19.3888C37.9239 20.1333 39.4878 21.2247 40.8051 22.6004C42.1225 23.9762 43.1675 25.6095 43.8804 27.4071C44.5933 29.2046 44.9603 31.1312 44.9603 33.0769H30.7738H16.5873C16.5873 31.1312 16.9542 29.2046 17.6671 27.4071C18.3801 25.6095 19.4251 23.9762 20.7424 22.6004C22.0597 21.2247 23.6236 20.1333 25.3448 19.3888C26.1291 19.0495 26.939 18.7853 27.7645 18.5981V15.483H30.3439V13.631ZM14.8676 34.4659C14.8676 33.6987 15.4895 33.0769 16.2566 33.0769H45.2908C46.0579 33.0769 46.6798 33.6987 46.6798 34.4659C46.6798 35.233 46.0579 35.8549 45.2908 35.8549H16.2566C15.4895 35.8549 14.8676 35.233 14.8676 34.4659ZM14.0079 38.1698C14.0079 37.4027 14.6298 36.7808 15.3969 36.7808H46.1507C46.9178 36.7808 47.5397 37.4027 47.5397 38.1698C47.5397 38.937 46.9178 39.5588 46.1507 39.5588H44.9603V45.1148H42.3809V39.5588H39.8016V45.1148H37.2222V39.5588H34.6429V45.1148H32.0635V39.5588H29.4842V45.1148H26.9048V39.5588H24.3253V45.1148H21.746V39.5588H19.1666V45.1148H16.5873V39.5588H15.3969C14.6298 39.5588 14.0079 38.937 14.0079 38.1698Z" fill="#1A3185"/>
<path d="M59 30.7751C59 46.7926 46.0162 59.7773 30 59.7773C13.9838 59.7773 1 46.7926 1 30.7751C1 14.7576 13.9838 1.77295 30 1.77295C46.0162 1.77295 59 14.7576 59 30.7751Z" stroke="#1A3185" stroke-width="2"/>
</svg>
