<svg width="84" height="68" viewBox="0 0 84 68" fill="none" xmlns="http://www.w3.org/2000/svg">
<path opacity="0.19" d="M34.5268 51.5222C34.5268 55.5743 32.8601 59.267 29.5269 62.6003C26.1937 65.9335 22.7297 67.6001 19.1351 67.6001C12.8608 67.6001 8.15502 65.7048 5.01786 61.914C1.94606 58.1233 0.410156 53.1234 0.410156 46.9145C0.410156 34.4966 3.84142 24.1374 10.704 15.837C17.5665 7.5366 26.6185 2.40604 37.86 0.445312L42.4677 7.11178C32.4026 10.3796 25.5074 14.824 21.7821 20.4447C20.2788 22.6669 19.5272 24.3661 19.5272 25.5426C19.5272 29.3333 20.5729 31.9803 22.6644 33.4835C24.8212 34.9214 26.5531 36.2285 27.8603 37.405C29.1674 38.516 30.3112 39.7252 31.2916 41.0323C33.4484 43.908 34.5268 47.4047 34.5268 51.5222ZM76.0591 51.5222C76.0591 55.5743 74.3925 59.267 71.0592 62.6003C67.726 65.9335 64.262 67.6001 60.6674 67.6001C54.3931 67.6001 49.6873 65.7048 46.5502 61.914C43.4784 58.1233 41.9425 53.1234 41.9425 46.9145C41.9425 34.4966 45.3737 24.1374 52.2363 15.837C59.0988 7.5366 68.1508 2.40604 79.3923 0.445312L84 7.11178C73.935 10.3796 67.0397 14.824 63.3144 20.4447C61.8111 22.6669 61.0595 24.3661 61.0595 25.5426C61.0595 29.3333 62.1052 31.9803 64.1967 33.4835C66.3535 34.9214 68.0855 36.2285 69.3926 37.405C70.6998 38.516 71.8435 39.7252 72.8239 41.0323C74.9807 43.908 76.0591 47.4047 76.0591 51.5222Z" fill="#1A3185" fill-opacity="0.49"/>
</svg>
