<svg width="150" height="150" viewBox="0 0 150 150" fill="none" xmlns="http://www.w3.org/2000/svg">
<path d="M28.3765 135.165C-15.2204 106.239 28.3761 92.2749 28.3767 63.3487C28.3774 34.4225 37.0958 12.4798 71.9728 8.49008C106.85 4.50032 147 25.4464 147 50.3825C147 69.3334 119.625 74.919 107.459 89.2821C95.2921 103.645 109.488 109.231 101.376 130.177C89.5476 142.479 63.254 158.305 28.3765 135.165Z" fill="#FF8600"/>
<path d="M85.177 121.973C80.9738 126.671 76.8324 122.694 75.2871 120.119L44.9991 84.2679C36.0364 77.1594 21.8814 59.2957 36.9635 44.7082C52.0456 30.1206 69.0027 42.9569 75.596 51.1984C80.8499 43.2657 95.6227 30.9237 112.683 45.0168C127.023 61.3352 115.483 76.0077 107.92 81.3041C115.947 89.6929 115.995 91.7733 113.61 94.1579C109.329 98.4389 106.151 96.9616 102.224 93.2743C108.722 100.28 106.592 100.558 103.721 103.429C99.9212 106.912 97.6624 106.908 95.0337 104.829C98.5885 109.448 96.8094 110.548 94.758 113.01C92.1582 116.13 89.3397 116.407 85.7506 113.657C89.8842 117.741 87.887 119.263 85.177 121.973Z" fill="white"/>
<path d="M75.596 51.1984C73.2266 53.5679 66.5097 60.2848 58.5979 68.1965C66.7573 83.2785 83.8377 72.4205 91.358 65.1063L92.9033 66.6516C99.6398 73.0189 104.503 77.7331 107.92 81.3041M75.596 51.1984C69.0027 42.9569 52.0456 30.1206 36.9635 44.7082C21.8814 59.2957 36.0364 77.1594 44.9991 84.2679L75.2871 120.119C76.8324 122.694 80.9738 126.671 85.177 121.973C88.2676 118.882 90.431 117.337 83.6317 111.774C88.2676 116.41 91.6674 116.719 94.758 113.01C97.8486 109.302 100.321 108.683 84.868 94.4666C94.7579 103.738 96.3032 110.229 103.721 103.429C107.429 99.7207 109.902 100.339 94.1398 85.1949C102.793 93.2307 106.811 100.957 113.61 94.1579C115.995 91.7733 115.947 89.6929 107.92 81.3041M75.596 51.1984C80.8499 43.2657 95.6227 30.9237 112.683 45.0168C127.023 61.3352 115.483 76.0077 107.92 81.3041" stroke="#1A3185" stroke-width="2" stroke-linejoin="round"/>
<rect x="53.3433" y="74.8645" width="11.9865" height="25.9729" rx="4" transform="rotate(45 53.3433 74.8645)" fill="white" stroke="#1A3185" stroke-width="2"/>
<rect x="61.9969" y="83.5182" width="11.9865" height="25.9729" rx="4" transform="rotate(45 61.9969 83.5182)" fill="white" stroke="#1A3185" stroke-width="2"/>
<rect x="70.0325" y="91.5537" width="11.9865" height="25.9729" rx="4" transform="rotate(45 70.0325 91.5537)" fill="white" stroke="#1A3185" stroke-width="2"/>
<rect x="78.6862" y="100.207" width="11.9865" height="25.9729" rx="4" transform="rotate(45 78.6862 100.207)" fill="white" stroke="#1A3185" stroke-width="2"/>
</svg>
