<svg width="1140" height="293" viewBox="0 0 1140 293" fill="none" xmlns="http://www.w3.org/2000/svg">
<path id="Path 22" opacity="0.0545102" fill-rule="evenodd" clip-rule="evenodd" d="M-93 249.531H-88.1434V241.563H-76.3921V219.667H-72.0328V213.745L-74.0276 209.33H-26.1144V189.63H-13.6826H-1.47328V183.275H0.0896912V180.551H6.1461V171.983H10.6952V165.328H13.6984L15.1289 110.626L67.6476 117.268V69.1595H81.3773V57.2249L101.662 54.5611L139.674 60.1947V69.1595L141.315 71.003H153.712V4.27115L165.132 1.85267L191.676 4.27115L197.005 1.85267C197.005 1.85267 208.903 0.0576151 214.333 0.521162C219.763 0.984708 225.334 4.27115 225.334 4.27115V29.906L238.737 40.2187L245.122 41.5584L246.412 58.5352C246.412 58.5352 249.588 58.7163 251.162 59.3571C252.737 59.998 254.668 61.8958 254.668 61.8958L253.396 88.4443L258.85 87.368L265.267 90.3377L267.538 108.889H275.804L281.626 88.4443H284.485V77.3317L290.444 72.0858L347.231 74.6728L363.822 81.0269V152.897H366.886V85.9203H373.109V72.0858L444.177 71.003L457.978 77.3317V85.9203L464.112 88.4443V46.2898L504.999 42.75V40.2187L527.103 38.7457V41.5584L558.902 47.5387V102.154H565.395V74.6728H585.466V61.8958H600.823L607.114 53.2549C607.114 53.2549 611.186 50.8957 620.079 53.2549C628.971 55.6141 630.116 59.3571 630.116 59.3571L632.141 64.1336L640.19 67.5229V210.453H641.902V207.892H646.571V205.137H659.351L661.14 206.831V210.453H663.775V205.137H666.638L667.963 130.333H665.15V128.182H667.963L669.946 121.893H667.963V120.344H672.164V110.626L675.376 107.335V79.8042L674.085 77.3317V74.6728H677.401V69.1595L675.376 67.5229V61.8958H679.252L692.019 23.6108L705.784 61.8958H709.306V67.5229L707.767 69.1595V75.359H711.874V78.4637H709.306V105.383L715.636 117.268V120.344H717.824V121.893H715.636L717.824 128.182H719.693V130.333H717.824V152.897L732.582 148.541L735.778 152.897H737.237V130.333H739.041V110.626H746.027V97.6209H760.906V95.335H761.395V93.5754H752.961V92.2318H771.14V93.0445H763.705V95.1767H764.306V97.7837L795.275 96.9204L816.448 102.154V111.285L820.423 112.027V33.2892L826.832 32.089L826.246 29.906L850.419 26.3752L878.426 23.6108L896.274 27.508V34.4907L911.509 37.6444L912.186 183.275H924.377V205.137H926.472L925.912 100.484H936.893L937.444 96.9204H943.252L947.509 98.5398V92.2318H948.543V72.0858L958.685 66.9205L979.488 61.8958V47.5387L997.48 40.2187L1059.68 35.6733V12.1776L1079.11 9.00423L1098.73 13.157V37.0752L1140.61 36.2233L1156.96 40.2187L1157.7 110.626H1200.44V64.7543L1240.38 58.5352H1247.98V57.8109H1242.22V56.4946H1248.56V50.0926C1248.56 50.0926 1247.03 49.4852 1247.03 47.9518C1247.03 46.4184 1248.56 46.2898 1248.56 46.2898V42.671H1247.68V40.8825H1249.44L1249.77 14.4603H1250.28L1251.46 40.8825H1253.13V42.3053H1251.46V46.2898C1251.46 46.2898 1252.86 47.08 1252.75 48.3442C1252.65 49.6083 1251.11 50.4897 1251.11 50.4897V56.1177L1252.75 56.9147V57.8109H1252.08V59.3571H1253.57L1309.52 61.8958V143.565H1316.53L1323.3 147.004V152.897H1320.96V155.613L1326.09 157.043V201.517H1335.09V186.782H1337.82V175.003H1364.99L1379.97 176.673V189.63H1392.07V196.452H1400.28V292.336H-93V249.531Z" fill="white"/>
</svg>
