<?xml version="1.0" encoding="UTF-8" standalone="no"?>
<svg
   width="1140"
   height="293"
   viewBox="0 0 1140 293"
   fill="none"
   version="1.1"
   id="svg1"
   xmlns="http://www.w3.org/2000/svg"
   xmlns:svg="http://www.w3.org/2000/svg">
  <defs
     id="defs1" />
  <path
     id="Path 22"
     opacity="0.0545102"
     fill-rule="evenodd"
     clip-rule="evenodd"
     d="m -93,249.531 h 4.8566 v -7.968 h 11.7513 v -21.896 h 4.3593 v -5.922 l -1.9948,-4.415 h 47.9132 v -19.7 h 12.4318 12.20932 v -6.355 h 1.5629712 v -2.724 H 6.1461 v -8.568 h 4.5491 v -6.655 h 3.0032 l 1.4305,-54.702 52.5187,6.642 V 69.1595 H 81.3773 V 57.2249 l 20.2847,-2.6638 38.012,5.6336 v 8.9648 l 1.641,1.8435 h 12.397 V 4.27115 l 11.42,-2.41848 26.544,2.41848 5.329,-2.41848 c 0,0 11.898,-1.7950549 17.328,-1.331508 5.43,0.463546 11.001,3.749988 11.001,3.749988 V 29.906 l 13.403,10.3127 6.385,1.3397 1.29,16.9768 c 0,0 3.176,0.1811 4.75,0.8219 1.575,0.6409 3.506,2.5387 3.506,2.5387 l -1.272,26.5485 5.454,-1.0763 6.417,2.9697 2.271,18.5513 h 8.266 l 5.822,-20.4447 h 2.859 V 77.3317 l 5.959,-5.2459 56.787,2.587 16.591,6.3541 v 71.8701 h 3.064 V 85.9203 h 6.223 V 72.0858 l 71.068,-1.0828 13.801,6.3287 v 8.5886 l 6.134,2.524 V 46.2898 L 504.999,42.75 v -2.5313 l 22.104,-1.473 v 2.8127 l 31.799,5.9803 v 54.6153 h 6.493 V 74.6728 h 20.071 v -12.777 h 15.357 l 6.291,-8.6409 c 0,0 4.072,-2.3592 12.965,0 8.892,2.3592 10.037,6.1022 10.037,6.1022 l 2.025,4.7765 8.049,3.3893 V 210.453 h 1.712 v -2.561 h 4.669 v -2.755 h 12.78 l 1.789,1.694 v 3.622 h 2.635 v -5.316 h 2.863 l 1.325,-74.804 h -2.813 v -2.151 h 2.813 l 1.983,-6.289 h -1.983 v -1.549 h 4.201 v -9.718 l 3.212,-3.291 V 79.8042 l -1.291,-2.4725 v -2.6589 h 3.316 v -5.5133 l -2.025,-1.6366 v -5.6271 h 3.876 l 12.767,-38.285 13.765,38.285 h 3.522 v 5.6271 l -1.539,1.6366 v 6.1995 h 4.107 v 3.1047 h -2.568 v 26.9193 l 6.33,11.885 v 3.076 h 2.188 v 1.549 h -2.188 l 2.188,6.289 h 1.869 v 2.151 h -1.869 v 22.564 l 14.758,-4.356 3.196,4.356 h 1.459 v -22.564 h 1.804 v -19.707 h 6.986 V 97.6209 h 14.879 V 95.335 h 0.489 v -1.7596 h -8.434 v -1.3436 h 18.179 v 0.8127 h -7.435 v 2.1322 h 0.601 v 2.607 l 30.969,-0.8633 21.173,5.2336 v 9.131 l 3.975,0.742 V 33.2892 l 6.409,-1.2002 -0.586,-2.183 24.173,-3.5308 28.007,-2.7644 17.848,3.8972 v 6.9827 l 15.235,3.1537 0.677,145.6306 h 12.191 v 21.862 h 2.095 l -0.56,-104.653 h 10.981 l 0.551,-3.5636 h 5.808 l 4.257,1.6194 v -6.308 h 1.034 v -20.146 l 10.142,-5.1653 20.803,-5.0247 V 47.5387 l 17.992,-7.32 62.2,-4.5454 V 12.1776 l 19.43,-3.17337 19.62,4.15277 v 23.9182 l 41.88,-0.8519 16.35,3.9954 0.74,70.4073 h 42.74 V 64.7543 l 39.94,-6.2191 h 7.6 v -0.7243 h -5.76 v -1.3163 h 6.34 v -6.402 c 0,0 -1.53,-0.6074 -1.53,-2.1408 0,-1.5334 1.53,-1.662 1.53,-1.662 V 42.671 h -0.88 v -1.7885 h 1.76 l 0.33,-26.4222 h 0.51 l 1.18,26.4222 h 1.67 v 1.4228 h -1.67 v 3.9845 c 0,0 1.4,0.7902 1.29,2.0544 -0.1,1.2641 -1.64,2.1455 -1.64,2.1455 v 5.628 l 1.64,0.797 v 0.8962 h -0.67 v 1.5462 h 1.49 l 55.95,2.5387 v 81.6692 h 7.01 l 6.77,3.439 v 5.893 h -2.34 v 2.716 l 5.13,1.43 v 44.474 h 9 v -14.735 h 2.73 v -11.779 h 27.17 l 14.98,1.67 v 12.957 h 12.1 v 6.822 h 8.21 v 95.884 H -93 Z"
     fill="white"
     style="opacity:1;fill:#1a3185;fill-opacity:1" />
</svg>
