<svg width="4337" height="342" viewBox="0 0 4337 342" fill="none" xmlns="http://www.w3.org/2000/svg">
<g clip-path="url(#clip0_32_4069)">
<mask id="mask0_32_4069" style="mask-type:luminance" maskUnits="userSpaceOnUse" x="0" y="0" width="4337" height="342">
<path d="M4337 0H0V342H4337V0Z" fill="white"/>
</mask>
<g mask="url(#mask0_32_4069)">
<path fill-rule="evenodd" clip-rule="evenodd" d="M-24.0801 373.629H-16.7952V361.677H0.831795V328.833H7.37074V319.95L4.37853 313.328H76.2483V283.778H94.896H113.21V274.245H115.554V270.159H124.639V257.307H131.463V247.325H135.968L138.113 165.272L216.891 175.235V103.072H237.486V85.1703L267.913 81.1746L324.931 89.625V103.072L327.392 105.837H345.988V5.7397L363.118 2.11198L402.934 5.7397L410.927 2.11198C410.927 2.11198 428.774 -0.580599 436.919 0.114722C445.064 0.810041 453.421 5.7397 453.421 5.7397V44.192L473.525 59.661L483.103 61.6706L485.038 87.1358C485.038 87.1358 489.802 87.4074 492.163 88.3686C494.525 89.33 497.422 92.1767 497.422 92.1767L495.514 131.999L503.695 130.385L513.32 134.84L516.727 162.666H529.126L537.859 131.999H542.147V115.331L551.086 107.462L636.266 111.342L661.153 120.873V228.678H665.749V128.213H675.083V107.462L781.685 105.837L802.387 115.331V128.213L811.588 131.999V68.7677L872.918 63.458V59.661L906.074 57.4515V61.6706L953.773 70.641V152.564H963.512V111.342H993.619V92.1767H1016.65L1026.09 79.2153C1026.09 79.2153 1032.2 75.6765 1045.54 79.2153C1058.88 82.7541 1060.59 88.3686 1060.59 88.3686L1063.63 95.5334L1075.7 100.617V315.012H1078.27V311.171H1085.28V307.038H1104.45L1107.13 309.579V315.012H1111.08V307.038H1115.38L1117.36 194.832H1113.14V191.606H1117.36L1120.34 182.172H1117.36V179.849H1123.67V165.272L1128.48 160.335V119.039L1126.55 115.331V111.342H1131.52V103.072L1128.48 100.617V92.1767H1134.3L1153.45 34.7492L1174.1 92.1767H1179.38V100.617L1177.07 103.072V112.371H1183.23V117.029H1179.38V157.407L1188.87 175.235V179.849H1192.16V182.172H1188.87L1192.16 191.606H1194.96V194.832H1192.16V228.678L1214.29 222.144L1219.09 228.678H1221.28V194.832H1223.98V165.272H1234.46V145.764H1256.78V142.335H1257.51V139.696H1244.86V137.681H1272.13V138.9H1260.98V142.098H1261.88V146.009L1308.33 144.714L1340.09 152.564V166.26L1346.05 167.373V49.2668L1355.67 47.4665L1354.79 44.192L1391.05 38.8958L1433.06 34.7492L1459.83 40.595V51.069L1482.68 55.7996L1483.7 274.245H1501.99V307.038H1505.13L1504.29 150.059H1520.76L1521.59 144.714H1530.3L1536.68 147.143V137.681H1538.23V107.462L1553.45 99.7137L1584.65 92.1767V70.641L1611.64 59.661L1704.94 52.8429V17.5994L1734.08 12.8393L1763.51 19.0685V54.9458L1826.33 53.6679L1850.86 59.661L1851.97 165.272H1916.08V96.4644L1975.99 87.1358H1987.39V86.0493H1978.75V84.0749H1988.26V74.4719C1988.26 74.4719 1985.96 73.5608 1985.96 71.2607C1985.96 68.9606 1988.26 68.7677 1988.26 68.7677V63.3395H1986.94V60.6567H1989.58L1990.07 21.0234H1990.84L1992.61 60.6567H1995.11V62.7909H1992.61V68.7677C1992.61 68.7677 1994.71 69.953 1994.54 71.8493C1994.39 73.7454 1992.08 75.0675 1992.08 75.0675V83.5095L1994.54 84.705V86.0493H1993.54V88.3686H1995.77L2079.7 92.1767V214.68H2090.21L2100.37 219.839V228.678H2096.86V232.752L2104.55 234.897V301.608H2118.05V279.506H2122.15V261.837H2162.9L2185.37 264.342V283.778H2203.52V294.011H2215.84V437.837H-24.0801V373.629Z" fill="black"/>
<path fill-rule="evenodd" clip-rule="evenodd" d="M2096.92 373.629H2104.2V361.677H2121.83V328.833H2128.37V319.95L2125.38 313.328H2197.25V283.778H2215.9H2234.21V274.245H2236.55V270.159H2245.64V257.307H2252.46V247.325H2256.97L2259.11 165.272L2337.89 175.235V103.072H2358.49V85.1703L2388.91 81.1746L2445.93 89.625V103.072L2448.39 105.837H2466.99V5.7397L2484.12 2.11198L2523.93 5.7397L2531.93 2.11198C2531.93 2.11198 2549.77 -0.580599 2557.92 0.114722C2566.06 0.810041 2574.42 5.7397 2574.42 5.7397V44.192L2594.53 59.661L2604.1 61.6706L2606.04 87.1358C2606.04 87.1358 2610.8 87.4074 2613.16 88.3686C2615.53 89.33 2618.42 92.1767 2618.42 92.1767L2616.51 131.999L2624.69 130.385L2634.32 134.84L2637.73 162.666H2650.13L2658.86 131.999H2663.15V115.331L2672.09 107.462L2757.27 111.342L2782.15 120.873V228.678H2786.75V128.213H2796.08V107.462L2902.69 105.837L2923.39 115.331V128.213L2932.59 131.999V68.7677L2993.92 63.458V59.661L3027.07 57.4515V61.6706L3074.77 70.641V152.564H3084.51V111.342H3114.62V92.1767H3137.65L3147.09 79.2153C3147.09 79.2153 3153.2 75.6765 3166.54 79.2153C3179.88 82.7541 3181.59 88.3686 3181.59 88.3686L3184.63 95.5334L3196.7 100.617V315.012H3199.27V311.171H3206.28V307.038H3225.45L3228.13 309.579V315.012H3232.08V307.038H3236.38L3238.36 194.832H3234.14V191.606H3238.36L3241.34 182.172H3238.36V179.849H3244.67V165.272L3249.48 160.335V119.039L3247.55 115.331V111.342H3252.52V103.072L3249.48 100.617V92.1767H3255.3L3274.45 34.7492L3295.1 92.1767H3300.38V100.617L3298.07 103.072V112.371H3304.23V117.029H3300.38V157.407L3309.87 175.235V179.849H3313.16V182.172H3309.87L3313.16 191.606H3315.96V194.832H3313.16V228.678L3335.29 222.144L3340.09 228.678H3342.28V194.832H3344.98V165.272H3355.46V145.764H3377.78V142.335H3378.51V139.696H3365.86V137.681H3393.13V138.9H3381.98V142.098H3382.88V146.009L3429.33 144.714L3461.09 152.564V166.26L3467.05 167.373V49.2668L3476.67 47.4665L3475.79 44.192L3512.05 38.8958L3554.06 34.7492L3580.83 40.595V51.069L3603.68 55.7996L3604.7 274.245H3622.99V307.038H3626.13L3625.29 150.059H3641.76L3642.59 144.714H3651.3L3657.68 147.143V137.681H3659.23V107.462L3674.45 99.7137L3705.65 92.1767V70.641L3732.64 59.661L3825.94 52.8429V17.5994L3855.08 12.8393L3884.51 19.0685V54.9458L3947.33 53.6679L3971.86 59.661L3972.97 165.272H4037.08V96.4644L4096.99 87.1358H4108.39V86.0493H4099.75V84.0749H4109.26V74.4719C4109.26 74.4719 4106.96 73.5608 4106.96 71.2607C4106.96 68.9606 4109.26 68.7677 4109.26 68.7677V63.3395H4107.94V60.6567H4110.58L4111.07 21.0234H4111.84L4113.61 60.6567H4116.11V62.7909H4113.61V68.7677C4113.61 68.7677 4115.71 69.953 4115.54 71.8493C4115.39 73.7454 4113.08 75.0675 4113.08 75.0675V83.5095L4115.54 84.705V86.0493H4114.54V88.3686H4116.77L4200.7 92.1767V214.68H4211.21L4221.37 219.839V228.678H4217.86V232.752L4225.55 234.897V301.608H4239.05V279.506H4243.15V261.837H4283.9L4306.37 264.342V283.778H4324.52V294.011H4336.84V437.837H2096.92V373.629Z" fill="black"/>
</g>
</g>
<defs>
<clipPath id="clip0_32_4069">
<rect width="4337" height="342" fill="white"/>
</clipPath>
</defs>
</svg>
