<svg width="150" height="159" viewBox="0 0 150 159" fill="none" xmlns="http://www.w3.org/2000/svg">
<path d="M76.0165 0.96984C134.715 -2.25831 113.436 43.7462 129.029 68.1095C144.623 92.4727 159.65 108.493 127.317 133.925C94.9843 159.358 58.0822 166.874 44.639 145.872C34.4226 129.911 19.0232 104.521 23.3093 84.7244C27.5955 64.9275 9.8011 74.1441 6.52916 51.3687C11.5923 33.5219 29.0574 3.55237 76.0165 0.96984Z" fill="#3D9922"/>
<path d="M53 70C53 60.0589 61.0589 52 71 52H89C98.9411 52 107 60.0589 107 70V93H53V70Z" fill="white" stroke="#1A3185" stroke-width="2"/>
<path d="M32.806 137L23.2407 93H135.759L126.194 137H32.806Z" fill="white" stroke="#1A3185" stroke-width="2"/>
<rect x="12" y="87" width="134" height="12" rx="4" fill="white" stroke="#1A3185" stroke-width="2"/>
<rect x="42" y="107" width="74" height="21" rx="4" fill="white" stroke="#1A3185" stroke-width="2"/>
<path d="M70 43H90V52.5987L80 63.0533L70 52.5987V43Z" fill="white" stroke="#1A3185" stroke-width="2"/>
<path d="M64 29.5C64 20.9396 70.9396 14 79.5 14C88.0604 14 95 20.9396 95 29.5V34.5C95 43.0604 88.0604 50 79.5 50C70.9396 50 64 43.0604 64 34.5V29.5Z" fill="white" stroke="#1A3185" stroke-width="2"/>
<path d="M64 32C68.2246 30.1667 75.5 24 72.9798 16C66.5 18 64 22 64 32Z" fill="#1A3185" stroke="#1A3185" stroke-width="2"/>
<path d="M95.0004 33.4995C88.955 32.9784 67.0284 24.4543 73.0009 15.4997C88.5 9.99928 95.5008 22.4993 95.0004 33.4995Z" fill="#1A3185" stroke="#1A3185" stroke-width="2"/>
<rect x="24.5" y="82.5" width="23" height="4" rx="2" fill="#1A3185" stroke="#1A3185"/>
<rect x="115.5" y="82.5" width="23" height="4" rx="2" fill="#1A3185" stroke="#1A3185"/>
<path d="M34.1229 85C34.1237 76.9474 32.884 61.0316 38.2545 59.8947C43.6249 58.7579 45.6558 58.1579 46 58" stroke="#1A3185" stroke-width="2"/>
<rect x="41.0987" y="55.6067" width="8.59051" height="6" rx="3" transform="rotate(-6.61125 41.0987 55.6067)" fill="#12266F" stroke="#1A3185" stroke-width="2"/>
<path d="M127.309 85.4912C127.308 77.4386 128.548 61.5228 123.177 60.3859C117.807 59.2491 115.776 58.6491 115.432 58.4912" stroke="#1A3185" stroke-width="2"/>
<rect x="-1.10848" y="0.878218" width="8.59051" height="6" rx="3" transform="matrix(-0.99335 -0.115132 -0.115132 0.99335 119.333 55.0979)" fill="#12266F" stroke="#1A3185" stroke-width="2"/>
<mask id="path-16-inside-1_53_1887" fill="white">
<path d="M81.7157 77.449L77.6152 73.2243L75.2299 80.4279L81.7157 77.449Z"/>
</mask>
<path d="M81.7157 77.449L77.6152 73.2243L75.2299 80.4279L81.7157 77.449Z" fill="#1A3185"/>
<path d="M77.6152 73.2243L78.3352 72.5303L77.1832 71.3434L76.6639 72.9114L77.6152 73.2243ZM81.7157 77.449L82.1351 78.3556L83.4175 77.7666L82.4357 76.755L81.7157 77.449ZM75.2299 80.4279L74.2786 80.115L73.5565 82.2957L75.6493 81.3345L75.2299 80.4279ZM76.8952 73.9183L80.9957 78.143L82.4357 76.755L78.3352 72.5303L76.8952 73.9183ZM81.2963 76.5424L74.8105 79.5213L75.6493 81.3345L82.1351 78.3556L81.2963 76.5424ZM76.1811 80.7408L78.5665 73.5372L76.6639 72.9114L74.2786 80.115L76.1811 80.7408Z" fill="#1A3185" mask="url(#path-16-inside-1_53_1887)"/>
<mask id="path-18-inside-2_53_1887" fill="white">
<path fill-rule="evenodd" clip-rule="evenodd" d="M104.1 58.2128L97.6547 51.5712L132.19 18.2936L138.636 24.9352L104.1 58.2128ZM138.638 24.9277L132.195 18.2902L135.698 16.618C136.475 16.2467 137.404 16.4129 138.004 17.0306L140.096 19.1857C140.695 19.8034 140.831 20.734 140.432 21.496L138.638 24.9277ZM104.096 58.2198L97.6505 51.579L78.2239 72.634L82.3254 76.86L104.096 58.2198Z"/>
</mask>
<path fill-rule="evenodd" clip-rule="evenodd" d="M104.1 58.2128L97.6547 51.5712L132.19 18.2936L138.636 24.9352L104.1 58.2128ZM138.638 24.9277L132.195 18.2902L135.698 16.618C136.475 16.2467 137.404 16.4129 138.004 17.0306L140.096 19.1857C140.695 19.8034 140.831 20.734 140.432 21.496L138.638 24.9277ZM104.096 58.2198L97.6505 51.579L78.2239 72.634L82.3254 76.86L104.096 58.2198Z" fill="white"/>
<path d="M97.6547 51.5712L96.262 50.1359L94.8216 51.5238L96.2147 52.9591L97.6547 51.5712ZM104.1 58.2128L102.66 59.6007L104.053 61.0358L105.493 59.6482L104.1 58.2128ZM132.19 18.2936L133.63 16.9057L132.237 15.4706L130.797 16.8582L132.19 18.2936ZM138.636 24.9352L140.029 26.3705L141.469 24.9826L140.076 23.5473L138.636 24.9352ZM132.195 18.2902L131.33 16.4897L128.822 17.6867L130.755 19.6782L132.195 18.2902ZM138.638 24.9277L137.198 26.3157L139.13 28.3065L140.414 25.8506L138.638 24.9277ZM135.698 16.618L134.832 14.8174L134.832 14.8174L135.698 16.618ZM138.004 17.0306L139.444 15.6427L139.444 15.6427L138.004 17.0306ZM140.096 19.1857L138.656 20.5736L138.656 20.5736L140.096 19.1857ZM140.432 21.496L142.209 22.419L140.432 21.496ZM97.6505 51.579L99.0906 50.1911L97.6135 48.6692L96.1756 50.2276L97.6505 51.579ZM104.096 58.2198L105.401 59.7342L107.013 58.3542L105.536 56.8319L104.096 58.2198ZM78.2239 72.634L76.749 71.2826L75.4703 72.6685L76.7839 74.022L78.2239 72.634ZM82.3254 76.86L80.8854 78.2479L82.1986 79.601L83.6312 78.3744L82.3254 76.86ZM96.2147 52.9591L102.66 59.6007L105.541 56.8249L99.0948 50.1833L96.2147 52.9591ZM130.797 16.8582L96.262 50.1359L99.0475 53.0066L133.583 19.7289L130.797 16.8582ZM140.076 23.5473L133.63 16.9057L130.75 19.6814L137.196 26.323L140.076 23.5473ZM105.493 59.6482L140.029 26.3705L137.243 23.4998L102.708 56.7775L105.493 59.6482ZM130.755 19.6782L137.198 26.3157L140.078 23.5398L133.635 16.9023L130.755 19.6782ZM134.832 14.8174L131.33 16.4897L133.061 20.0908L136.564 18.4185L134.832 14.8174ZM139.444 15.6427C138.245 14.4072 136.387 14.0749 134.832 14.8174L136.564 18.4185L136.564 18.4186L139.444 15.6427ZM141.536 17.7977L139.444 15.6427L136.564 18.4186L138.656 20.5736L141.536 17.7977ZM142.209 22.419C143.006 20.8948 142.735 19.0332 141.536 17.7977L138.656 20.5736L138.656 20.5731L142.209 22.419ZM140.414 25.8506L142.209 22.419L138.656 20.5731L136.861 24.0048L140.414 25.8506ZM96.2105 52.9669L102.656 59.6077L105.536 56.8319L99.0906 50.1911L96.2105 52.9669ZM79.6988 73.9855L99.1254 52.9304L96.1756 50.2276L76.749 71.2826L79.6988 73.9855ZM83.7654 75.4721L79.6639 71.2461L76.7839 74.022L80.8854 78.2479L83.7654 75.4721ZM102.79 56.7054L81.0197 75.3456L83.6312 78.3744L105.401 59.7342L102.79 56.7054Z" fill="#1A3185" mask="url(#path-18-inside-2_53_1887)"/>
<path d="M136.454 25.4949L138.613 24.8427L139.763 28.5097L137.671 29.5122L136.454 25.4949Z" fill="#1A3185"/>
<path d="M121.888 45.7373C121.387 46.2205 120.587 46.2071 120.102 45.7074C119.617 45.2076 119.63 44.4108 120.132 43.9276L138.009 26.6999L139.765 28.5095L121.888 45.7373Z" fill="#1A3185"/>
<rect x="1.41647" y="0.0237324" width="3.04927" height="7.24609" transform="matrix(0.720062 -0.69391 0.696412 0.717642 98.0353 52.5686)" stroke="#1A3185" stroke-width="2"/>
<rect x="1.41647" y="0.0237324" width="3.04927" height="7.24609" transform="matrix(0.720062 -0.69391 0.696412 0.717643 100.46 50.2326)" stroke="#1A3185" stroke-width="2"/>
</svg>
