<svg width="148" height="146" viewBox="0 0 148 146" fill="none" xmlns="http://www.w3.org/2000/svg">
<path d="M19.5598 133.364C-31.6191 104.438 33.8137 90.1254 33.8145 61.1992C33.8152 32.273 29.7955 10.6793 70.7381 6.6895C111.681 2.69974 146.813 16.2631 146.814 41.1992C146.814 60.1501 146.096 89.8361 131.814 104.199C117.531 118.562 114.777 107.431 105.255 128.377C91.3695 140.679 60.503 156.505 19.5598 133.364Z" fill="#3D9922"/>
<path d="M53 65C53 55.0589 61.0589 47 71 47H89C98.9411 47 107 55.0589 107 65V88H53V65Z" fill="white" stroke="#1A3185" stroke-width="2"/>
<path d="M32.806 132L23.2407 88H135.759L126.194 132H32.806Z" fill="white" stroke="#1A3185" stroke-width="2"/>
<rect x="12" y="82" width="134" height="12" rx="4" fill="white" stroke="#1A3185" stroke-width="2"/>
<rect x="42" y="102" width="74" height="21" rx="4" fill="white" stroke="#1A3185" stroke-width="2"/>
<path d="M70 38H90V47.5987L80 58.0533L70 47.5987V38Z" fill="white" stroke="#1A3185" stroke-width="2"/>
<path d="M64 24.5C64 15.9396 70.9396 9 79.5 9C88.0604 9 95 15.9396 95 24.5V29.5C95 38.0604 88.0604 45 79.5 45C70.9396 45 64 38.0604 64 29.5V24.5Z" fill="white" stroke="#1A3185" stroke-width="2"/>
<path d="M64 27C68.2246 25.1667 75.5 19 72.9798 11C66.5 13 64 17 64 27Z" fill="#1A3185" stroke="#1A3185" stroke-width="2"/>
<path d="M95.0004 28.4995C88.955 27.9784 67.0284 19.4543 73.0009 10.4997C88.5 4.99928 95.5008 17.4993 95.0004 28.4995Z" fill="#1A3185" stroke="#1A3185" stroke-width="2"/>
<rect x="24.5" y="77.5" width="23" height="4" rx="2" fill="#1A3185" stroke="#1A3185"/>
<rect x="115.5" y="77.5" width="23" height="4" rx="2" fill="#1A3185" stroke="#1A3185"/>
<path d="M34.1229 80C34.1237 71.9474 32.884 56.0316 38.2545 54.8947C43.6249 53.7579 45.6558 53.1579 46 53" stroke="#1A3185" stroke-width="2"/>
<rect x="41.0987" y="50.6067" width="8.59051" height="6" rx="3" transform="rotate(-6.61125 41.0987 50.6067)" fill="#12266F" stroke="#1A3185" stroke-width="2"/>
<path d="M127.309 80.4912C127.308 72.4386 128.548 56.5228 123.177 55.3859C117.807 54.2491 115.776 53.6491 115.432 53.4912" stroke="#1A3185" stroke-width="2"/>
<rect x="-1.10848" y="0.878218" width="8.59051" height="6" rx="3" transform="matrix(-0.99335 -0.115132 -0.115132 0.99335 119.333 50.0979)" fill="#12266F" stroke="#1A3185" stroke-width="2"/>
<path d="M18.6421 31.3931C17.0025 29.8482 16.4572 29.3343 16.9752 31.771C16.1414 27.8487 15.7741 22.0694 16.9748 19.764C18.4756 16.8824 21.3665 15.7353 23.7562 14.2408C28.0086 11.5815 26.7303 1.49581 32.9838 1.01553C39.2373 0.535251 34.012 11.3414 34.012 13.2625C38.3477 12.7021 43.7675 13.5025 44.5179 16.1441C45.1726 18.4488 43.7858 19.4543 42.3916 19.7128C44.1416 19.7703 45.8272 20.5076 45.9911 22.868C46.162 25.3293 43.8512 25.8182 41.6147 25.8087C43.1147 26.1538 44.5179 27.5757 44.5179 29.1116C44.5179 31.5315 42.7633 32.0451 40.9045 31.986C41.9429 32.3679 42.8608 33.2663 42.7393 35.133C42.673 36.1506 42.2394 36.8083 41.3268 37.2329C33.8757 40.6998 24.6283 37.0338 18.6471 31.3979L18.6421 31.3931Z" fill="white"/>
<path d="M18.6421 31.3931L19.3279 30.6653L19.3279 30.6653L18.6421 31.3931ZM18.6471 31.3979L17.9613 32.1256L17.9614 32.1257L18.6471 31.3979ZM41.3268 37.2329L40.905 36.3263H40.905L41.3268 37.2329ZM42.7393 35.133L41.7414 35.068L42.7393 35.133ZM38.9872 31.771L38.868 30.7781L38.8182 32.7566L38.9872 31.771ZM40.488 25.7676L40.3161 24.7825L40.4241 26.7656L40.488 25.7676ZM45.9911 22.868L46.9887 22.7987L45.9911 22.868ZM41.2384 19.764L41.124 18.7706L41.1379 20.759L41.2384 19.764ZM44.5179 16.1441L43.5559 16.4174L44.5179 16.1441ZM34.012 13.2625H33.012V14.4L34.1401 14.2542L34.012 13.2625ZM32.9838 1.01553L32.9072 0.0184644L32.9838 1.01553ZM23.7562 14.2408L24.2864 15.0886L23.7562 14.2408ZM16.9748 19.764L17.8617 20.226L16.9748 19.764ZM17.9533 31.5631C17.8911 31.2705 17.8476 31.0349 17.8204 30.8478C17.7924 30.6555 17.7856 30.5407 17.7864 30.4812C17.7869 30.4528 17.7889 30.4561 17.7841 30.4808C17.7799 30.5027 17.7638 30.5774 17.7096 30.6717C17.6508 30.774 17.5457 30.9001 17.3778 30.9894C17.211 31.078 17.0505 31.094 16.9382 31.0871C16.834 31.0807 16.765 31.0549 16.7444 31.0466C16.721 31.0372 16.7173 31.0331 16.7372 31.0452C16.7795 31.071 16.8563 31.1257 16.978 31.2268C17.222 31.4296 17.5371 31.7259 17.9563 32.1209L19.3279 30.6653C18.9273 30.2878 18.5594 29.9406 18.2562 29.6886C18.1043 29.5623 17.9415 29.437 17.778 29.3373C17.6393 29.2528 17.3809 29.1105 17.0609 29.0908C16.8794 29.0797 16.6582 29.1069 16.4391 29.2234C16.219 29.3404 16.0701 29.5108 15.9757 29.6748C15.8098 29.9635 15.7893 30.2717 15.7867 30.4523C15.781 30.8472 15.8679 31.3713 15.997 31.979L17.9533 31.5631ZM17.9562 32.1208L17.9613 32.1256L19.333 30.6701L19.3279 30.6653L17.9562 32.1208ZM41.7487 38.1396C42.3326 37.8679 42.8277 37.4899 43.1814 36.9616C43.5335 36.4357 43.6957 35.8349 43.7372 35.1979L41.7414 35.068C41.7166 35.4487 41.6288 35.6856 41.5194 35.8491C41.4116 36.0102 41.2336 36.1734 40.905 36.3263L41.7487 38.1396ZM43.7372 35.1979C43.8096 34.0851 43.5753 33.1627 43.0836 32.4401C42.5961 31.7237 41.9163 31.2926 41.2496 31.0475L40.5594 32.9246C40.9312 33.0613 41.2294 33.2703 41.4301 33.5653C41.6266 33.854 41.7905 34.3142 41.7414 35.068L43.7372 35.1979ZM41.2496 31.0475C40.401 30.7354 39.5152 30.7005 38.868 30.7781L39.1063 32.7639C39.507 32.7158 40.065 32.7428 40.5594 32.9246L41.2496 31.0475ZM38.8182 32.7566C39.443 32.8638 40.1568 32.9628 40.8727 32.9855L40.9363 30.9865C40.3524 30.968 39.741 30.8857 39.1561 30.7854L38.8182 32.7566ZM40.8727 32.9855C41.8665 33.0171 43.0156 32.9087 43.942 32.3241C44.9537 31.6855 45.5179 30.6005 45.5179 29.1116H43.5179C43.5179 30.0426 43.2048 30.4243 42.8745 30.6328C42.4588 30.8951 41.8012 31.014 40.9363 30.9865L40.8727 32.9855ZM45.5179 29.1116C45.5179 28.0372 45.031 27.0675 44.3679 26.34C43.7043 25.6119 42.8035 25.0561 41.8389 24.8342L41.3905 26.7833C41.926 26.9064 42.4767 27.2341 42.8897 27.6872C43.3032 28.1409 43.5179 28.6502 43.5179 29.1116H45.5179ZM41.8389 24.8342C41.3503 24.7218 40.8323 24.6924 40.3161 24.7825L40.66 26.7527C40.8795 26.7144 41.1264 26.7225 41.3905 26.7833L41.8389 24.8342ZM40.4241 26.7656C40.8033 26.7898 41.2037 26.807 41.6105 26.8087L41.6189 24.8087C41.2617 24.8072 40.9025 24.7921 40.5519 24.7697L40.4241 26.7656ZM41.6105 26.8087C42.7628 26.8136 44.1028 26.6979 45.162 26.1547C45.7114 25.8729 46.215 25.4611 46.5586 24.8694C46.9038 24.2751 47.0427 23.5765 46.9887 22.7987L44.9935 22.9373C45.0249 23.3901 44.9391 23.6756 44.8292 23.865C44.7177 24.0569 44.5358 24.2282 44.2493 24.3751C43.6367 24.6893 42.7031 24.8133 41.6189 24.8087L41.6105 26.8087ZM46.9887 22.7987C46.8889 21.3623 46.3041 20.3028 45.3791 19.6216C44.4945 18.9701 43.4092 18.7457 42.4244 18.7134L42.3587 20.7123C43.124 20.7375 43.7565 20.9104 44.1931 21.232C44.5894 21.5239 44.9293 22.0133 44.9935 22.9373L46.9887 22.7987ZM42.4244 18.7134C41.9817 18.6988 41.5424 18.7224 41.124 18.7706L41.3529 20.7575C41.6886 20.7188 42.0285 20.7015 42.3587 20.7123L42.4244 18.7134ZM41.1379 20.759C41.585 20.8041 42.0806 20.7876 42.5739 20.6961L42.2092 18.7296C41.903 18.7864 41.5979 18.7953 41.339 18.7691L41.1379 20.759ZM42.5739 20.6961C43.4163 20.5399 44.3755 20.139 45.0162 19.3049C45.69 18.4275 45.8729 17.2543 45.4798 15.8708L43.5559 16.4174C43.8176 17.3385 43.6344 17.8204 43.43 18.0867C43.1923 18.3961 42.7611 18.6273 42.2092 18.7296L42.5739 20.6961ZM45.4798 15.8708C45.2049 14.9032 44.5222 14.1811 43.71 13.6593C42.8998 13.1388 41.8975 12.774 40.8347 12.5283C38.7078 12.0365 36.1469 11.9782 33.8838 12.2707L34.1401 14.2542C36.2128 13.9864 38.5297 14.0481 40.3842 14.4769C41.3121 14.6914 42.0764 14.987 42.629 15.342C43.1795 15.6957 43.4556 16.0642 43.5559 16.4174L45.4798 15.8708ZM35.012 13.2625C35.012 13.1763 35.0541 12.9223 35.189 12.4284C35.3143 11.9694 35.4879 11.4111 35.6866 10.7647C36.077 9.49452 36.5524 7.92487 36.8268 6.4176C37.0932 4.95408 37.2134 3.34279 36.7113 2.08552C36.4459 1.42067 35.9979 0.833873 35.3093 0.451047C34.6341 0.075693 33.8209 -0.0517102 32.9072 0.0184644L33.0604 2.01259C33.71 1.9627 34.1016 2.06792 34.3375 2.19911C34.5601 2.32282 34.7299 2.51646 34.8539 2.82716C35.131 3.52099 35.1173 4.64125 34.8591 6.05936C34.6089 7.43372 34.1687 8.89579 33.7749 10.177C33.5814 10.8064 33.3956 11.4038 33.2596 11.9015C33.1332 12.3644 33.012 12.8684 33.012 13.2625H35.012ZM32.9072 0.0184644C31.0249 0.163032 29.6877 1.05145 28.7145 2.29402C27.776 3.49224 27.1729 5.02258 26.6731 6.48826C26.1522 8.01577 25.75 9.44349 25.1953 10.7219C24.6467 11.9861 24.0312 12.8894 23.226 13.3929L24.2864 15.0886C25.6074 14.2625 26.4268 12.9079 27.03 11.5181C27.6269 10.1425 28.0933 8.52013 28.5661 7.13378C29.0599 5.68559 29.5755 4.43825 30.289 3.52723C30.9678 2.66055 31.816 2.10816 33.0604 2.01259L32.9072 0.0184644ZM23.226 13.3929C22.6491 13.7537 22.0458 14.0912 21.4009 14.4622C20.7666 14.8271 20.1046 15.2176 19.4645 15.659C18.1779 16.5462 16.9401 17.6658 16.0879 19.3021L17.8617 20.226C18.5103 18.9806 19.4684 18.0858 20.5999 17.3054C21.1688 16.9131 21.7714 16.5564 22.3982 16.1958C23.0143 15.8414 23.6685 15.4751 24.2864 15.0886L23.226 13.3929ZM16.0879 19.3021C15.7096 20.0285 15.4874 20.9545 15.3595 21.9313C15.2298 22.9227 15.1886 24.0366 15.2123 25.1818C15.2596 27.4709 15.5676 29.959 15.997 31.979L17.9533 31.5631C17.5489 29.6608 17.2564 27.2981 17.2118 25.1405C17.1896 24.0624 17.2296 23.0541 17.3426 22.1909C17.4575 21.3132 17.6397 20.6523 17.8617 20.226L16.0879 19.3021ZM17.9614 32.1257C24.075 37.8864 33.7564 41.8582 41.7487 38.1396L40.905 36.3263C33.995 39.5413 25.1817 36.1812 19.3329 30.6701L17.9614 32.1257Z" fill="#1A3185"/>
<path d="M14 15.5103H20.0045V36.6373L14 34.7494V15.5103Z" fill="white" stroke="#1A3185" stroke-width="2"/>
<path d="M142.358 14.6069C143.997 16.1518 144.543 16.6657 144.025 14.229C144.859 18.1513 145.226 23.9306 144.025 26.236C142.524 29.1176 139.634 30.2647 137.244 31.7592C132.991 34.4185 134.27 44.5042 128.016 44.9845C121.763 45.4647 126.988 34.6586 126.988 32.7375C122.652 33.2979 117.233 32.4975 116.482 29.8559C115.827 27.5512 117.214 26.5457 118.608 26.2872C116.858 26.2297 115.173 25.4924 115.009 23.132C114.838 20.6707 117.149 20.1818 119.385 20.1913C117.885 19.8462 116.482 18.4243 116.482 16.8884C116.482 14.4685 118.237 13.9549 120.096 14.014C119.057 13.6321 118.139 12.7337 118.261 10.867C118.327 9.8494 118.761 9.19167 119.673 8.76707C127.124 5.30021 136.372 8.96619 142.353 14.6021L142.358 14.6069Z" fill="white"/>
<path d="M142.358 14.6069L141.672 15.3347L141.672 15.3347L142.358 14.6069ZM142.353 14.6021L143.039 13.8744L143.039 13.8743L142.353 14.6021ZM119.673 8.76707L120.095 9.67374H120.095L119.673 8.76707ZM118.261 10.867L119.259 10.932L118.261 10.867ZM122.013 14.229L122.132 15.2219L122.182 13.2434L122.013 14.229ZM120.512 20.2324L120.684 21.2175L120.576 19.2344L120.512 20.2324ZM115.009 23.132L114.011 23.2013L115.009 23.132ZM119.762 26.236L119.876 27.2294L119.862 25.241L119.762 26.236ZM116.482 29.8559L117.444 29.5826L116.482 29.8559ZM126.988 32.7375H127.988V31.6L126.86 31.7458L126.988 32.7375ZM128.016 44.9845L128.093 45.9815L128.016 44.9845ZM137.244 31.7592L136.714 30.9114L137.244 31.7592ZM144.025 26.236L143.138 25.774L144.025 26.236ZM143.047 14.4369C143.109 14.7295 143.152 14.9651 143.18 15.1522C143.208 15.3445 143.214 15.4593 143.214 15.5188C143.213 15.5472 143.211 15.5439 143.216 15.5192C143.22 15.4973 143.236 15.4226 143.29 15.3283C143.349 15.226 143.454 15.0999 143.622 15.0106C143.789 14.922 143.949 14.906 144.062 14.9129C144.166 14.9193 144.235 14.9451 144.256 14.9534C144.279 14.9628 144.283 14.9669 144.263 14.9548C144.221 14.929 144.144 14.8743 144.022 14.7732C143.778 14.5704 143.463 14.2741 143.044 13.8791L141.672 15.3347C142.073 15.7122 142.441 16.0594 142.744 16.3114C142.896 16.4377 143.059 16.563 143.222 16.6627C143.361 16.7472 143.619 16.8895 143.939 16.9092C144.121 16.9203 144.342 16.8931 144.561 16.7766C144.781 16.6596 144.93 16.4892 145.024 16.3252C145.19 16.0365 145.211 15.7283 145.213 15.5477C145.219 15.1528 145.132 14.6287 145.003 14.021L143.047 14.4369ZM143.044 13.8792L143.039 13.8744L141.667 15.3299L141.672 15.3347L143.044 13.8792ZM119.251 7.8604C118.667 8.13209 118.172 8.51007 117.819 9.03837C117.466 9.56434 117.304 10.1651 117.263 10.8021L119.259 10.932C119.283 10.5513 119.371 10.3144 119.481 10.1509C119.588 9.98983 119.766 9.82664 120.095 9.67374L119.251 7.8604ZM117.263 10.8021C117.19 11.9149 117.425 12.8373 117.916 13.5599C118.404 14.2763 119.084 14.7074 119.75 14.9525L120.441 13.0754C120.069 12.9387 119.771 12.7297 119.57 12.4347C119.373 12.146 119.21 11.6858 119.259 10.932L117.263 10.8021ZM119.75 14.9525C120.599 15.2646 121.485 15.2995 122.132 15.2219L121.894 13.2361C121.493 13.2842 120.935 13.2572 120.441 13.0754L119.75 14.9525ZM122.182 13.2434C121.557 13.1362 120.843 13.0372 120.127 13.0145L120.064 15.0135C120.648 15.032 121.259 15.1143 121.844 15.2146L122.182 13.2434ZM120.127 13.0145C119.133 12.9829 117.984 13.0913 117.058 13.6759C116.046 14.3145 115.482 15.3995 115.482 16.8884H117.482C117.482 15.9574 117.795 15.5757 118.126 15.3672C118.541 15.1049 119.199 14.986 120.064 15.0135L120.127 13.0145ZM115.482 16.8884C115.482 17.9628 115.969 18.9325 116.632 19.66C117.296 20.3881 118.197 20.9439 119.161 21.1658L119.609 19.2167C119.074 19.0936 118.523 18.7659 118.11 18.3128C117.697 17.8591 117.482 17.3498 117.482 16.8884H115.482ZM119.161 21.1658C119.65 21.2782 120.168 21.3076 120.684 21.2175L120.34 19.2473C120.12 19.2856 119.874 19.2775 119.609 19.2167L119.161 21.1658ZM120.576 19.2344C120.197 19.2102 119.796 19.193 119.39 19.1913L119.381 21.1913C119.738 21.1928 120.098 21.2079 120.448 21.2303L120.576 19.2344ZM119.39 19.1913C118.237 19.1864 116.897 19.3021 115.838 19.8453C115.289 20.1271 114.785 20.5389 114.441 21.1306C114.096 21.7249 113.957 22.4235 114.011 23.2013L116.007 23.0627C115.975 22.6099 116.061 22.3244 116.171 22.135C116.282 21.9431 116.464 21.7718 116.751 21.6249C117.363 21.3107 118.297 21.1867 119.381 21.1913L119.39 19.1913ZM114.011 23.2013C114.111 24.6377 114.696 25.6972 115.621 26.3784C116.505 27.0299 117.591 27.2543 118.576 27.2866L118.641 25.2877C117.876 25.2625 117.244 25.0896 116.807 24.768C116.411 24.4761 116.071 23.9867 116.007 23.0627L114.011 23.2013ZM118.576 27.2866C119.018 27.3012 119.458 27.2776 119.876 27.2294L119.647 25.2425C119.311 25.2812 118.972 25.2985 118.641 25.2877L118.576 27.2866ZM119.862 25.241C119.415 25.1959 118.919 25.2124 118.426 25.3039L118.791 27.2704C119.097 27.2136 119.402 27.2047 119.661 27.2309L119.862 25.241ZM118.426 25.3039C117.584 25.4601 116.624 25.861 115.984 26.6951C115.31 27.5725 115.127 28.7457 115.52 30.1292L117.444 29.5826C117.182 28.6615 117.366 28.1796 117.57 27.9133C117.808 27.6039 118.239 27.3727 118.791 27.2704L118.426 25.3039ZM115.52 30.1292C115.795 31.0968 116.478 31.8189 117.29 32.3407C118.1 32.8612 119.102 33.226 120.165 33.4717C122.292 33.9635 124.853 34.0218 127.116 33.7293L126.86 31.7458C124.787 32.0136 122.47 31.9519 120.616 31.5231C119.688 31.3086 118.924 31.013 118.371 30.658C117.82 30.3043 117.544 29.9358 117.444 29.5826L115.52 30.1292ZM125.988 32.7375C125.988 32.8237 125.946 33.0777 125.811 33.5716C125.686 34.0306 125.512 34.5889 125.313 35.2353C124.923 36.5055 124.448 38.0751 124.173 39.5824C123.907 41.0459 123.787 42.6572 124.289 43.9145C124.554 44.5793 125.002 45.1661 125.691 45.549C126.366 45.9243 127.179 46.0517 128.093 45.9815L127.94 43.9874C127.29 44.0373 126.898 43.9321 126.662 43.8009C126.44 43.6772 126.27 43.4835 126.146 43.1728C125.869 42.479 125.883 41.3587 126.141 39.9406C126.391 38.5663 126.831 37.1042 127.225 35.823C127.419 35.1936 127.604 34.5962 127.74 34.0985C127.867 33.6356 127.988 33.1316 127.988 32.7375H125.988ZM128.093 45.9815C129.975 45.837 131.312 44.9485 132.285 43.706C133.224 42.5078 133.827 40.9774 134.327 39.5117C134.848 37.9842 135.25 36.5565 135.805 35.2781C136.353 34.0139 136.969 33.1106 137.774 32.6071L136.714 30.9114C135.393 31.7375 134.573 33.0921 133.97 34.4819C133.373 35.8575 132.907 37.4799 132.434 38.8662C131.94 40.3144 131.424 41.5617 130.711 42.4728C130.032 43.3394 129.184 43.8918 127.94 43.9874L128.093 45.9815ZM137.774 32.6071C138.351 32.2463 138.954 31.9088 139.599 31.5378C140.233 31.1729 140.895 30.7824 141.536 30.341C142.822 29.4538 144.06 28.3342 144.912 26.6979L143.138 25.774C142.49 27.0194 141.532 27.9142 140.4 28.6946C139.831 29.0869 139.229 29.4436 138.602 29.8042C137.986 30.1586 137.332 30.5249 136.714 30.9114L137.774 32.6071ZM144.912 26.6979C145.29 25.9715 145.513 25.0455 145.64 24.0687C145.77 23.0773 145.811 21.9634 145.788 20.8182C145.74 18.5291 145.432 16.041 145.003 14.021L143.047 14.4369C143.451 16.3392 143.744 18.7019 143.788 20.8595C143.81 21.9376 143.77 22.9459 143.657 23.8091C143.542 24.6868 143.36 25.3477 143.138 25.774L144.912 26.6979ZM143.039 13.8743C136.925 8.11357 127.244 4.14176 119.251 7.8604L120.095 9.67374C127.005 6.45866 135.818 9.81882 141.667 15.3299L143.039 13.8743Z" fill="#1A3185"/>
<path d="M147 30.4897H140.996V9.36266L147 11.2506V30.4897Z" fill="white" stroke="#1A3185" stroke-width="2"/>
</svg>
