<svg width="150" height="154" viewBox="0 0 150 154" fill="none" xmlns="http://www.w3.org/2000/svg">
<path d="M133 25.5686C174.291 67.4133 125.728 81.9349 117.8 109.753C109.872 137.572 107.819 159.44 67.3507 152.056C26.8823 144.672 -3.18771 121.999 3.64629 98.0181C8.84011 79.7929 17.6661 51.4402 35.3382 41.5414C53.0103 31.6426 34.3202 24.4131 49.2188 6.87863C65.9442 -1.1465 99.9662 -7.90718 133 25.5686Z" fill="#FF8600"/>
<mask id="path-2-inside-1_53_1825" fill="white">
<path fill-rule="evenodd" clip-rule="evenodd" d="M47.7825 3C43.2956 3 39.6503 6.6031 39.582 11.0738V85.9997H24V95.3643V95.3646C24 100.066 27.8115 103.878 32.5133 103.878H113.904C113.934 103.878 113.963 103.878 113.993 103.877H114.798C119.327 103.877 122.999 100.206 122.999 95.676V88.7632L122.999 88.7553V18.9424L122.999 18.9345V11.2014C122.999 6.67191 119.327 3 114.798 3H47.7825Z"/>
</mask>
<path fill-rule="evenodd" clip-rule="evenodd" d="M47.7825 3C43.2956 3 39.6503 6.6031 39.582 11.0738V85.9997H24V95.3643V95.3646C24 100.066 27.8115 103.878 32.5133 103.878H113.904C113.934 103.878 113.963 103.878 113.993 103.877H114.798C119.327 103.877 122.999 100.206 122.999 95.676V88.7632L122.999 88.7553V18.9424L122.999 18.9345V11.2014C122.999 6.67191 119.327 3 114.798 3H47.7825Z" fill="white"/>
<path d="M39.582 11.0738L37.5823 11.0432L37.582 11.0585V11.0738H39.582ZM39.582 85.9997V87.9997H41.582V85.9997H39.582ZM24 85.9997V83.9997H22V85.9997H24ZM113.993 103.877V101.877H113.983L113.973 101.878L113.993 103.877ZM122.999 88.7632L120.999 88.7594V88.7632H122.999ZM122.999 88.7553L124.999 88.7592V88.7553H122.999ZM122.999 18.9424H124.999V18.9385L122.999 18.9424ZM122.999 18.9345H120.999V18.9384L122.999 18.9345ZM41.5818 11.1043C41.6334 7.72449 44.39 5 47.7825 5V1C42.2013 1 37.6671 5.48172 37.5823 11.0432L41.5818 11.1043ZM41.582 85.9997V11.0738H37.582V85.9997H41.582ZM24 87.9997H39.582V83.9997H24V87.9997ZM26 95.3643V85.9997H22V95.3643H26ZM26 95.3646V95.3643H22V95.3646H26ZM32.5133 101.878C28.9161 101.878 26 98.9618 26 95.3646H22C22 101.171 26.707 105.878 32.5133 105.878V101.878ZM113.904 101.878H32.5133V105.878H113.904V101.878ZM113.973 101.878C113.95 101.878 113.927 101.878 113.904 101.878V105.878C113.941 105.878 113.977 105.878 114.014 105.877L113.973 101.878ZM114.798 101.877H113.993V105.877H114.798V101.877ZM120.999 95.676C120.999 99.101 118.223 101.877 114.798 101.877V105.877C120.432 105.877 124.999 101.31 124.999 95.676H120.999ZM120.999 88.7632V95.676H124.999V88.7632H120.999ZM120.999 88.7515L120.999 88.7594L124.999 88.7671L124.999 88.7592L120.999 88.7515ZM120.999 18.9424V88.7553H124.999V18.9424H120.999ZM120.999 18.9384L120.999 18.9462L124.999 18.9385L124.999 18.9306L120.999 18.9384ZM120.999 11.2014V18.9345H124.999V11.2014H120.999ZM114.798 5C118.223 5 120.999 7.77648 120.999 11.2014H124.999C124.999 5.56734 120.432 1 114.798 1V5ZM47.7825 5H114.798V1H47.7825V5Z" fill="#1A3185" mask="url(#path-2-inside-1_53_1825)"/>
<path d="M40 87H106.842" stroke="#1A3185" stroke-width="2"/>
<path fill-rule="evenodd" clip-rule="evenodd" d="M108 86H106V88V95.3642V95.3645C106 100.059 109.806 103.877 114.5 103.877C119.194 103.877 123 100.059 123 95.3645V95.3642V88V86H121V88V90.1277V95.3642V95.3642V95.3642V95.3642V95.3643V95.3643V95.3643V95.3643V95.3643V95.3643V95.3643V95.3643V95.3643V95.3643V95.3643V95.3643V95.3643V95.3644V95.3644V95.3644V95.3644V95.3644V95.3644V95.3644V95.3644V95.3644V95.3644V95.3644V95.3644V95.3644V95.3645V95.3645V95.3645V95.3645V95.3645V95.3645V95.3645V95.3645V95.3645C121 98.9583 118.086 101.877 114.5 101.877C110.914 101.877 108 98.9583 108 95.3645V95.3645V95.3645V95.3645V95.3645V95.3645V95.3645V95.3645V95.3645V95.3645V95.3644V95.3644V95.3644V95.3644V95.3644V95.3644V95.3644V95.3644V95.3644V95.3644V95.3644V95.3644V95.3644V95.3643V95.3643V95.3643V95.3643V95.3643V95.3643V95.3643V95.3643V95.3643V95.3643V95.3643V95.3643V95.3643V95.3642V95.3642V95.3642V95.3642V90.1277V88V86Z" fill="#1A3185"/>
<path d="M51 14H105M51 33H105" stroke="#1A3185" stroke-width="2" stroke-linecap="round"/>
<path d="M51 50.5H105M54.5 39H108.5" stroke="#1A3185" stroke-width="2" stroke-linecap="round"/>
<path d="M51 73.5H105M54.5 62H108.5M51 68H87.5M91.5 68H108.5" stroke="#1A3185" stroke-width="2" stroke-linecap="round"/>
<line x1="51" y1="21" x2="62" y2="21" stroke="#1A3185" stroke-width="2" stroke-linecap="round"/>
<line x1="67" y1="21" x2="106" y2="21" stroke="#1A3185" stroke-width="2" stroke-linecap="round"/>
<line x1="59" y1="27" x2="98" y2="27" stroke="#1A3185" stroke-width="2" stroke-linecap="round"/>
<line x1="1" y1="-1" x2="40" y2="-1" transform="matrix(1 0 0 -1 58 78)" stroke="#1A3185" stroke-width="2" stroke-linecap="round"/>
<line x1="1" y1="-1" x2="40" y2="-1" transform="matrix(1 0 0 -1 58 44)" stroke="#1A3185" stroke-width="2" stroke-linecap="round"/>
<line x1="51" y1="27" x2="53" y2="27" stroke="#1A3185" stroke-width="2" stroke-linecap="round"/>
<line x1="1" y1="-1" x2="3" y2="-1" transform="matrix(1 0 0 -1 50 78)" stroke="#1A3185" stroke-width="2" stroke-linecap="round"/>
<line x1="1" y1="-1" x2="3" y2="-1" transform="matrix(1 0 0 -1 50 44)" stroke="#1A3185" stroke-width="2" stroke-linecap="round"/>
<line x1="1" y1="-1" x2="3" y2="-1" transform="matrix(1 0 0 -1 61 56)" stroke="#1A3185" stroke-width="2" stroke-linecap="round"/>
<line x1="102" y1="27" x2="108" y2="27" stroke="#1A3185" stroke-width="2" stroke-linecap="round"/>
<line x1="1" y1="-1" x2="7" y2="-1" transform="matrix(1 0 0 -1 101 78)" stroke="#1A3185" stroke-width="2" stroke-linecap="round"/>
<line x1="1" y1="-1" x2="7" y2="-1" transform="matrix(1 0 0 -1 101 44)" stroke="#1A3185" stroke-width="2" stroke-linecap="round"/>
<line x1="1" y1="-1" x2="7" y2="-1" transform="matrix(1 0 0 -1 50 56)" stroke="#1A3185" stroke-width="2" stroke-linecap="round"/>
<path d="M53 70C53 60.0589 61.0589 52 71 52H89C98.9411 52 107 60.0589 107 70V93H53V70Z" fill="white" stroke="#1A3185" stroke-width="2"/>
<path d="M32.806 137L23.2407 93H135.759L126.194 137H32.806Z" fill="white" stroke="#1A3185" stroke-width="2"/>
<rect x="12" y="87" width="134" height="12" rx="4" fill="white" stroke="#1A3185" stroke-width="2"/>
<rect x="42" y="107" width="74" height="21" rx="4" fill="white" stroke="#1A3185" stroke-width="2"/>
<path d="M70 43H90V52.5987L80 63.0533L70 52.5987V43Z" fill="white" stroke="#1A3185" stroke-width="2"/>
<path d="M64 29.5C64 20.9396 70.9396 14 79.5 14C88.0604 14 95 20.9396 95 29.5V34.5C95 43.0604 88.0604 50 79.5 50C70.9396 50 64 43.0604 64 34.5V29.5Z" fill="white" stroke="#1A3185" stroke-width="2"/>
<path d="M64 32C68.2246 30.1667 75.5 24 72.9798 16C66.5 18 64 22 64 32Z" fill="#1A3185" stroke="#1A3185" stroke-width="2"/>
<path d="M95.0004 33.4995C88.955 32.9784 67.0284 24.4543 73.0009 15.4997C88.5 9.99928 95.5008 22.4993 95.0004 33.4995Z" fill="#1A3185" stroke="#1A3185" stroke-width="2"/>
<rect x="24.5" y="82.5" width="23" height="4" rx="2" fill="#1A3185" stroke="#1A3185"/>
<rect x="115.5" y="82.5" width="23" height="4" rx="2" fill="#1A3185" stroke="#1A3185"/>
<path d="M34.1229 85C34.1237 76.9474 32.884 61.0316 38.2545 59.8947C43.6249 58.7579 45.6558 58.1579 46 58" stroke="#1A3185" stroke-width="2"/>
<rect x="41.0987" y="55.6067" width="8.59051" height="6" rx="3" transform="rotate(-6.61125 41.0987 55.6067)" fill="#12266F" stroke="#1A3185" stroke-width="2"/>
<path d="M127.309 85.4912C127.308 77.4386 128.548 61.5228 123.177 60.3859C117.807 59.2491 115.776 58.6491 115.432 58.4912" stroke="#1A3185" stroke-width="2"/>
<rect x="-1.10848" y="0.878218" width="8.59051" height="6" rx="3" transform="matrix(-0.99335 -0.115132 -0.115132 0.99335 119.333 55.0979)" fill="#12266F" stroke="#1A3185" stroke-width="2"/>
</svg>
