<svg width="487" height="326" viewBox="0 0 487 326" fill="none" xmlns="http://www.w3.org/2000/svg">
<path d="M248.319 3.86981L248.094 2.6405H246.844H238.526H237.294L237.054 3.84887L233.381 22.381L233.026 24.1727H234.853H250.244H252.044L251.719 22.402L248.319 3.86981Z" fill="#FFFCFC" stroke="#12266F" stroke-width="3"/>
<rect x="233.353" y="21.1725" width="18.3913" height="29.5152" fill="#FFFCFC" stroke="#12266F" stroke-width="3"/>
<rect x="231.688" y="15.8979" width="6.1892" height="35.5026" fill="#FFFCFC" stroke="#12266F" stroke-width="3"/>
<rect x="247.08" y="15.8979" width="6.1892" height="35.5026" fill="#FFFCFC" stroke="#12266F" stroke-width="3"/>
<rect x="230.579" y="19.4619" width="23.9378" height="6.27877" fill="#FFFCFC" stroke="#12266F" stroke-width="3"/>
<path d="M234.783 19.8959C236.621 19.8959 238.571 18.5953 238.571 16.4714C238.571 14.3474 236.621 13.0469 234.783 13.0469C232.945 13.0469 230.995 14.3474 230.995 16.4714C230.995 18.5953 232.945 19.8959 234.783 19.8959Z" fill="#FFFCFC" stroke="#12266F" stroke-width="3"/>
<path d="M250.175 19.8959C252.013 19.8959 253.963 18.5953 253.963 16.4714C253.963 14.3474 252.013 13.0469 250.175 13.0469C248.336 13.0469 246.387 14.3474 246.387 16.4714C246.387 18.5953 248.336 19.8959 250.175 19.8959Z" fill="#FFFCFC" stroke="#12266F" stroke-width="3"/>
<path d="M246.083 50.688H247.583V49.188V35.3975C247.583 32.5014 245.236 30.1537 242.34 30.1537C239.443 30.1537 237.096 32.5014 237.096 35.3975V49.188V50.688H238.596H246.083Z" fill="#7188DB" stroke="#12266F" stroke-width="3"/>
<path d="M246.059 40.2035H238.62V41.7035V43.2035H246.059V41.7035V40.2035Z" fill="#FFFCFC" stroke="#12266F" stroke-width="3"/>
<path d="M240.771 31.6537V49.188H242.271H243.771V31.6537H242.271H240.771Z" fill="#FFFCFC" stroke="#12266F" stroke-width="3"/>
<rect x="235.57" y="1.5" width="13.8155" height="5.28088" fill="#FFFCFC" stroke="#12266F" stroke-width="3"/>
<rect x="33.7646" y="189.103" width="411.705" height="131.139" fill="#FFFCFC" stroke="#12266F" stroke-width="3"/>
<mask id="mask0_4042_16005" style="mask-type:alpha" maskUnits="userSpaceOnUse" x="32" y="187" width="415" height="135">
<rect x="33.7646" y="189.103" width="411.705" height="131.139" fill="white" stroke="white" stroke-width="3"/>
</mask>
<g mask="url(#mask0_4042_16005)">
<rect x="-1.60938" y="263.384" width="472.307" height="8.86258" fill="#FFFCFC" stroke="#12266F" stroke-width="3"/>
<rect x="-1.60938" y="230.356" width="472.307" height="8.93368" fill="#FFFCFC" stroke="#12266F" stroke-width="3"/>
<path d="M63.1695 257.938H64.6695V256.438V227.173C64.6695 221.831 60.3383 217.499 54.9954 217.499C49.6525 217.499 45.3213 221.831 45.3213 227.173V256.438V257.938H46.8213H63.1695Z" fill="#7188DB" stroke="#12266F" stroke-width="3"/>
<path d="M63.1161 238.958H46.8747V240.458V241.958H63.1161V240.458V238.958Z" fill="#FFFCFC" stroke="#12266F" stroke-width="3"/>
<path d="M53.3438 219V256.438H54.8438H56.3438V219H54.8438H53.3438Z" fill="#FFFCFC" stroke="#12266F" stroke-width="3"/>
<path d="M371.249 257.938H372.749V256.438V227.173C372.749 221.831 368.417 217.499 363.074 217.499C357.732 217.499 353.4 221.831 353.4 227.173V256.438V257.938H354.9H371.249Z" fill="#7188DB" stroke="#12266F" stroke-width="3"/>
<path d="M371.195 238.958H354.954V240.458V241.958H371.195V240.458V238.958Z" fill="#FFFCFC" stroke="#12266F" stroke-width="3"/>
<path d="M361.423 219V256.438H362.923H364.423V219H362.923H361.423Z" fill="#FFFCFC" stroke="#12266F" stroke-width="3"/>
<path d="M92.6246 258.079H94.1246V256.579V227.315C94.1246 221.972 89.7933 217.641 84.4505 217.641C79.1076 217.641 74.7764 221.972 74.7764 227.315V256.579V258.079H76.2764H92.6246Z" fill="#7188DB" stroke="#12266F" stroke-width="3"/>
<path d="M92.5712 239.099H76.3298V240.599V242.099H92.5712V240.599V239.099Z" fill="#FFFCFC" stroke="#12266F" stroke-width="3"/>
<path d="M82.7988 219.141V256.579H84.2988H85.7988V219.141H84.2988H82.7988Z" fill="#FFFCFC" stroke="#12266F" stroke-width="3"/>
<path d="M400.704 258.079H402.204V256.579V227.315C402.204 221.972 397.872 217.641 392.53 217.641C387.187 217.641 382.855 221.972 382.855 227.315V256.579V258.079H384.355H400.704Z" fill="#7188DB" stroke="#12266F" stroke-width="3"/>
<path d="M400.65 239.099H384.409V240.599V242.099H400.65V240.599V239.099Z" fill="#FFFCFC" stroke="#12266F" stroke-width="3"/>
<path d="M390.878 219.141V256.579H392.378H393.878V219.141H392.378H390.878Z" fill="#FFFCFC" stroke="#12266F" stroke-width="3"/>
<path d="M123.348 257.938H124.848V256.438V227.173C124.848 221.831 120.517 217.499 115.174 217.499C109.831 217.499 105.5 221.831 105.5 227.173V256.438V257.938H107H123.348Z" fill="#7188DB" stroke="#12266F" stroke-width="3"/>
<path d="M123.295 238.958H107.053V240.458V241.958H123.295V240.458V238.958Z" fill="#FFFCFC" stroke="#12266F" stroke-width="3"/>
<path d="M113.522 218.999V256.438H115.022H116.522V218.999H115.022H113.522Z" fill="#FFFCFC" stroke="#12266F" stroke-width="3"/>
<path d="M431.286 257.938H432.786V256.438V227.173C432.786 221.831 428.454 217.499 423.112 217.499C417.769 217.499 413.438 221.831 413.438 227.173V256.438V257.938H414.938H431.286Z" fill="#7188DB" stroke="#12266F" stroke-width="3"/>
<path d="M431.232 238.958H414.991V240.458V241.958H431.232V240.458V238.958Z" fill="#FFFCFC" stroke="#12266F" stroke-width="3"/>
<path d="M421.46 219V256.438H422.96H424.46V219H422.96H421.46Z" fill="#FFFCFC" stroke="#12266F" stroke-width="3"/>
<rect x="-1.60938" y="188.961" width="472.307" height="21.79" fill="#FFFCFC" stroke="#12266F" stroke-width="3"/>
<rect x="43.207" y="278.39" width="23.0509" height="32.951" fill="#7188DB" stroke="#12266F" stroke-width="3"/>
<mask id="mask1_4042_16005" style="mask-type:alpha" maskUnits="userSpaceOnUse" x="41" y="276" width="27" height="37">
<rect x="43.207" y="278.39" width="23.0509" height="32.951" fill="white" stroke="white" stroke-width="3"/>
</mask>
<g mask="url(#mask1_4042_16005)">
<path d="M56.156 309.929V279.955H54.656H53.156V309.929H54.656H56.156Z" fill="#FFFCFC" stroke="#12266F" stroke-width="3"/>
<path d="M64.758 293.366H44.707V294.866V296.366H64.758V294.866V293.366Z" fill="#FFFCFC" stroke="#12266F" stroke-width="3"/>
</g>
<rect x="73.1318" y="278.39" width="23.0509" height="32.951" fill="#7188DB" stroke="#12266F" stroke-width="3"/>
<mask id="mask2_4042_16005" style="mask-type:alpha" maskUnits="userSpaceOnUse" x="71" y="276" width="27" height="37">
<rect x="73.1318" y="278.39" width="23.0509" height="32.951" fill="white" stroke="white" stroke-width="3"/>
</mask>
<g mask="url(#mask2_4042_16005)">
<path d="M86.0808 309.929V279.955H84.5808H83.0808V309.929H84.5808H86.0808Z" fill="#FFFCFC" stroke="#12266F" stroke-width="3"/>
<path d="M94.6828 293.366H74.6318V294.866V296.366H94.6828V294.866V293.366Z" fill="#FFFCFC" stroke="#12266F" stroke-width="3"/>
</g>
<rect x="103.664" y="278.39" width="23.0509" height="32.951" fill="#FFFCFC" stroke="#12266F" stroke-width="3"/>
<mask id="mask3_4042_16005" style="mask-type:alpha" maskUnits="userSpaceOnUse" x="102" y="276" width="27" height="37">
<rect x="103.664" y="278.39" width="23.0509" height="32.951" fill="white" stroke="white" stroke-width="3"/>
</mask>
<g mask="url(#mask3_4042_16005)">
<path d="M116.613 309.929V279.955H115.113H113.613V309.929H115.113H116.613Z" fill="#FFFCFC" stroke="#12266F" stroke-width="3"/>
<path d="M125.215 293.366H105.164V294.866V296.366H125.215V294.866V293.366Z" fill="#FFFCFC" stroke="#12266F" stroke-width="3"/>
</g>
<rect x="350.504" y="278.391" width="23.0509" height="32.951" fill="#7188DB" stroke="#12266F" stroke-width="3"/>
<mask id="mask4_4042_16005" style="mask-type:alpha" maskUnits="userSpaceOnUse" x="349" y="276" width="27" height="37">
<rect x="350.504" y="278.391" width="23.0509" height="32.951" fill="white" stroke="white" stroke-width="3"/>
</mask>
<g mask="url(#mask4_4042_16005)">
<path d="M363.453 309.929V279.955H361.953H360.453V309.929H361.953H363.453Z" fill="#FFFCFC" stroke="#12266F" stroke-width="3"/>
<path d="M372.055 293.366H352.004V294.866V296.366H372.055V294.866V293.366Z" fill="#FFFCFC" stroke="#12266F" stroke-width="3"/>
</g>
<rect x="381.034" y="278.391" width="23.0509" height="32.951" fill="#7188DB" stroke="#12266F" stroke-width="3"/>
<mask id="mask5_4042_16005" style="mask-type:alpha" maskUnits="userSpaceOnUse" x="379" y="276" width="27" height="37">
<rect x="381.034" y="278.391" width="23.0509" height="32.951" fill="white" stroke="white" stroke-width="3"/>
</mask>
<g mask="url(#mask5_4042_16005)">
<path d="M393.983 309.929V279.955H392.483H390.983V309.929H392.483H393.983Z" fill="#FFFCFC" stroke="#12266F" stroke-width="3"/>
<path d="M402.585 293.366H382.534V294.866V296.366H402.585V294.866V293.366Z" fill="#FFFCFC" stroke="#12266F" stroke-width="3"/>
</g>
<rect x="411.566" y="278.391" width="23.0509" height="32.951" fill="#7188DB" stroke="#12266F" stroke-width="3"/>
<mask id="mask6_4042_16005" style="mask-type:alpha" maskUnits="userSpaceOnUse" x="410" y="276" width="27" height="37">
<rect x="411.566" y="278.391" width="23.0509" height="32.951" fill="white" stroke="white" stroke-width="3"/>
</mask>
<g mask="url(#mask6_4042_16005)">
<path d="M424.515 309.929V279.955H423.015H421.515V309.929H423.015H424.515Z" fill="#FFFCFC" stroke="#12266F" stroke-width="3"/>
<path d="M433.117 293.366H413.066V294.866V296.366H433.117V294.866V293.366Z" fill="#FFFCFC" stroke="#12266F" stroke-width="3"/>
</g>
</g>
<mask id="path-59-outside-1_4042_16005" maskUnits="userSpaceOnUse" x="32.2646" y="171.527" width="421" height="25" fill="black">
<rect fill="white" x="32.2646" y="171.527" width="421" height="25"/>
<path fill-rule="evenodd" clip-rule="evenodd" d="M449.833 175.527L35.2646 176.365V193.115L449.833 192.278V175.527ZM338.697 180.042H366.623V187.616H338.697V180.042ZM39.2509 180.042H67.1769V187.616H39.2509V180.042ZM145.036 180.042H117.11V187.616H145.036V180.042ZM416.556 180.042H444.482V187.616H416.556V180.042ZM104.968 180.042H77.0419V187.616H104.968V180.042ZM376.488 180.042H404.414V187.616H376.488V180.042Z"/>
</mask>
<path fill-rule="evenodd" clip-rule="evenodd" d="M449.833 175.527L35.2646 176.365V193.115L449.833 192.278V175.527ZM338.697 180.042H366.623V187.616H338.697V180.042ZM39.2509 180.042H67.1769V187.616H39.2509V180.042ZM145.036 180.042H117.11V187.616H145.036V180.042ZM416.556 180.042H444.482V187.616H416.556V180.042ZM104.968 180.042H77.0419V187.616H104.968V180.042ZM376.488 180.042H404.414V187.616H376.488V180.042Z" fill="#BAAEAE"/>
<path d="M35.2646 176.365L35.2586 173.365L32.2646 173.371V176.365H35.2646ZM449.833 175.527H452.833V172.521L449.827 172.527L449.833 175.527ZM35.2646 193.115H32.2646V196.121L35.2707 196.115L35.2646 193.115ZM449.833 192.278L449.839 195.278L452.833 195.272V192.278H449.833ZM366.623 180.042H369.623V177.042H366.623V180.042ZM338.697 180.042V177.042H335.697V180.042H338.697ZM366.623 187.616V190.616H369.623V187.616H366.623ZM338.697 187.616H335.697V190.616H338.697V187.616ZM67.1769 180.042H70.1769V177.042H67.1769V180.042ZM39.2509 180.042V177.042H36.2509V180.042H39.2509ZM67.1769 187.616V190.616H70.1769V187.616H67.1769ZM39.2509 187.616H36.2509V190.616H39.2509V187.616ZM117.11 180.042V177.042H114.11V180.042H117.11ZM145.036 180.042H148.036V177.042H145.036V180.042ZM117.11 187.616H114.11V190.616H117.11V187.616ZM145.036 187.616V190.616H148.036V187.616H145.036ZM444.482 180.042H447.482V177.042H444.482V180.042ZM416.556 180.042V177.042H413.556V180.042H416.556ZM444.482 187.616V190.616H447.482V187.616H444.482ZM416.556 187.616H413.556V190.616H416.556V187.616ZM77.0419 180.042V177.042H74.0419V180.042H77.0419ZM104.968 180.042H107.968V177.042H104.968V180.042ZM77.0419 187.616H74.0419V190.616H77.0419V187.616ZM104.968 187.616V190.616H107.968V187.616H104.968ZM404.414 180.042H407.414V177.042H404.414V180.042ZM376.488 180.042V177.042H373.488V180.042H376.488ZM404.414 187.616V190.616H407.414V187.616H404.414ZM376.488 187.616H373.488V190.616H376.488V187.616ZM35.2707 179.365L449.839 178.527L449.827 172.527L35.2586 173.365L35.2707 179.365ZM38.2646 193.115V176.365H32.2646V193.115H38.2646ZM449.827 189.278L35.2586 190.115L35.2707 196.115L449.839 195.278L449.827 189.278ZM446.833 175.527V192.278H452.833V175.527H446.833ZM366.623 177.042H338.697V183.042H366.623V177.042ZM369.623 187.616V180.042H363.623V187.616H369.623ZM338.697 190.616H366.623V184.616H338.697V190.616ZM335.697 180.042V187.616H341.697V180.042H335.697ZM67.1769 177.042H39.2509V183.042H67.1769V177.042ZM70.1769 187.616V180.042H64.1769V187.616H70.1769ZM39.2509 190.616H67.1769V184.616H39.2509V190.616ZM36.2509 180.042V187.616H42.2509V180.042H36.2509ZM117.11 183.042H145.036V177.042H117.11V183.042ZM120.11 187.616V180.042H114.11V187.616H120.11ZM145.036 184.616H117.11V190.616H145.036V184.616ZM142.036 180.042V187.616H148.036V180.042H142.036ZM444.482 177.042H416.556V183.042H444.482V177.042ZM447.482 187.616V180.042H441.482V187.616H447.482ZM416.556 190.616H444.482V184.616H416.556V190.616ZM413.556 180.042V187.616H419.556V180.042H413.556ZM77.0419 183.042H104.968V177.042H77.0419V183.042ZM80.0419 187.616V180.042H74.0419V187.616H80.0419ZM104.968 184.616H77.0419V190.616H104.968V184.616ZM101.968 180.042V187.616H107.968V180.042H101.968ZM404.414 177.042H376.488V183.042H404.414V177.042ZM407.414 187.616V180.042H401.414V187.616H407.414ZM376.488 190.616H404.414V184.616H376.488V190.616ZM373.488 180.042V187.616H379.488V180.042H373.488Z" fill="#12266F" mask="url(#path-59-outside-1_4042_16005)"/>
<circle cx="241.292" cy="73.3509" r="27.4628" fill="#FF8600" stroke="#12266F" stroke-width="3"/>
<path d="M325.886 143.702C325.886 189.746 287.929 227.128 241.038 227.128C194.147 227.128 156.19 189.746 156.19 143.702C156.19 97.6579 194.147 60.2758 241.038 60.2758C287.929 60.2758 325.886 97.6579 325.886 143.702Z" fill="#FF8600" stroke="#12266F" stroke-width="4"/>
<path fill-rule="evenodd" clip-rule="evenodd" d="M133.253 155.637V172.177H345.981V155.637L239.617 76.7009L133.253 155.637Z" fill="#FFFCFC" stroke="#12266F" stroke-width="3"/>
<mask id="path-64-inside-2_4042_16005" fill="white">
<path fill-rule="evenodd" clip-rule="evenodd" d="M345.982 155.427L239.618 73.3508L133.254 155.427H142.392L239.618 80.4022L336.844 155.427H345.982Z"/>
</mask>
<path fill-rule="evenodd" clip-rule="evenodd" d="M345.982 155.427L239.618 73.3508L133.254 155.427H142.392L239.618 80.4022L336.844 155.427H345.982Z" fill="#FFFCFC"/>
<path d="M239.618 73.3508L243.283 68.6007L239.618 65.7722L235.952 68.6007L239.618 73.3508ZM345.982 155.427V161.427H363.579L349.647 150.677L345.982 155.427ZM133.254 155.427L129.588 150.677L115.657 161.427H133.254V155.427ZM142.392 155.427V161.427H144.438L146.057 160.177L142.392 155.427ZM239.618 80.4022L243.283 75.652L239.618 72.8235L235.952 75.652L239.618 80.4022ZM336.844 155.427L333.178 160.177L334.798 161.427H336.844V155.427ZM235.952 78.101L342.316 160.177L349.647 150.677L243.283 68.6007L235.952 78.101ZM136.919 160.177L243.283 78.101L235.952 68.6007L129.588 150.677L136.919 160.177ZM142.392 149.427H133.254V161.427H142.392V149.427ZM146.057 160.177L243.283 85.1524L235.952 75.652L138.726 150.677L146.057 160.177ZM235.952 85.1524L333.178 160.177L340.509 150.677L243.283 75.652L235.952 85.1524ZM345.982 149.427H336.844V161.427H345.982V149.427Z" fill="#12266F" mask="url(#path-64-inside-2_4042_16005)"/>
<path d="M134.753 156.927H345.318V194.965H134.753V156.927Z" fill="#FFFCFC" stroke="#12266F" stroke-width="3"/>
<rect x="142.466" y="266.816" width="194.303" height="55.2757" fill="#BAAEAE"/>
<mask id="path-68-outside-3_4042_16005" maskUnits="userSpaceOnUse" x="131.091" y="239.528" width="218" height="86" fill="black">
<rect fill="white" x="131.091" y="239.528" width="218" height="86"/>
<path fill-rule="evenodd" clip-rule="evenodd" d="M345.981 242.528H134.091V322.092H146.103V284.805C146.103 279.714 150.23 275.586 155.322 275.586C160.413 275.586 164.54 279.714 164.54 284.805V322.092H173.34V284.805C173.34 279.714 177.468 275.586 182.559 275.586C187.65 275.586 191.778 279.714 191.778 284.805V322.092H202.952V284.805C202.952 279.714 207.079 275.586 212.17 275.586C217.262 275.586 221.389 279.714 221.389 284.805V322.092H230.189V284.805C230.189 279.714 234.316 275.586 239.407 275.586C244.499 275.586 248.626 279.714 248.626 284.805V322.092H257.007V284.805C257.007 279.714 261.134 275.586 266.226 275.586C271.317 275.586 275.444 279.714 275.444 284.805V322.092H284.244V284.805C284.244 279.714 288.372 275.586 293.463 275.586C298.554 275.586 302.682 279.714 302.682 284.805V322.092H313.856V284.805C313.856 279.714 317.983 275.586 323.074 275.586C328.166 275.586 332.293 279.714 332.293 284.805V322.092H345.981V242.528Z"/>
</mask>
<path fill-rule="evenodd" clip-rule="evenodd" d="M345.981 242.528H134.091V322.092H146.103V284.805C146.103 279.714 150.23 275.586 155.322 275.586C160.413 275.586 164.54 279.714 164.54 284.805V322.092H173.34V284.805C173.34 279.714 177.468 275.586 182.559 275.586C187.65 275.586 191.778 279.714 191.778 284.805V322.092H202.952V284.805C202.952 279.714 207.079 275.586 212.17 275.586C217.262 275.586 221.389 279.714 221.389 284.805V322.092H230.189V284.805C230.189 279.714 234.316 275.586 239.407 275.586C244.499 275.586 248.626 279.714 248.626 284.805V322.092H257.007V284.805C257.007 279.714 261.134 275.586 266.226 275.586C271.317 275.586 275.444 279.714 275.444 284.805V322.092H284.244V284.805C284.244 279.714 288.372 275.586 293.463 275.586C298.554 275.586 302.682 279.714 302.682 284.805V322.092H313.856V284.805C313.856 279.714 317.983 275.586 323.074 275.586C328.166 275.586 332.293 279.714 332.293 284.805V322.092H345.981V242.528Z" fill="#FFFCFC"/>
<path d="M134.091 242.528V239.528H131.091V242.528H134.091ZM345.981 242.528H348.981V239.528H345.981V242.528ZM134.091 322.092H131.091V325.092H134.091V322.092ZM146.103 322.092V325.092H149.103V322.092H146.103ZM164.54 322.092H161.54V325.092H164.54V322.092ZM173.34 322.092V325.092H176.34V322.092H173.34ZM191.778 322.092H188.778V325.092H191.778V322.092ZM202.952 322.092V325.092H205.952V322.092H202.952ZM221.389 322.092H218.389V325.092H221.389V322.092ZM230.189 322.092V325.092H233.189V322.092H230.189ZM248.626 322.092H245.626V325.092H248.626V322.092ZM257.007 322.092V325.092H260.007V322.092H257.007ZM275.444 322.092H272.444V325.092H275.444V322.092ZM284.244 322.092V325.092H287.244V322.092H284.244ZM302.682 322.092H299.682V325.092H302.682V322.092ZM313.856 322.092V325.092H316.856V322.092H313.856ZM332.293 322.092H329.293V325.092H332.293V322.092ZM345.981 322.092V325.092H348.981V322.092H345.981ZM134.091 245.528H345.981V239.528H134.091V245.528ZM137.091 322.092V242.528H131.091V322.092H137.091ZM146.103 319.092H134.091V325.092H146.103V319.092ZM143.103 284.805V322.092H149.103V284.805H143.103ZM155.322 272.586C148.574 272.586 143.103 278.057 143.103 284.805H149.103C149.103 281.371 151.887 278.586 155.322 278.586V272.586ZM167.54 284.805C167.54 278.057 162.07 272.586 155.322 272.586V278.586C158.756 278.586 161.54 281.371 161.54 284.805H167.54ZM167.54 322.092V284.805H161.54V322.092H167.54ZM173.34 319.092H164.54V325.092H173.34V319.092ZM170.34 284.805V322.092H176.34V284.805H170.34ZM182.559 272.586C175.811 272.586 170.34 278.057 170.34 284.805H176.34C176.34 281.371 179.124 278.586 182.559 278.586V272.586ZM194.778 284.805C194.778 278.057 189.307 272.586 182.559 272.586V278.586C185.993 278.586 188.778 281.371 188.778 284.805H194.778ZM194.778 322.092V284.805H188.778V322.092H194.778ZM202.952 319.092H191.778V325.092H202.952V319.092ZM199.952 284.805V322.092H205.952V284.805H199.952ZM212.17 272.586C205.422 272.586 199.952 278.057 199.952 284.805H205.952C205.952 281.371 208.736 278.586 212.17 278.586V272.586ZM224.389 284.805C224.389 278.057 218.918 272.586 212.17 272.586V278.586C215.605 278.586 218.389 281.371 218.389 284.805H224.389ZM224.389 322.092V284.805H218.389V322.092H224.389ZM230.189 319.092H221.389V325.092H230.189V319.092ZM227.189 284.805V322.092H233.189V284.805H227.189ZM239.407 272.586C232.659 272.586 227.189 278.057 227.189 284.805H233.189C233.189 281.371 235.973 278.586 239.407 278.586V272.586ZM251.626 284.805C251.626 278.057 246.156 272.586 239.407 272.586V278.586C242.842 278.586 245.626 281.371 245.626 284.805H251.626ZM251.626 322.092V284.805H245.626V322.092H251.626ZM257.007 319.092H248.626V325.092H257.007V319.092ZM254.007 284.805V322.092H260.007V284.805H254.007ZM266.226 272.586C259.478 272.586 254.007 278.057 254.007 284.805H260.007C260.007 281.371 262.791 278.586 266.226 278.586V272.586ZM278.444 284.805C278.444 278.057 272.974 272.586 266.226 272.586V278.586C269.66 278.586 272.444 281.371 272.444 284.805H278.444ZM278.444 322.092V284.805H272.444V322.092H278.444ZM284.244 319.092H275.444V325.092H284.244V319.092ZM281.244 284.805V322.092H287.244V284.805H281.244ZM293.463 272.586C286.715 272.586 281.244 278.057 281.244 284.805H287.244C287.244 281.371 290.028 278.586 293.463 278.586V272.586ZM305.682 284.805C305.682 278.057 300.211 272.586 293.463 272.586V278.586C296.897 278.586 299.682 281.371 299.682 284.805H305.682ZM305.682 322.092V284.805H299.682V322.092H305.682ZM313.856 319.092H302.682V325.092H313.856V319.092ZM316.856 322.092V284.805H310.856V322.092H316.856ZM316.856 284.805C316.856 281.371 319.64 278.586 323.074 278.586V272.586C316.326 272.586 310.856 278.057 310.856 284.805H316.856ZM323.074 278.586C326.509 278.586 329.293 281.371 329.293 284.805H335.293C335.293 278.057 329.822 272.586 323.074 272.586V278.586ZM329.293 284.805V322.092H335.293V284.805H329.293ZM345.981 319.092H332.293V325.092H345.981V319.092ZM342.981 242.528V322.092H348.981V242.528H342.981Z" fill="#12266F" mask="url(#path-68-outside-3_4042_16005)"/>
<mask id="mask7_4042_16005" style="mask-type:alpha" maskUnits="userSpaceOnUse" x="131" y="239" width="218" height="87">
<mask id="path-70-outside-4_4042_16005" maskUnits="userSpaceOnUse" x="131.091" y="239.528" width="218" height="86" fill="black">
<rect fill="white" x="131.091" y="239.528" width="218" height="86"/>
<path fill-rule="evenodd" clip-rule="evenodd" d="M345.981 242.528H134.091V322.092H146.103V284.805C146.103 279.714 150.23 275.586 155.322 275.586C160.413 275.586 164.54 279.714 164.54 284.805V322.092H173.34V284.805C173.34 279.714 177.468 275.586 182.559 275.586C187.65 275.586 191.778 279.714 191.778 284.805V322.092H202.952V284.805C202.952 279.714 207.079 275.586 212.17 275.586C217.262 275.586 221.389 279.714 221.389 284.805V322.092H230.189V284.805C230.189 279.714 234.316 275.586 239.407 275.586C244.499 275.586 248.626 279.714 248.626 284.805V322.092H257.007V284.805C257.007 279.714 261.134 275.586 266.226 275.586C271.317 275.586 275.444 279.714 275.444 284.805V322.092H284.244V284.805C284.244 279.714 288.372 275.586 293.463 275.586C298.554 275.586 302.682 279.714 302.682 284.805V322.092H313.856V284.805C313.856 279.714 317.983 275.586 323.074 275.586C328.166 275.586 332.293 279.714 332.293 284.805V322.092H345.981V242.528Z"/>
</mask>
<path fill-rule="evenodd" clip-rule="evenodd" d="M345.981 242.528H134.091V322.092H146.103V284.805C146.103 279.714 150.23 275.586 155.322 275.586C160.413 275.586 164.54 279.714 164.54 284.805V322.092H173.34V284.805C173.34 279.714 177.468 275.586 182.559 275.586C187.65 275.586 191.778 279.714 191.778 284.805V322.092H202.952V284.805C202.952 279.714 207.079 275.586 212.17 275.586C217.262 275.586 221.389 279.714 221.389 284.805V322.092H230.189V284.805C230.189 279.714 234.316 275.586 239.407 275.586C244.499 275.586 248.626 279.714 248.626 284.805V322.092H257.007V284.805C257.007 279.714 261.134 275.586 266.226 275.586C271.317 275.586 275.444 279.714 275.444 284.805V322.092H284.244V284.805C284.244 279.714 288.372 275.586 293.463 275.586C298.554 275.586 302.682 279.714 302.682 284.805V322.092H313.856V284.805C313.856 279.714 317.983 275.586 323.074 275.586C328.166 275.586 332.293 279.714 332.293 284.805V322.092H345.981V242.528Z" fill="white"/>
<path d="M134.091 242.528V239.528H131.091V242.528H134.091ZM345.981 242.528H348.981V239.528H345.981V242.528ZM134.091 322.092H131.091V325.092H134.091V322.092ZM146.103 322.092V325.092H149.103V322.092H146.103ZM164.54 322.092H161.54V325.092H164.54V322.092ZM173.34 322.092V325.092H176.34V322.092H173.34ZM191.778 322.092H188.778V325.092H191.778V322.092ZM202.952 322.092V325.092H205.952V322.092H202.952ZM221.389 322.092H218.389V325.092H221.389V322.092ZM230.189 322.092V325.092H233.189V322.092H230.189ZM248.626 322.092H245.626V325.092H248.626V322.092ZM257.007 322.092V325.092H260.007V322.092H257.007ZM275.444 322.092H272.444V325.092H275.444V322.092ZM284.244 322.092V325.092H287.244V322.092H284.244ZM302.682 322.092H299.682V325.092H302.682V322.092ZM313.856 322.092V325.092H316.856V322.092H313.856ZM332.293 322.092H329.293V325.092H332.293V322.092ZM345.981 322.092V325.092H348.981V322.092H345.981ZM134.091 245.528H345.981V239.528H134.091V245.528ZM137.091 322.092V242.528H131.091V322.092H137.091ZM146.103 319.092H134.091V325.092H146.103V319.092ZM143.103 284.805V322.092H149.103V284.805H143.103ZM155.322 272.586C148.574 272.586 143.103 278.057 143.103 284.805H149.103C149.103 281.371 151.887 278.586 155.322 278.586V272.586ZM167.54 284.805C167.54 278.057 162.07 272.586 155.322 272.586V278.586C158.756 278.586 161.54 281.371 161.54 284.805H167.54ZM167.54 322.092V284.805H161.54V322.092H167.54ZM173.34 319.092H164.54V325.092H173.34V319.092ZM170.34 284.805V322.092H176.34V284.805H170.34ZM182.559 272.586C175.811 272.586 170.34 278.057 170.34 284.805H176.34C176.34 281.371 179.124 278.586 182.559 278.586V272.586ZM194.778 284.805C194.778 278.057 189.307 272.586 182.559 272.586V278.586C185.993 278.586 188.778 281.371 188.778 284.805H194.778ZM194.778 322.092V284.805H188.778V322.092H194.778ZM202.952 319.092H191.778V325.092H202.952V319.092ZM199.952 284.805V322.092H205.952V284.805H199.952ZM212.17 272.586C205.422 272.586 199.952 278.057 199.952 284.805H205.952C205.952 281.371 208.736 278.586 212.17 278.586V272.586ZM224.389 284.805C224.389 278.057 218.918 272.586 212.17 272.586V278.586C215.605 278.586 218.389 281.371 218.389 284.805H224.389ZM224.389 322.092V284.805H218.389V322.092H224.389ZM230.189 319.092H221.389V325.092H230.189V319.092ZM227.189 284.805V322.092H233.189V284.805H227.189ZM239.407 272.586C232.659 272.586 227.189 278.057 227.189 284.805H233.189C233.189 281.371 235.973 278.586 239.407 278.586V272.586ZM251.626 284.805C251.626 278.057 246.156 272.586 239.407 272.586V278.586C242.842 278.586 245.626 281.371 245.626 284.805H251.626ZM251.626 322.092V284.805H245.626V322.092H251.626ZM257.007 319.092H248.626V325.092H257.007V319.092ZM254.007 284.805V322.092H260.007V284.805H254.007ZM266.226 272.586C259.478 272.586 254.007 278.057 254.007 284.805H260.007C260.007 281.371 262.791 278.586 266.226 278.586V272.586ZM278.444 284.805C278.444 278.057 272.974 272.586 266.226 272.586V278.586C269.66 278.586 272.444 281.371 272.444 284.805H278.444ZM278.444 322.092V284.805H272.444V322.092H278.444ZM284.244 319.092H275.444V325.092H284.244V319.092ZM281.244 284.805V322.092H287.244V284.805H281.244ZM293.463 272.586C286.715 272.586 281.244 278.057 281.244 284.805H287.244C287.244 281.371 290.028 278.586 293.463 278.586V272.586ZM305.682 284.805C305.682 278.057 300.211 272.586 293.463 272.586V278.586C296.897 278.586 299.682 281.371 299.682 284.805H305.682ZM305.682 322.092V284.805H299.682V322.092H305.682ZM313.856 319.092H302.682V325.092H313.856V319.092ZM316.856 322.092V284.805H310.856V322.092H316.856ZM316.856 284.805C316.856 281.371 319.64 278.586 323.074 278.586V272.586C316.326 272.586 310.856 278.057 310.856 284.805H316.856ZM323.074 278.586C326.509 278.586 329.293 281.371 329.293 284.805H335.293C335.293 278.057 329.822 272.586 323.074 272.586V278.586ZM329.293 284.805V322.092H335.293V284.805H329.293ZM345.981 319.092H332.293V325.092H345.981V319.092ZM342.981 242.528V322.092H348.981V242.528H342.981Z" fill="white" mask="url(#path-70-outside-4_4042_16005)"/>
</mask>
<g mask="url(#mask7_4042_16005)">
<path d="M130.011 283.612H128.511V285.112V287.913V289.413H130.011H345.418H346.918V287.913V285.112V283.612H345.418H130.011Z" fill="#FFFCFC" stroke="#12266F" stroke-width="3"/>
<path d="M130.011 289.915H128.511V291.415V294.217V295.717H130.011H345.418H346.918V294.217V291.415V289.915H345.418H130.011Z" fill="#FFFCFC" stroke="#12266F" stroke-width="3"/>
</g>
<rect x="134.753" y="194.615" width="209.728" height="3.70009" fill="#FFFCFC" stroke="#12266F" stroke-width="3"/>
<path d="M135.766 198.315H134.266V199.815V253.416V254.916H135.766H343.468H344.968V253.416V199.815V198.315H343.468H135.766Z" fill="#BAAEAE" stroke="#12266F" stroke-width="3"/>
<rect x="247.329" y="208.365" width="21.4252" height="30.6379" fill="#7188DB" stroke="#12266F" stroke-width="3"/>
<mask id="mask8_4042_16005" style="mask-type:alpha" maskUnits="userSpaceOnUse" x="245" y="206" width="26" height="35">
<rect x="247.329" y="208.365" width="21.4252" height="30.6379" fill="white" stroke="white" stroke-width="3"/>
</mask>
<g mask="url(#mask8_4042_16005)">
<path d="M259.471 237.584V209.925H257.971H256.471V237.584H257.971H259.471Z" fill="#FFFCFC" stroke="#12266F" stroke-width="3"/>
<path d="M267.254 222.184H248.829V223.684V225.184H267.254V223.684V222.184Z" fill="#FFFCFC" stroke="#12266F" stroke-width="3"/>
</g>
<rect x="212.154" y="208.365" width="21.4252" height="30.6379" fill="#7188DB" stroke="#12266F" stroke-width="3"/>
<mask id="mask9_4042_16005" style="mask-type:alpha" maskUnits="userSpaceOnUse" x="210" y="206" width="26" height="35">
<rect x="212.154" y="208.365" width="21.4252" height="30.6379" fill="white" stroke="white" stroke-width="3"/>
</mask>
<g mask="url(#mask9_4042_16005)">
<path d="M224.297 237.584V209.925H222.797H221.297V237.584H222.797H224.297Z" fill="#FFFCFC" stroke="#12266F" stroke-width="3"/>
<path d="M232.08 222.184H213.654V223.684V225.184H232.08V223.684V222.184Z" fill="#FFFCFC" stroke="#12266F" stroke-width="3"/>
</g>
<rect x="180.329" y="208.365" width="21.4252" height="30.6379" fill="#7188DB" stroke="#12266F" stroke-width="3"/>
<mask id="mask10_4042_16005" style="mask-type:alpha" maskUnits="userSpaceOnUse" x="178" y="206" width="26" height="35">
<rect x="180.329" y="208.365" width="21.4252" height="30.6379" fill="white" stroke="white" stroke-width="3"/>
</mask>
<g mask="url(#mask10_4042_16005)">
<path d="M192.471 237.584V209.925H190.971H189.471V237.584H190.971H192.471Z" fill="#FFFCFC" stroke="#12266F" stroke-width="3"/>
<path d="M200.254 222.184H181.829V223.684V225.184H200.254V223.684V222.184Z" fill="#FFFCFC" stroke="#12266F" stroke-width="3"/>
</g>
<rect x="144.315" y="208.365" width="21.4252" height="30.6379" fill="#7188DB" stroke="#12266F" stroke-width="3"/>
<mask id="mask11_4042_16005" style="mask-type:alpha" maskUnits="userSpaceOnUse" x="142" y="206" width="26" height="35">
<rect x="144.315" y="208.365" width="21.4252" height="30.6379" fill="white" stroke="white" stroke-width="3"/>
</mask>
<g mask="url(#mask11_4042_16005)">
<path d="M156.458 237.584V209.925H154.958H153.458V237.584H154.958H156.458Z" fill="#FFFCFC" stroke="#12266F" stroke-width="3"/>
<path d="M164.241 222.184H145.815V223.684V225.184H164.241V223.684V222.184Z" fill="#FFFCFC" stroke="#12266F" stroke-width="3"/>
</g>
<rect x="314.33" y="208.365" width="21.4252" height="30.6379" fill="#7188DB" stroke="#12266F" stroke-width="3"/>
<mask id="mask12_4042_16005" style="mask-type:alpha" maskUnits="userSpaceOnUse" x="312" y="206" width="26" height="35">
<rect x="314.33" y="208.365" width="21.4252" height="30.6379" fill="white" stroke="white" stroke-width="3"/>
</mask>
<g mask="url(#mask12_4042_16005)">
<path d="M326.473 237.584V209.925H324.973H323.473V237.584H324.973H326.473Z" fill="#FFFCFC" stroke="#12266F" stroke-width="3"/>
<path d="M334.255 222.184H315.83V223.684V225.184H334.255V223.684V222.184Z" fill="#FFFCFC" stroke="#12266F" stroke-width="3"/>
</g>
<rect x="281.668" y="208.365" width="21.4252" height="30.6379" fill="#7188DB" stroke="#12266F" stroke-width="3"/>
<mask id="mask13_4042_16005" style="mask-type:alpha" maskUnits="userSpaceOnUse" x="280" y="206" width="25" height="35">
<rect x="281.668" y="208.365" width="21.4252" height="30.6379" fill="white" stroke="white" stroke-width="3"/>
</mask>
<g mask="url(#mask13_4042_16005)">
<path d="M293.81 237.584V209.925H292.31H290.81V237.584H292.31H293.81Z" fill="#FFFCFC" stroke="#12266F" stroke-width="3"/>
<path d="M301.593 222.184H283.168V223.684V225.184H301.593V223.684V222.184Z" fill="#FFFCFC" stroke="#12266F" stroke-width="3"/>
</g>
<rect x="141.699" y="200.578" width="8.7873" height="54.3379" fill="#FFFCFC" stroke="#12266F" stroke-width="3"/>
<path d="M139.953 198.315H136.992L138.744 200.702L141.96 205.087L142.41 205.699H143.17H149.021H149.743L150.194 205.134L153.689 200.75L155.63 198.315H152.516H139.953Z" fill="#FFFCFC" stroke="#12266F" stroke-width="3"/>
<rect x="282.401" y="200.578" width="8.7873" height="54.3379" fill="#FFFCFC" stroke="#12266F" stroke-width="3"/>
<path d="M280.655 198.315H277.694L279.446 200.702L282.662 205.087L283.112 205.699H283.872H289.723H290.446L290.896 205.134L294.391 200.75L296.332 198.315H293.218H280.655Z" fill="#FFFCFC" stroke="#12266F" stroke-width="3"/>
<rect x="235.5" y="200.578" width="8.7873" height="54.3379" fill="#FFFCFC" stroke="#12266F" stroke-width="3"/>
<path d="M233.754 198.315H230.793L232.544 200.702L235.761 205.087L236.21 205.699H236.97H242.822H243.544L243.995 205.134L247.489 200.75L249.431 198.315H246.317H233.754Z" fill="#FFFCFC" stroke="#12266F" stroke-width="3"/>
<rect x="188.6" y="200.578" width="8.7873" height="54.3379" fill="#FFFCFC" stroke="#12266F" stroke-width="3"/>
<path d="M186.854 198.315H183.893L185.644 200.702L188.86 205.087L189.31 205.699H190.07H195.921H196.644L197.094 205.134L200.589 200.75L202.53 198.315H199.416H186.854Z" fill="#FFFCFC" stroke="#12266F" stroke-width="3"/>
<rect x="329.302" y="200.578" width="8.7873" height="54.3379" fill="#FFFCFC" stroke="#12266F" stroke-width="3"/>
<path d="M327.556 198.315H324.595L326.346 200.702L329.563 205.087L330.012 205.699H330.772H336.623H337.346L337.796 205.134L341.291 200.75L343.232 198.315H340.118H327.556Z" fill="#FFFCFC" stroke="#12266F" stroke-width="3"/>
<rect x="130.078" y="247.728" width="222.428" height="9.70009" fill="#FFFCFC" stroke="#12266F" stroke-width="3"/>
<circle cx="197.741" cy="268.491" r="4.01253" fill="#FFFCFC" stroke="#12266F" stroke-width="3"/>
<circle cx="169.266" cy="268.491" r="4.01253" fill="#FFFCFC" stroke="#12266F" stroke-width="3"/>
<circle cx="225.38" cy="268.491" r="4.01253" fill="#FFFCFC" stroke="#12266F" stroke-width="3"/>
<circle cx="251.342" cy="268.491" r="4.01253" fill="#FFFCFC" stroke="#12266F" stroke-width="3"/>
<circle cx="183.085" cy="140.771" r="6.10631" fill="#FFFCFC" stroke="#12266F" stroke-width="3"/>
<circle cx="296.149" cy="140.771" r="6.10631" fill="#FFFCFC" stroke="#12266F" stroke-width="3"/>
<circle cx="278.98" cy="268.491" r="4.01253" fill="#FFFCFC" stroke="#12266F" stroke-width="3"/>
<circle cx="308.293" cy="268.491" r="4.01253" fill="#FFFCFC" stroke="#12266F" stroke-width="3"/>
<rect x="140.966" y="163.14" width="28.1253" height="25.6128" rx="2.5" fill="#FFFCFC" stroke="#12266F" stroke-width="3"/>
<rect x="145.153" y="167.327" width="19.7502" height="18.0752" rx="2.5" fill="#FFFCFC" stroke="#12266F" stroke-width="3"/>
<rect x="190.379" y="163.14" width="28.1253" height="25.6128" rx="2.5" fill="#FFFCFC" stroke="#12266F" stroke-width="3"/>
<rect x="194.566" y="167.327" width="19.7502" height="18.0752" rx="2.5" fill="#FFFCFC" stroke="#12266F" stroke-width="3"/>
<rect x="243.142" y="163.14" width="28.1253" height="25.6128" rx="2.5" fill="#FFFCFC" stroke="#12266F" stroke-width="3"/>
<rect x="247.329" y="167.327" width="19.7502" height="18.0752" rx="2.5" fill="#FFFCFC" stroke="#12266F" stroke-width="3"/>
<rect x="301.768" y="163.14" width="28.1253" height="25.6128" rx="2.5" fill="#FFFCFC" stroke="#12266F" stroke-width="3"/>
<rect x="305.955" y="167.327" width="19.7502" height="18.0752" rx="2.5" fill="#FFFCFC" stroke="#12266F" stroke-width="3"/>
<rect x="414.657" y="155.427" width="3.9365" height="164.152" fill="#12266F"/>
<rect x="440.854" y="164.345" width="33.9297" height="36.3654" fill="#FFFCFC" stroke="#12266F" stroke-width="3"/>
<mask id="mask14_4042_16005" style="mask-type:alpha" maskUnits="userSpaceOnUse" x="439" y="162" width="38" height="41">
<rect x="440.854" y="164.345" width="33.9297" height="36.3654" fill="white" stroke="white" stroke-width="3"/>
</mask>
<g mask="url(#mask14_4042_16005)">
<path fill-rule="evenodd" clip-rule="evenodd" d="M451.468 165.845H473.107V171.757H451.468V165.845ZM441.088 177.248H473.283V183.161H441.088V177.248ZM473.283 188.792H441.088V194.705H473.283V188.792Z" fill="#C71E32"/>
<rect x="441.088" y="163.452" width="11.6689" height="21.6805" fill="#7188DB"/>
</g>
<rect x="417.094" y="156.461" width="40.678" height="36.3214" fill="#FFFCFC" stroke="#12266F" stroke-width="3"/>
<mask id="mask15_4042_16005" style="mask-type:alpha" maskUnits="userSpaceOnUse" x="415" y="154" width="45" height="41">
<rect x="417.094" y="156.461" width="40.678" height="36.3214" fill="white" stroke="white" stroke-width="3"/>
</mask>
<g mask="url(#mask15_4042_16005)">
<path fill-rule="evenodd" clip-rule="evenodd" d="M433.215 157.961H468.503V163.874H433.215V157.961ZM416.625 169.364H468.081V175.277H416.625V169.364ZM468.081 180.908H416.625V186.821H468.081V180.908Z" fill="#C71E32"/>
<rect x="416.625" y="155.568" width="18.6036" height="21.6805" fill="#7188DB"/>
</g>
<mask id="path-136-outside-5_4042_16005" maskUnits="userSpaceOnUse" x="68.2773" y="280.566" width="55" height="41" fill="black">
<rect fill="white" x="68.2773" y="280.566" width="55" height="41"/>
<path fill-rule="evenodd" clip-rule="evenodd" d="M106.518 291.439C104.789 286.839 100.35 283.566 95.1464 283.566C89.4501 283.566 84.6699 287.488 83.3586 292.779C76.6805 292.813 71.2773 298.237 71.2773 304.923C71.2773 311.007 75.7515 316.046 81.589 316.929L80.8957 317.604L82.1795 317.566L114.005 316.643L114.846 316.619L114.573 316.15C117.566 315.67 119.853 313.076 119.853 309.948C119.853 308.233 119.166 306.678 118.052 305.545C118.135 305.07 118.178 304.582 118.178 304.085C118.178 301.354 116.874 298.914 114.827 297.301C114.782 293.871 111.988 291.104 108.547 291.104C107.837 291.104 107.154 291.222 106.518 291.439ZM87.3534 316.416C90.9638 315.181 93.8074 312.293 94.981 308.654C95.9511 312.519 99.5943 315.392 103.94 315.392C105.733 315.392 107.406 314.903 108.821 314.057C109.442 314.774 110.222 315.349 111.106 315.727L87.3534 316.416Z"/>
</mask>
<path fill-rule="evenodd" clip-rule="evenodd" d="M106.518 291.439C104.789 286.839 100.35 283.566 95.1464 283.566C89.4501 283.566 84.6699 287.488 83.3586 292.779C76.6805 292.813 71.2773 298.237 71.2773 304.923C71.2773 311.007 75.7515 316.046 81.589 316.929L80.8957 317.604L82.1795 317.566L114.005 316.643L114.846 316.619L114.573 316.15C117.566 315.67 119.853 313.076 119.853 309.948C119.853 308.233 119.166 306.678 118.052 305.545C118.135 305.07 118.178 304.582 118.178 304.085C118.178 301.354 116.874 298.914 114.827 297.301C114.782 293.871 111.988 291.104 108.547 291.104C107.837 291.104 107.154 291.222 106.518 291.439ZM87.3534 316.416C90.9638 315.181 93.8074 312.293 94.981 308.654C95.9511 312.519 99.5943 315.392 103.94 315.392C105.733 315.392 107.406 314.903 108.821 314.057C109.442 314.774 110.222 315.349 111.106 315.727L87.3534 316.416Z" fill="#3D9922"/>
<path d="M106.518 291.439L103.71 292.494L104.733 295.217L107.486 294.278L106.518 291.439ZM83.3586 292.779L83.3738 295.779L85.7088 295.767L86.2705 293.501L83.3586 292.779ZM81.589 316.929L83.6807 319.08L88.0122 314.867L82.0379 313.963L81.589 316.929ZM80.8957 317.604L78.804 315.453L73.2797 320.826L80.9827 320.602L80.8957 317.604ZM82.1795 317.566L82.2665 320.565H82.2665L82.1795 317.566ZM114.005 316.643L113.918 313.644H113.918L114.005 316.643ZM114.846 316.619L114.933 319.617L119.976 319.471L117.439 315.11L114.846 316.619ZM114.573 316.15L114.098 313.188L109.78 313.879L111.98 317.659L114.573 316.15ZM118.052 305.545L115.097 305.028L114.831 306.548L115.912 307.648L118.052 305.545ZM114.827 297.301L111.828 297.34L111.846 298.771L112.97 299.657L114.827 297.301ZM94.981 308.654L97.8907 307.924L95.3409 297.767L92.1259 307.733L94.981 308.654ZM87.3534 316.416L86.3825 313.577L87.4404 319.415L87.3534 316.416ZM108.821 314.057L111.089 312.094L109.442 310.192L107.283 311.482L108.821 314.057ZM111.106 315.727L111.193 318.725L112.285 312.968L111.106 315.727ZM95.1464 286.566C99.0598 286.566 102.406 289.026 103.71 292.494L109.326 290.383C107.172 284.652 101.64 280.566 95.1464 280.566V286.566ZM86.2705 293.501C87.2579 289.517 90.8614 286.566 95.1464 286.566V280.566C88.0389 280.566 82.0818 285.46 80.4467 292.057L86.2705 293.501ZM74.2773 304.923C74.2773 299.888 78.3458 295.804 83.3738 295.779L83.3434 289.779C75.0153 289.821 68.2773 296.585 68.2773 304.923H74.2773ZM82.0379 313.963C77.6451 313.298 74.2773 309.501 74.2773 304.923H68.2773C68.2773 312.513 73.8579 318.793 81.1401 319.896L82.0379 313.963ZM82.9873 319.754L83.6807 319.08L79.4974 314.779L78.804 315.453L82.9873 319.754ZM82.0925 314.568L80.8087 314.605L80.9827 320.602L82.2665 320.565L82.0925 314.568ZM113.918 313.644L82.0925 314.568L82.2665 320.565L114.092 319.642L113.918 313.644ZM114.759 313.62L113.918 313.644L114.092 319.642L114.933 319.617L114.759 313.62ZM111.98 317.659L112.253 318.127L117.439 315.11L117.166 314.641L111.98 317.659ZM116.853 309.948C116.853 311.579 115.66 312.937 114.098 313.188L115.047 319.112C119.472 318.403 122.853 314.573 122.853 309.948H116.853ZM115.912 307.648C116.497 308.243 116.853 309.051 116.853 309.948H122.853C122.853 307.415 121.834 305.114 120.191 303.442L115.912 307.648ZM115.178 304.085C115.178 304.408 115.15 304.723 115.097 305.028L121.007 306.062C121.12 305.417 121.178 304.757 121.178 304.085H115.178ZM112.97 299.657C114.351 300.745 115.178 302.342 115.178 304.085H121.178C121.178 300.367 119.397 297.083 116.684 294.945L112.97 299.657ZM108.547 294.104C110.344 294.104 111.804 295.549 111.828 297.34L117.827 297.262C117.761 292.192 113.631 288.104 108.547 288.104V294.104ZM107.486 294.278C107.815 294.166 108.17 294.104 108.547 294.104V288.104C107.503 288.104 106.494 288.277 105.549 288.599L107.486 294.278ZM92.1259 307.733C91.2432 310.47 89.0989 312.648 86.3825 313.577L88.3243 319.254C92.8287 317.714 96.3715 314.116 97.8361 309.575L92.1259 307.733ZM103.94 312.392C100.914 312.392 98.5125 310.401 97.8907 307.924L92.0713 309.385C93.3898 314.637 98.2747 318.392 103.94 318.392V312.392ZM107.283 311.482C106.325 312.054 105.183 312.392 103.94 312.392V318.392C106.283 318.392 108.487 317.752 110.36 316.633L107.283 311.482ZM112.285 312.968C111.825 312.772 111.416 312.471 111.089 312.094L106.553 316.021C107.468 317.077 108.619 317.926 109.928 318.486L112.285 312.968ZM87.4404 319.415L111.193 318.725L111.019 312.728L87.2664 313.417L87.4404 319.415Z" fill="#12266F" mask="url(#path-136-outside-5_4042_16005)"/>
<mask id="path-138-outside-6_4042_16005" maskUnits="userSpaceOnUse" x="368.106" y="272.191" width="68" height="50" fill="black">
<rect fill="white" x="368.106" y="272.191" width="68" height="50"/>
<path fill-rule="evenodd" clip-rule="evenodd" d="M415.567 284.733C413.306 279.137 407.844 275.191 401.466 275.191C394.144 275.191 388.03 280.39 386.578 287.317C386.493 287.315 386.407 287.314 386.321 287.314C377.918 287.314 371.106 294.162 371.106 302.609C371.106 310.359 376.839 316.762 384.274 317.767L383.585 318.441L384.863 318.404L424.547 317.245L425.385 317.22L425.098 316.725C429.12 316.267 432.245 312.836 432.245 308.671C432.245 306.333 431.26 304.226 429.685 302.747C429.709 302.446 429.721 302.141 429.721 301.834C429.721 298.495 428.295 295.49 426.021 293.402C426.057 293.093 426.075 292.778 426.075 292.46C426.075 287.983 422.465 284.354 418.012 284.354C417.16 284.354 416.338 284.487 415.567 284.733ZM390.802 317.23C395.497 315.778 399.224 312.102 400.766 307.425C402.185 312.104 406.513 315.508 411.632 315.508C413.918 315.508 416.046 314.829 417.827 313.661C418.775 314.878 420.06 315.816 421.542 316.332L390.802 317.23Z"/>
</mask>
<path fill-rule="evenodd" clip-rule="evenodd" d="M415.567 284.733C413.306 279.137 407.844 275.191 401.466 275.191C394.144 275.191 388.03 280.39 386.578 287.317C386.493 287.315 386.407 287.314 386.321 287.314C377.918 287.314 371.106 294.162 371.106 302.609C371.106 310.359 376.839 316.762 384.274 317.767L383.585 318.441L384.863 318.404L424.547 317.245L425.385 317.22L425.098 316.725C429.12 316.267 432.245 312.836 432.245 308.671C432.245 306.333 431.26 304.226 429.685 302.747C429.709 302.446 429.721 302.141 429.721 301.834C429.721 298.495 428.295 295.49 426.021 293.402C426.057 293.093 426.075 292.778 426.075 292.46C426.075 287.983 422.465 284.354 418.012 284.354C417.16 284.354 416.338 284.487 415.567 284.733ZM390.802 317.23C395.497 315.778 399.224 312.102 400.766 307.425C402.185 312.104 406.513 315.508 411.632 315.508C413.918 315.508 416.046 314.829 417.827 313.661C418.775 314.878 420.06 315.816 421.542 316.332L390.802 317.23Z" fill="#3D9922"/>
<path d="M415.567 284.733L412.786 285.857L413.829 288.438L416.48 287.591L415.567 284.733ZM386.578 287.317L386.528 290.316L389.006 290.357L389.514 287.932L386.578 287.317ZM384.274 317.767L386.373 319.911L390.758 315.616L384.676 314.794L384.274 317.767ZM383.585 318.441L381.486 316.298L376.006 321.664L383.673 321.44L383.585 318.441ZM384.863 318.404L384.951 321.403H384.951L384.863 318.404ZM424.547 317.245L424.634 320.244H424.635L424.547 317.245ZM425.385 317.22L425.472 320.219L430.498 320.072L427.982 315.719L425.385 317.22ZM425.098 316.725L424.759 313.744L420.209 314.261L422.501 318.226L425.098 316.725ZM429.685 302.747L426.694 302.512L426.581 303.948L427.631 304.934L429.685 302.747ZM426.021 293.402L423.041 293.059L422.866 294.577L423.992 295.611L426.021 293.402ZM400.766 307.425L403.637 306.554L400.885 297.483L397.917 306.485L400.766 307.425ZM390.802 317.23L389.915 314.364L390.889 320.229L390.802 317.23ZM417.827 313.661L420.195 311.819L418.496 309.636L416.183 311.152L417.827 313.661ZM421.542 316.332L421.63 319.331L422.528 313.499L421.542 316.332ZM401.466 278.191C406.572 278.191 410.964 281.349 412.786 285.857L418.349 283.61C415.648 276.926 409.116 272.191 401.466 272.191V278.191ZM389.514 287.932C390.683 282.356 395.603 278.191 401.466 278.191V272.191C392.685 272.191 385.377 278.424 383.642 286.701L389.514 287.932ZM386.321 290.314C386.39 290.314 386.459 290.315 386.528 290.316L386.628 284.317C386.526 284.315 386.424 284.314 386.321 284.314V290.314ZM374.106 302.609C374.106 295.804 379.59 290.314 386.321 290.314V284.314C376.246 284.314 368.106 292.52 368.106 302.609H374.106ZM384.676 314.794C378.721 313.989 374.106 308.849 374.106 302.609H368.106C368.106 311.868 374.957 319.535 383.872 320.74L384.676 314.794ZM385.684 320.585L386.373 319.911L382.175 315.624L381.486 316.298L385.684 320.585ZM384.776 315.405L383.498 315.443L383.673 321.44L384.951 321.403L384.776 315.405ZM424.459 314.246L384.776 315.405L384.951 321.403L424.634 320.244L424.459 314.246ZM425.297 314.222L424.459 314.246L424.635 320.244L425.472 320.219L425.297 314.222ZM422.501 318.226L422.787 318.722L427.982 315.719L427.695 315.224L422.501 318.226ZM429.245 308.671C429.245 311.306 427.269 313.458 424.759 313.744L425.437 319.706C430.97 319.076 435.245 314.367 435.245 308.671H429.245ZM427.631 304.934C428.626 305.868 429.245 307.193 429.245 308.671H435.245C435.245 305.473 433.894 302.585 431.739 300.56L427.631 304.934ZM426.721 301.834C426.721 302.063 426.712 302.289 426.694 302.512L432.676 302.982C432.705 302.603 432.721 302.22 432.721 301.834H426.721ZM423.992 295.611C425.671 297.153 426.721 299.366 426.721 301.834H432.721C432.721 297.623 430.919 293.827 428.051 291.193L423.992 295.611ZM423.075 292.46C423.075 292.664 423.064 292.863 423.041 293.059L429.002 293.745C429.05 293.322 429.075 292.893 429.075 292.46H423.075ZM418.012 287.354C420.794 287.354 423.075 289.625 423.075 292.46H429.075C429.075 286.341 424.137 281.354 418.012 281.354V287.354ZM416.48 287.591C416.96 287.438 417.474 287.354 418.012 287.354V281.354C416.846 281.354 415.717 281.536 414.654 281.876L416.48 287.591ZM397.917 306.485C396.677 310.247 393.677 313.2 389.915 314.364L391.688 320.096C397.318 318.355 401.771 313.956 403.615 308.364L397.917 306.485ZM411.632 312.508C407.88 312.508 404.686 310.013 403.637 306.554L397.895 308.296C399.685 314.195 405.146 318.508 411.632 318.508V312.508ZM416.183 311.152C414.874 312.01 413.315 312.508 411.632 312.508V318.508C414.52 318.508 417.217 317.648 419.472 316.17L416.183 311.152ZM422.528 313.499C421.604 313.177 420.794 312.589 420.195 311.819L415.46 315.504C416.755 317.168 418.516 318.455 420.556 319.166L422.528 313.499ZM390.889 320.229L421.63 319.331L421.454 313.334L390.714 314.231L390.889 320.229Z" fill="#12266F" mask="url(#path-138-outside-6_4042_16005)"/>
<rect x="18.2344" y="284.816" width="3.90839" height="34.7637" fill="#12266F"/>
<path d="M20.1887 304.19C30.2797 304.19 38.4389 295.945 38.4389 285.801C38.4389 275.656 30.2797 267.411 20.1887 267.411C10.0977 267.411 1.93848 275.656 1.93848 285.801C1.93848 295.945 10.0977 304.19 20.1887 304.19Z" fill="#FF8600" stroke="#12266F" stroke-width="3"/>
<path d="M20.0494 276.604C27.2881 276.604 33.135 270.691 33.135 263.423C33.135 256.154 27.2881 250.241 20.0494 250.241C12.8108 250.241 6.96387 256.154 6.96387 263.423C6.96387 270.691 12.8108 276.604 20.0494 276.604Z" fill="#FF8600" stroke="#12266F" stroke-width="3"/>
<rect x="464.628" y="285.653" width="3.90839" height="34.7637" fill="#12266F"/>
<path d="M466.582 305.027C476.673 305.027 484.832 296.783 484.832 286.638C484.832 276.494 476.673 268.249 466.582 268.249C456.491 268.249 448.332 276.494 448.332 286.638C448.332 296.783 456.491 305.027 466.582 305.027Z" fill="#FF8600" stroke="#12266F" stroke-width="3"/>
<path d="M466.443 277.442C473.682 277.442 479.529 271.528 479.529 264.26C479.529 256.992 473.682 251.078 466.443 251.078C459.204 251.078 453.357 256.992 453.357 264.26C453.357 271.528 459.204 277.442 466.443 277.442Z" fill="#FF8600" stroke="#12266F" stroke-width="3"/>
<rect x="348.214" y="287.328" width="3.90839" height="34.7637" fill="#12266F"/>
<path d="M350.168 306.702C360.259 306.702 368.418 298.458 368.418 288.313C368.418 278.169 360.259 269.924 350.168 269.924C340.077 269.924 331.918 278.169 331.918 288.313C331.918 298.458 340.077 306.702 350.168 306.702Z" fill="#FF8600" stroke="#12266F" stroke-width="3"/>
<path d="M350.029 279.117C357.268 279.117 363.115 273.203 363.115 265.935C363.115 258.667 357.268 252.753 350.029 252.753C342.79 252.753 336.943 258.667 336.943 265.935C336.943 273.203 342.79 279.117 350.029 279.117Z" fill="#FF8600" stroke="#12266F" stroke-width="3"/>
<rect x="129.624" y="287.328" width="3.90839" height="34.7637" fill="#12266F"/>
<path d="M131.578 306.702C141.669 306.702 149.829 298.457 149.829 288.313C149.829 278.169 141.669 269.924 131.578 269.924C121.487 269.924 113.328 278.169 113.328 288.313C113.328 298.457 121.487 306.702 131.578 306.702Z" fill="#FF8600" stroke="#12266F" stroke-width="3"/>
<path d="M131.439 279.117C138.678 279.117 144.525 273.203 144.525 265.935C144.525 258.667 138.678 252.753 131.439 252.753C124.2 252.753 118.354 258.667 118.354 265.935C118.354 273.203 124.2 279.117 131.439 279.117Z" fill="#FF8600" stroke="#12266F" stroke-width="3"/>
</svg>
