<svg width="157" height="137" viewBox="0 0 157 137" fill="none" xmlns="http://www.w3.org/2000/svg">
<path d="M141.751 70.8429C153.402 101.385 112.911 89.7837 90.7051 96.6819C68.1755 103.681 40.6306 126.246 32.1715 104.346C29.2988 96.9086 35.4641 89.0182 33.538 81.3639C31.532 73.3922 15.3061 65.961 14.9578 50.0399C15.9437 36.5152 33.2168 6.45232 50.9953 16.2122C66.7656 24.8697 53.3153 28.6529 76.6273 40.8086C84.9254 45.1355 86.2329 30.5329 99.7298 22.6505C113.227 14.7682 130.101 40.3009 141.751 70.8429Z" fill="#FF8600"/>
<mask id="path-2-inside-1_28_1052" fill="white">
<path fill-rule="evenodd" clip-rule="evenodd" d="M38.1504 34.2471C34.8367 34.2471 32.1504 36.9334 32.1504 40.2471V84.9229C32.1504 88.2366 34.8367 90.9229 38.1504 90.9229H69.1349L74.7462 100.903L80.3574 90.9229H111.342C114.656 90.9229 117.342 88.2366 117.342 84.9229V40.2471C117.342 36.9334 114.656 34.2471 111.342 34.2471H38.1504Z"/>
</mask>
<path fill-rule="evenodd" clip-rule="evenodd" d="M38.1504 34.2471C34.8367 34.2471 32.1504 36.9334 32.1504 40.2471V84.9229C32.1504 88.2366 34.8367 90.9229 38.1504 90.9229H69.1349L74.7462 100.903L80.3574 90.9229H111.342C114.656 90.9229 117.342 88.2366 117.342 84.9229V40.2471C117.342 36.9334 114.656 34.2471 111.342 34.2471H38.1504Z" fill="white"/>
<path d="M69.1349 90.9229L70.8783 89.9427L70.3049 88.9229H69.1349V90.9229ZM74.7462 100.903L73.0028 101.883L74.7462 104.984L76.4895 101.883L74.7462 100.903ZM80.3574 90.9229V88.9229H79.1874L78.614 89.9427L80.3574 90.9229ZM34.1504 40.2471C34.1504 38.0379 35.9413 36.2471 38.1504 36.2471V32.2471C33.7321 32.2471 30.1504 35.8288 30.1504 40.2471H34.1504ZM34.1504 84.9229V40.2471H30.1504V84.9229H34.1504ZM38.1504 88.9229C35.9412 88.9229 34.1504 87.132 34.1504 84.9229H30.1504C30.1504 89.3412 33.7321 92.9229 38.1504 92.9229V88.9229ZM69.1349 88.9229H38.1504V92.9229H69.1349V88.9229ZM76.4895 99.9232L70.8783 89.9427L67.3915 91.903L73.0028 101.883L76.4895 99.9232ZM78.614 89.9427L73.0028 99.9232L76.4895 101.883L82.1008 91.903L78.614 89.9427ZM111.342 88.9229H80.3574V92.9229H111.342V88.9229ZM115.342 84.9229C115.342 87.132 113.551 88.9229 111.342 88.9229V92.9229C115.76 92.9229 119.342 89.3412 119.342 84.9229H115.342ZM115.342 40.2471V84.9229H119.342V40.2471H115.342ZM111.342 36.2471C113.551 36.2471 115.342 38.0379 115.342 40.2471H119.342C119.342 35.8288 115.76 32.2471 111.342 32.2471V36.2471ZM38.1504 36.2471H111.342V32.2471H38.1504V36.2471Z" fill="#1A3185" mask="url(#path-2-inside-1_28_1052)"/>
<path fill-rule="evenodd" clip-rule="evenodd" d="M69.6866 48.2876C69.1343 48.2876 68.6866 48.7353 68.6866 49.2876C68.6866 49.8399 69.1343 50.2876 69.6866 50.2876L108.322 50.2876C108.874 50.2876 109.322 49.8399 109.322 49.2876C109.322 48.7353 108.874 48.2876 108.322 48.2876L69.6866 48.2876ZM41.1699 68.5069C40.6176 68.5069 40.1699 68.9546 40.1699 69.5069C40.1699 70.0592 40.6176 70.5069 41.1699 70.5069H108.322C108.874 70.5069 109.322 70.0592 109.322 69.5069C109.322 68.9546 108.874 68.5069 108.322 68.5069H41.1699ZM64.9439 58.1987C64.9439 57.6464 65.3916 57.1987 65.9439 57.1987H68.221C68.7733 57.1987 69.221 57.6464 69.221 58.1987C69.221 58.751 68.7733 59.1987 68.221 59.1987H65.9439C65.3916 59.1987 64.9439 58.751 64.9439 58.1987ZM41.1699 75.9079C40.6176 75.9079 40.1699 76.3556 40.1699 76.9079C40.1699 77.4601 40.6176 77.9079 41.1699 77.9079H60.7353C61.2876 77.9079 61.7353 77.4601 61.7353 76.9079C61.7353 76.3556 61.2876 75.9079 60.7353 75.9079H41.1699ZM71.7161 58.1987C71.7161 57.6464 72.1639 57.1987 72.7161 57.1987L106.896 57.1987C107.448 57.1987 107.896 57.6464 107.896 58.1987C107.896 58.751 107.448 59.1987 106.896 59.1987L72.7161 59.1987C72.1639 59.1987 71.7161 58.751 71.7161 58.1987ZM66.8347 52.7428C66.2824 52.7428 65.8347 53.1905 65.8347 53.7428C65.8347 54.2951 66.2824 54.7428 66.8347 54.7428L75.3495 54.7428C75.9017 54.7428 76.3495 54.2951 76.3495 53.7428C76.3495 53.1905 75.9017 52.7428 75.3495 52.7428L66.8347 52.7428ZM79.5693 53.7428C79.5693 53.1905 80.017 52.7428 80.5693 52.7428L83.014 52.7428C83.5662 52.7428 84.014 53.1905 84.014 53.7428C84.014 54.2951 83.5662 54.7428 83.014 54.7428L80.5693 54.7428C80.017 54.7428 79.5693 54.2951 79.5693 53.7428ZM86.439 52.7428C85.8867 52.7428 85.439 53.1905 85.439 53.7428C85.439 54.2951 85.8867 54.7428 86.439 54.7428L108.321 54.7428C108.874 54.7428 109.321 54.2951 109.321 53.7428C109.321 53.1905 108.874 52.7428 108.321 52.7428L86.439 52.7428Z" fill="#1A3185"/>
<circle cx="48.7249" cy="50.6199" r="11.8323" stroke="#1A3185" stroke-width="2"/>
<path fill-rule="evenodd" clip-rule="evenodd" d="M64.7937 39.2151C63.3669 37.7882 61.0535 37.7882 59.6267 39.2151L48.7264 50.1154L46.6465 48.0356C45.2197 46.6088 42.9064 46.6088 41.4795 48.0356C40.0527 49.4624 40.0527 51.7757 41.4795 53.2026L46.076 57.799C46.0976 57.8218 46.1197 57.8444 46.142 57.8667C47.5688 59.2935 49.8822 59.2935 51.309 57.8667L64.7937 44.382C66.2205 42.9552 66.2205 40.6419 64.7937 39.2151Z" fill="#1A3185"/>
</svg>
