<svg width="21" height="25" viewBox="0 0 21 25" fill="none" xmlns="http://www.w3.org/2000/svg">
<path d="M6.4776 22.3318C3.23765 20.1875 1.93111 17.5967 2.46867 20.1279C1.95088 17.6898 1.72281 14.0972 2.46843 12.6641C3.40046 10.8728 5.19568 10.1598 6.67971 9.23076C9.32045 7.57767 8.52661 1.3082 12.4101 1.00965C16.2935 0.711102 13.0486 7.42842 13.0486 8.62261C15.7411 8.2743 19.1067 8.77185 19.5727 10.4139C19.9793 11.8465 19.1181 12.4716 18.2523 12.6323C19.3391 12.6681 20.3858 13.1263 20.4876 14.5936C20.5938 16.1236 19.1587 16.4275 17.7699 16.4216C18.7014 16.6361 19.5727 17.5201 19.5727 18.4748C19.5727 19.979 18.4831 20.2983 17.3288 20.2616C17.9737 20.499 18.5437 21.0574 18.4682 22.2178C18.3743 23.6614 17.0922 23.9399 13.7984 23.9898C11.2431 24.0285 8.60873 23.7422 6.4776 22.3318Z" fill="#3D9922"/>
<path d="M6.4776 22.3318L6.20165 22.7487H6.20165L6.4776 22.3318ZM13.7984 23.9898L13.806 24.4897L13.7984 23.9898ZM18.4682 22.2178L18.9672 22.2502V22.2502L18.4682 22.2178ZM16.1382 20.1279L16.0785 19.6315L16.0536 20.6207L16.1382 20.1279ZM17.0702 16.3961L16.9841 15.9035L17.0382 16.8951L17.0702 16.3961ZM20.4876 14.5936L19.9888 14.6282L20.4876 14.5936ZM17.5362 12.6641L17.4789 12.1674L17.4859 13.1616L17.5362 12.6641ZM19.5727 10.4139L20.0538 10.2774L19.5727 10.4139ZM13.0486 8.62261H12.5486V9.19145L13.1127 9.11847L13.0486 8.62261ZM12.4101 1.00965L12.4484 1.50818L12.4101 1.00965ZM6.67971 9.23076L6.41441 8.80695L6.67971 9.23076ZM2.46843 12.6641L2.91199 12.8949L2.46843 12.6641ZM2.95777 20.0241C2.8916 19.7125 2.86006 19.5071 2.85292 19.3799C2.84929 19.3153 2.85364 19.2956 2.85215 19.3032C2.85213 19.3033 2.83516 19.4035 2.72876 19.4903C2.60227 19.5935 2.46576 19.5872 2.40852 19.5756C2.36332 19.5665 2.35114 19.5528 2.38486 19.5735C2.44894 19.6129 2.55546 19.6979 2.72167 19.8478C3.35753 20.4214 4.54039 21.6493 6.20165 22.7487L6.75355 21.9148C5.17486 20.87 4.08447 19.7304 3.39147 19.1053C3.22547 18.9555 3.05879 18.8139 2.90836 18.7215C2.83482 18.6763 2.73004 18.6204 2.60688 18.5955C2.47167 18.5681 2.27183 18.5725 2.09658 18.7155C1.94142 18.8421 1.89027 19.0111 1.87061 19.112C1.84948 19.2204 1.84873 19.3334 1.85449 19.436C1.86613 19.6432 1.91136 19.9106 1.97958 20.2318L2.95777 20.0241ZM13.806 24.4897C15.4397 24.465 16.6644 24.3857 17.4961 24.0992C17.9252 23.9514 18.2897 23.736 18.5518 23.41C18.8167 23.0805 18.9388 22.6857 18.9672 22.2502L17.9693 22.1853C17.9507 22.4717 17.8773 22.6531 17.7725 22.7834C17.6648 22.9172 17.4854 23.0452 17.1704 23.1537C16.5142 23.3798 15.4508 23.4647 13.7908 23.4898L13.806 24.4897ZM18.9672 22.2502C19.0107 21.5804 18.8695 21.0352 18.5822 20.6125C18.2968 20.1928 17.8978 19.9382 17.5015 19.7924L17.1561 20.7308C17.4048 20.8223 17.6131 20.9657 17.7551 21.1747C17.8951 21.3806 18.0012 21.6948 17.9693 22.1853L18.9672 22.2502ZM17.5015 19.7924C16.9959 19.6062 16.4656 19.585 16.0785 19.6315L16.1978 20.6244C16.4614 20.5927 16.8277 20.6099 17.1561 20.7308L17.5015 19.7924ZM16.0536 20.6207C16.4392 20.6869 16.8763 20.7474 17.3129 20.7613L17.3447 19.7618C16.9742 19.7501 16.5883 19.6979 16.2227 19.6351L16.0536 20.6207ZM17.3129 20.7613C17.9223 20.7807 18.6063 20.7127 19.1507 20.3687C19.7377 19.9979 20.0727 19.3662 20.0727 18.4748H19.0727C19.0727 19.0876 18.8629 19.3677 18.6166 19.5233C18.3276 19.7059 17.8896 19.7792 17.3447 19.7618L17.3129 20.7613ZM20.0727 18.4748C20.0727 17.8443 19.787 17.2696 19.3903 16.834C18.9935 16.3981 18.4552 16.0664 17.882 15.9344L17.6577 16.9089C18.016 16.9914 18.3792 17.2089 18.6509 17.5072C18.9228 17.8059 19.0727 18.1505 19.0727 18.4748H20.0727ZM17.882 15.9344C17.5922 15.8677 17.2868 15.8507 16.9841 15.9035L17.1562 16.8886C17.3105 16.8617 17.4801 16.868 17.6577 16.9089L17.882 15.9344ZM17.0382 16.8951C17.272 16.91 17.5181 16.9206 17.7677 16.9216L17.772 15.9216C17.5472 15.9207 17.3216 15.9112 17.1021 15.8971L17.0382 16.8951ZM17.7677 16.9216C18.4792 16.9247 19.2869 16.8522 19.9177 16.5284C20.243 16.3614 20.5363 16.1199 20.7355 15.7765C20.9355 15.4317 21.0186 15.0227 20.9864 14.559L19.9888 14.6282C20.0097 14.9296 19.9532 15.1323 19.8706 15.2746C19.7872 15.4183 19.6548 15.5393 19.461 15.6388C19.0536 15.8479 18.4493 15.9245 17.772 15.9216L17.7677 16.9216ZM20.9864 14.559C20.9266 13.6974 20.5784 13.0735 20.036 12.6737C19.5138 12.2887 18.8671 12.1523 18.2687 12.1326L18.2359 13.132C18.7243 13.1481 19.1444 13.2587 19.4426 13.4786C19.7208 13.6836 19.9468 14.0225 19.9888 14.6282L20.9864 14.559ZM18.2687 12.1326C18.0006 12.1238 17.7338 12.138 17.4789 12.1674L17.5935 13.1608C17.8069 13.1362 18.024 13.1251 18.2359 13.132L18.2687 12.1326ZM17.4859 13.1616C17.7522 13.1885 18.0485 13.1787 18.3436 13.1239L18.161 12.1407C17.9596 12.1781 17.7586 12.1841 17.5865 12.1667L17.4859 13.1616ZM18.3436 13.1239C18.8492 13.03 19.413 12.7911 19.7864 12.3044C20.1763 11.7962 20.2898 11.1091 20.0538 10.2774L19.0917 10.5504C19.2623 11.1513 19.1485 11.493 18.993 11.6957C18.821 11.9199 18.5212 12.0739 18.161 12.1407L18.3436 13.1239ZM20.0538 10.2774C19.8937 9.71337 19.4944 9.28594 19.0058 8.97174C18.5183 8.65821 17.9102 8.43561 17.2583 8.28474C15.9539 7.98287 14.3783 7.94642 12.9844 8.12674L13.1127 9.11847C14.4113 8.95049 15.8648 8.98866 17.0329 9.25899C17.6172 9.39423 18.1062 9.58214 18.4649 9.81283C18.8226 10.0429 19.0188 10.2934 19.0917 10.5504L20.0538 10.2774ZM13.5486 8.62261C13.5486 8.55024 13.5795 8.37709 13.6628 8.072C13.7413 7.78428 13.8498 7.43485 13.9729 7.03409C14.2156 6.24383 14.5086 5.27467 14.6775 4.34583C14.8425 3.43885 14.9106 2.46721 14.6126 1.72004C14.4563 1.32837 14.1951 0.987455 13.7956 0.765163C13.4028 0.546592 12.9232 0.468724 12.3717 0.511124L12.4484 1.50818C12.8677 1.47594 13.1363 1.54268 13.3093 1.63899C13.4757 1.73157 13.5981 1.87579 13.6837 2.09054C13.8695 2.55622 13.8545 3.28258 13.6937 4.16688C13.5368 5.02932 13.2613 5.94474 13.0169 6.74052C12.8965 7.13277 12.7818 7.50172 12.698 7.80876C12.619 8.09843 12.5486 8.39643 12.5486 8.62261H13.5486ZM12.3717 0.511124C11.2412 0.598036 10.4404 1.13003 9.85393 1.87957C9.2848 2.60694 8.91559 3.541 8.60558 4.45102C8.28503 5.39195 8.03137 6.29131 7.68428 7.09192C7.34027 7.88546 6.94567 8.47439 6.41441 8.80695L6.94501 9.65457C7.73412 9.16059 8.23057 8.34592 8.60178 7.48968C8.96992 6.6405 9.25564 5.64388 9.55216 4.77349C9.85921 3.87218 10.1847 3.07958 10.6415 2.4958C11.0809 1.93419 11.6372 1.57054 12.4484 1.50818L12.3717 0.511124ZM6.41441 8.80695C6.05366 9.03278 5.67593 9.24433 5.27718 9.47395C4.88376 9.7005 4.47622 9.94117 4.08302 10.2126C3.29343 10.7577 2.54173 11.44 2.02488 12.4333L2.91199 12.8949C3.32716 12.097 3.93909 11.5271 4.65112 11.0356C5.00874 10.7887 5.38651 10.5649 5.7762 10.3405C6.16057 10.1192 6.56375 9.89324 6.94501 9.65457L6.41441 8.80695ZM2.02488 12.4333C1.79947 12.8666 1.66393 13.4261 1.58532 14.0272C1.50575 14.6357 1.48026 15.3216 1.49488 16.0294C1.5241 17.4443 1.71444 18.9833 1.97958 20.2318L2.95777 20.0241C2.70511 18.8344 2.52253 17.358 2.49467 16.0088C2.48074 15.3345 2.50568 14.7013 2.57688 14.1569C2.64902 13.6052 2.76459 13.1782 2.91199 12.8949L2.02488 12.4333ZM6.20165 22.7487C8.46222 24.2449 11.2235 24.5288 13.806 24.4897L13.7908 23.4898C11.2627 23.5281 8.75524 23.2396 6.75355 21.9148L6.20165 22.7487Z" fill="white"/>
<path d="M0.5 9.89819H4.47081V23.3184L0.5 22.0687V9.89819Z" fill="#3D9922" stroke="white"/>
</svg>
