<svg width="25" height="22" viewBox="0 0 25 22" fill="none" xmlns="http://www.w3.org/2000/svg">
<path d="M2.41479 6.73102C4.55909 3.49107 7.14992 2.18453 4.61865 2.72209C7.05683 2.2043 10.6494 1.97623 12.0824 2.72185C13.8738 3.65388 14.5868 5.4491 15.5158 6.93313C17.1689 9.57387 23.4384 8.78002 23.7369 12.6635C24.0355 16.5469 17.3182 13.302 16.124 13.302C16.4723 15.9945 15.9747 19.3602 14.3327 19.8262C12.9001 20.2327 12.275 19.3715 12.1143 18.5057C12.0785 19.5925 11.6203 20.6392 10.153 20.741C8.62297 20.8472 8.31905 19.4121 8.32494 18.0233C8.11046 18.9548 7.22652 19.8262 6.27179 19.8262C4.76757 19.8262 4.44827 18.7365 4.48499 17.5822C4.24762 18.2271 3.68916 18.7971 2.52878 18.7216C1.08513 18.6277 0.806677 17.3456 0.756805 14.0518C0.718117 11.4965 1.00434 8.86215 2.41479 6.73102Z" fill="#0B0A3E"/>
<path d="M2.41479 6.73102L1.99783 6.45507V6.45507L2.41479 6.73102ZM0.756805 14.0518L0.256863 14.0594L0.756805 14.0518ZM2.52878 18.7216L2.49633 19.2206H2.49633L2.52878 18.7216ZM4.61865 16.3916L5.11508 16.3319L4.12585 16.307L4.61865 16.3916ZM8.3505 17.3236L8.84304 17.2375L7.85152 17.2916L8.3505 17.3236ZM10.153 20.741L10.1184 20.2422L10.153 20.741ZM12.0824 17.7896L12.5792 17.7323L11.585 17.7393L12.0824 17.7896ZM14.3327 19.8262L14.4692 20.3072L14.3327 19.8262ZM16.124 13.302V12.802H15.5551L15.6281 13.3661L16.124 13.302ZM23.7369 12.6635L23.2384 12.7018L23.7369 12.6635ZM15.5158 6.93313L15.9396 6.66783L15.5158 6.93313ZM12.0824 2.72185L11.8517 3.1654L12.0824 2.72185ZM4.72252 3.21119C5.0341 3.14502 5.23952 3.11348 5.36669 3.10634C5.4313 3.10271 5.45099 3.10706 5.44334 3.10557C5.44325 3.10555 5.34312 3.08858 5.2563 2.98217C5.1531 2.85568 5.15939 2.71918 5.17097 2.66194C5.18012 2.61674 5.1938 2.60456 5.17309 2.63827C5.13371 2.70236 5.04872 2.80887 4.89878 2.97509C4.32522 3.61095 3.09731 4.7938 1.99783 6.45507L2.83174 7.00697C3.87657 5.42828 5.01622 4.33789 5.64133 3.64489C5.79106 3.47889 5.93268 3.31221 6.02511 3.16178C6.0703 3.08824 6.12618 2.98346 6.1511 2.8603C6.17847 2.72509 6.17411 2.52525 6.03113 2.35C5.90453 2.19483 5.73548 2.14369 5.63461 2.12403C5.52618 2.1029 5.41323 2.10215 5.31061 2.10791C5.10335 2.11955 4.83602 2.16478 4.51478 2.233L4.72252 3.21119ZM0.256863 14.0594C0.281599 15.6932 0.360857 16.9178 0.647394 17.7495C0.795198 18.1786 1.01063 18.5431 1.33656 18.8052C1.66605 19.0702 2.06085 19.1923 2.49633 19.2206L2.56124 18.2227C2.27489 18.2041 2.09352 18.1307 1.96321 18.0259C1.82934 17.9183 1.70136 17.7388 1.59286 17.4238C1.36679 16.7676 1.28188 15.7043 1.25675 14.0442L0.256863 14.0594ZM2.49633 19.2206C3.16617 19.2642 3.71135 19.123 4.1341 18.8356C4.55382 18.5503 4.80837 18.1512 4.95421 17.755L4.01577 17.4095C3.92424 17.6582 3.78087 17.8665 3.57192 18.0086C3.36601 18.1485 3.05178 18.2546 2.56123 18.2227L2.49633 19.2206ZM4.95421 17.755C5.14034 17.2493 5.16157 16.719 5.11508 16.3319L4.12222 16.4512C4.15389 16.7149 4.13665 17.0811 4.01577 17.4095L4.95421 17.755ZM4.12585 16.307C4.05968 16.6926 3.99914 17.1297 3.98525 17.5663L4.98474 17.5981C4.99653 17.2276 5.0487 16.8417 5.11145 16.4761L4.12585 16.307ZM3.98525 17.5663C3.96586 18.1758 4.03387 18.8597 4.37783 19.4041C4.74871 19.9912 5.38041 20.3262 6.27179 20.3262V19.3262C5.65895 19.3262 5.37889 19.1164 5.22324 18.87C5.04068 18.581 4.96741 18.143 4.98474 17.5981L3.98525 17.5663ZM6.27179 20.3262C6.90225 20.3262 7.47695 20.0404 7.91258 19.6438C8.34847 19.2469 8.68022 18.7086 8.81219 18.1355L7.83769 17.9111C7.75517 18.2695 7.53772 18.6327 7.23934 18.9043C6.9407 19.1762 6.59607 19.3262 6.27179 19.3262V20.3262ZM8.81219 18.1355C8.87893 17.8456 8.89593 17.5402 8.84304 17.2375L7.85796 17.4097C7.88491 17.5639 7.87857 17.7335 7.83769 17.9111L8.81219 18.1355ZM7.85152 17.2916C7.83655 17.5254 7.826 17.7715 7.82494 18.0212L8.82493 18.0254C8.82589 17.8006 8.83542 17.575 8.84948 17.3556L7.85152 17.2916ZM7.82494 18.0212C7.82193 18.7327 7.89433 19.5403 8.21819 20.1711C8.3852 20.4964 8.62665 20.7897 8.97012 20.9889C9.31486 21.189 9.72393 21.272 10.1876 21.2398L10.1184 20.2422C9.817 20.2631 9.61433 20.2066 9.47196 20.124C9.32832 20.0406 9.20729 19.9082 9.1078 19.7144C8.89867 19.3071 8.82206 18.7028 8.82493 18.0254L7.82494 18.0212ZM10.1876 21.2398C11.0492 21.1801 11.673 20.8318 12.0729 20.2894C12.4579 19.7672 12.5943 19.1205 12.614 18.5222L11.6145 18.4893C11.5985 18.9777 11.4879 19.3978 11.268 19.696C11.063 19.9742 10.7241 20.2002 10.1184 20.2422L10.1876 21.2398ZM12.614 18.5222C12.6228 18.254 12.6085 17.9872 12.5792 17.7323L11.5857 17.8469C11.6104 18.0604 11.6215 18.2774 11.6145 18.4893L12.614 18.5222ZM11.585 17.7393C11.5581 18.0056 11.5679 18.3019 11.6227 18.597L12.6059 18.4145C12.5685 18.213 12.5625 18.0121 12.5799 17.8399L11.585 17.7393ZM11.6227 18.597C11.7165 19.1026 11.9555 19.6664 12.4422 20.0398C12.9503 20.4297 13.6374 20.5432 14.4692 20.3072L14.1962 19.3452C13.5953 19.5157 13.2536 19.4019 13.0509 19.2464C12.8267 19.0744 12.6727 18.7746 12.6059 18.4145L11.6227 18.597ZM14.4692 20.3072C15.0332 20.1471 15.4606 19.7478 15.7748 19.2592C16.0884 18.7717 16.311 18.1636 16.4618 17.5117C16.7637 16.2074 16.8002 14.6318 16.6198 13.2378L15.6281 13.3661C15.7961 14.6647 15.7579 16.1182 15.4876 17.2863C15.3524 17.8706 15.1644 18.3596 14.9338 18.7183C14.7037 19.076 14.4532 19.2722 14.1962 19.3452L14.4692 20.3072ZM16.124 13.802C16.1963 13.802 16.3695 13.8329 16.6746 13.9162C16.9623 13.9947 17.3117 14.1032 17.7125 14.2263C18.5028 14.469 19.4719 14.762 20.4008 14.9309C21.3077 15.0959 22.2794 15.164 23.0265 14.866C23.4182 14.7097 23.7591 14.4485 23.9814 14.049C24.2 13.6562 24.2779 13.1767 24.2355 12.6251L23.2384 12.7018C23.2706 13.1211 23.2039 13.3897 23.1076 13.5628C23.015 13.7291 22.8708 13.8515 22.656 13.9371C22.1904 14.1229 21.464 14.1079 20.5797 13.9471C19.7173 13.7902 18.8018 13.5147 18.0061 13.2704C17.6138 13.1499 17.2449 13.0352 16.9378 12.9515C16.6481 12.8724 16.3502 12.802 16.124 12.802V13.802ZM24.2355 12.6251C24.1485 11.4946 23.6166 10.6938 22.867 10.1073C22.1396 9.53822 21.2056 9.16901 20.2956 8.859C19.3546 8.53845 18.4553 8.28478 17.6547 7.9377C16.8611 7.59369 16.2722 7.19909 15.9396 6.66783L15.092 7.19843C15.586 7.98754 16.4007 8.48399 17.2569 8.85519C18.1061 9.22333 19.1027 9.50906 19.9731 9.80558C20.8744 10.1126 21.667 10.4381 22.2508 10.8949C22.8124 11.3343 23.176 11.8906 23.2384 12.7018L24.2355 12.6251ZM15.9396 6.66783C15.7138 6.30708 15.5023 5.92935 15.2726 5.5306C15.0461 5.13717 14.8054 4.72964 14.534 4.33644C13.9889 3.54685 13.3066 2.79515 12.3132 2.2783L11.8517 3.1654C12.6496 3.58058 13.2195 4.19251 13.711 4.90454C13.9579 5.26216 14.1816 5.63993 14.406 6.02962C14.6274 6.41398 14.8533 6.81716 15.092 7.19843L15.9396 6.66783ZM12.3132 2.2783C11.88 2.05289 11.3205 1.91735 10.7194 1.83874C10.1109 1.75917 9.42494 1.73368 8.71715 1.7483C7.30227 1.77752 5.76326 1.96786 4.51478 2.233L4.72252 3.21119C5.91221 2.95853 7.38858 2.77595 8.73779 2.74809C9.41205 2.73416 10.0453 2.7591 10.5897 2.83029C11.1414 2.90244 11.5684 3.01801 11.8517 3.1654L12.3132 2.2783ZM1.99783 6.45507C0.501717 8.71564 0.217762 11.4769 0.256863 14.0594L1.25675 14.0442C1.21847 11.5161 1.50697 9.00865 2.83174 7.00697L1.99783 6.45507Z" fill="white"/>
<path d="M14.8484 0.753418V4.72423L1.42819 4.72423L2.67793 0.753418L14.8484 0.753418Z" fill="#0B0A3E" stroke="white"/>
</svg>
