<svg width="22" height="25" viewBox="0 0 22 25" fill="none" xmlns="http://www.w3.org/2000/svg">
<path d="M6.97748 22.3318C3.73753 20.1875 2.43099 17.5967 2.96855 20.1279C2.45076 17.6898 2.22269 14.0972 2.96831 12.6641C3.90034 10.8728 5.69556 10.1598 7.17959 9.23076C9.82033 7.57767 9.02648 1.3082 12.9099 1.00965C16.7934 0.711102 13.5484 7.42842 13.5484 8.62261C16.241 8.2743 19.6066 8.77185 20.0726 10.4139C20.4792 11.8465 19.618 12.4716 18.7522 12.6323C19.839 12.6681 20.8857 13.1263 20.9875 14.5936C21.0936 16.1236 19.6586 16.4275 18.2697 16.4216C19.2013 16.6361 20.0726 17.5201 20.0726 18.4748C20.0726 19.979 18.983 20.2983 17.8287 20.2616C18.4736 20.499 19.0436 21.0574 18.9681 22.2178C18.8742 23.6614 17.5921 23.9399 14.2983 23.9898C11.743 24.0285 9.10861 23.7422 6.97748 22.3318Z" fill="#3D9922"/>
<path d="M6.97748 22.3318L6.70153 22.7487H6.70153L6.97748 22.3318ZM14.2983 23.9898L14.3058 24.4897L14.2983 23.9898ZM18.9681 22.2178L19.467 22.2502V22.2502L18.9681 22.2178ZM16.638 20.1279L16.5784 19.6315L16.5535 20.6207L16.638 20.1279ZM17.5701 16.3961L17.484 15.9035L17.5381 16.8951L17.5701 16.3961ZM20.9875 14.5936L20.4887 14.6282L20.9875 14.5936ZM18.0361 12.6641L17.9788 12.1674L17.9858 13.1616L18.0361 12.6641ZM20.0726 10.4139L20.5536 10.2774L20.0726 10.4139ZM13.5484 8.62261H13.0484V9.19145L13.6126 9.11847L13.5484 8.62261ZM12.9099 1.00965L12.9483 1.50818L12.9099 1.00965ZM7.17959 9.23076L6.91429 8.80695L7.17959 9.23076ZM2.96831 12.6641L3.41186 12.8949L2.96831 12.6641ZM3.45765 20.0241C3.39148 19.7125 3.35994 19.5071 3.3528 19.3799C3.34917 19.3153 3.35352 19.2956 3.35203 19.3032C3.35201 19.3033 3.33504 19.4035 3.22863 19.4903C3.10214 19.5935 2.96564 19.5872 2.90839 19.5756C2.8632 19.5665 2.85102 19.5528 2.88473 19.5735C2.94882 19.6129 3.05533 19.6979 3.22155 19.8478C3.85741 20.4214 5.04026 21.6493 6.70153 22.7487L7.25343 21.9148C5.67474 20.87 4.58435 19.7304 3.89135 19.1053C3.72535 18.9555 3.55867 18.8139 3.40824 18.7215C3.3347 18.6763 3.22992 18.6204 3.10676 18.5955C2.97155 18.5681 2.77171 18.5725 2.59646 18.7155C2.44129 18.8421 2.39015 19.0111 2.37049 19.112C2.34936 19.2204 2.34861 19.3334 2.35437 19.436C2.36601 19.6432 2.41124 19.9106 2.47946 20.2318L3.45765 20.0241ZM14.3058 24.4897C15.9396 24.465 17.1643 24.3857 17.996 24.0992C18.4251 23.9514 18.7896 23.736 19.0517 23.41C19.3166 23.0805 19.4387 22.6857 19.467 22.2502L18.4692 22.1853C18.4505 22.4717 18.3772 22.6531 18.2724 22.7834C18.1647 22.9172 17.9852 23.0452 17.6703 23.1537C17.0141 23.3798 15.9507 23.4647 14.2907 23.4898L14.3058 24.4897ZM19.467 22.2502C19.5106 21.5804 19.3694 21.0352 19.082 20.6125C18.7967 20.1928 18.3976 19.9382 18.0014 19.7924L17.656 20.7308C17.9046 20.8223 18.113 20.9657 18.255 21.1747C18.395 21.3806 18.5011 21.6948 18.4692 22.1853L19.467 22.2502ZM18.0014 19.7924C17.4958 19.6062 16.9654 19.585 16.5784 19.6315L16.6977 20.6244C16.9613 20.5927 17.3276 20.6099 17.656 20.7308L18.0014 19.7924ZM16.5535 20.6207C16.939 20.6869 17.3761 20.7474 17.8128 20.7613L17.8446 19.7618C17.4741 19.7501 17.0882 19.6979 16.7226 19.6351L16.5535 20.6207ZM17.8128 20.7613C18.4222 20.7807 19.1062 20.7127 19.6506 20.3687C20.2376 19.9979 20.5726 19.3662 20.5726 18.4748H19.5726C19.5726 19.0876 19.3628 19.3677 19.1165 19.5233C18.8275 19.7059 18.3895 19.7792 17.8446 19.7618L17.8128 20.7613ZM20.5726 18.4748C20.5726 17.8443 20.2869 17.2696 19.8902 16.834C19.4933 16.3981 18.9551 16.0664 18.3819 15.9344L18.1576 16.9089C18.5159 16.9914 18.8791 17.2089 19.1508 17.5072C19.4227 17.8059 19.5726 18.1505 19.5726 18.4748H20.5726ZM18.3819 15.9344C18.0921 15.8677 17.7867 15.8507 17.484 15.9035L17.6561 16.8886C17.8104 16.8617 17.98 16.868 18.1576 16.9089L18.3819 15.9344ZM17.5381 16.8951C17.7718 16.91 18.018 16.9206 18.2676 16.9216L18.2719 15.9216C18.0471 15.9207 17.8215 15.9112 17.602 15.8971L17.5381 16.8951ZM18.2676 16.9216C18.9791 16.9247 19.7868 16.8522 20.4176 16.5284C20.7429 16.3614 21.0361 16.1199 21.2354 15.7765C21.4354 15.4317 21.5185 15.0227 21.4863 14.559L20.4887 14.6282C20.5096 14.9296 20.4531 15.1323 20.3704 15.2746C20.2871 15.4183 20.1547 15.5393 19.9609 15.6388C19.5535 15.8479 18.9492 15.9245 18.2719 15.9216L18.2676 16.9216ZM21.4863 14.559C21.4265 13.6974 21.0783 13.0735 20.5359 12.6737C20.0136 12.2887 19.367 12.1523 18.7686 12.1326L18.7357 13.132C19.2242 13.1481 19.6443 13.2587 19.9425 13.4786C20.2206 13.6836 20.4467 14.0225 20.4887 14.6282L21.4863 14.559ZM18.7686 12.1326C18.5005 12.1238 18.2336 12.138 17.9788 12.1674L18.0934 13.1608C18.3068 13.1362 18.5239 13.1251 18.7357 13.132L18.7686 12.1326ZM17.9858 13.1616C18.2521 13.1885 18.5484 13.1787 18.8434 13.1239L18.6609 12.1407C18.4595 12.1781 18.2585 12.1841 18.0864 12.1667L17.9858 13.1616ZM18.8434 13.1239C19.3491 13.03 19.9128 12.7911 20.2862 12.3044C20.6761 11.7962 20.7897 11.1091 20.5536 10.2774L19.5916 10.5504C19.7621 11.1513 19.6484 11.493 19.4929 11.6957C19.3208 11.9199 19.0211 12.0739 18.6609 12.1407L18.8434 13.1239ZM20.5536 10.2774C20.3936 9.71337 19.9943 9.28594 19.5057 8.97174C19.0182 8.65821 18.4101 8.43561 17.7582 8.28474C16.4538 7.98287 14.8782 7.94642 13.4843 8.12674L13.6126 9.11847C14.9112 8.95049 16.3647 8.98866 17.5327 9.25899C18.1171 9.39423 18.6061 9.58214 18.9648 9.81283C19.3225 10.0429 19.5187 10.2934 19.5916 10.5504L20.5536 10.2774ZM14.0484 8.62261C14.0484 8.55024 14.0794 8.37709 14.1626 8.072C14.2412 7.78428 14.3497 7.43485 14.4727 7.03409C14.7154 6.24383 15.0085 5.27467 15.1774 4.34583C15.3424 3.43885 15.4105 2.46721 15.1124 1.72004C14.9562 1.32837 14.6949 0.987455 14.2955 0.765163C13.9027 0.546592 13.4231 0.468724 12.8716 0.511124L12.9483 1.50818C13.3676 1.47594 13.6362 1.54268 13.8092 1.63899C13.9756 1.73157 14.0979 1.87579 14.1836 2.09054C14.3694 2.55622 14.3544 3.28258 14.1935 4.16688C14.0367 5.02932 13.7612 5.94474 13.5168 6.74052C13.3964 7.13277 13.2817 7.50172 13.1979 7.80876C13.1189 8.09843 13.0484 8.39643 13.0484 8.62261H14.0484ZM12.8716 0.511124C11.7411 0.598036 10.9403 1.13003 10.3538 1.87957C9.78468 2.60694 9.41547 3.541 9.10546 4.45102C8.78491 5.39195 8.53124 6.29131 8.18416 7.09192C7.84015 7.88546 7.44555 8.47439 6.91429 8.80695L7.44489 9.65457C8.234 9.16059 8.73045 8.34592 9.10165 7.48968C9.46979 6.6405 9.75552 5.64388 10.052 4.77349C10.3591 3.87218 10.6846 3.07958 11.1414 2.4958C11.5808 1.93419 12.1371 1.57054 12.9483 1.50818L12.8716 0.511124ZM6.91429 8.80695C6.55354 9.03278 6.17581 9.24433 5.77706 9.47395C5.38363 9.7005 4.9761 9.94117 4.5829 10.2126C3.79331 10.7577 3.04161 11.44 2.52476 12.4333L3.41186 12.8949C3.82704 12.097 4.43897 11.5271 5.151 11.0356C5.50862 10.7887 5.88639 10.5649 6.27608 10.3405C6.66044 10.1192 7.06362 9.89324 7.44489 9.65457L6.91429 8.80695ZM2.52476 12.4333C2.29935 12.8666 2.16381 13.4261 2.0852 14.0272C2.00563 14.6357 1.98014 15.3216 1.99476 16.0294C2.02398 17.4443 2.21432 18.9833 2.47946 20.2318L3.45765 20.0241C3.20499 18.8344 3.02241 17.358 2.99455 16.0088C2.98062 15.3345 3.00556 14.7013 3.07675 14.1569C3.1489 13.6052 3.26447 13.1782 3.41186 12.8949L2.52476 12.4333ZM6.70153 22.7487C8.9621 24.2449 11.7234 24.5288 14.3058 24.4897L14.2907 23.4898C11.7626 23.5281 9.25511 23.2396 7.25343 21.9148L6.70153 22.7487Z" fill="white"/>
<path d="M1 9.89819H4.97081V23.3184L1 22.0687V9.89819Z" fill="#3D9922" stroke="white"/>
</svg>
