<svg width="22" height="25" viewBox="0 0 22 25" fill="none" xmlns="http://www.w3.org/2000/svg">
<path d="M6.9776 2.66821C3.73765 4.8125 2.43111 7.40333 2.96867 4.87207C2.45088 7.31024 2.22281 10.9028 2.96843 12.3359C3.90046 14.1272 5.69568 14.8402 7.17971 15.7692C9.82045 17.4223 9.02661 23.6918 12.9101 23.9903C16.7935 24.2889 13.5486 17.5716 13.5486 16.3774C16.2411 16.7257 19.6067 16.2281 20.0727 14.5861C20.4793 13.1535 19.6181 12.5284 18.7523 12.3677C19.8391 12.3319 20.8858 11.8737 20.9876 10.4064C21.0938 8.87639 19.6587 8.57247 18.2699 8.57836C19.2014 8.36388 20.0727 7.47994 20.0727 6.52521C20.0727 5.02099 18.9831 4.70169 17.8288 4.73841C18.4737 4.50103 19.0437 3.94258 18.9682 2.7822C18.8743 1.33855 17.5922 1.06009 14.2984 1.01022C11.7431 0.971535 9.10873 1.25776 6.9776 2.66821Z" fill="#FF8600"/>
<path d="M6.9776 2.66821L6.70165 2.25125H6.70165L6.9776 2.66821ZM14.2984 1.01022L14.306 0.510281L14.2984 1.01022ZM18.9682 2.7822L19.4672 2.74975V2.74975L18.9682 2.7822ZM16.6382 4.87207L16.5785 5.3685L16.5536 4.37927L16.6382 4.87207ZM17.5702 8.60392L17.4841 9.09646L17.5382 8.10494L17.5702 8.60392ZM20.9876 10.4064L20.4888 10.3718L20.9876 10.4064ZM18.0362 12.3359L17.9789 12.8326L17.9859 11.8384L18.0362 12.3359ZM20.0727 14.5861L20.5538 14.7226L20.0727 14.5861ZM13.5486 16.3774H13.0486V15.8085L13.6127 15.8815L13.5486 16.3774ZM12.9101 23.9903L12.9484 23.4918L12.9101 23.9903ZM7.17971 15.7692L6.91441 16.193L7.17971 15.7692ZM2.96843 12.3359L3.41199 12.1051L2.96843 12.3359ZM3.45777 4.97594C3.3916 5.28752 3.36006 5.49294 3.35292 5.62011C3.34929 5.68471 3.35364 5.70441 3.35215 5.69675C3.35213 5.69666 3.33516 5.59654 3.22876 5.50972C3.10227 5.40652 2.96576 5.41281 2.90852 5.42439C2.86332 5.43354 2.85114 5.44722 2.88486 5.4265C2.94894 5.38713 3.05546 5.30213 3.22167 5.1522C3.85753 4.57864 5.04039 3.35073 6.70165 2.25125L7.25355 3.08516C5.67486 4.12998 4.58447 5.26964 3.89147 5.89474C3.72547 6.04448 3.55879 6.1861 3.40836 6.27853C3.33482 6.32371 3.23004 6.37959 3.10688 6.40452C2.97167 6.43189 2.77183 6.42753 2.59658 6.28455C2.44142 6.15795 2.39027 5.9889 2.37061 5.88803C2.34948 5.77959 2.34873 5.66665 2.35449 5.56403C2.36613 5.35677 2.41136 5.08944 2.47958 4.7682L3.45777 4.97594ZM14.306 0.510281C15.9397 0.535017 17.1644 0.614275 17.9961 0.900812C18.4252 1.04862 18.7897 1.26405 19.0518 1.58997C19.3167 1.91947 19.4388 2.31427 19.4672 2.74975L18.4693 2.81465C18.4507 2.52831 18.3773 2.34694 18.2725 2.21663C18.1648 2.08276 17.9854 1.95478 17.6704 1.84628C17.0142 1.62021 15.9508 1.5353 14.2908 1.51017L14.306 0.510281ZM19.4672 2.74975C19.5107 3.41958 19.3695 3.96477 19.0822 4.38752C18.7968 4.80724 18.3978 5.06178 18.0015 5.20763L17.6561 4.26919C17.9048 4.17766 18.1131 4.03429 18.2551 3.82534C18.3951 3.61943 18.5012 3.3052 18.4693 2.81465L19.4672 2.74975ZM18.0015 5.20763C17.4959 5.39375 16.9656 5.41499 16.5785 5.3685L16.6978 4.37564C16.9614 4.40731 17.3277 4.39007 17.6561 4.26919L18.0015 5.20763ZM16.5536 4.37927C16.9392 4.3131 17.3763 4.25256 17.8129 4.23866L17.8447 5.23816C17.4742 5.24995 17.0883 5.30212 16.7227 5.36486L16.5536 4.37927ZM17.8129 4.23866C18.4223 4.21928 19.1063 4.28729 19.6507 4.63125C20.2377 5.00213 20.5727 5.63383 20.5727 6.52521H19.5727C19.5727 5.91237 19.3629 5.63231 19.1166 5.47666C18.8276 5.2941 18.3896 5.22082 17.8447 5.23816L17.8129 4.23866ZM20.5727 6.52521C20.5727 7.15567 20.287 7.73037 19.8903 8.166C19.4935 8.60189 18.9552 8.93364 18.382 9.06561L18.1577 8.0911C18.516 8.00859 18.8792 7.79114 19.1509 7.49275C19.4228 7.19412 19.5727 6.84948 19.5727 6.52521H20.5727ZM18.382 9.06561C18.0922 9.13234 17.7868 9.14935 17.4841 9.09646L17.6562 8.11138C17.8105 8.13833 17.9801 8.13199 18.1577 8.0911L18.382 9.06561ZM17.5382 8.10494C17.772 8.08997 18.0181 8.07942 18.2677 8.07836L18.272 9.07835C18.0472 9.0793 17.8216 9.08884 17.6021 9.1029L17.5382 8.10494ZM18.2677 8.07836C18.9792 8.07534 19.7869 8.14775 20.4177 8.4716C20.743 8.63861 21.0363 8.88007 21.2355 9.22354C21.4355 9.56828 21.5186 9.97735 21.4864 10.441L20.4888 10.3718C20.5097 10.0704 20.4532 9.86775 20.3706 9.72538C20.2872 9.58174 20.1548 9.46071 19.961 9.36122C19.5536 9.15209 18.9493 9.07548 18.272 9.07835L18.2677 8.07836ZM21.4864 10.441C21.4266 11.3026 21.0784 11.9265 20.536 12.3263C20.0138 12.7113 19.3671 12.8477 18.7687 12.8674L18.7359 11.868C19.2243 11.8519 19.6444 11.7413 19.9426 11.5214C20.2208 11.3164 20.4468 10.9775 20.4888 10.3718L21.4864 10.441ZM18.7687 12.8674C18.5006 12.8762 18.2338 12.862 17.9789 12.8326L18.0935 11.8392C18.3069 11.8638 18.524 11.8749 18.7359 11.868L18.7687 12.8674ZM17.9859 11.8384C18.2522 11.8115 18.5485 11.8213 18.8436 11.8761L18.661 12.8593C18.4596 12.8219 18.2586 12.8159 18.0865 12.8333L17.9859 11.8384ZM18.8436 11.8761C19.3492 11.97 19.913 12.2089 20.2864 12.6956C20.6763 13.2038 20.7898 13.8909 20.5538 14.7226L19.5917 14.4496C19.7623 13.8487 19.6485 13.507 19.493 13.3043C19.321 13.0801 19.0212 12.9261 18.661 12.8593L18.8436 11.8761ZM20.5538 14.7226C20.3937 15.2866 19.9944 15.7141 19.5058 16.0283C19.0183 16.3418 18.4102 16.5644 17.7583 16.7153C16.4539 17.0171 14.8783 17.0536 13.4844 16.8733L13.6127 15.8815C14.9113 16.0495 16.3648 16.0113 17.5329 15.741C18.1172 15.6058 18.6062 15.4179 18.9649 15.1872C19.3226 14.9571 19.5188 14.7066 19.5917 14.4496L20.5538 14.7226ZM14.0486 16.3774C14.0486 16.4498 14.0795 16.6229 14.1628 16.928C14.2413 17.2157 14.3498 17.5651 14.4729 17.9659C14.7156 18.7562 15.0086 19.7253 15.1775 20.6542C15.3425 21.5612 15.4106 22.5328 15.1126 23.28C14.9563 23.6716 14.6951 24.0125 14.2956 24.2348C13.9028 24.4534 13.4232 24.5313 12.8717 24.4889L12.9484 23.4918C13.3677 23.5241 13.6363 23.4573 13.8093 23.361C13.9757 23.2684 14.0981 23.1242 14.1837 22.9095C14.3695 22.4438 14.3545 21.7174 14.1937 20.8331C14.0368 19.9707 13.7613 19.0553 13.5169 18.2595C13.3965 17.8672 13.2818 17.4983 13.198 17.1912C13.119 16.9016 13.0486 16.6036 13.0486 16.3774H14.0486ZM12.8717 24.4889C11.7412 24.402 10.9404 23.87 10.3539 23.1204C9.7848 22.3931 9.41559 21.459 9.10558 20.549C8.78503 19.6081 8.53137 18.7087 8.18428 17.9081C7.84027 17.1145 7.44567 16.5256 6.91441 16.193L7.44501 15.3454C8.23412 15.8394 8.73057 16.6541 9.10178 17.5103C9.46992 18.3595 9.75564 19.3561 10.0522 20.2265C10.3592 21.1278 10.6847 21.9204 11.1415 22.5042C11.5809 23.0658 12.1372 23.4295 12.9484 23.4918L12.8717 24.4889ZM6.91441 16.193C6.55366 15.9672 6.17593 15.7557 5.77718 15.526C5.38376 15.2995 4.97622 15.0588 4.58302 14.7874C3.79343 14.2423 3.04173 13.56 2.52488 12.5667L3.41199 12.1051C3.82716 12.903 4.43909 13.4729 5.15112 13.9644C5.50874 14.2113 5.88651 14.4351 6.2762 14.6595C6.66057 14.8808 7.06375 15.1068 7.44501 15.3454L6.91441 16.193ZM2.52488 12.5667C2.29947 12.1334 2.16393 11.5739 2.08532 10.9728C2.00575 10.3643 1.98026 9.67836 1.99488 8.97057C2.0241 7.55569 2.21444 6.01668 2.47958 4.7682L3.45777 4.97594C3.20511 6.16563 3.02253 7.642 2.99467 8.99121C2.98074 9.66547 3.00568 10.2987 3.07688 10.8431C3.14902 11.3948 3.26459 11.8218 3.41199 12.1051L2.52488 12.5667ZM6.70165 2.25125C8.96222 0.755135 11.7235 0.47118 14.306 0.510281L14.2908 1.51017C11.7627 1.47189 9.25524 1.76038 7.25355 3.08516L6.70165 2.25125Z" fill="white"/>
<path d="M1.00012 15.1018H4.97093L4.97093 1.6816L1.00012 2.93134L1.00012 15.1018Z" fill="#FF8600" stroke="white"/>
</svg>
