<svg width="56" height="64" viewBox="0 0 56 64" fill="none" xmlns="http://www.w3.org/2000/svg">
<path d="M15.6776 57.2387C8.52732 51.9043 5.69801 46.5349 7.00487 52.7286C5.64047 46.2622 5.0395 36.734 7.00424 32.9334C9.46016 28.1825 14.1906 26.2913 18.1011 23.8275C25.0596 19.4432 22.9677 2.81546 33.2008 2.02365C43.4338 1.23184 34.8833 19.0473 34.8833 22.2145C41.9782 21.2907 50.8468 22.6104 52.0747 26.9653C53.1461 30.7649 50.8767 32.4227 48.5953 32.849C51.459 32.9438 54.2172 34.1592 54.4855 38.0507C54.7651 42.1085 50.9838 42.9145 47.3241 42.8989C49.7787 43.4678 52.0747 45.8121 52.0747 48.3442C52.0747 52.3337 49.2035 53.1805 46.1619 53.0831C47.8612 53.7127 49.3631 55.1938 49.1643 58.2713C48.9403 61.7375 46.1503 62.671 39.1846 62.9149C30.9132 63.2045 22.3114 62.1877 15.6776 57.2387Z" fill="white"/>
<path d="M15.6776 57.2387L15.0796 58.0402H15.0796L15.6776 57.2387ZM39.1846 62.9149L39.1496 61.9155H39.1496L39.1846 62.9149ZM49.1643 58.2713L48.1664 58.2069L49.1643 58.2713ZM43.0245 52.7286L42.9044 51.7359L42.8543 53.7141L43.0245 52.7286ZM45.4804 42.8311L45.3072 41.8462L45.4161 43.8291L45.4804 42.8311ZM54.4855 38.0507L53.4878 38.1194L54.4855 38.0507ZM46.7084 32.9334L46.5931 31.94L46.6071 33.9282L46.7084 32.9334ZM52.0747 26.9653L53.0372 26.6939L52.0747 26.9653ZM34.8833 22.2145H33.8833V23.3532L35.0124 23.2062L34.8833 22.2145ZM33.2008 2.02365L33.2779 3.02067L33.2008 2.02365ZM18.1011 23.8275L17.568 22.9814H17.568L18.1011 23.8275ZM7.00424 32.9334L7.89256 33.3926L7.00424 32.9334ZM7.98333 52.5222C7.82242 51.7596 7.73465 51.2172 7.70606 50.8481C7.69174 50.6634 7.69498 50.5535 7.70115 50.4978C7.70897 50.4271 7.71405 50.509 7.63021 50.6323C7.51203 50.8062 7.30382 50.9351 7.07356 50.9528C6.90742 50.9655 6.8212 50.9124 6.8674 50.9339C6.95823 50.9762 7.16054 51.112 7.51824 51.4192C8.82665 52.5431 11.489 55.3614 15.0796 58.0402L16.2756 56.4372C12.716 53.7816 10.3885 51.2481 8.82138 49.902C8.4602 49.5918 8.07578 49.2903 7.7113 49.1207C7.52984 49.0362 7.24881 48.9335 6.92064 48.9586C6.52834 48.9887 6.19086 49.1921 5.97608 49.5081C5.79565 49.7736 5.7368 50.0653 5.71329 50.2778C5.68812 50.5052 5.6926 50.7518 5.71203 51.0026C5.75092 51.5046 5.86061 52.1493 6.02642 52.9351L7.98333 52.5222ZM39.2195 63.9143C42.6915 63.7927 45.3106 63.5007 47.1028 62.7179C48.0272 62.3142 48.7798 61.7609 49.3114 60.9953C49.8423 60.2308 50.0977 59.334 50.1622 58.3358L48.1664 58.2069C48.1189 58.9417 47.9416 59.4615 47.6686 59.8545C47.3965 60.2464 46.9742 60.5916 46.3023 60.8851C44.9022 61.4966 42.6434 61.7932 39.1496 61.9155L39.2195 63.9143ZM50.1622 58.3358C50.2731 56.6192 49.9128 55.2497 49.2036 54.1996C48.4981 53.155 47.5075 52.5152 46.5093 52.1454L45.8145 54.0208C46.5156 54.2806 47.1256 54.6962 47.5462 55.3189C47.963 55.9361 48.2543 56.846 48.1664 58.2069L50.1622 58.3358ZM46.5093 52.1454C45.2324 51.6723 43.886 51.6172 42.9044 51.7359L43.1445 53.7214C43.8776 53.6328 44.8938 53.6797 45.8145 54.0208L46.5093 52.1454ZM42.8543 53.7141C43.8641 53.8885 44.9999 54.0464 46.1299 54.0826L46.1939 52.0836C45.197 52.0517 44.1643 51.9107 43.1947 51.7432L42.8543 53.7141ZM46.1299 54.0826C47.716 54.1334 49.4413 53.9512 50.7955 53.0901C52.234 52.1754 53.0747 50.6147 53.0747 48.3442H51.0747C51.0747 50.0632 50.4799 50.9207 49.7223 51.4024C48.8805 51.9377 47.6495 52.1303 46.1939 52.0836L46.1299 54.0826ZM53.0747 48.3442C53.0747 46.7741 52.3667 45.3257 51.3615 44.2145C50.356 43.103 48.9932 42.2592 47.5498 41.9247L47.0983 43.8731C48.1096 44.1075 49.1221 44.7203 49.8783 45.5562C50.6348 46.3924 51.0747 47.3822 51.0747 48.3442H53.0747ZM47.5498 41.9247C46.8211 41.7559 46.0586 41.7141 45.3072 41.8462L45.6536 43.816C46.1062 43.7364 46.5954 43.7566 47.0983 43.8731L47.5498 41.9247ZM45.4161 43.8291C46.0275 43.8685 46.6698 43.8961 47.3198 43.8989L47.3283 41.8989C46.7283 41.8964 46.1275 41.8708 45.5447 41.8332L45.4161 43.8291ZM47.3198 43.8989C49.1842 43.9069 51.2489 43.7134 52.8411 42.8907C53.6571 42.4691 54.378 41.8673 54.8655 41.0217C55.3542 40.1739 55.5641 39.1574 55.4831 37.9819L53.4878 38.1194C53.5466 38.9728 53.3888 39.5788 53.1328 40.0229C52.8755 40.4692 52.4748 40.8288 51.923 41.1139C50.7795 41.7048 49.1237 41.9066 47.3283 41.8989L47.3198 43.8989ZM55.4831 37.9819C55.3315 35.7825 54.4545 34.2209 53.1096 33.223C51.8042 32.2544 50.1712 31.9006 48.6284 31.8495L48.5622 33.8484C49.8831 33.8921 51.0611 34.1934 51.9178 34.8291C52.735 35.4355 53.3712 36.4273 53.4878 38.1194L55.4831 37.9819ZM48.6284 31.8495C47.9394 31.8267 47.2517 31.8636 46.5931 31.94L46.8237 33.9267C47.399 33.8599 47.9865 33.8293 48.5622 33.8484L48.6284 31.8495ZM46.6071 33.9282C47.2795 33.9967 48.0306 33.9718 48.779 33.8319L48.4117 31.866C47.8517 31.9706 47.2925 31.9877 46.8096 31.9385L46.6071 33.9282ZM48.779 33.8319C50.0667 33.5913 51.4684 32.9842 52.3876 31.7784C53.3387 30.5307 53.6375 28.8229 53.0372 26.6939L51.1123 27.2367C51.5833 28.9073 51.2831 29.9282 50.797 30.5659C50.2791 31.2454 49.4054 31.6803 48.4117 31.866L48.779 33.8319ZM53.0372 26.6939C52.644 25.2995 51.6581 24.2232 50.4116 23.4164C49.1676 22.6112 47.6027 22.0317 45.906 21.6365C42.5113 20.8457 38.3976 20.7485 34.7542 21.2229L35.0124 23.2062C38.4639 22.7568 42.3318 22.8575 45.4522 23.5843C47.013 23.9479 48.3389 24.4572 49.3249 25.0953C50.3084 25.7319 50.8915 26.4537 51.1123 27.2367L53.0372 26.6939ZM35.8833 22.2145C35.8833 21.9715 35.9779 21.4708 36.1958 20.6668C36.4045 19.8973 36.6924 18.9641 37.0159 17.904C37.6559 15.8063 38.4223 13.2537 38.8635 10.8123C39.2968 8.4144 39.4588 5.91898 38.7104 4.03061C38.3219 3.05051 37.6786 2.20976 36.6997 1.66151C35.7337 1.1205 34.536 0.917342 33.1236 1.02663L33.2779 3.02067C34.4238 2.932 35.1973 3.11237 35.7224 3.40646C36.2346 3.69331 36.6021 4.13923 36.8511 4.76748C37.3775 6.09579 37.3205 8.10373 36.8953 10.4566C36.478 12.766 35.7463 15.2117 35.1029 17.3204C34.7846 18.3635 34.4845 19.3356 34.2655 20.1435C34.0558 20.9169 33.8833 21.6658 33.8833 22.2145H35.8833ZM33.1236 1.02663C30.2438 1.24946 28.2111 2.60763 26.7134 4.53425C25.2502 6.41647 24.2916 8.84733 23.4758 11.2578C22.639 13.73 21.9601 16.1474 21.0386 18.2868C20.1229 20.4126 19.0501 22.0476 17.568 22.9814L18.6342 24.6735C20.6314 23.4152 21.9065 21.3276 22.8754 19.0779C23.8386 16.8418 24.581 14.2307 25.3702 11.899C26.1803 9.50547 27.0524 7.35693 28.2924 5.76174C29.498 4.21096 31.0413 3.19374 33.2779 3.02067L33.1236 1.02663ZM17.568 22.9814C16.611 23.5844 15.6076 24.1501 14.5614 24.7564C13.5259 25.3566 12.4614 25.9895 11.4366 26.7015C9.38039 28.1302 7.44476 29.9035 6.11591 32.4741L7.89256 33.3926C9.01964 31.2123 10.6772 29.6646 12.5778 28.344C13.5314 27.6814 14.5363 27.0826 15.5643 26.4868C16.5817 25.8971 17.636 25.3024 18.6342 24.6735L17.568 22.9814ZM6.11591 32.4741C5.54747 33.5738 5.19693 35.0138 4.99193 36.5916C4.78503 38.184 4.71805 39.9858 4.75634 41.8518C4.83288 45.5825 5.33188 49.6434 6.02642 52.9351L7.98333 52.5222C7.31346 49.3474 6.82978 45.411 6.75592 41.8108C6.719 40.0114 6.78489 38.3144 6.97526 36.8493C7.16752 35.3696 7.47863 34.1933 7.89256 33.3926L6.11591 32.4741ZM15.0796 58.0402C21.9907 63.1961 30.8774 64.2064 39.2196 63.9143L39.1496 61.9155C30.949 62.2026 22.632 61.1793 16.2756 56.4372L15.0796 58.0402Z" fill="#1A3185"/>
<path d="M1.5 25.2715H12.5983V61.6321L1.5 58.1164V25.2715Z" fill="white" stroke="#1A3185" stroke-width="2"/>
</svg>
