<svg width="21" height="25" viewBox="0 0 21 25" fill="none" xmlns="http://www.w3.org/2000/svg">
<path d="M6.4776 2.66821C3.23765 4.8125 1.93111 7.40333 2.46867 4.87207C1.95088 7.31024 1.72281 10.9028 2.46843 12.3359C3.40046 14.1272 5.19568 14.8402 6.67971 15.7692C9.32045 17.4223 8.52661 23.6918 12.4101 23.9903C16.2935 24.2889 13.0486 17.5716 13.0486 16.3774C15.7411 16.7257 19.1067 16.2281 19.5727 14.5861C19.9793 13.1535 19.1181 12.5284 18.2523 12.3677C19.3391 12.3319 20.3858 11.8737 20.4876 10.4064C20.5938 8.87639 19.1587 8.57247 17.7699 8.57836C18.7014 8.36388 19.5727 7.47994 19.5727 6.52521C19.5727 5.02099 18.4831 4.70169 17.3288 4.73841C17.9737 4.50103 18.5437 3.94258 18.4682 2.7822C18.3743 1.33855 17.0922 1.06009 13.7984 1.01022C11.2431 0.971535 8.60873 1.25776 6.4776 2.66821Z" fill="#FF8600"/>
<path d="M6.4776 2.66821L6.20165 2.25125H6.20165L6.4776 2.66821ZM13.7984 1.01022L13.806 0.510281L13.7984 1.01022ZM18.4682 2.7822L18.9672 2.74975V2.74975L18.4682 2.7822ZM16.1382 4.87207L16.0785 5.3685L16.0536 4.37927L16.1382 4.87207ZM17.0702 8.60392L16.9841 9.09646L17.0382 8.10494L17.0702 8.60392ZM20.4876 10.4064L19.9888 10.3718L20.4876 10.4064ZM17.5362 12.3359L17.4789 12.8326L17.4859 11.8384L17.5362 12.3359ZM19.5727 14.5861L20.0538 14.7226L19.5727 14.5861ZM13.0486 16.3774H12.5486V15.8085L13.1127 15.8815L13.0486 16.3774ZM12.4101 23.9903L12.4484 23.4918L12.4101 23.9903ZM6.67971 15.7692L6.41441 16.193L6.67971 15.7692ZM2.46843 12.3359L2.91199 12.1051L2.46843 12.3359ZM2.95777 4.97594C2.8916 5.28752 2.86006 5.49294 2.85292 5.62011C2.84929 5.68471 2.85364 5.70441 2.85215 5.69675C2.85213 5.69666 2.83516 5.59654 2.72876 5.50972C2.60227 5.40652 2.46576 5.41281 2.40852 5.42439C2.36332 5.43354 2.35114 5.44722 2.38486 5.4265C2.44894 5.38713 2.55546 5.30213 2.72167 5.1522C3.35753 4.57864 4.54039 3.35073 6.20165 2.25125L6.75355 3.08516C5.17486 4.12998 4.08447 5.26964 3.39147 5.89474C3.22547 6.04448 3.05879 6.1861 2.90836 6.27853C2.83482 6.32371 2.73004 6.37959 2.60688 6.40452C2.47167 6.43189 2.27183 6.42753 2.09658 6.28455C1.94142 6.15795 1.89027 5.9889 1.87061 5.88803C1.84948 5.77959 1.84873 5.66665 1.85449 5.56403C1.86613 5.35677 1.91136 5.08944 1.97958 4.7682L2.95777 4.97594ZM13.806 0.510281C15.4397 0.535017 16.6644 0.614275 17.4961 0.900812C17.9252 1.04862 18.2897 1.26405 18.5518 1.58997C18.8167 1.91947 18.9388 2.31427 18.9672 2.74975L17.9693 2.81465C17.9507 2.52831 17.8773 2.34694 17.7725 2.21663C17.6648 2.08276 17.4854 1.95478 17.1704 1.84628C16.5142 1.62021 15.4508 1.5353 13.7908 1.51017L13.806 0.510281ZM18.9672 2.74975C19.0107 3.41958 18.8695 3.96477 18.5822 4.38752C18.2968 4.80724 17.8978 5.06178 17.5015 5.20763L17.1561 4.26919C17.4048 4.17766 17.6131 4.03429 17.7551 3.82534C17.8951 3.61943 18.0012 3.3052 17.9693 2.81465L18.9672 2.74975ZM17.5015 5.20763C16.9959 5.39375 16.4656 5.41499 16.0785 5.3685L16.1978 4.37564C16.4614 4.40731 16.8277 4.39007 17.1561 4.26919L17.5015 5.20763ZM16.0536 4.37927C16.4392 4.3131 16.8763 4.25256 17.3129 4.23866L17.3447 5.23816C16.9742 5.24995 16.5883 5.30212 16.2227 5.36486L16.0536 4.37927ZM17.3129 4.23866C17.9223 4.21928 18.6063 4.28729 19.1507 4.63125C19.7377 5.00213 20.0727 5.63383 20.0727 6.52521H19.0727C19.0727 5.91237 18.8629 5.63231 18.6166 5.47666C18.3276 5.2941 17.8896 5.22082 17.3447 5.23816L17.3129 4.23866ZM20.0727 6.52521C20.0727 7.15567 19.787 7.73037 19.3903 8.166C18.9935 8.60189 18.4552 8.93364 17.882 9.06561L17.6577 8.0911C18.016 8.00859 18.3792 7.79114 18.6509 7.49275C18.9228 7.19412 19.0727 6.84948 19.0727 6.52521H20.0727ZM17.882 9.06561C17.5922 9.13234 17.2868 9.14935 16.9841 9.09646L17.1562 8.11138C17.3105 8.13833 17.4801 8.13199 17.6577 8.0911L17.882 9.06561ZM17.0382 8.10494C17.272 8.08997 17.5181 8.07942 17.7677 8.07836L17.772 9.07835C17.5472 9.0793 17.3216 9.08884 17.1021 9.1029L17.0382 8.10494ZM17.7677 8.07836C18.4792 8.07534 19.2869 8.14775 19.9177 8.4716C20.243 8.63861 20.5363 8.88007 20.7355 9.22354C20.9355 9.56828 21.0186 9.97735 20.9864 10.441L19.9888 10.3718C20.0097 10.0704 19.9532 9.86775 19.8706 9.72538C19.7872 9.58174 19.6548 9.46071 19.461 9.36122C19.0536 9.15209 18.4493 9.07548 17.772 9.07835L17.7677 8.07836ZM20.9864 10.441C20.9266 11.3026 20.5784 11.9265 20.036 12.3263C19.5138 12.7113 18.8671 12.8477 18.2687 12.8674L18.2359 11.868C18.7243 11.8519 19.1444 11.7413 19.4426 11.5214C19.7208 11.3164 19.9468 10.9775 19.9888 10.3718L20.9864 10.441ZM18.2687 12.8674C18.0006 12.8762 17.7338 12.862 17.4789 12.8326L17.5935 11.8392C17.8069 11.8638 18.024 11.8749 18.2359 11.868L18.2687 12.8674ZM17.4859 11.8384C17.7522 11.8115 18.0485 11.8213 18.3436 11.8761L18.161 12.8593C17.9596 12.8219 17.7586 12.8159 17.5865 12.8333L17.4859 11.8384ZM18.3436 11.8761C18.8492 11.97 19.413 12.2089 19.7864 12.6956C20.1763 13.2038 20.2898 13.8909 20.0538 14.7226L19.0917 14.4496C19.2623 13.8487 19.1485 13.507 18.993 13.3043C18.821 13.0801 18.5212 12.9261 18.161 12.8593L18.3436 11.8761ZM20.0538 14.7226C19.8937 15.2866 19.4944 15.7141 19.0058 16.0283C18.5183 16.3418 17.9102 16.5644 17.2583 16.7153C15.9539 17.0171 14.3783 17.0536 12.9844 16.8733L13.1127 15.8815C14.4113 16.0495 15.8648 16.0113 17.0329 15.741C17.6172 15.6058 18.1062 15.4179 18.4649 15.1872C18.8226 14.9571 19.0188 14.7066 19.0917 14.4496L20.0538 14.7226ZM13.5486 16.3774C13.5486 16.4498 13.5795 16.6229 13.6628 16.928C13.7413 17.2157 13.8498 17.5651 13.9729 17.9659C14.2156 18.7562 14.5086 19.7253 14.6775 20.6542C14.8425 21.5612 14.9106 22.5328 14.6126 23.28C14.4563 23.6716 14.1951 24.0125 13.7956 24.2348C13.4028 24.4534 12.9232 24.5313 12.3717 24.4889L12.4484 23.4918C12.8677 23.5241 13.1363 23.4573 13.3093 23.361C13.4757 23.2684 13.5981 23.1242 13.6837 22.9095C13.8695 22.4438 13.8545 21.7174 13.6937 20.8331C13.5368 19.9707 13.2613 19.0553 13.0169 18.2595C12.8965 17.8672 12.7818 17.4983 12.698 17.1912C12.619 16.9016 12.5486 16.6036 12.5486 16.3774H13.5486ZM12.3717 24.4889C11.2412 24.402 10.4404 23.87 9.85393 23.1204C9.2848 22.3931 8.91559 21.459 8.60558 20.549C8.28503 19.6081 8.03137 18.7087 7.68428 17.9081C7.34027 17.1145 6.94567 16.5256 6.41441 16.193L6.94501 15.3454C7.73412 15.8394 8.23057 16.6541 8.60178 17.5103C8.96992 18.3595 9.25564 19.3561 9.55216 20.2265C9.85921 21.1278 10.1847 21.9204 10.6415 22.5042C11.0809 23.0658 11.6372 23.4295 12.4484 23.4918L12.3717 24.4889ZM6.41441 16.193C6.05366 15.9672 5.67593 15.7557 5.27718 15.526C4.88376 15.2995 4.47622 15.0588 4.08302 14.7874C3.29343 14.2423 2.54173 13.56 2.02488 12.5667L2.91199 12.1051C3.32716 12.903 3.93909 13.4729 4.65112 13.9644C5.00874 14.2113 5.38651 14.4351 5.7762 14.6595C6.16057 14.8808 6.56375 15.1068 6.94501 15.3454L6.41441 16.193ZM2.02488 12.5667C1.79947 12.1334 1.66393 11.5739 1.58532 10.9728C1.50575 10.3643 1.48026 9.67836 1.49488 8.97057C1.5241 7.55569 1.71444 6.01668 1.97958 4.7682L2.95777 4.97594C2.70511 6.16563 2.52253 7.642 2.49467 8.99121C2.48074 9.66547 2.50568 10.2987 2.57688 10.8431C2.64902 11.3948 2.76459 11.8218 2.91199 12.1051L2.02488 12.5667ZM6.20165 2.25125C8.46222 0.755135 11.2235 0.47118 13.806 0.510281L13.7908 1.51017C11.2627 1.47189 8.75524 1.76038 6.75355 3.08516L6.20165 2.25125Z" fill="white"/>
<path d="M0.5 15.1018H4.47081L4.47081 1.6816L0.5 2.93134L0.5 15.1018Z" fill="#FF8600" stroke="white"/>
</svg>
