<svg width="22" height="21" viewBox="0 0 22 21" fill="none" xmlns="http://www.w3.org/2000/svg">
<path d="M0.938727 0.44068C1.07806 0.300991 1.24359 0.190162 1.42583 0.114542C1.60806 0.0389231 1.80343 0 2.00073 0C2.19803 0 2.39339 0.0389231 2.57563 0.114542C2.75786 0.190162 2.92339 0.300991 3.06273 0.44068L11.0007 8.38168L18.9387 0.44068C19.0782 0.301217 19.2438 0.190588 19.426 0.11511C19.6082 0.0396331 19.8035 0.000785351 20.0007 0.000785351C20.198 0.000785351 20.3933 0.0396331 20.5755 0.11511C20.7577 0.190588 20.9233 0.301217 21.0627 0.44068C21.2022 0.580144 21.3128 0.745712 21.3883 0.92793C21.4638 1.11015 21.5026 1.30545 21.5026 1.50268C21.5026 1.69991 21.4638 1.89521 21.3883 2.07743C21.3128 2.25965 21.2022 2.42522 21.0627 2.56468L13.1217 10.5027L21.0627 18.4407C21.2022 18.5801 21.3128 18.7457 21.3883 18.9279C21.4638 19.1101 21.5026 19.3054 21.5026 19.5027C21.5026 19.6999 21.4638 19.8952 21.3883 20.0774C21.3128 20.2596 21.2022 20.4252 21.0627 20.5647C20.9233 20.7041 20.7577 20.8148 20.5755 20.8902C20.3933 20.9657 20.198 21.0046 20.0007 21.0046C19.8035 21.0046 19.6082 20.9657 19.426 20.8902C19.2438 20.8148 19.0782 20.7041 18.9387 20.5647L11.0007 12.6237L3.06273 20.5647C2.92326 20.7041 2.7577 20.8148 2.57548 20.8902C2.39326 20.9657 2.19796 21.0046 2.00073 21.0046C1.8035 21.0046 1.60819 20.9657 1.42598 20.8902C1.24376 20.8148 1.07819 20.7041 0.938727 20.5647C0.799264 20.4252 0.688635 20.2596 0.613157 20.0774C0.53768 19.8952 0.498832 19.6999 0.498832 19.5027C0.498832 19.3054 0.53768 19.1101 0.613157 18.9279C0.688635 18.7457 0.799264 18.5801 0.938727 18.4407L8.87973 10.5027L0.938727 2.56468C0.799038 2.42534 0.688209 2.25982 0.612589 2.07758C0.53697 1.89535 0.498047 1.69998 0.498047 1.50268C0.498047 1.30538 0.53697 1.11002 0.612589 0.92778C0.688209 0.745544 0.799038 0.580018 0.938727 0.44068Z" fill="white"/>
</svg>
