<svg width="617" height="432" viewBox="0 0 617 432" fill="none" xmlns="http://www.w3.org/2000/svg">
<path d="M64.5193 163.798C86.9913 41.8518 192.356 122.887 278.574 95.2973C364.793 67.7078 442.942 65.647 505.828 137.325C568.715 209.003 564.987 315.877 490.663 339.662C434.178 357.738 377.504 303.82 316.905 291.188C256.305 278.557 260.412 314.608 186.119 317.031C132.158 303.165 46.5417 261.354 64.5193 163.798Z" fill="#3D9922"/>
<path d="M243.83 222.243C242.251 222.243 240.971 221.88 239.99 221.155C239.008 220.387 238.24 219.213 237.686 217.635L225.206 182.883C224.523 180.963 224.63 179.341 225.526 178.019C226.464 176.653 228.107 175.971 230.454 175.971C232.032 175.971 233.27 176.355 234.166 177.123C235.062 177.848 235.766 179 236.278 180.579L245.814 209.187H242.806L253.046 180.579C253.643 179 254.39 177.848 255.286 177.123C256.182 176.355 257.334 175.971 258.742 175.971C260.15 175.971 261.28 176.355 262.134 177.123C262.987 177.848 263.691 179.021 264.246 180.643L273.846 209.187H271.286L281.078 180.579C281.59 179 282.272 177.848 283.126 177.123C284.022 176.355 285.259 175.971 286.838 175.971C288.8 175.971 290.23 176.653 291.126 178.019C292.064 179.341 292.171 180.963 291.446 182.883L278.838 217.699C278.283 219.235 277.515 220.387 276.534 221.155C275.595 221.88 274.336 222.243 272.758 222.243C271.136 222.243 269.835 221.88 268.854 221.155C267.915 220.387 267.168 219.213 266.614 217.635L257.59 192.291H259.19L249.974 217.699C249.376 219.235 248.608 220.387 247.67 221.155C246.731 221.88 245.451 222.243 243.83 222.243ZM302.369 222.243C300.492 222.243 299.041 221.731 298.017 220.707C296.993 219.64 296.481 218.147 296.481 216.227V181.987C296.481 180.024 296.993 178.531 298.017 177.507C299.041 176.483 300.492 175.971 302.369 175.971C304.289 175.971 305.74 176.483 306.721 177.507C307.745 178.531 308.257 180.024 308.257 181.987V193.955H326.881V181.987C326.881 180.024 327.372 178.531 328.353 177.507C329.377 176.483 330.849 175.971 332.769 175.971C334.647 175.971 336.076 176.483 337.057 177.507C338.081 178.531 338.593 180.024 338.593 181.987V216.227C338.593 218.147 338.081 219.64 337.057 220.707C336.076 221.731 334.647 222.243 332.769 222.243C330.849 222.243 329.377 221.731 328.353 220.707C327.372 219.64 326.881 218.147 326.881 216.227V203.619H308.257V216.227C308.257 218.147 307.767 219.64 306.785 220.707C305.804 221.731 304.332 222.243 302.369 222.243ZM346.906 222.243C345.583 222.243 344.474 221.944 343.578 221.347C342.682 220.707 342.127 219.853 341.914 218.787C341.7 217.677 341.892 216.44 342.49 215.075L358.426 180.771C359.194 179.107 360.132 177.891 361.242 177.123C362.394 176.355 363.695 175.971 365.146 175.971C366.596 175.971 367.855 176.355 368.922 177.123C370.031 177.891 370.991 179.107 371.802 180.771L387.738 215.075C388.42 216.44 388.655 217.677 388.442 218.787C388.271 219.896 387.738 220.749 386.842 221.347C385.988 221.944 384.922 222.243 383.642 222.243C381.935 222.243 380.612 221.859 379.674 221.091C378.778 220.323 377.967 219.085 377.242 217.379L373.786 209.251L378.266 212.515H351.898L356.442 209.251L352.986 217.379C352.218 219.085 351.428 220.323 350.618 221.091C349.807 221.859 348.57 222.243 346.906 222.243ZM365.018 188.835L357.594 206.563L355.802 203.491H374.426L372.634 206.563L365.146 188.835H365.018ZM403.056 222.243C401.178 222.243 399.728 221.731 398.704 220.707C397.68 219.64 397.168 218.168 397.168 216.291V186.147H387.12C385.541 186.147 384.325 185.741 383.472 184.931C382.661 184.077 382.256 182.883 382.256 181.347C382.256 179.768 382.661 178.573 383.472 177.763C384.325 176.952 385.541 176.547 387.12 176.547H418.992C420.57 176.547 421.765 176.952 422.576 177.763C423.429 178.573 423.856 179.768 423.856 181.347C423.856 182.883 423.429 184.077 422.576 184.931C421.765 185.741 420.57 186.147 418.992 186.147H408.944V216.291C408.944 218.168 408.453 219.64 407.472 220.707C406.49 221.731 405.018 222.243 403.056 222.243Z" fill="white"/>
</svg>
