<svg width="501" height="313" viewBox="0 0 501 313" fill="none" xmlns="http://www.w3.org/2000/svg">
<path d="M108.64 264.962C-54.0935 263.31 -1.07719 121.461 62.2082 61.5724C101.489 24.4 190.922 0.429932 249.975 0.429932C331.217 0.429932 324.607 75.0891 397.838 75.0891C503.615 52.3723 536.091 167.901 455.809 209.203C375.527 250.506 359.502 318.437 295.737 312.406C174.337 300.925 271.374 266.614 108.64 264.962Z" fill="#C71E32"/>
<path d="M169.781 168.83C168.203 168.83 166.923 168.467 165.941 167.742C164.96 166.974 164.192 165.8 163.637 164.222L151.157 129.47C150.475 127.55 150.581 125.928 151.477 124.606C152.416 123.24 154.059 122.558 156.405 122.558C157.984 122.558 159.221 122.942 160.117 123.71C161.013 124.435 161.717 125.587 162.229 127.166L171.765 155.774H168.757L178.997 127.166C179.595 125.587 180.341 124.435 181.237 123.71C182.133 122.942 183.285 122.558 184.693 122.558C186.101 122.558 187.232 122.942 188.085 123.71C188.939 124.435 189.643 125.608 190.197 127.23L199.797 155.774H197.237L207.029 127.166C207.541 125.587 208.224 124.435 209.077 123.71C209.973 122.942 211.211 122.558 212.789 122.558C214.752 122.558 216.181 123.24 217.077 124.606C218.016 125.928 218.123 127.55 217.397 129.47L204.789 164.286C204.235 165.822 203.467 166.974 202.485 167.742C201.547 168.467 200.288 168.83 198.709 168.83C197.088 168.83 195.787 168.467 194.805 167.742C193.867 166.974 193.12 165.8 192.565 164.222L183.541 138.878H185.141L175.925 164.286C175.328 165.822 174.56 166.974 173.621 167.742C172.683 168.467 171.403 168.83 169.781 168.83ZM228.321 168.83C226.443 168.83 224.993 168.318 223.969 167.294C222.945 166.227 222.433 164.734 222.433 162.814V128.574C222.433 126.611 222.945 125.118 223.969 124.094C224.993 123.07 226.443 122.558 228.321 122.558C230.241 122.558 231.691 123.07 232.673 124.094C233.697 125.118 234.209 126.611 234.209 128.574V140.542H252.833V128.574C252.833 126.611 253.323 125.118 254.305 124.094C255.329 123.07 256.801 122.558 258.721 122.558C260.598 122.558 262.027 123.07 263.009 124.094C264.033 125.118 264.545 126.611 264.545 128.574V162.814C264.545 164.734 264.033 166.227 263.009 167.294C262.027 168.318 260.598 168.83 258.721 168.83C256.801 168.83 255.329 168.318 254.305 167.294C253.323 166.227 252.833 164.734 252.833 162.814V150.206H234.209V162.814C234.209 164.734 233.718 166.227 232.737 167.294C231.755 168.318 230.283 168.83 228.321 168.83ZM276.889 168.254C274.884 168.254 273.348 167.742 272.281 166.718C271.257 165.651 270.745 164.136 270.745 162.174V129.214C270.745 127.251 271.257 125.758 272.281 124.734C273.348 123.667 274.884 123.134 276.889 123.134H298.585C300.121 123.134 301.273 123.518 302.041 124.286C302.809 125.054 303.193 126.163 303.193 127.614C303.193 129.107 302.809 130.259 302.041 131.07C301.273 131.838 300.121 132.222 298.585 132.222H282.009V140.798H297.177C298.671 140.798 299.801 141.182 300.569 141.95C301.38 142.718 301.785 143.848 301.785 145.342C301.785 146.835 301.38 147.966 300.569 148.734C299.801 149.502 298.671 149.886 297.177 149.886H282.009V159.166H298.585C300.121 159.166 301.273 159.571 302.041 160.382C302.809 161.15 303.193 162.259 303.193 163.71C303.193 165.203 302.809 166.334 302.041 167.102C301.273 167.87 300.121 168.254 298.585 168.254H276.889ZM313.562 168.83C311.77 168.83 310.404 168.36 309.466 167.422C308.527 166.483 308.058 165.096 308.058 163.262V128.382C308.058 126.504 308.527 125.075 309.466 124.094C310.404 123.07 311.642 122.558 313.178 122.558C314.543 122.558 315.61 122.814 316.378 123.326C317.146 123.838 317.999 124.691 318.938 125.886L339.226 151.23H337.434V128.062C337.434 126.27 337.882 124.904 338.778 123.966C339.716 123.027 341.082 122.558 342.874 122.558C344.666 122.558 346.01 123.027 346.906 123.966C347.844 124.904 348.314 126.27 348.314 128.062V163.518C348.314 165.139 347.887 166.44 347.034 167.422C346.18 168.36 345.028 168.83 343.578 168.83C342.127 168.83 340.975 168.574 340.122 168.062C339.311 167.507 338.436 166.654 337.498 165.502L317.21 140.094H319.002V163.262C319.002 165.096 318.532 166.483 317.594 167.422C316.698 168.36 315.354 168.83 313.562 168.83Z" fill="white"/>
</svg>
