<svg width="501" height="351" viewBox="0 0 501 351" fill="none" xmlns="http://www.w3.org/2000/svg">
<path d="M52.4716 141.027C71.1636 34.1002 161.627 127.805 233.342 103.613C305.057 79.4215 367.239 54.9648 419.547 117.815C471.855 180.665 487.779 193.548 433.412 240.882C372.522 275.389 309.844 306.308 259.438 295.232C209.032 284.157 176.016 265.663 131.132 253.504C86.2479 241.346 37.5181 226.569 52.4716 141.027Z" fill="#1A3185"/>
<path d="M157.24 205.312C155.661 205.312 154.381 204.949 153.4 204.224C152.419 203.456 151.651 202.283 151.096 200.704L138.616 165.952C137.933 164.032 138.04 162.411 138.936 161.088C139.875 159.723 141.517 159.04 143.864 159.04C145.443 159.04 146.68 159.424 147.576 160.192C148.472 160.917 149.176 162.069 149.688 163.648L159.224 192.256H156.216L166.456 163.648C167.053 162.069 167.8 160.917 168.696 160.192C169.592 159.424 170.744 159.04 172.152 159.04C173.56 159.04 174.691 159.424 175.544 160.192C176.397 160.917 177.101 162.091 177.656 163.712L187.256 192.256H184.696L194.488 163.648C195 162.069 195.683 160.917 196.536 160.192C197.432 159.424 198.669 159.04 200.248 159.04C202.211 159.04 203.64 159.723 204.536 161.088C205.475 162.411 205.581 164.032 204.856 165.952L192.248 200.768C191.693 202.304 190.925 203.456 189.944 204.224C189.005 204.949 187.747 205.312 186.168 205.312C184.547 205.312 183.245 204.949 182.264 204.224C181.325 203.456 180.579 202.283 180.024 200.704L171 175.36H172.6L163.384 200.768C162.787 202.304 162.019 203.456 161.08 204.224C160.141 204.949 158.861 205.312 157.24 205.312ZM215.78 205.312C213.902 205.312 212.452 204.8 211.428 203.776C210.404 202.709 209.892 201.216 209.892 199.296V165.056C209.892 163.093 210.404 161.6 211.428 160.576C212.452 159.552 213.902 159.04 215.78 159.04C217.7 159.04 219.15 159.552 220.132 160.576C221.156 161.6 221.668 163.093 221.668 165.056V177.024H240.292V165.056C240.292 163.093 240.782 161.6 241.764 160.576C242.788 159.552 244.26 159.04 246.18 159.04C248.057 159.04 249.486 159.552 250.468 160.576C251.492 161.6 252.004 163.093 252.004 165.056V199.296C252.004 201.216 251.492 202.709 250.468 203.776C249.486 204.8 248.057 205.312 246.18 205.312C244.26 205.312 242.788 204.8 241.764 203.776C240.782 202.709 240.292 201.216 240.292 199.296V186.688H221.668V199.296C221.668 201.216 221.177 202.709 220.196 203.776C219.214 204.8 217.742 205.312 215.78 205.312ZM264.348 204.736C262.343 204.736 260.807 204.224 259.74 203.2C258.716 202.133 258.204 200.619 258.204 198.656V165.696C258.204 163.733 258.716 162.24 259.74 161.216C260.807 160.149 262.343 159.616 264.348 159.616H286.044C287.58 159.616 288.732 160 289.5 160.768C290.268 161.536 290.652 162.645 290.652 164.096C290.652 165.589 290.268 166.741 289.5 167.552C288.732 168.32 287.58 168.704 286.044 168.704H269.468V177.28H284.636C286.129 177.28 287.26 177.664 288.028 178.432C288.839 179.2 289.244 180.331 289.244 181.824C289.244 183.317 288.839 184.448 288.028 185.216C287.26 185.984 286.129 186.368 284.636 186.368H269.468V195.648H286.044C287.58 195.648 288.732 196.053 289.5 196.864C290.268 197.632 290.652 198.741 290.652 200.192C290.652 201.685 290.268 202.816 289.5 203.584C288.732 204.352 287.58 204.736 286.044 204.736H264.348ZM301.405 205.312C299.527 205.312 298.077 204.8 297.053 203.776C296.029 202.709 295.517 201.237 295.517 199.36V165.568C295.517 163.648 296.029 162.176 297.053 161.152C298.119 160.128 299.591 159.616 301.469 159.616H317.213C322.333 159.616 326.279 160.875 329.053 163.392C331.869 165.867 333.277 169.323 333.277 173.76C333.277 176.619 332.637 179.115 331.357 181.248C330.119 183.339 328.306 184.96 325.917 186.112C323.57 187.221 320.669 187.776 317.213 187.776L317.725 186.624H320.797C322.631 186.624 324.253 187.072 325.661 187.968C327.069 188.821 328.242 190.144 329.181 191.936L332.381 197.696C333.063 198.933 333.383 200.149 333.341 201.344C333.298 202.496 332.829 203.456 331.933 204.224C331.079 204.949 329.821 205.312 328.157 205.312C326.493 205.312 325.127 204.971 324.061 204.288C323.037 203.605 322.119 202.539 321.309 201.088L315.485 190.4C314.973 189.461 314.311 188.821 313.501 188.48C312.733 188.096 311.837 187.904 310.813 187.904H307.293V199.36C307.293 201.237 306.802 202.709 305.821 203.776C304.839 204.8 303.367 205.312 301.405 205.312ZM307.293 179.584H315.101C317.362 179.584 319.09 179.136 320.285 178.24C321.479 177.344 322.077 175.957 322.077 174.08C322.077 172.288 321.479 170.944 320.285 170.048C319.09 169.109 317.362 168.64 315.101 168.64H307.293V179.584ZM344.848 204.736C342.843 204.736 341.307 204.224 340.24 203.2C339.216 202.133 338.704 200.619 338.704 198.656V165.696C338.704 163.733 339.216 162.24 340.24 161.216C341.307 160.149 342.843 159.616 344.848 159.616H366.544C368.08 159.616 369.232 160 370 160.768C370.768 161.536 371.152 162.645 371.152 164.096C371.152 165.589 370.768 166.741 370 167.552C369.232 168.32 368.08 168.704 366.544 168.704H349.968V177.28H365.136C366.629 177.28 367.76 177.664 368.528 178.432C369.339 179.2 369.744 180.331 369.744 181.824C369.744 183.317 369.339 184.448 368.528 185.216C367.76 185.984 366.629 186.368 365.136 186.368H349.968V195.648H366.544C368.08 195.648 369.232 196.053 370 196.864C370.768 197.632 371.152 198.741 371.152 200.192C371.152 201.685 370.768 202.816 370 203.584C369.232 204.352 368.08 204.736 366.544 204.736H344.848Z" fill="white"/>
</svg>
