<svg width="501" height="351" viewBox="0 0 501 351" fill="none" xmlns="http://www.w3.org/2000/svg">
<path d="M108.946 300.953C-53.7881 299.211 -0.771769 149.647 62.5137 86.5006C101.795 47.3062 265.099 -25.2067 304.457 10.1076C350.565 51.4788 324.913 100.753 398.143 100.753C503.92 76.8001 536.396 198.613 456.114 242.162C375.832 285.711 362.299 350.701 275.464 350.701C205.641 350.701 271.68 302.695 108.946 300.953Z" fill="#FBBC04"/>
<path d="M187.366 197.769C185.788 197.769 184.508 197.407 183.526 196.681C182.545 195.913 181.777 194.74 181.222 193.161L168.742 158.409C168.06 156.489 168.166 154.868 169.062 153.545C170.001 152.18 171.644 151.497 173.99 151.497C175.569 151.497 176.806 151.881 177.702 152.649C178.598 153.375 179.302 154.527 179.814 156.105L189.35 184.713H186.342L196.582 156.105C197.18 154.527 197.926 153.375 198.822 152.649C199.718 151.881 200.87 151.497 202.278 151.497C203.686 151.497 204.817 151.881 205.67 152.649C206.524 153.375 207.228 154.548 207.782 156.169L217.382 184.713H214.822L224.614 156.105C225.126 154.527 225.809 153.375 226.662 152.649C227.558 151.881 228.796 151.497 230.374 151.497C232.337 151.497 233.766 152.18 234.662 153.545C235.601 154.868 235.708 156.489 234.982 158.409L222.374 193.225C221.82 194.761 221.052 195.913 220.07 196.681C219.132 197.407 217.873 197.769 216.294 197.769C214.673 197.769 213.372 197.407 212.39 196.681C211.452 195.913 210.705 194.74 210.15 193.161L201.126 167.817H202.726L193.51 193.225C192.913 194.761 192.145 195.913 191.206 196.681C190.268 197.407 188.988 197.769 187.366 197.769ZM245.906 197.769C244.029 197.769 242.578 197.257 241.554 196.233C240.53 195.167 240.018 193.673 240.018 191.753V157.513C240.018 155.551 240.53 154.057 241.554 153.033C242.578 152.009 244.029 151.497 245.906 151.497C247.826 151.497 249.277 152.009 250.258 153.033C251.282 154.057 251.794 155.551 251.794 157.513V169.481H270.418V157.513C270.418 155.551 270.909 154.057 271.89 153.033C272.914 152.009 274.386 151.497 276.306 151.497C278.183 151.497 279.613 152.009 280.594 153.033C281.618 154.057 282.13 155.551 282.13 157.513V191.753C282.13 193.673 281.618 195.167 280.594 196.233C279.613 197.257 278.183 197.769 276.306 197.769C274.386 197.769 272.914 197.257 271.89 196.233C270.909 195.167 270.418 193.673 270.418 191.753V179.145H251.794V191.753C251.794 193.673 251.303 195.167 250.322 196.233C249.341 197.257 247.869 197.769 245.906 197.769ZM310.09 197.897C305.525 197.897 301.514 196.937 298.058 195.017C294.602 193.055 291.914 190.324 289.994 186.825C288.117 183.327 287.178 179.252 287.178 174.601C287.178 171.103 287.712 167.924 288.778 165.065C289.888 162.207 291.445 159.753 293.45 157.705C295.498 155.657 297.93 154.1 300.746 153.033C303.562 151.924 306.677 151.369 310.09 151.369C314.656 151.369 318.645 152.329 322.058 154.249C325.514 156.169 328.202 158.879 330.122 162.377C332.042 165.833 333.002 169.908 333.002 174.601C333.002 178.1 332.448 181.279 331.338 184.137C330.272 186.996 328.714 189.471 326.666 191.561C324.661 193.609 322.25 195.188 319.434 196.297C316.618 197.364 313.504 197.897 310.09 197.897ZM310.09 188.041C312.352 188.041 314.272 187.508 315.85 186.441C317.429 185.375 318.645 183.839 319.498 181.833C320.352 179.828 320.778 177.417 320.778 174.601C320.778 170.377 319.84 167.092 317.962 164.745C316.085 162.399 313.461 161.225 310.09 161.225C307.872 161.225 305.952 161.759 304.33 162.825C302.752 163.849 301.536 165.364 300.682 167.369C299.829 169.332 299.402 171.743 299.402 174.601C299.402 178.825 300.341 182.132 302.218 184.521C304.096 186.868 306.72 188.041 310.09 188.041Z" fill="white"/>
</svg>
