<svg width="501" height="351" viewBox="0 0 501 351" fill="none" xmlns="http://www.w3.org/2000/svg">
<path d="M58.8885 252.434C-41.5481 134.951 2.79058 83.7815 80.9633 68.5474C193.685 46.5805 170.049 -20.7837 305.423 7.99548C374.692 22.7216 354.138 68.5474 434.731 83.7817C516.526 127.721 522.431 222.503 451.571 252.434C361.252 290.585 396.95 350.958 305.423 350.958C231.826 350.958 97.271 297.331 58.8885 252.434Z" fill="#FF8600"/>
<path d="M194.216 198.034C192.638 198.034 191.358 197.671 190.376 196.946C189.395 196.178 188.627 195.005 188.072 193.426L175.592 158.674C174.91 156.754 175.016 155.133 175.912 153.81C176.851 152.445 178.494 151.762 180.84 151.762C182.419 151.762 183.656 152.146 184.552 152.914C185.448 153.639 186.152 154.791 186.664 156.37L196.2 184.978H193.192L203.432 156.37C204.03 154.791 204.776 153.639 205.672 152.914C206.568 152.146 207.72 151.762 209.128 151.762C210.536 151.762 211.667 152.146 212.52 152.914C213.374 153.639 214.078 154.813 214.632 156.434L224.232 184.978H221.672L231.464 156.37C231.976 154.791 232.659 153.639 233.512 152.914C234.408 152.146 235.646 151.762 237.224 151.762C239.187 151.762 240.616 152.445 241.512 153.81C242.451 155.133 242.558 156.754 241.832 158.674L229.224 193.49C228.67 195.026 227.902 196.178 226.92 196.946C225.982 197.671 224.723 198.034 223.144 198.034C221.523 198.034 220.222 197.671 219.24 196.946C218.302 196.178 217.555 195.005 217 193.426L207.976 168.082H209.576L200.36 193.49C199.763 195.026 198.995 196.178 198.056 196.946C197.118 197.671 195.838 198.034 194.216 198.034ZM252.756 198.034C250.879 198.034 249.428 197.522 248.404 196.498C247.38 195.431 246.868 193.938 246.868 192.018V157.778C246.868 155.815 247.38 154.322 248.404 153.298C249.428 152.274 250.879 151.762 252.756 151.762C254.676 151.762 256.127 152.274 257.108 153.298C258.132 154.322 258.644 155.815 258.644 157.778V169.746H277.268V157.778C277.268 155.815 277.759 154.322 278.74 153.298C279.764 152.274 281.236 151.762 283.156 151.762C285.033 151.762 286.463 152.274 287.444 153.298C288.468 154.322 288.98 155.815 288.98 157.778V192.018C288.98 193.938 288.468 195.431 287.444 196.498C286.463 197.522 285.033 198.034 283.156 198.034C281.236 198.034 279.764 197.522 278.74 196.498C277.759 195.431 277.268 193.938 277.268 192.018V179.41H258.644V192.018C258.644 193.938 258.153 195.431 257.172 196.498C256.191 197.522 254.719 198.034 252.756 198.034ZM311.692 198.034C309.815 198.034 308.364 197.522 307.34 196.498C306.316 195.431 305.804 193.917 305.804 191.954V174.418L308.236 180.882L293.516 159.698C292.791 158.674 292.471 157.543 292.556 156.306C292.684 155.026 293.196 153.959 294.092 153.106C295.031 152.21 296.354 151.762 298.06 151.762C299.255 151.762 300.343 152.061 301.324 152.658C302.306 153.213 303.223 154.173 304.076 155.538L313.036 168.722H310.732L319.692 155.474C320.588 154.109 321.506 153.149 322.444 152.594C323.383 152.039 324.492 151.762 325.772 151.762C327.394 151.762 328.652 152.167 329.548 152.978C330.444 153.789 330.914 154.813 330.956 156.05C331.042 157.287 330.658 158.546 329.804 159.826L315.212 180.882L317.58 174.418V191.954C317.58 196.007 315.618 198.034 311.692 198.034Z" fill="white"/>
</svg>
