<svg width="131" height="131" viewBox="0 0 131 131" fill="none" xmlns="http://www.w3.org/2000/svg">
<g clip-path="url(#clip0_487_5858)">
<path d="M0.933576 45.6308C1.77312 21.8478 29.0674 10.2011 50.5983 14.4298C73.1745 13.6146 121.845 35.1562 129.803 55.3828C137.761 75.6094 97.1857 94.9903 76.6432 87.3277C56.1007 79.665 52.5853 105.557 24.7775 107.177C-3.03029 108.798 0.0774938 69.8823 0.933576 45.6308Z" fill="#FF8600"/>
<path d="M19.5417 55.9652C19.7307 55.7141 20.0266 55.5664 20.3409 55.5664H95.5103C96.335 55.5664 96.8052 56.5085 96.3094 57.1676L79.9993 78.8479C79.8104 79.099 79.5145 79.2467 79.2002 79.2467H4.0308C3.20608 79.2467 2.73588 78.3046 3.23168 77.6455L19.5417 55.9652Z" fill="white" stroke="#1A3185" stroke-width="2"/>
<line x1="1" y1="-1" x2="19.9673" y2="-1" transform="matrix(0.59891 -0.800816 0.78777 0.61597 13.5469 76.2969)" stroke="#1A3185" stroke-width="2" stroke-linecap="round"/>
<line x1="1" y1="-1" x2="19.9673" y2="-1" transform="matrix(0.59891 -0.800816 0.78777 0.61597 42.5254 76.2969)" stroke="#1A3185" stroke-width="2" stroke-linecap="round"/>
<line x1="1" y1="-1" x2="13.6961" y2="-1" transform="matrix(0.59891 -0.800816 0.78777 0.61597 25.1387 70.2852)" stroke="#1A3185" stroke-width="2" stroke-linecap="round"/>
<line x1="1" y1="-1" x2="13.6961" y2="-1" transform="matrix(0.59891 -0.800817 0.787769 0.61597 34.7988 76.2109)" stroke="#1A3185" stroke-width="2" stroke-linecap="round"/>
<path d="M28.8223 74.8281L36.4503 64.6285M49.3377 74.8277L56.9657 64.628" stroke="#1A3185" stroke-width="2" stroke-linecap="round"/>
<line x1="1" y1="-1" x2="3.89869" y2="-1" transform="matrix(0.59891 -0.800816 0.78777 0.61597 21.2754 76.2109)" stroke="#1A3185" stroke-width="2" stroke-linecap="round"/>
<line x1="1" y1="-1" x2="3.89869" y2="-1" transform="matrix(0.59891 -0.800817 0.787769 0.61597 45.4238 62.4395)" stroke="#1A3185" stroke-width="2" stroke-linecap="round"/>
<path d="M98.8825 34.3184L115.999 45.2591H122.701V65.7729L115.999 69.8757V64.4053C114.173 65.545 108.742 67.8243 101.621 67.8243C94.5012 67.8243 89.0698 63.7215 87.2441 61.6701H86.5594C86.3312 64.4053 87.2441 69.8757 81.7669 69.8757C77.8731 69.8757 77.143 67.6186 77.0061 64.2049C77.0387 67.6186 76.7605 69.8757 72.8666 69.8757C68.0742 69.8757 67.6177 64.4053 68.0742 61.6701C67.1612 63.0377 64.2398 65.0891 59.8581 62.3539C55.4764 59.6188 57.1195 55.7439 58.4888 54.1484L78.3434 37.0535L98.8825 34.3184Z" fill="white"/>
<path d="M115.999 45.2591L98.8825 34.3184L78.3434 37.0535L58.4888 54.1484C57.1195 55.7439 55.4764 59.6188 59.8581 62.3539C64.2398 65.0891 67.1612 63.0377 68.0742 61.6701M115.999 45.2591V64.4053M115.999 45.2591H122.701V65.7729L115.999 69.8757V64.4053M68.0742 61.6701C67.1613 61.2143 65.3356 59.6188 65.3356 56.8836C65.3356 54.1484 67.6177 52.5529 68.7588 52.097C75.1488 52.097 88.2026 52.097 89.298 52.097C90.6673 52.097 95.4597 50.0456 94.7751 45.2591M68.0742 61.6701C67.6177 64.4053 68.0742 69.8757 72.8666 69.8757C77.6591 69.8757 76.9745 66.4567 76.9745 61.6701M68.0742 61.6701H76.9745M115.999 64.4053C114.173 65.545 108.742 67.8243 101.621 67.8243C94.5012 67.8243 89.0698 63.7215 87.2441 61.6701H86.5594M76.9745 61.6701C76.9745 66.4567 76.9745 69.8757 81.7669 69.8757C87.2441 69.8757 86.3312 64.4053 86.5594 61.6701M76.9745 61.6701H86.5594" stroke="#1A3185" stroke-width="2"/>
<path d="M102.093 23.4805L74.7344 51.4546H84.0763L106.764 27.5742L102.093 23.4805Z" fill="white" stroke="#1A3185" stroke-width="2"/>
<path d="M64.3553 66.0879C65.2451 64.7233 67.1579 61.9941 67.6917 61.9941H74.3645L67.0245 68.8171L62.3535 70.864L64.3553 66.0879Z" fill="white" stroke="#1A3185" stroke-width="2"/>
<path d="M106.095 19.3861L102.092 23.4798L106.762 27.5736L110.766 23.4798L112.101 20.7507L109.432 18.0215L106.095 19.3861Z" fill="white"/>
<path d="M110.766 23.4798L112.101 20.7507L109.432 18.0215L106.095 19.3861L102.092 23.4798L106.762 27.5736L110.766 23.4798ZM110.766 23.4798L111.433 26.8913L98.0879 40.5372" stroke="#1A3185" stroke-width="2"/>
</g>
<defs>
<clipPath id="clip0_487_5858">
<rect width="130" height="130" fill="white" transform="translate(0.5 0.882812)"/>
</clipPath>
</defs>
</svg>
