<svg width="17" height="17" viewBox="0 0 17 17" fill="none" xmlns="http://www.w3.org/2000/svg">
<g clip-path="url(#clip0_3093_2090)">
<rect width="16" height="16" transform="translate(0.895386 0.877441)" fill="white" fill-opacity="0.01"/>
<g clip-path="url(#clip1_3093_2090)">
<path fill-rule="evenodd" clip-rule="evenodd" d="M8.85938 2.40454C5.88238 2.40454 3.28838 4.10854 2.53938 6.52954H1.98938C1.84359 6.5297 1.6996 6.56174 1.56749 6.6234C1.43539 6.68507 1.31836 6.77488 1.22462 6.88653C1.13087 6.99819 1.06268 7.12899 1.02481 7.26977C0.986936 7.41056 0.980306 7.55792 1.00538 7.70154L1.25938 9.16154C1.31991 9.50961 1.50136 9.82514 1.77174 10.0525C2.04212 10.2799 2.38409 10.4046 2.73738 10.4045H3.00038C3.30038 10.9175 3.68838 11.3825 4.14538 11.7865L3.41638 14.2635C3.39446 14.3381 3.39023 14.4168 3.40403 14.4933C3.41782 14.5698 3.44927 14.642 3.49586 14.7042C3.54246 14.7665 3.60292 14.817 3.67245 14.8517C3.74197 14.8865 3.81865 14.9046 3.89638 14.9045H5.89638C5.99955 14.9046 6.1002 14.8727 6.18452 14.8132C6.26884 14.7538 6.33272 14.6697 6.36738 14.5725L6.84938 13.2215C7.48438 13.3945 8.15938 13.4885 8.86038 13.4885C9.56738 13.4885 10.2484 13.3935 10.8884 13.2165L11.4314 14.5885C11.4683 14.6818 11.5323 14.7617 11.6153 14.8181C11.6982 14.8744 11.7961 14.9046 11.8964 14.9045H13.8964C13.9744 14.9045 14.0513 14.8861 14.121 14.851C14.1906 14.8159 14.2511 14.7649 14.2976 14.7022C14.344 14.6396 14.3752 14.5669 14.3885 14.49C14.4018 14.4131 14.397 14.3342 14.3744 14.2595L13.6134 11.7535C14.7054 10.7725 15.3954 9.43654 15.3954 7.94654C15.3954 7.80154 15.3884 7.65654 15.3754 7.51554C15.6364 7.40554 15.8834 7.24954 16.0804 7.07154C16.3954 7.37754 16.8954 7.37754 16.8954 6.65454C16.8954 6.87754 16.3954 6.87754 16.4344 6.62854C16.4764 6.54827 16.5067 6.4624 16.5244 6.37354C16.5479 6.25772 16.5417 6.13783 16.5064 6.02505C16.4711 5.91226 16.4078 5.81026 16.3224 5.72854C16.2323 5.63572 16.1138 5.57567 15.9857 5.55791C15.8576 5.54015 15.7273 5.56572 15.6154 5.63054C15.5125 5.6874 15.4247 5.76811 15.3595 5.8659C15.2942 5.96369 15.2534 6.0757 15.2404 6.19254C15.2164 6.43554 15.3224 6.67254 15.5604 6.84654C15.4778 6.90363 15.3912 6.95476 15.3014 6.99954C14.7674 4.33554 12.0174 2.40454 8.85938 2.40454ZM16.0324 6.28054C16.0146 6.35656 15.9812 6.42806 15.9344 6.49054C15.9194 6.48274 15.9047 6.4744 15.8904 6.46554C15.7444 6.37554 15.7334 6.29054 15.7384 6.24254C15.7433 6.20666 15.7564 6.17239 15.7767 6.14239C15.797 6.11239 15.8239 6.08747 15.8554 6.06954C15.9044 6.04254 15.9354 6.04854 15.9684 6.08154C15.9962 6.10572 16.0168 6.13704 16.0281 6.17212C16.0394 6.20719 16.0409 6.24469 16.0324 6.28054ZM7.03338 5.63054C7.62725 5.46137 8.24189 5.37621 8.85938 5.37754C9.52538 5.37754 10.1624 5.47454 10.7524 5.65054C10.8157 5.67091 10.8825 5.67843 10.9488 5.67266C11.0151 5.66688 11.0796 5.64794 11.1384 5.61693C11.1973 5.58592 11.2494 5.54346 11.2917 5.49206C11.3339 5.44066 11.3655 5.38134 11.3845 5.31757C11.4036 5.25381 11.4097 5.18689 11.4025 5.12073C11.3954 5.05457 11.3751 4.99051 11.3428 4.9323C11.3106 4.87409 11.2671 4.8229 11.2148 4.78173C11.1625 4.74056 11.1025 4.71024 11.0384 4.69254C10.3312 4.48235 9.59715 4.37623 8.85938 4.37754C8.12538 4.37754 7.41838 4.48054 6.75738 4.66954C6.62981 4.70614 6.52201 4.79192 6.45768 4.908C6.39336 5.02409 6.37778 5.16097 6.41438 5.28854C6.45098 5.41611 6.53676 5.52392 6.65284 5.58824C6.76893 5.65257 6.90581 5.66814 7.03338 5.63154V5.63054ZM5.89538 7.12754C5.89538 7.32645 5.81636 7.51722 5.67571 7.65787C5.53506 7.79852 5.34429 7.87754 5.14538 7.87754C4.94647 7.87754 4.7557 7.79852 4.61505 7.65787C4.4744 7.51722 4.39538 7.32645 4.39538 7.12754C4.39538 6.92863 4.4744 6.73786 4.61505 6.59721C4.7557 6.45656 4.94647 6.37754 5.14538 6.37754C5.34429 6.37754 5.53506 6.45656 5.67571 6.59721C5.81636 6.73786 5.89538 6.92863 5.89538 7.12754Z" fill="white"/>
</g>
</g>
<defs>
<clipPath id="clip0_3093_2090">
<rect width="16" height="16" fill="white" transform="translate(0.895386 0.877441)"/>
</clipPath>
<clipPath id="clip1_3093_2090">
<rect width="16" height="16" fill="white" transform="translate(0.895386 0.877441)"/>
</clipPath>
</defs>
</svg>
