<svg width="17" height="17" viewBox="0 0 17 17" fill="none" xmlns="http://www.w3.org/2000/svg">
<g clip-path="url(#clip0_3093_2645)">
<rect width="16" height="16" transform="translate(0.479736 0.262695)" fill="white" fill-opacity="0.01"/>
<g clip-path="url(#clip1_3093_2645)">
<path d="M8.75674 0.346681C8.67468 0.292074 8.57831 0.262939 8.47974 0.262939C8.38117 0.262939 8.2848 0.292074 8.20274 0.346681L0.702736 5.34668C0.613483 5.40619 0.545737 5.49284 0.509505 5.59381C0.473274 5.69478 0.470477 5.80473 0.501528 5.90741C0.53258 6.01009 0.595833 6.10007 0.681945 6.16404C0.768057 6.22801 0.872461 6.2626 0.979736 6.26268H2.85474V13.2627H1.97974C1.84713 13.2627 1.71995 13.3154 1.62618 13.4091C1.53241 13.5029 1.47974 13.6301 1.47974 13.7627C1.47974 13.8953 1.53241 14.0225 1.62618 14.1162C1.71995 14.21 1.84713 14.2627 1.97974 14.2627H14.9797C15.1123 14.2627 15.2395 14.21 15.3333 14.1162C15.4271 14.0225 15.4797 13.8953 15.4797 13.7627C15.4797 13.6301 15.4271 13.5029 15.3333 13.4091C15.2395 13.3154 15.1123 13.2627 14.9797 13.2627H14.1047V6.26268H15.9797C16.087 6.2626 16.1914 6.22801 16.2775 6.16404C16.3636 6.10007 16.4269 6.01009 16.4579 5.90741C16.489 5.80473 16.4862 5.69478 16.45 5.59381C16.4137 5.49284 16.346 5.40619 16.2567 5.34668L8.75674 0.346681ZM12.8547 6.26268V13.2627H11.6047V6.26268H12.8547ZM10.3547 6.26268V13.2627H9.10474V6.26268H10.3547ZM7.85474 6.26268V13.2627H6.60474V6.26268H7.85474ZM5.35474 6.26268V13.2627H4.10474V6.26268H5.35474ZM8.47974 4.26268C8.21452 4.26268 7.96017 4.15732 7.77263 3.96979C7.58509 3.78225 7.47974 3.5279 7.47974 3.26268C7.47974 2.99746 7.58509 2.74311 7.77263 2.55557C7.96017 2.36804 8.21452 2.26268 8.47974 2.26268C8.74495 2.26268 8.99931 2.36804 9.18684 2.55557C9.37438 2.74311 9.47974 2.99746 9.47974 3.26268C9.47974 3.5279 9.37438 3.78225 9.18684 3.96979C8.99931 4.15732 8.74495 4.26268 8.47974 4.26268ZM0.979736 15.2627C0.847128 15.2627 0.719951 15.3154 0.626183 15.4091C0.532415 15.5029 0.479736 15.6301 0.479736 15.7627C0.479736 15.8953 0.532415 16.0225 0.626183 16.1162C0.719951 16.21 0.847128 16.2627 0.979736 16.2627H15.9797C16.1123 16.2627 16.2395 16.21 16.3333 16.1162C16.4271 16.0225 16.4797 15.8953 16.4797 15.7627C16.4797 15.6301 16.4271 15.5029 16.3333 15.4091C16.2395 15.3154 16.1123 15.2627 15.9797 15.2627H0.979736Z" fill="white"/>
</g>
</g>
<defs>
<clipPath id="clip0_3093_2645">
<rect width="16" height="16" fill="white" transform="translate(0.479736 0.262695)"/>
</clipPath>
<clipPath id="clip1_3093_2645">
<rect width="16" height="16" fill="white" transform="translate(0.479736 0.262695)"/>
</clipPath>
</defs>
</svg>
