<svg width="17" height="17" viewBox="0 0 17 17" fill="none" xmlns="http://www.w3.org/2000/svg">
<g clip-path="url(#clip0_3093_2706)">
<rect width="16" height="16" transform="translate(0.479736 0.825195)" fill="white" fill-opacity="0.01"/>
<g clip-path="url(#clip1_3093_2706)">
<path d="M5.97974 10.3362C6.05574 11.2902 6.80974 12.0332 8.16174 12.1212V12.8252H8.76174V12.1162C10.1617 12.0182 10.9797 11.2702 10.9797 10.1842C10.9797 9.1972 10.3537 8.6882 9.23474 8.4242L8.76174 8.3122V6.3952C9.36174 6.4632 9.74374 6.7912 9.83574 7.2452H10.8877C10.8117 6.3262 10.0237 5.6072 8.76174 5.5292V4.8252H8.16174V5.5442C6.96674 5.6612 6.15174 6.3802 6.15174 7.3972C6.15174 8.2972 6.75774 8.8692 7.76474 9.1042L8.16174 9.2022V11.2362C7.54674 11.1432 7.13974 10.8062 7.04774 10.3362H5.97974ZM8.15674 8.1702C7.56674 8.0332 7.24674 7.7542 7.24674 7.3342C7.24674 6.86419 7.59174 6.5122 8.16174 6.4092V8.1692L8.15674 8.1702ZM8.84874 9.3632C9.56574 9.5292 9.89674 9.79819 9.89674 10.2732C9.89674 10.8152 9.48474 11.1872 8.76174 11.2552V9.34319L8.84874 9.3632Z" fill="white"/>
<path d="M8.47974 15.8252C6.62322 15.8252 4.84274 15.0877 3.52999 13.7749C2.21723 12.4622 1.47974 10.6817 1.47974 8.8252C1.47974 6.96868 2.21723 5.1882 3.52999 3.87545C4.84274 2.56269 6.62322 1.8252 8.47974 1.8252C10.3363 1.8252 12.1167 2.56269 13.4295 3.87545C14.7422 5.1882 15.4797 6.96868 15.4797 8.8252C15.4797 10.6817 14.7422 12.4622 13.4295 13.7749C12.1167 15.0877 10.3363 15.8252 8.47974 15.8252ZM8.47974 16.8252C10.6015 16.8252 12.6363 15.9823 14.1366 14.482C15.6369 12.9818 16.4797 10.9469 16.4797 8.8252C16.4797 6.70346 15.6369 4.66863 14.1366 3.16834C12.6363 1.66805 10.6015 0.825195 8.47974 0.825195C6.358 0.825195 4.32317 1.66805 2.82288 3.16834C1.32259 4.66863 0.479736 6.70346 0.479736 8.8252C0.479736 10.9469 1.32259 12.9818 2.82288 14.482C4.32317 15.9823 6.358 16.8252 8.47974 16.8252Z" fill="white"/>
<path d="M8.47974 14.3252C7.02105 14.3252 5.6221 13.7457 4.59065 12.7143C3.5592 11.6828 2.97974 10.2839 2.97974 8.8252C2.97974 7.3665 3.5592 5.96756 4.59065 4.93611C5.6221 3.90466 7.02105 3.3252 8.47974 3.3252C9.93843 3.3252 11.3374 3.90466 12.3688 4.93611C13.4003 5.96756 13.9797 7.3665 13.9797 8.8252C13.9797 10.2839 13.4003 11.6828 12.3688 12.7143C11.3374 13.7457 9.93843 14.3252 8.47974 14.3252ZM8.47974 14.8252C9.26767 14.8252 10.0479 14.67 10.7758 14.3685C11.5038 14.0669 12.1652 13.625 12.7224 13.0678C13.2795 12.5107 13.7215 11.8492 14.023 11.1213C14.3245 10.3933 14.4797 9.61313 14.4797 8.8252C14.4797 8.03726 14.3245 7.25705 14.023 6.52909C13.7215 5.80114 13.2795 5.13971 12.7224 4.58255C12.1652 4.0254 11.5038 3.58345 10.7758 3.28192C10.0479 2.98039 9.26767 2.8252 8.47974 2.8252C6.88844 2.8252 5.36231 3.45734 4.2371 4.58255C3.11188 5.70777 2.47974 7.2339 2.47974 8.8252C2.47974 10.4165 3.11188 11.9426 4.2371 13.0678C5.36231 14.1931 6.88844 14.8252 8.47974 14.8252Z" fill="white"/>
</g>
</g>
<defs>
<clipPath id="clip0_3093_2706">
<rect width="16" height="16" fill="white" transform="translate(0.479736 0.825195)"/>
</clipPath>
<clipPath id="clip1_3093_2706">
<rect width="16" height="16" fill="white" transform="translate(0.479736 0.825195)"/>
</clipPath>
</defs>
</svg>
