<svg width="17" height="17" viewBox="0 0 17 17" fill="none" xmlns="http://www.w3.org/2000/svg">
<g clip-path="url(#clip0_3093_2817)">
<rect width="16" height="16" transform="translate(0.370361 0.387695)" fill="white" fill-opacity="0.01"/>
<g clip-path="url(#clip1_3093_2817)">
<path d="M8.37037 2.38794C8.44327 2.38794 8.51528 2.40388 8.58137 2.43464L16.0814 5.93464C16.1697 5.97586 16.244 6.042 16.2953 6.12492C16.3465 6.20783 16.3724 6.30391 16.3697 6.40134C16.3671 6.49877 16.336 6.5933 16.2803 6.6733C16.2246 6.7533 16.1468 6.81529 16.0564 6.85164L15.3704 7.12664V13.3876C15.6356 13.3876 15.8899 13.493 16.0775 13.6805C16.265 13.8681 16.3704 14.1224 16.3704 14.3876V16.3876H13.3704V14.3876C13.3704 14.1224 13.4757 13.8681 13.6633 13.6805C13.8508 13.493 14.1052 13.3876 14.3704 13.3876V7.52764L8.55637 9.85164C8.43699 9.89949 8.30376 9.89949 8.18437 9.85164L0.684372 6.85164C0.59394 6.81529 0.516103 6.7533 0.460434 6.6733C0.404765 6.5933 0.373692 6.49877 0.371035 6.40134C0.368379 6.30391 0.394256 6.20783 0.445483 6.12492C0.49671 6.042 0.571054 5.97586 0.659372 5.93464L8.15937 2.43464C8.22546 2.40388 8.29748 2.38794 8.37037 2.38794Z" fill="white"/>
<path d="M4.34456 9.38823C4.41327 9.38471 4.48197 9.39542 4.54635 9.41967L8.37035 10.8537L12.1943 9.41967C12.2587 9.39542 12.3274 9.38471 12.3961 9.38823C12.4649 9.39174 12.5321 9.40939 12.5937 9.44009C12.6552 9.47078 12.7098 9.51385 12.754 9.56661C12.7982 9.61936 12.831 9.68066 12.8503 9.74667L13.3503 11.4467C13.3854 11.566 13.3747 11.6941 13.3203 11.806C13.2659 11.9179 13.1718 12.0055 13.0563 12.0517L8.55635 13.8517C8.43696 13.8995 8.30373 13.8995 8.18435 13.8517L3.68435 12.0517C3.56887 12.0055 3.47477 11.9179 3.42041 11.806C3.36604 11.6941 3.35533 11.566 3.39035 11.4467L3.89035 9.74667C3.90974 9.68066 3.94254 9.61936 3.98671 9.56661C4.03087 9.51385 4.08545 9.47078 4.14702 9.44009C4.2086 9.40939 4.27585 9.39174 4.34456 9.38823Z" fill="white"/>
</g>
</g>
<defs>
<clipPath id="clip0_3093_2817">
<rect width="16" height="16" fill="white" transform="translate(0.370361 0.387695)"/>
</clipPath>
<clipPath id="clip1_3093_2817">
<rect width="16" height="16" fill="white" transform="translate(0.370361 0.387695)"/>
</clipPath>
</defs>
</svg>
