<svg width="17" height="17" viewBox="0 0 17 17" fill="none" xmlns="http://www.w3.org/2000/svg">
<g clip-path="url(#clip0_3093_2598)">
<rect width="16" height="16" transform="translate(0.895386 0.772461)" fill="white" fill-opacity="0.01"/>
<g clip-path="url(#clip1_3093_2598)">
<path d="M8.89539 10.2725C9.42582 10.2725 9.93453 10.0617 10.3096 9.68667C10.6847 9.3116 10.8954 8.80289 10.8954 8.27246C10.8954 7.74203 10.6847 7.23332 10.3096 6.85825C9.93453 6.48317 9.42582 6.27246 8.89539 6.27246C8.36495 6.27246 7.85625 6.48317 7.48117 6.85825C7.1061 7.23332 6.89539 7.74203 6.89539 8.27246C6.89539 8.80289 7.1061 9.3116 7.48117 9.68667C7.85625 10.0617 8.36495 10.2725 8.89539 10.2725Z" fill="white"/>
<path d="M10.3954 2.77246C9.49539 2.77246 8.64539 2.98846 7.89439 3.37246C8.62099 3.22399 9.37153 3.23901 10.0916 3.41644C10.8117 3.59387 11.4833 3.92926 12.0577 4.39832C12.6322 4.86737 13.0951 5.45834 13.4129 6.1284C13.7308 6.79846 13.8956 7.53084 13.8954 8.27246C13.8954 9.99637 13.2106 11.6497 11.9916 12.8687C10.7726 14.0876 9.11929 14.7725 7.39539 14.7725C5.67148 14.7725 4.01818 14.0876 2.79919 12.8687C1.58021 11.6497 0.895386 9.99637 0.895386 8.27246C0.895386 8.13985 0.948064 8.01268 1.04183 7.91891C1.1356 7.82514 1.26278 7.77246 1.39539 7.77246C1.52799 7.77246 1.65517 7.82514 1.74894 7.91891C1.84271 8.01268 1.89539 8.13985 1.89539 8.27246C1.89512 9.21402 2.13659 10.1399 2.59665 10.9614C3.05672 11.7829 3.71998 12.4726 4.52293 12.9643C5.32588 13.456 6.24163 13.7334 7.18248 13.7699C8.12334 13.8063 9.0578 13.6006 9.89639 13.1725C9.16978 13.3209 8.41924 13.3059 7.69916 13.1285C6.97907 12.9511 6.30748 12.6157 5.73303 12.1466C5.15858 11.6776 4.69567 11.0866 4.37784 10.4165C4.06 9.74646 3.8952 9.01408 3.89539 8.27246C3.89539 6.54855 4.5802 4.89525 5.79919 3.67627C7.01818 2.45728 8.67148 1.77246 10.3954 1.77246C12.1193 1.77246 13.7726 2.45728 14.9916 3.67627C16.2106 4.89525 16.8954 6.54855 16.8954 8.27246C16.8954 8.40507 16.8427 8.53225 16.7489 8.62601C16.6552 8.71978 16.528 8.77246 16.3954 8.77246C16.2628 8.77246 16.1356 8.71978 16.0418 8.62601C15.9481 8.53225 15.8954 8.40507 15.8954 8.27246C15.8954 7.55019 15.7531 6.83499 15.4767 6.1677C15.2003 5.50041 14.7952 4.8941 14.2845 4.38337C13.7738 3.87265 13.1674 3.46752 12.5001 3.19112C11.8329 2.91472 11.1177 2.77246 10.3954 2.77246ZM8.89539 4.27246C7.83452 4.27246 6.8171 4.69389 6.06696 5.44403C5.31681 6.19418 4.89539 7.2116 4.89539 8.27246C4.89539 9.33333 5.31681 10.3507 6.06696 11.1009C6.8171 11.851 7.83452 12.2725 8.89539 12.2725C9.95625 12.2725 10.9737 11.851 11.7238 11.1009C12.474 10.3507 12.8954 9.33333 12.8954 8.27246C12.8954 7.2116 12.474 6.19418 11.7238 5.44403C10.9737 4.69389 9.95625 4.27246 8.89539 4.27246Z" fill="white"/>
</g>
</g>
<defs>
<clipPath id="clip0_3093_2598">
<rect width="16" height="16" fill="white" transform="translate(0.895386 0.772461)"/>
</clipPath>
<clipPath id="clip1_3093_2598">
<rect width="16" height="16" fill="white" transform="translate(0.895386 0.772461)"/>
</clipPath>
</defs>
</svg>
