<svg width="17" height="17" viewBox="0 0 17 17" fill="none" xmlns="http://www.w3.org/2000/svg">
<g clip-path="url(#clip0_3093_2387)">
<rect width="16" height="16" transform="translate(0.479736 0.157227)" fill="white" fill-opacity="0.01"/>
<g clip-path="url(#clip1_3093_2387)">
<path d="M6.47974 0.157227C6.61234 0.157227 6.73952 0.209905 6.83329 0.303673C6.92706 0.397441 6.97974 0.524618 6.97974 0.657227V3.15723H9.97974V0.657227C9.97974 0.524618 10.0324 0.397441 10.1262 0.303673C10.22 0.209905 10.3471 0.157227 10.4797 0.157227C10.6123 0.157227 10.7395 0.209905 10.8333 0.303673C10.9271 0.397441 10.9797 0.524618 10.9797 0.657227V3.15723H11.9797C12.1123 3.15723 12.2395 3.20991 12.3333 3.30367C12.4271 3.39744 12.4797 3.52462 12.4797 3.65723V6.65723C12.4797 7.58548 12.111 8.47572 11.4546 9.1321C10.7982 9.78848 9.90799 10.1572 8.97974 10.1572C8.97774 10.5912 8.96974 11.0022 8.93974 11.3772C8.89874 11.8912 8.81374 12.3802 8.62274 12.8012C8.42909 13.2465 8.086 13.6101 7.65274 13.8292C7.20474 14.0572 6.64874 14.1572 5.97974 14.1572C4.98174 14.1572 4.36974 14.4872 4.00574 14.8752C3.6771 15.2223 3.48956 15.6794 3.47974 16.1572H2.47974C2.47974 15.5412 2.71174 14.7902 3.27674 14.1892C3.85374 13.5772 4.74074 13.1572 5.97974 13.1572C6.56074 13.1572 6.94174 13.0692 7.19774 12.9382C7.43874 12.8152 7.59774 12.6382 7.71174 12.3882C7.83274 12.1222 7.90474 11.7672 7.94174 11.2982C7.96874 10.9582 7.97674 10.5802 7.97874 10.1572C7.05065 10.157 6.16067 9.7881 5.50451 9.13175C4.84835 8.4754 4.47974 7.58531 4.47974 6.65723V3.65723C4.47974 3.52462 4.53241 3.39744 4.62618 3.30367C4.71995 3.20991 4.84713 3.15723 4.97974 3.15723H5.97974V0.657227C5.97974 0.524618 6.03241 0.397441 6.12618 0.303673C6.21995 0.209905 6.34713 0.157227 6.47974 0.157227V0.157227Z" fill="white"/>
</g>
</g>
<defs>
<clipPath id="clip0_3093_2387">
<rect width="16" height="16" fill="white" transform="translate(0.479736 0.157227)"/>
</clipPath>
<clipPath id="clip1_3093_2387">
<rect width="16" height="16" fill="white" transform="translate(0.479736 0.157227)"/>
</clipPath>
</defs>
</svg>
