<svg width="17" height="17" viewBox="0 0 17 17" fill="none" xmlns="http://www.w3.org/2000/svg">
<g clip-path="url(#clip0_3093_2653)">
<rect width="16" height="16" transform="translate(0.479736 0.719727)" fill="white" fill-opacity="0.01"/>
<g clip-path="url(#clip1_3093_2653)">
<path d="M8.89574 0.942827C8.85007 0.874348 8.78821 0.8182 8.71564 0.779367C8.64307 0.740533 8.56204 0.720215 8.47973 0.720215C8.39743 0.720215 8.3164 0.740533 8.24383 0.779367C8.17126 0.8182 8.1094 0.874348 8.06374 0.942827L5.06374 5.44283C5.01363 5.51812 4.98489 5.6056 4.98056 5.69594C4.97624 5.78627 4.99651 5.87609 5.03919 5.95583C5.08188 6.03556 5.1454 6.10222 5.22298 6.14871C5.30056 6.1952 5.38929 6.21978 5.47973 6.21983H5.57773L3.55573 9.45483C3.50843 9.53051 3.48225 9.61748 3.47991 9.7067C3.47756 9.79593 3.49915 9.88415 3.54241 9.96221C3.58568 10.0403 3.64905 10.1053 3.72596 10.1506C3.80286 10.1959 3.89048 10.2198 3.97974 10.2198H4.17074L2.53273 13.4958C2.49454 13.5721 2.47647 13.6568 2.48024 13.742C2.48402 13.8271 2.50951 13.9099 2.55431 13.9825C2.5991 14.055 2.6617 14.1149 2.73616 14.1565C2.81062 14.198 2.89447 14.2198 2.97973 14.2198H7.47973V16.7198H9.47973V14.2198H13.9797C14.065 14.2198 14.1488 14.198 14.2233 14.1565C14.2978 14.1149 14.3604 14.055 14.4052 13.9825C14.45 13.9099 14.4755 13.8271 14.4792 13.742C14.483 13.6568 14.4649 13.5721 14.4267 13.4958L12.7897 10.2198H12.9807C13.07 10.2198 13.1576 10.1959 13.2345 10.1506C13.3114 10.1053 13.3748 10.0403 13.4181 9.96221C13.4613 9.88415 13.4829 9.79593 13.4806 9.7067C13.4782 9.61748 13.452 9.53051 13.4047 9.45483L11.3817 6.21983H11.4797C11.5702 6.21978 11.6589 6.1952 11.7365 6.14871C11.8141 6.10222 11.8776 6.03556 11.9203 5.95583C11.963 5.87609 11.9832 5.78627 11.9789 5.69594C11.9746 5.6056 11.9458 5.51812 11.8957 5.44283L8.89574 0.942827Z" fill="white"/>
</g>
</g>
<defs>
<clipPath id="clip0_3093_2653">
<rect width="16" height="16" fill="white" transform="translate(0.479736 0.719727)"/>
</clipPath>
<clipPath id="clip1_3093_2653">
<rect width="16" height="16" fill="white" transform="translate(0.479736 0.719727)"/>
</clipPath>
</defs>
</svg>
