<svg width="17" height="17" viewBox="0 0 17 17" fill="none" xmlns="http://www.w3.org/2000/svg">
<g clip-path="url(#clip0_3093_2104)">
<rect width="16" height="16" transform="translate(0.370361 0.282227)" fill="white" fill-opacity="0.01"/>
<g clip-path="url(#clip1_3093_2104)">
<path d="M7.37036 14.2822C7.37036 14.2822 6.37036 14.2822 6.37036 13.2822C6.37036 12.2822 7.37036 9.28223 11.3704 9.28223C15.3704 9.28223 16.3704 12.2822 16.3704 13.2822C16.3704 14.2822 15.3704 14.2822 15.3704 14.2822H7.37036ZM11.3704 8.28223C12.166 8.28223 12.9291 7.96616 13.4917 7.40355C14.0543 6.84094 14.3704 6.07788 14.3704 5.28223C14.3704 4.48658 14.0543 3.72352 13.4917 3.16091C12.9291 2.5983 12.166 2.28223 11.3704 2.28223C10.5747 2.28223 9.81165 2.5983 9.24904 3.16091C8.68643 3.72352 8.37036 4.48658 8.37036 5.28223C8.37036 6.07788 8.68643 6.84094 9.24904 7.40355C9.81165 7.96616 10.5747 8.28223 11.3704 8.28223Z" fill="white"/>
<path fill-rule="evenodd" clip-rule="evenodd" d="M5.58636 14.2822C5.43812 13.97 5.36418 13.6278 5.37036 13.2822C5.37036 11.9272 6.05036 10.5322 7.30636 9.56223C6.67945 9.36906 6.02631 9.2746 5.37036 9.28223C1.37036 9.28223 0.370361 12.2822 0.370361 13.2822C0.370361 14.2822 1.37036 14.2822 1.37036 14.2822H5.58636Z" fill="white"/>
<path d="M4.87036 8.28223C5.5334 8.28223 6.16929 8.01883 6.63813 7.54999C7.10697 7.08115 7.37036 6.44527 7.37036 5.78223C7.37036 5.11919 7.10697 4.4833 6.63813 4.01446C6.16929 3.54562 5.5334 3.28223 4.87036 3.28223C4.20732 3.28223 3.57144 3.54562 3.10259 4.01446C2.63375 4.4833 2.37036 5.11919 2.37036 5.78223C2.37036 6.44527 2.63375 7.08115 3.10259 7.54999C3.57144 8.01883 4.20732 8.28223 4.87036 8.28223Z" fill="white"/>
</g>
</g>
<defs>
<clipPath id="clip0_3093_2104">
<rect width="16" height="16" fill="white" transform="translate(0.370361 0.282227)"/>
</clipPath>
<clipPath id="clip1_3093_2104">
<rect width="16" height="16" fill="white" transform="translate(0.370361 0.282227)"/>
</clipPath>
</defs>
</svg>
