<svg width="17" height="17" viewBox="0 0 17 17" fill="none" xmlns="http://www.w3.org/2000/svg">
<g clip-path="url(#clip0_3093_1550)">
<rect width="16" height="16" transform="translate(0.479736 0.230469)" fill="white" fill-opacity="0.01"/>
<g clip-path="url(#clip1_3093_1550)">
<path fill-rule="evenodd" clip-rule="evenodd" d="M1.95473 9.23053C3.18173 11.0705 5.25873 13.1015 8.47973 15.2305C11.7007 13.1015 13.7777 11.0705 15.0047 9.23053H12.4797C12.3799 9.2305 12.2823 9.20058 12.1996 9.14462C12.1169 9.08866 12.0529 9.00922 12.0157 8.91653L10.5587 5.27453L8.96073 10.8675C8.93216 10.9678 8.87294 11.0567 8.79136 11.1217C8.70977 11.1866 8.60991 11.2245 8.50575 11.2299C8.4016 11.2353 8.29836 11.208 8.21049 11.1518C8.12262 11.0956 8.05453 11.0133 8.01573 10.9165L6.36873 6.79853L4.89573 9.00853C4.85 9.07689 4.78811 9.13292 4.71555 9.17165C4.64298 9.21037 4.56199 9.2306 4.47973 9.23053H1.95473ZM1.35873 8.23053C-1.94627 1.91053 4.88973 -1.76947 8.30373 1.37353C8.36373 1.42853 8.42273 1.48553 8.47973 1.54453C8.53616 1.48558 8.59487 1.42887 8.65573 1.37453C12.0697 -1.76947 18.9057 1.91053 15.5997 8.23053H12.8167L10.9427 3.54453C10.9039 3.44771 10.8358 3.36545 10.748 3.30927C10.6601 3.25308 10.5569 3.22577 10.4527 3.23117C10.3486 3.23657 10.2487 3.27441 10.1671 3.33938C10.0855 3.40436 10.0263 3.49322 9.99773 3.59353L8.40073 9.18653L6.94373 5.54453C6.9098 5.46004 6.85344 5.38642 6.78074 5.33162C6.70804 5.27681 6.62175 5.2429 6.53119 5.23353C6.44063 5.22417 6.34923 5.23971 6.26685 5.27848C6.18447 5.31725 6.11424 5.37777 6.06373 5.45353L4.21173 8.23053H1.35973H1.35873Z" fill="white"/>
</g>
</g>
<defs>
<clipPath id="clip0_3093_1550">
<rect width="16" height="16" fill="white" transform="translate(0.479736 0.230469)"/>
</clipPath>
<clipPath id="clip1_3093_1550">
<rect width="16" height="16" fill="white" transform="translate(0.479736 0.230469)"/>
</clipPath>
</defs>
</svg>
