<svg width="17" height="17" viewBox="0 0 17 17" fill="none" xmlns="http://www.w3.org/2000/svg">
<g clip-path="url(#clip0_3093_2602)">
<rect width="16" height="16" transform="translate(0.895386 0.845703)" fill="white" fill-opacity="0.01"/>
<g clip-path="url(#clip1_3093_2602)">
<path d="M9.17239 0.929689C9.09033 0.875082 8.99395 0.845947 8.89539 0.845947C8.79682 0.845947 8.70045 0.875082 8.61839 0.929689L1.11839 5.92969C1.02913 5.9892 0.961387 6.07584 0.925155 6.17682C0.888923 6.27779 0.886126 6.38773 0.917178 6.49042C0.948229 6.5931 1.01148 6.68307 1.09759 6.74705C1.18371 6.81102 1.28811 6.84561 1.39539 6.84569H3.27039V13.8457H2.39539C2.26278 13.8457 2.1356 13.8984 2.04183 13.9921C1.94806 14.0859 1.89539 14.2131 1.89539 14.3457C1.89539 14.4783 1.94806 14.6055 2.04183 14.6992C2.1356 14.793 2.26278 14.8457 2.39539 14.8457H15.3954C15.528 14.8457 15.6552 14.793 15.7489 14.6992C15.8427 14.6055 15.8954 14.4783 15.8954 14.3457C15.8954 14.2131 15.8427 14.0859 15.7489 13.9921C15.6552 13.8984 15.528 13.8457 15.3954 13.8457H14.5204V6.84569H16.3954C16.5027 6.84561 16.6071 6.81102 16.6932 6.74705C16.7793 6.68307 16.8425 6.5931 16.8736 6.49042C16.9046 6.38773 16.9018 6.27779 16.8656 6.17682C16.8294 6.07584 16.7616 5.9892 16.6724 5.92969L9.17239 0.929689ZM13.2704 6.84569V13.8457H12.0204V6.84569H13.2704ZM10.7704 6.84569V13.8457H9.52039V6.84569H10.7704ZM8.27039 6.84569V13.8457H7.02039V6.84569H8.27039ZM5.77039 6.84569V13.8457H4.52039V6.84569H5.77039ZM8.89539 4.84569C8.63017 4.84569 8.37582 4.74033 8.18828 4.5528C8.00074 4.36526 7.89539 4.11091 7.89539 3.84569C7.89539 3.58047 8.00074 3.32612 8.18828 3.13858C8.37582 2.95105 8.63017 2.84569 8.89539 2.84569C9.1606 2.84569 9.41496 2.95105 9.60249 3.13858C9.79003 3.32612 9.89539 3.58047 9.89539 3.84569C9.89539 4.11091 9.79003 4.36526 9.60249 4.5528C9.41496 4.74033 9.1606 4.84569 8.89539 4.84569ZM1.39539 15.8457C1.26278 15.8457 1.1356 15.8984 1.04183 15.9921C0.948064 16.0859 0.895386 16.2131 0.895386 16.3457C0.895386 16.4783 0.948064 16.6055 1.04183 16.6992C1.1356 16.793 1.26278 16.8457 1.39539 16.8457H16.3954C16.528 16.8457 16.6552 16.793 16.7489 16.6992C16.8427 16.6055 16.8954 16.4783 16.8954 16.3457C16.8954 16.2131 16.8427 16.0859 16.7489 15.9921C16.6552 15.8984 16.528 15.8457 16.3954 15.8457H1.39539Z" fill="white"/>
</g>
</g>
<defs>
<clipPath id="clip0_3093_2602">
<rect width="16" height="16" fill="white" transform="translate(0.895386 0.845703)"/>
</clipPath>
<clipPath id="clip1_3093_2602">
<rect width="16" height="16" fill="white" transform="translate(0.895386 0.845703)"/>
</clipPath>
</defs>
</svg>
