<svg width="17" height="17" viewBox="0 0 17 17" fill="none" xmlns="http://www.w3.org/2000/svg">
<g clip-path="url(#clip0_3093_2561)">
<rect width="16" height="16" transform="translate(0.479736 0.792969)" fill="white" fill-opacity="0.01"/>
<g clip-path="url(#clip1_3093_2561)">
<path d="M8.47974 2C8.7449 2 8.99921 2.10532 9.18674 2.29279L11.4797 4.58579V3.29279C11.4797 3.16018 11.5324 3.033 11.6262 2.93923C11.72 2.84546 11.8471 2.79279 11.9797 2.79279H12.9797C13.1123 2.79279 13.2395 2.84546 13.3333 2.93923C13.4271 3.033 13.4797 3.16018 13.4797 3.29279V6.58579L15.8337 8.93879C15.9275 9.03267 15.9801 9.15996 15.98 9.29264C15.9799 9.42532 15.9271 9.55253 15.8332 9.64629C15.7394 9.74004 15.6121 9.79266 15.4794 9.79256C15.3467 9.79247 15.2195 9.73967 15.1257 9.64579L8.47974 2.99979L1.83374 9.64579C1.73999 9.73967 1.61278 9.79247 1.48009 9.79256C1.34741 9.79266 1.22013 9.74004 1.12624 9.64629C1.03235 9.55253 0.979556 9.42532 0.979462 9.29264C0.979368 9.15996 1.03199 9.03267 1.12574 8.93879L7.77274 2.29279C7.96027 2.10532 8.21458 2 8.47974 2Z" fill="white"/>
<path fill-rule="evenodd" clip-rule="evenodd" d="M14.4797 10.0859L8.47974 4.08594L2.47974 10.0859V14.2929C2.47974 14.6908 2.63777 15.0723 2.91908 15.3536C3.20038 15.6349 3.58191 15.7929 3.97974 15.7929H12.9797C13.3776 15.7929 13.7591 15.6349 14.0404 15.3536C14.3217 15.0723 14.4797 14.6908 14.4797 14.2929V10.0859ZM8.47974 9.27494C10.1437 7.60194 14.3047 10.5289 8.47974 14.2929C2.65474 10.5289 6.81574 7.60194 8.47974 9.27494Z" fill="white"/>
</g>
</g>
<defs>
<clipPath id="clip0_3093_2561">
<rect width="16" height="16" fill="white" transform="translate(0.479736 0.792969)"/>
</clipPath>
<clipPath id="clip1_3093_2561">
<rect width="16" height="16" fill="white" transform="translate(0.479736 0.792969)"/>
</clipPath>
</defs>
</svg>
