<svg width="17" height="17" viewBox="0 0 17 17" fill="none" xmlns="http://www.w3.org/2000/svg">
<g clip-path="url(#clip0_3093_2012)">
<path d="M0.370361 8.35547C0.370361 6.23374 1.21322 4.19891 2.71351 2.69861C4.2138 1.19832 6.24863 0.355469 8.37036 0.355469C10.4921 0.355469 12.5269 1.19832 14.0272 2.69861C15.5275 4.19891 16.3704 6.23374 16.3704 8.35547C16.3704 10.4772 15.5275 12.512 14.0272 14.0123C12.5269 15.5126 10.4921 16.3555 8.37036 16.3555C6.24863 16.3555 4.2138 15.5126 2.71351 14.0123C1.21322 12.512 0.370361 10.4772 0.370361 8.35547ZM7.87036 1.43247C7.20036 1.63647 6.53536 2.25247 5.98336 3.28747C5.80149 3.63156 5.64507 3.98852 5.51536 4.35547H7.87036V1.43247ZM4.46036 4.35547C4.62703 3.82429 4.84123 3.3092 5.10036 2.81647C5.27327 2.48952 5.47295 2.17746 5.69736 1.88347C4.45836 2.3973 3.39237 3.25509 2.62536 4.35547H4.46036ZM3.87836 7.85547C3.90836 6.97847 4.01636 6.13747 4.19036 5.35547H2.04436C1.67148 6.14052 1.44897 6.98848 1.38836 7.85547H3.87836ZM5.21736 5.35547C5.02068 6.17527 4.90743 7.01287 4.87936 7.85547H7.87036V5.35547H5.21736ZM8.87036 5.35547V7.85547H11.8604C11.8327 7.0129 11.7197 6.1753 11.5234 5.35547H8.87036ZM4.88036 8.85547C4.90811 9.69803 5.02101 10.5356 5.21736 11.3555H7.87036V8.85547H4.88036ZM8.87036 8.85547V11.3555H11.5234C11.7104 10.5905 11.8294 9.74747 11.8614 8.85547H8.87036ZM5.51536 12.3555C5.65336 12.7415 5.81036 13.0995 5.98336 13.4235C6.53536 14.4585 7.20136 15.0735 7.87036 15.2785V12.3555H5.51536ZM5.69736 14.8275C5.47294 14.5335 5.27325 14.2214 5.10036 13.8945C4.84124 13.4017 4.62704 12.8866 4.46036 12.3555H2.62536C3.39233 13.4559 4.45834 14.3137 5.69736 14.8275ZM4.19036 11.3555C4.00953 10.5335 3.90508 9.69664 3.87836 8.85547H1.38836C1.45036 9.74547 1.67936 10.5885 2.04436 11.3555H4.19036ZM11.0434 14.8275C12.2824 14.3137 13.3484 13.4559 14.1154 12.3555H12.2804C12.1137 12.8866 11.8995 13.4017 11.6404 13.8945C11.4675 14.2214 11.2678 14.5335 11.0434 14.8275ZM8.87036 12.3555V15.2785C9.54036 15.0745 10.2054 14.4585 10.7574 13.4235C10.9304 13.0995 11.0874 12.7415 11.2254 12.3555H8.87036ZM12.5504 11.3555H14.6964C15.0614 10.5885 15.2904 9.74547 15.3524 8.85547H12.8624C12.8357 9.69664 12.7312 10.5335 12.5504 11.3555ZM15.3524 7.85547C15.2917 6.98848 15.0692 6.14053 14.6964 5.35547H12.5504C12.7244 6.13747 12.8324 6.97847 12.8624 7.85547H15.3524ZM11.6404 2.81647C11.8874 3.28047 12.1024 3.79647 12.2804 4.35547H14.1154C13.3484 3.25505 12.2824 2.39725 11.0434 1.88347C11.2614 2.16747 11.4614 2.48147 11.6404 2.81647ZM11.2254 4.35547C11.0957 3.98851 10.9392 3.63156 10.7574 3.28747C10.2054 2.25247 9.54036 1.63747 8.87036 1.43247V4.35547H11.2254Z" fill="white"/>
</g>
<defs>
<clipPath id="clip0_3093_2012">
<rect width="16" height="16" fill="white" transform="translate(0.370361 0.355469)"/>
</clipPath>
</defs>
</svg>
