<svg width="17" height="17" viewBox="0 0 17 17" fill="none" xmlns="http://www.w3.org/2000/svg">
<g clip-path="url(#clip0_3093_2710)">
<rect width="16" height="16" transform="translate(0.479736 0.877441)" fill="white" fill-opacity="0.01"/>
<g clip-path="url(#clip1_3093_2710)">
<path d="M10.4517 3.38547C10.486 3.28764 10.489 3.18159 10.4603 3.08198C10.4316 2.98237 10.3727 2.89413 10.2917 2.82947L10.1137 2.70047C9.48895 2.28756 8.77955 2.02 8.03772 1.91747C6.69472 1.73947 4.98372 2.10647 3.31972 4.01047H2.26572C2.19995 4.01049 2.13482 4.02348 2.07408 4.0487C2.01333 4.07393 1.95816 4.11089 1.91172 4.15747L0.625722 5.44447C0.532292 5.53819 0.479828 5.66513 0.479828 5.79747C0.479828 5.92981 0.532292 6.05675 0.625722 6.15047L3.19672 8.72947C3.24317 8.77604 3.29834 8.81298 3.35909 8.83818C3.41983 8.86339 3.48495 8.87637 3.55072 8.87637C3.61649 8.87637 3.68161 8.86339 3.74236 8.83818C3.8031 8.81298 3.85828 8.77604 3.90472 8.72947L5.19072 7.43947C5.28419 7.34577 5.33669 7.21882 5.33672 7.08647V6.44747L13.7237 15.3205C13.7664 15.3784 13.8211 15.4265 13.8841 15.4613C13.9471 15.4962 14.0169 15.517 14.0886 15.5224C14.1604 15.5278 14.2325 15.5177 14.3 15.4927C14.3675 15.4677 14.4288 15.4284 14.4797 15.3775L15.9797 13.8775C16.0704 13.7867 16.1227 13.6646 16.1259 13.5364C16.1291 13.4081 16.0828 13.2836 15.9967 13.1885L6.86772 4.55847C7.61472 4.10247 8.63972 3.71947 9.97972 3.71947C10.0833 3.71955 10.1843 3.68745 10.2689 3.62762C10.3535 3.56779 10.4173 3.48318 10.4517 3.38547Z" fill="white"/>
</g>
</g>
<defs>
<clipPath id="clip0_3093_2710">
<rect width="16" height="16" fill="white" transform="translate(0.479736 0.877441)"/>
</clipPath>
<clipPath id="clip1_3093_2710">
<rect width="16" height="16" fill="white" transform="translate(0.479736 0.877441)"/>
</clipPath>
</defs>
</svg>
