<svg width="17" height="17" viewBox="0 0 17 17" fill="none" xmlns="http://www.w3.org/2000/svg">
<g clip-path="url(#clip0_3093_2657)">
<rect width="16" height="16" transform="translate(0.0640869 0.262695)" fill="white" fill-opacity="0.01"/>
<g clip-path="url(#clip1_3093_2657)">
<path d="M8.56409 2.94958C9.21809 2.26058 10.3461 2.06358 11.6761 2.19758C12.9101 2.32158 14.1791 2.72058 15.0641 3.09058V13.0136C14.1461 12.6636 12.9571 12.3216 11.7771 12.2036C10.6831 12.0926 9.49909 12.1646 8.56409 12.6956V2.94958ZM8.06409 2.04558C7.07909 1.19858 5.65109 1.07258 4.35109 1.20258C2.83709 1.35558 1.30909 1.87458 0.357087 2.30758C0.269736 2.3473 0.195662 2.41133 0.143708 2.49201C0.0917536 2.57269 0.0641135 2.66662 0.0640869 2.76258L0.0640869 13.7626C0.0641101 13.8462 0.0851241 13.9285 0.125204 14.002C0.165284 14.0754 0.223149 14.1376 0.293498 14.1829C0.363847 14.2282 0.444431 14.2551 0.52787 14.2611C0.611309 14.2672 0.694935 14.2522 0.771087 14.2176C1.65309 13.8176 3.07409 13.3366 4.45109 13.1976C5.86009 13.0556 7.04109 13.2846 7.67409 14.0746C7.72094 14.133 7.7803 14.1801 7.84781 14.2125C7.91531 14.2449 7.98922 14.2617 8.06409 14.2617C8.13896 14.2617 8.21287 14.2449 8.28037 14.2125C8.34787 14.1801 8.40724 14.133 8.45409 14.0746C9.08709 13.2846 10.2681 13.0556 11.6761 13.1976C13.0541 13.3366 14.4761 13.8176 15.3571 14.2176C15.4332 14.2522 15.5169 14.2672 15.6003 14.2611C15.6837 14.2551 15.7643 14.2282 15.8347 14.1829C15.905 14.1376 15.9629 14.0754 16.003 14.002C16.043 13.9285 16.0641 13.8462 16.0641 13.7626V2.76258C16.0641 2.66662 16.0364 2.57269 15.9845 2.49201C15.9325 2.41133 15.8584 2.3473 15.7711 2.30758C14.8191 1.87458 13.2911 1.35558 11.7771 1.20258C10.4771 1.07158 9.04909 1.19858 8.06409 2.04558Z" fill="white"/>
</g>
</g>
<defs>
<clipPath id="clip0_3093_2657">
<rect width="16" height="16" fill="white" transform="translate(0.0640869 0.262695)"/>
</clipPath>
<clipPath id="clip1_3093_2657">
<rect width="16" height="16" fill="white" transform="translate(0.0640869 0.262695)"/>
</clipPath>
</defs>
</svg>
