<svg width="17" height="17" viewBox="0 0 17 17" fill="none" xmlns="http://www.w3.org/2000/svg">
<g clip-path="url(#clip0_3093_2714)">
<rect width="16" height="16" transform="translate(0.0640869 0.825195)" fill="white" fill-opacity="0.01"/>
<g clip-path="url(#clip1_3093_2714)">
<path d="M5.58407 1.1842C5.61455 1.08052 5.67778 0.989514 5.76432 0.924795C5.85085 0.860077 5.95602 0.825132 6.06407 0.825195H10.0641C10.1433 0.825256 10.2213 0.844121 10.2918 0.88024C10.3622 0.916358 10.4231 0.968696 10.4694 1.03295C10.5157 1.09719 10.546 1.17152 10.558 1.2498C10.5699 1.32807 10.5631 1.40807 10.5381 1.4832L8.75807 6.8252H12.5641C12.6577 6.82513 12.7495 6.85136 12.8289 6.90089C12.9084 6.95043 12.9723 7.02128 13.0135 7.10538C13.0547 7.18948 13.0714 7.28345 13.0618 7.37659C13.0521 7.46973 13.0166 7.55829 12.9591 7.6322L5.95907 16.6322C5.88736 16.7248 5.7854 16.7894 5.67098 16.8145C5.55655 16.8396 5.43693 16.8238 5.33299 16.7697C5.22905 16.7157 5.14739 16.6269 5.10227 16.5187C5.05714 16.4106 5.05141 16.2901 5.08607 16.1782L6.88707 10.3252H3.56407C3.48634 10.3252 3.40966 10.3072 3.34014 10.2724C3.27061 10.2376 3.21015 10.1871 3.16356 10.1249C3.11696 10.0627 3.08552 9.99044 3.07172 9.91394C3.05792 9.83744 3.06215 9.75878 3.08407 9.6842L5.58407 1.1842Z" fill="white"/>
</g>
</g>
<defs>
<clipPath id="clip0_3093_2714">
<rect width="16" height="16" fill="white" transform="translate(0.0640869 0.825195)"/>
</clipPath>
<clipPath id="clip1_3093_2714">
<rect width="16" height="16" fill="white" transform="translate(0.0640869 0.825195)"/>
</clipPath>
</defs>
</svg>
