<svg width="17" height="17" viewBox="0 0 17 17" fill="none" xmlns="http://www.w3.org/2000/svg">
<g clip-path="url(#clip0_3093_2649)">
<rect width="16" height="16" transform="translate(0.479736 0.772461)" fill="white" fill-opacity="0.01"/>
<g clip-path="url(#clip1_3093_2649)">
<path d="M9.47974 5.77246C9.47974 6.56811 9.16367 7.33117 8.60106 7.89378C8.03845 8.45639 7.27539 8.77246 6.47974 8.77246C5.68409 8.77246 4.92103 8.45639 4.35842 7.89378C3.79581 7.33117 3.47974 6.56811 3.47974 5.77246C3.47974 4.97681 3.79581 4.21375 4.35842 3.65114C4.92103 3.08853 5.68409 2.77246 6.47974 2.77246C7.27539 2.77246 8.03845 3.08853 8.60106 3.65114C9.16367 4.21375 9.47974 4.97681 9.47974 5.77246ZM0.479736 13.7725C0.479736 14.7725 1.47974 14.7725 1.47974 14.7725H11.4797C11.4797 14.7725 12.4797 14.7725 12.4797 13.7725C12.4797 12.7725 11.4797 9.77246 6.47974 9.77246C1.47974 9.77246 0.479736 12.7725 0.479736 13.7725ZM13.9797 5.68246C15.3667 4.25746 18.8347 6.75246 13.9797 9.95946C9.12574 6.75246 12.5927 4.25746 13.9797 5.68346V5.68246Z" fill="white"/>
</g>
</g>
<defs>
<clipPath id="clip0_3093_2649">
<rect width="16" height="16" fill="white" transform="translate(0.479736 0.772461)"/>
</clipPath>
<clipPath id="clip1_3093_2649">
<rect width="16" height="16" fill="white" transform="translate(0.479736 0.772461)"/>
</clipPath>
</defs>
</svg>
