<svg width="17" height="17" viewBox="0 0 17 17" fill="none" xmlns="http://www.w3.org/2000/svg">
<g clip-path="url(#clip0_3093_2152)">
<rect width="16" height="16" transform="translate(0.0640869 0.719727)" fill="white" fill-opacity="0.01"/>
<g clip-path="url(#clip1_3093_2152)">
<path fill-rule="evenodd" clip-rule="evenodd" d="M8.06409 0.719727C3.64809 0.719727 0.0640869 4.30373 0.0640869 8.71973C0.0640869 13.1357 3.64809 16.7197 8.06409 16.7197C12.4721 16.7197 16.0641 13.1357 16.0641 8.71973C16.0641 4.30373 12.4721 0.719727 8.06409 0.719727ZM13.3481 4.40773C14.3329 5.607 14.8781 7.10697 14.8931 8.65873C14.6671 8.61573 12.4111 8.15573 10.1381 8.44173C10.0861 8.32973 10.0421 8.20773 9.99009 8.08673C9.85109 7.75673 9.69509 7.41873 9.53909 7.09673C12.0551 6.07373 13.2011 4.59873 13.3491 4.40673L13.3481 4.40773ZM8.06409 1.89973C9.79909 1.89973 11.3871 2.54973 12.5941 3.61773C12.4721 3.79173 11.4391 5.17073 9.01009 6.08173C7.89009 4.02573 6.65009 2.34173 6.45909 2.08173C6.98519 1.95888 7.52383 1.8978 8.06409 1.89973ZM5.15709 2.54173C6.07276 3.81077 6.91868 5.12872 7.69109 6.48973C4.49809 7.33973 1.67809 7.32273 1.37409 7.32273C1.59394 6.28845 2.04974 5.31894 2.70594 4.48981C3.36213 3.66067 4.20099 2.99432 5.15709 2.54273V2.54173ZM1.22709 8.72973V8.51973C1.52209 8.52973 4.83709 8.57273 8.24709 7.54873C8.44609 7.92973 8.62809 8.32073 8.80209 8.71073L8.53209 8.78873C5.01009 9.92573 3.13609 13.0317 2.97909 13.2927C1.85091 12.0403 1.22674 10.4143 1.22709 8.72873V8.72973ZM8.06409 15.5567C6.54564 15.5591 5.07027 15.0521 3.87409 14.1167C3.99409 13.8647 5.38309 11.1927 9.23509 9.84773C9.25309 9.83873 9.26109 9.83873 9.27909 9.83073C9.92849 11.5071 10.4164 13.2416 10.7361 15.0107C9.89208 15.3734 8.98271 15.5592 8.06409 15.5567ZM11.8741 14.3857C11.8041 13.9687 11.4391 11.9737 10.5461 9.51773C12.6891 9.17973 14.5631 9.73473 14.7971 9.81273C14.6513 10.7354 14.3163 11.6179 13.8131 12.4049C13.3099 13.1919 12.6494 13.8663 11.8731 14.3857H11.8741Z" fill="white"/>
</g>
</g>
<defs>
<clipPath id="clip0_3093_2152">
<rect width="16" height="16" fill="white" transform="translate(0.0640869 0.719727)"/>
</clipPath>
<clipPath id="clip1_3093_2152">
<rect width="16" height="16" fill="white" transform="translate(0.0640869 0.719727)"/>
</clipPath>
</defs>
</svg>
