<svg width="17" height="17" viewBox="0 0 17 17" fill="none" xmlns="http://www.w3.org/2000/svg">
<g clip-path="url(#clip0_3093_2863)">
<rect width="16" height="16" transform="translate(0.954712 0.282227)" fill="white" fill-opacity="0.01"/>
<g clip-path="url(#clip1_3093_2863)">
<path d="M0.954712 5.28227C0.954956 6.43947 1.35643 7.5608 2.09072 8.45519C2.82502 9.34958 3.8467 9.9617 4.98171 10.1873C5.04636 9.4708 5.23022 8.77016 5.52571 8.11427C4.64971 7.81827 4.08671 7.14627 3.95471 6.19227H3.45471V5.76627H3.92071V5.33227C3.92071 5.28627 3.92071 5.23927 3.92471 5.19727H3.45471V4.77027H3.96571C4.19071 3.52227 5.16771 2.78227 6.63571 2.78227C6.95171 2.78227 7.22571 2.81327 7.45471 2.86727V3.60027C7.18725 3.54076 6.91367 3.51324 6.63971 3.51827C5.72071 3.51827 5.10171 3.98427 4.90571 4.77027H6.82271V5.19727H4.84271C4.83971 5.24327 4.83971 5.29427 4.83971 5.34427V5.76627H6.82271V6.19327H4.88471C5.00271 6.79527 5.35271 7.22327 5.88971 7.42227C6.41625 6.55023 7.14038 5.81415 8.00369 5.27342C8.86699 4.73268 9.84531 4.40241 10.8597 4.30927C10.6145 3.09478 9.92719 2.01453 8.93104 1.27778C7.93488 0.541029 6.70074 0.200207 5.46767 0.321335C4.23461 0.442463 3.09037 1.01692 2.25662 1.93343C1.42287 2.84994 0.958949 4.04327 0.954712 5.28227H0.954712ZM16.9547 10.7823C16.9547 12.241 16.3752 13.6399 15.3438 14.6714C14.3123 15.7028 12.9134 16.2823 11.4547 16.2823C9.99602 16.2823 8.59707 15.7028 7.56562 14.6714C6.53417 13.6399 5.95471 12.241 5.95471 10.7823C5.95471 9.32358 6.53417 7.92463 7.56562 6.89318C8.59707 5.86173 9.99602 5.28227 11.4547 5.28227C12.9134 5.28227 14.3123 5.86173 15.3438 6.89318C16.3752 7.92463 16.9547 9.32358 16.9547 10.7823ZM9.20471 12.1043C9.27371 12.9393 9.95071 13.5893 11.1687 13.6663V14.2823H11.7087V13.6623C12.9677 13.5763 13.7047 12.9223 13.7047 11.9723C13.7047 11.1073 13.1417 10.6623 12.1347 10.4323L11.7087 10.3323V8.65627C12.2487 8.71627 12.5927 9.00327 12.6747 9.40127H13.6227C13.5527 8.59727 12.8437 7.96827 11.7087 7.89927V7.28227H11.1687V7.91127C10.0927 8.01427 9.36071 8.64327 9.36071 9.53327C9.36071 10.3203 9.90471 10.8213 10.8107 11.0263L11.1687 11.1113V12.8913C10.6147 12.8113 10.2487 12.5153 10.1657 12.1043H9.20471ZM11.1647 10.2093C10.6327 10.0893 10.3447 9.84527 10.3447 9.47727C10.3447 9.06727 10.6557 8.75827 11.1687 8.66827V10.2083H11.1637L11.1647 10.2093ZM11.7867 11.2533C12.4317 11.3983 12.7297 11.6333 12.7297 12.0493C12.7297 12.5233 12.3597 12.8493 11.7097 12.9093V11.2353L11.7867 11.2533Z" fill="white"/>
</g>
</g>
<defs>
<clipPath id="clip0_3093_2863">
<rect width="16" height="16" fill="white" transform="translate(0.954712 0.282227)"/>
</clipPath>
<clipPath id="clip1_3093_2863">
<rect width="16" height="16" fill="white" transform="translate(0.954712 0.282227)"/>
</clipPath>
</defs>
</svg>
