<svg width="17" height="17" viewBox="0 0 17 17" fill="none" xmlns="http://www.w3.org/2000/svg">
<g clip-path="url(#clip0_3093_2015)">
<rect width="16" height="16" transform="translate(0.954712 0.387695)" fill="white" fill-opacity="0.01"/>
<g clip-path="url(#clip1_3093_2015)">
<path d="M7.10116 12.5341C7.0074 12.6279 6.95472 12.755 6.95472 12.8876C6.95472 13.0203 7.0074 13.1474 7.10116 13.2412C7.19493 13.335 7.32211 13.3876 7.45472 13.3876H10.4547C10.5873 13.3876 10.7145 13.335 10.8083 13.2412C10.902 13.1474 10.9547 13.0203 10.9547 12.8876C10.9547 12.755 10.902 12.6279 10.8083 12.5341C10.7145 12.4403 10.5873 12.3876 10.4547 12.3876H7.45472C7.32211 12.3876 7.19493 12.4403 7.10116 12.5341Z" fill="white"/>
<path fill-rule="evenodd" clip-rule="evenodd" d="M6.48472 6.27364C5.18972 6.15264 3.95472 7.14764 3.95472 8.44964V9.60664C3.95063 9.8279 4.02533 10.0434 4.16546 10.2147C4.30559 10.3859 4.50204 10.5018 4.71972 10.5416C5.56472 10.6876 7.05972 10.8876 8.95472 10.8876C10.8497 10.8876 12.3447 10.6886 13.1897 10.5416C13.4074 10.5018 13.6038 10.3859 13.744 10.2147C13.8841 10.0434 13.9588 9.8279 13.9547 9.60664V8.44964C13.9547 7.14764 12.7197 6.15264 11.4247 6.27364C9.78162 6.427 8.12781 6.427 6.48472 6.27364ZM8.38004 7.63054C8.41776 7.61872 8.45775 7.61601 8.49672 7.62264C8.53554 7.62922 8.57227 7.64488 8.60389 7.66834C8.63552 7.6918 8.66116 7.7224 8.67872 7.75764L9.52072 9.45764L10.2747 8.67264C10.3185 8.62729 10.3778 8.60014 10.4407 8.59664C11.2137 8.55264 11.8827 8.48164 12.4207 8.40764C12.4851 8.40125 12.5494 8.42005 12.6002 8.46009C12.651 8.50014 12.6843 8.55831 12.6931 8.62239C12.7019 8.68647 12.6855 8.75147 12.6474 8.80373C12.6093 8.85599 12.5524 8.89145 12.4887 8.90264C11.8507 8.98976 11.2095 9.05247 10.5667 9.09064L9.63472 10.0606C9.60694 10.0895 9.57263 10.1113 9.53468 10.1241C9.49672 10.137 9.45624 10.1405 9.41664 10.1344C9.37704 10.1283 9.33948 10.1128 9.30712 10.0892C9.27476 10.0656 9.24856 10.0345 9.23072 9.99864L8.38372 8.28864L7.62972 9.02464C7.60488 9.04897 7.57525 9.06785 7.5427 9.08007C7.51016 9.0923 7.47543 9.0976 7.44072 9.09564C6.65272 9.05164 5.97072 8.97864 5.42072 8.90264C5.35701 8.89145 5.30013 8.85599 5.26201 8.80373C5.2239 8.75147 5.20752 8.68647 5.21632 8.62239C5.22513 8.55831 5.25842 8.50014 5.30922 8.46009C5.36001 8.42005 5.42435 8.40125 5.48872 8.40764C6.10984 8.4923 6.73396 8.55334 7.35972 8.59064L8.27972 7.69064C8.30794 7.66296 8.34232 7.64236 8.38004 7.63054Z" fill="white"/>
<path fill-rule="evenodd" clip-rule="evenodd" d="M9.87859 1.77038C9.79435 1.97376 9.64535 2.14365 9.45471 2.25372V3.38772H11.4547C12.6482 3.38772 13.7928 3.86183 14.6367 4.70574C15.4806 5.54965 15.9547 6.69425 15.9547 7.88772V8.38772C16.2199 8.38772 16.4743 8.49308 16.6618 8.68061C16.8494 8.86815 16.9547 9.1225 16.9547 9.38772V11.3877C16.9547 11.6529 16.8494 11.9073 16.6618 12.0948C16.4743 12.2824 16.2199 12.3877 15.9547 12.3877V13.3877C15.9547 13.9182 15.744 14.4269 15.3689 14.8019C14.9939 15.177 14.4851 15.3877 13.9547 15.3877H3.95471C3.42428 15.3877 2.91557 15.177 2.5405 14.8019C2.16543 14.4269 1.95471 13.9182 1.95471 13.3877V12.3877C1.6895 12.3877 1.43514 12.2824 1.24761 12.0948C1.06007 11.9073 0.954712 11.6529 0.954712 11.3877V9.38772C0.954712 9.1225 1.06007 8.86815 1.24761 8.68061C1.43514 8.49308 1.6895 8.38772 1.95471 8.38772V7.88772C1.95471 6.69425 2.42882 5.54965 3.27273 4.70574C4.11664 3.86183 5.26124 3.38772 6.45471 3.38772H8.45471V2.25372C8.26407 2.14365 8.11507 1.97376 8.03083 1.77038C7.94659 1.567 7.93181 1.34151 7.98879 1.12888C8.04576 0.916243 8.17131 0.728351 8.34595 0.594342C8.52059 0.460333 8.73458 0.387695 8.95471 0.387695C9.17485 0.387695 9.38883 0.460333 9.56347 0.594342C9.73812 0.728351 9.86366 0.916243 9.92064 1.12888C9.97761 1.34151 9.96283 1.567 9.87859 1.77038ZM14.9547 13.3877V7.88772C14.9547 6.95946 14.586 6.06922 13.9296 5.41285C13.2732 4.75647 12.383 4.38772 11.4547 4.38772H6.45471C5.52645 4.38772 4.63622 4.75647 3.97984 5.41285C3.32346 6.06922 2.95471 6.95946 2.95471 7.88772V13.3877C2.95471 13.6529 3.06007 13.9073 3.24761 14.0948C3.43514 14.2824 3.6895 14.3877 3.95471 14.3877H13.9547C14.2199 14.3877 14.4743 14.2824 14.6618 14.0948C14.8494 13.9073 14.9547 13.6529 14.9547 13.3877Z" fill="white"/>
</g>
</g>
<defs>
<clipPath id="clip0_3093_2015">
<rect width="16" height="16" fill="white" transform="translate(0.954712 0.387695)"/>
</clipPath>
<clipPath id="clip1_3093_2015">
<rect width="16" height="16" fill="white" transform="translate(0.954712 0.387695)"/>
</clipPath>
</defs>
</svg>
