<svg width="17" height="17" viewBox="0 0 17 17" fill="none" xmlns="http://www.w3.org/2000/svg">
<g clip-path="url(#clip0_3093_2606)">
<rect width="16" height="16" transform="translate(0.479736 0.845703)" fill="white" fill-opacity="0.01"/>
<g clip-path="url(#clip1_3093_2606)">
<path d="M4.47974 5.3457C4.47974 5.21309 4.53242 5.08592 4.62619 4.99215C4.71995 4.89838 4.84713 4.8457 4.97974 4.8457H6.47974C6.61235 4.8457 6.73953 4.89838 6.83329 4.99215C6.92706 5.08592 6.97974 5.21309 6.97974 5.3457C6.97974 5.47831 6.92706 5.60549 6.83329 5.69926C6.73953 5.79302 6.61235 5.8457 6.47974 5.8457V6.3457H10.6197L11.0057 5.1877C11.0389 5.08818 11.1025 5.0016 11.1876 4.94023C11.2726 4.87885 11.3748 4.84578 11.4797 4.8457H12.4797C12.6123 4.8457 12.7395 4.89838 12.8333 4.99215C12.9271 5.08592 12.9797 5.21309 12.9797 5.3457C12.9797 5.47831 12.9271 5.60549 12.8333 5.69926C12.7395 5.79302 12.6123 5.8457 12.4797 5.8457H11.8397L11.5287 6.7807L12.3357 8.0707C13.0311 7.78392 13.8089 7.76884 14.5149 8.02846C15.2209 8.28808 15.8036 8.80345 16.1475 9.47243C16.4915 10.1414 16.5715 10.9152 16.3719 11.6404C16.1722 12.3657 15.7074 12.9894 15.0695 13.3881C14.4316 13.7868 13.6672 13.9313 12.9278 13.793C12.1885 13.6546 11.528 13.2436 11.0774 12.6413C10.6268 12.039 10.4188 11.2894 10.4949 10.541C10.5709 9.79263 10.9252 9.10012 11.4877 8.6007L10.9797 7.7887L8.90374 11.1107C8.85879 11.1826 8.7963 11.2419 8.72213 11.283C8.64795 11.3241 8.56454 11.3457 8.47974 11.3457H6.43874C6.33503 11.9589 6.04332 12.5247 5.60396 12.9649C5.1646 13.405 4.59931 13.6977 3.9863 13.8025C3.37329 13.9073 2.74286 13.819 2.18223 13.5498C1.6216 13.2807 1.15848 12.8439 0.856952 12.3C0.555422 11.7561 0.430383 11.1319 0.499134 10.5138C0.567885 9.89569 0.827027 9.31424 1.24071 8.84988C1.65439 8.38551 2.20216 8.06119 2.80824 7.92178C3.41432 7.78237 4.04874 7.83476 4.62374 8.0717L5.47974 6.7017V5.8457H4.97974C4.84713 5.8457 4.71995 5.79302 4.62619 5.69926C4.53242 5.60549 4.47974 5.47831 4.47974 5.3457ZM5.97974 7.7887L5.47174 8.6027C5.97174 9.0467 6.32174 9.6567 6.43874 10.3457H7.57774L5.97974 7.7887ZM8.47974 9.9027L10.0777 7.3457H6.88174L8.47974 9.9027ZM5.41674 10.3457C5.33167 10.0167 5.16405 9.71484 4.92974 9.4687L4.38174 10.3457H5.41674ZM4.08274 8.9377C3.70125 8.81723 3.2924 8.81393 2.90902 8.92824C2.52564 9.04255 2.18535 9.2692 1.93212 9.57891C1.6789 9.88863 1.52437 10.2672 1.48851 10.6656C1.45266 11.0641 1.53712 11.4641 1.73099 11.8141C1.92485 12.164 2.21921 12.4478 2.57603 12.6287C2.93284 12.8096 3.33571 12.8793 3.73258 12.8289C4.12945 12.7785 4.50207 12.6102 4.8023 12.3458C5.10252 12.0814 5.31656 11.733 5.41674 11.3457H3.47974C3.39049 11.3457 3.30286 11.3218 3.22596 11.2765C3.14906 11.2312 3.08568 11.1662 3.04242 11.0881C2.99915 11.01 2.97757 10.9218 2.97991 10.8326C2.98225 10.7434 3.00844 10.6564 3.05574 10.5807L4.08274 8.9377ZM12.0297 9.4677C11.6946 9.82071 11.4996 10.2838 11.4815 10.7703C11.4633 11.2567 11.6232 11.7331 11.9312 12.1101C12.2391 12.4871 12.674 12.7388 13.1543 12.8181C13.6346 12.8974 14.1273 12.7988 14.5401 12.5408C14.9529 12.2828 15.2574 11.8832 15.3966 11.4167C15.5358 10.9502 15.5 10.449 15.2961 10.007C15.0922 9.56499 14.7341 9.21252 14.2889 9.01567C13.8436 8.81882 13.3419 8.7911 12.8777 8.9377L13.9037 10.5807C13.9385 10.6364 13.962 10.6984 13.9729 10.7631C13.9837 10.8279 13.9817 10.8942 13.9669 10.9581C13.9522 11.0221 13.9249 11.0826 13.8868 11.136C13.8487 11.1895 13.8004 11.2349 13.7447 11.2697C13.6891 11.3045 13.6271 11.328 13.5623 11.3388C13.4976 11.3497 13.4313 11.3477 13.3673 11.3329C13.3033 11.3181 13.2429 11.2909 13.1894 11.2528C13.136 11.2147 13.0905 11.1664 13.0557 11.1107L12.0297 9.4687V9.4677Z" fill="white"/>
</g>
</g>
<defs>
<clipPath id="clip0_3093_2606">
<rect width="16" height="16" fill="white" transform="translate(0.479736 0.845703)"/>
</clipPath>
<clipPath id="clip1_3093_2606">
<rect width="16" height="16" fill="white" transform="translate(0.479736 0.845703)"/>
</clipPath>
</defs>
</svg>
