<svg width="71" height="71" viewBox="0 0 71 71" fill="none" xmlns="http://www.w3.org/2000/svg">
<path d="M1.5 35.5C1.5 30.6387 2.52025 26.0156 4.35831 21.8333C9.62006 9.8608 21.5836 1.5 35.5 1.5C54.2777 1.5 69.5 16.7223 69.5 35.5C69.5 54.2777 54.2777 69.5 35.5 69.5C26.3004 69.5 17.9542 65.8463 11.8333 59.9109L32.5 37.8639M32.5 37.8639C35.0811 40.1277 38.4636 41.5 42.1667 41.5C50.2668 41.5 56.8333 34.9335 56.8333 26.8333C56.8333 18.7332 50.2668 12.1667 42.1667 12.1667C34.0665 12.1667 27.5 18.7332 27.5 26.8333C27.5 31.2305 29.435 35.1757 32.5 37.8639Z" stroke="#1A3185" stroke-width="3" stroke-linecap="round"/>
</svg>
