<svg width="71" height="71" viewBox="0 0 71 71" fill="none" xmlns="http://www.w3.org/2000/svg">
<path d="M69.5 34.8333C69.5 39.5659 68.5331 44.7392 66.7861 48.8333M69.5 34.8333C69.5 31.2305 68.9396 28.4253 67.9013 25.1667M69.5 34.8333H63.9221M63.9221 16.8333C57.8436 7.59688 47.3838 1.5 35.5 1.5C16.7223 1.5 1.5 16.7223 1.5 35.5C1.5 40.2325 2.46691 44.7392 4.21395 48.8333M63.9221 16.8333H28.1667C27.0621 16.8333 26.1667 17.7288 26.1667 18.8333V46.8333C26.1667 47.9379 27.0621 48.8333 28.1667 48.8333H35H43.8333M63.9221 16.8333C65.6055 19.3913 66.9528 22.19 67.9013 25.1667M51.5 48.8333H43.8333M43.8333 48.8333L48.5 58.5L66.7861 48.8333M66.7861 48.8333C61.6012 60.9837 49.5451 69.5 35.5 69.5C32.2633 69.5 29.1323 69.0477 26.1667 68.203M46.8333 25.1667H57.5M61.1667 25.1667H67.9013M46.8333 34.8333H58.1667M46.8333 42.5H61.1667M36.5 31.197C38.2673 31.197 39.7 29.786 39.7 28.0455C39.7 26.3049 38.2673 24.8939 36.5 24.8939C34.7327 24.8939 33.3 26.3049 33.3 28.0455C33.3 29.786 34.7327 31.197 36.5 31.197ZM36.5 31.5909C38.4882 31.5909 40.1 30.0036 40.1 28.0455C40.1 26.0874 38.4882 24.5 36.5 24.5C34.5118 24.5 32.9 26.0874 32.9 28.0455C32.9 30.0036 34.5118 31.5909 36.5 31.5909ZM32.9645 37.018C33.9022 36.0946 35.1739 35.5758 36.5 35.5758C37.8261 35.5758 39.0979 36.0946 40.0355 37.018C40.9732 37.9415 41.5 39.194 41.5 40.5H41.1C41.1 39.2985 40.6154 38.1462 39.7527 37.2966C38.89 36.447 37.72 35.9697 36.5 35.9697C35.28 35.9697 34.11 36.447 33.2473 37.2966C32.3846 38.1462 31.9 39.2985 31.9 40.5H31.5C31.5 39.194 32.0268 37.9415 32.9645 37.018Z" stroke="#1A3185" stroke-width="3" stroke-linecap="round"/>
</svg>
