<svg width="71" height="71" viewBox="0 0 71 71" fill="none" xmlns="http://www.w3.org/2000/svg">
<path d="M1.5 35.5C1.5 26.4333 5.04889 18.1956 10.8333 12.1M66.9262 22.5C61.8209 10.1723 49.6732 1.5 35.5 1.5C28.6061 1.5 23.5248 2.21841 18.1667 5.74458M66.9262 22.5C68.5847 26.5049 69.5 30.8956 69.5 35.5C69.5 36.6247 69.4454 37.7366 69.3387 38.8333M66.9262 22.5C66.9262 22.5 49.6537 15.2448 31.1667 20.2767C29.0634 20.8491 26.9444 21.5807 24.8333 22.5C26.6149 24.9414 27.6911 28.1911 28.2715 31.8333C30.6229 46.5908 24.8333 67.7932 24.8333 67.7932C28.1881 68.9007 31.7741 69.5 35.5 69.5C49.6732 69.5 61.8209 60.8277 66.9262 48.5M36.1667 30.1667H48.8333M53.1667 30.1667H56.8333M61.1667 30.1667H66.9262M38.8333 38.8333H45.8333M48.8333 38.8333H53.8333M57.8333 38.8333C61.6685 38.8333 69.3387 38.8333 69.3387 38.8333M69.3387 38.8333C69.0085 42.2264 68.1796 45.4734 66.9262 48.5M34.5 48.5H52.1667M55.5 48.5L66.9262 48.5M18.1667 5.74458V23.5M18.1667 5.74458C15.9771 7.18552 12.6306 10.206 10.8333 12.1M18.1667 23.5L14.8333 36.8333L10.8333 24.8333M18.1667 23.5L10.8333 24.8333M10.8333 24.8333V12.1" stroke="#1A3185" stroke-width="3" stroke-linejoin="round"/>
</svg>
